<svg width="39" height="39" viewBox="0 0 39 39" fill="none" xmlns="http://www.w3.org/2000/svg">
<path d="M19.5 1.95C29.1769 1.95 37.05 9.82312 37.05 19.5C37.05 29.1769 29.1769 37.05 19.5 37.05C9.82312 37.05 1.95 29.1769 1.95 19.5C1.95 9.82312 9.82312 1.95 19.5 1.95ZM19.5 0C8.73112 0 0 8.73015 0 19.5C0 30.2708 8.73112 39 19.5 39C30.2708 39 39 30.2708 39 19.5C39 8.73015 30.2708 0 19.5 0Z" fill="#959595"/>
<path fill-rule="evenodd" clip-rule="evenodd" d="M14.0108 9.54814C15.1877 9.32584 15.9589 10.6528 16.5458 11.5683C17.1172 12.4575 17.8202 13.5008 17.5364 14.6581C17.3785 15.3075 16.7915 15.6614 16.3479 16.0446C15.9101 16.4229 15.2432 16.77 15.0814 17.3511C14.8172 18.2939 15.3953 19.2835 15.7532 19.8471C16.5663 21.1204 17.5491 22.268 18.8039 23.2927C19.4114 23.79 20.2547 24.4539 21.1001 24.2833C22.3627 24.0279 22.6961 22.4708 24.0709 22.2631C25.3793 22.0652 26.2646 23.0139 27.0037 23.6496C27.7154 24.2648 28.864 25.0526 28.786 26.1066C28.7402 26.712 28.2546 27.0874 27.8334 27.453C27.4054 27.8265 27.03 28.2457 26.6069 28.5216C25.5821 29.1905 24.3254 29.5181 22.8824 29.4732C21.4676 29.4294 20.3405 28.9487 19.3178 28.4037C17.318 27.337 15.7376 25.8365 14.2487 24.1644C12.7843 22.5205 11.432 20.5744 10.6841 18.4226C9.75107 15.7355 10.2444 12.9753 11.7547 11.2534C12.0101 10.9609 12.4138 10.6557 12.7833 10.3418C13.1519 10.0269 13.4931 9.64564 14.0108 9.54814Z" fill="#959595"/>
</svg>
