<?xml version="1.0" standalone="no"?>
<!DOCTYPE svg PUBLIC "-//W3C//DTD SVG 1.1//EN" "http://www.w3.org/Graphics/SVG/1.1/DTD/svg11.dtd" >
<svg xmlns="http://www.w3.org/2000/svg" xmlns:xlink="http://www.w3.org/1999/xlink" version="1.1">
<metadata>
Created by FontForge 20201107 at Mon May 26 20:47:46 2014
 By 
Copyright (c) 2014 by S-Core Co., Ltd.. All rights reserved.
</metadata>
<defs>
<font id="CoreNaraeProW01-Pro" horiz-adv-x="536" >
  <font-face 
    font-family="CoreNaraeProW01-Pro"
    font-weight="400"
    font-stretch="normal"
    units-per-em="1000"
    panose-1="3 5 5 0 4 4 0 2 1 0"
    ascent="800"
    descent="-200"
    x-height="496"
    cap-height="704.5"
    bbox="-78 -246 1000 928.25"
    underline-thickness="50"
    underline-position="-257"
    unicode-range="U+0002-2122"
  />
<missing-glyph horiz-adv-x="300" 
 />
    <glyph glyph-name=".notdef" horiz-adv-x="300" 
 />
    <glyph glyph-name=".null" horiz-adv-x="0" 
 />
    <glyph glyph-name="nonmarkingreturn" horiz-adv-x="333" 
 />
    <glyph glyph-name="uni0008" horiz-adv-x="0" 
 />
    <glyph glyph-name="uni0008" horiz-adv-x="0" 
 />
    <glyph glyph-name="uni0008" horiz-adv-x="0" 
 />
    <glyph glyph-name="uni0002" horiz-adv-x="0" 
 />
    <glyph glyph-name="uni0009" unicode="&#x9;" horiz-adv-x="237" 
 />
    <glyph glyph-name="uni0009" unicode="&#xd;" horiz-adv-x="237" 
 />
    <glyph glyph-name="uni000A" unicode="&#xa;" horiz-adv-x="0" 
 />
    <glyph glyph-name="space" unicode=" " horiz-adv-x="300" 
 />
    <glyph glyph-name="exclam" unicode="!" horiz-adv-x="308" 
d="M111 637q5 34 14.5 52.5t36.5 18.5q23 0 29.5 -14t4.5 -34q-14 -113 -16.5 -213t6.5 -195q3 -30 -5 -50t-28 -20q-21 0 -31 14.5t-13 31.5q-14 102 -13 207t15 202zM156 97q23 0 39.5 -13.5t16.5 -47.5q0 -20 -13 -32.5t-32 -12.5q-31 0 -48 15.5t-17 44.5q0 46 54 46z
" />
    <glyph glyph-name="quotedbl" unicode="&#x22;" horiz-adv-x="414" 
d="M90 481q-23 0 -28 17.5t6 40.5q7 14 14.5 33t14 39t11.5 39.5t8 35.5q2 10 9 17.5t20 7.5q34 0 43 -20.5t4 -46.5q-5 -32 -18 -66.5t-32 -61.5q-13 -19 -25.5 -27t-26.5 -8zM250 481q-24 0 -29.5 17t7.5 41q7 12 14 30t13.5 38t12 40t8.5 38q3 26 32 26q53 0 44 -62
q-6 -35 -19 -67.5t-29 -59.5q-26 -41 -54 -41z" />
    <glyph glyph-name="numbersign" unicode="#" horiz-adv-x="563" 
d="M468 221q-15 -2 -30.5 -2.5t-31.5 -2.5q-2 -28 -4 -54t-4 -50q-2 -20 -14.5 -30t-30.5 -10q-19 0 -23 12t-2 28q2 23 2.5 48.5t1.5 52.5q-57 -3 -113 -3q1 -29 2 -56.5t3 -53.5q2 -16 -2 -28t-23 -12q-18 0 -30.5 10t-14.5 30q-3 26 -5.5 53.5t-4.5 56.5h-16t-16 1
q-39 1 -57.5 7t-18.5 30q0 14 9.5 23.5t34.5 9.5q15 -1 30 -1h30q-1 31 -1.5 63t0.5 65q-7 0 -13.5 -0.5t-13.5 -0.5q-39 -2 -57.5 3.5t-18.5 29.5q0 14 9.5 24t34.5 12l30 2t31 2q1 26 3 53t5 55q3 30 31 30q26 0 37.5 -19t9.5 -39q-5 -40 -6 -77q26 1 52 1h52
q-1 21 -2 41.5t-3 40.5t9.5 39t37.5 19q13 0 21.5 -7.5t9.5 -22.5q2 -29 3.5 -56t3.5 -55q24 -1 46.5 -1.5t45.5 -1.5q30 -2 30 -28q0 -23 -18 -29.5t-41 -6.5h-60q2 -69 0 -134q23 0 45 0.5t44 1.5q30 0 30 -24q0 -23 -18 -30t-41 -9zM218 412q-2 -34 -2 -67t1 -65h115
q-1 33 -1.5 66.5t-2.5 67.5q-28 0 -55.5 -0.5t-54.5 -1.5z" />
    <glyph glyph-name="dollar" unicode="$" horiz-adv-x="598" 
d="M93 120q41 -26 88 -40t98 -16q-5 67 -8.5 133t-4.5 132q-47 23 -80 46t-53.5 47.5t-30 53t-9.5 61.5q0 75 48 121.5t140 54.5q4 27 16 44.5t34 17.5q25 0 20 -55q0 -2 -0.5 -4.5t-0.5 -4.5q35 -4 67 -13.5t54 -23.5q11 -7 14.5 -15t3.5 -20q0 -15 -16 -25t-38 1
q-15 9 -39 16t-50 10q-3 -65 -4.5 -128t-2.5 -126q3 -2 6.5 -2.5t6.5 -2.5q92 -39 139 -86.5t47 -125.5q0 -73 -48 -121.5t-136 -59.5q1 -4 1 -7.5t1 -7.5q3 -31 -3.5 -49.5t-31.5 -18.5q-10 0 -18 8t-11 31q-2 11 -3 21t-2 21q-57 2 -108 15t-93 38q-14 9 -25 23.5
t-11 34.5t15 25t28 -3zM348 68q51 9 78 34t27 65t-26.5 70t-86.5 59q1 -60 3 -116.5t5 -111.5zM275 639q-49 -8 -70 -32.5t-21 -66.5q0 -37 21 -65t62 -52q1 54 3 108t5 108z" />
    <glyph glyph-name="percent" unicode="%" horiz-adv-x="860" 
d="M156 44q114 137 215 294.5t189 333.5q26 50 48 40q22 -9 31 -35t-5 -55q-86 -170 -181 -320t-209 -285q-26 -30 -54 -35.5t-42 6.5q-11 8 -8.5 24t16.5 32zM210 619q-19 0 -32 -7q-9 -18 -15 -34.5t-10 -33.5t-5.5 -36.5t-1.5 -44.5q0 -38 9 -58.5t29 -20.5t35.5 12
t26 33.5t15.5 50.5t5 63q0 43 -15 59.5t-41 16.5zM211 675q27 2 52 -5.5t44 -24.5t30 -42t11 -58q0 -47 -11.5 -89t-34 -73.5t-55 -50.5t-74.5 -19q-48 0 -80.5 36t-32.5 102q0 35 5.5 71t17.5 69.5t29.5 63.5t41.5 54q7 8 21 12.5t23 4.5q18 0 22 -18t-9 -33zM660 288
q-9 0 -16.5 -2t-15.5 -5q-9 -18 -15 -34.5t-10 -33.5t-5.5 -36.5t-1.5 -44.5q0 -38 7 -56.5t26 -18.5q41 0 64.5 37.5t23.5 105.5q0 52 -15.5 70t-41.5 18zM662 343q27 3 52 -5t44 -26t30.5 -46t11.5 -66q0 -46 -12 -85t-34.5 -67.5t-55 -44.5t-74.5 -16q-54 0 -85 38
t-31 96q0 69 21 121t53 96q11 16 27 25t33 9q12 0 18 -5.5t6 -12.5q0 -6 -4 -11z" />
    <glyph glyph-name="ampersand" unicode="&#x26;" horiz-adv-x="627" 
d="M449 125q47 36 79 87q8 11 17 18.5t21 7.5q5 0 11 -2t10.5 -7.5t4.5 -15t-7 -23.5q-16 -31 -37 -59.5t-47 -53.5l24 -20t25 -20q10 -8 13 -16.5t1.5 -16t-7.5 -12.5t-15 -5q-37 0 -68 24q-8 5 -14.5 11t-14.5 11q-35 -22 -77.5 -34.5t-91.5 -12.5q-48 0 -86 14t-65 37.5
t-41 54t-14 64.5q0 57 28.5 102t90.5 91q-22 48 -34 94t-12 91q0 41 14 74t37.5 56.5t54.5 36t65 12.5q37 0 65 -11t47 -30t28.5 -44.5t9.5 -54.5q0 -64 -41 -125.5t-131 -125.5q29 -52 68.5 -101t88.5 -96zM229 276q-37 -29 -52.5 -53t-15.5 -56q0 -46 29.5 -78.5
t82.5 -32.5q58 0 114 29q-47 44 -86.5 92t-71.5 99zM232 534q0 -69 26 -139q65 43 93.5 85.5t28.5 95.5q0 32 -18 49.5t-47 17.5q-35 0 -59 -27t-24 -82z" />
    <glyph glyph-name="quotesingle" unicode="'" horiz-adv-x="254" 
d="M90 481q-23 0 -28 17.5t6 40.5q7 14 14.5 33t14 39t11.5 39.5t8 35.5q2 10 9 17.5t20 7.5q34 0 43 -20.5t4 -46.5q-5 -32 -18 -66.5t-32 -61.5q-13 -19 -25.5 -27t-26.5 -8z" />
    <glyph glyph-name="parenleft" unicode="(" horiz-adv-x="377" 
d="M104 256q-2 134 33 251.5t105 213.5q12 16 27 25t32 9q9 0 19.5 -3t17.5 -8.5t8.5 -13t-7.5 -16.5q-145 -178 -145 -458q0 -134 37.5 -236.5t98.5 -171.5q9 -11 11 -21t-1.5 -17.5t-11.5 -12.5t-19 -5q-14 0 -31 16t-30 30q-27 30 -52.5 71.5t-45.5 94t-32.5 116
t-13.5 136.5z" />
    <glyph glyph-name="parenright" unicode=")" horiz-adv-x="377" 
d="M286 268q-2 -144 -38.5 -249t-93.5 -181q-14 -18 -33 -32t-41 -14q-21 0 -29 17t9 39q29 35 54 80.5t43 99.5t28.5 114.5t10.5 125.5q0 133 -42.5 249.5t-119.5 203.5q-6 6 -3.5 12.5t10 11t17.5 7.5t19 3q16 0 31.5 -9t27.5 -25q70 -91 111 -208t39 -245z" />
    <glyph glyph-name="asterisk" unicode="*" horiz-adv-x="528" 
d="M259 165q-7 33 -12 77q-20 -15 -38 -29t-34 -25q-17 -13 -37 -14.5t-28 9.5q-5 8 -3.5 16.5t9.5 16.5q21 20 46 41t54 41q-17 11 -33 19.5t-30 16.5q-32 17 -38.5 33.5t3.5 28.5q7 8 19 9.5t32 -9.5q33 -19 71 -44q-1 25 -1 48.5t2 45.5q1 11 7 17.5t17 6.5
q20 0 28.5 -13t7.5 -31q-1 -17 -1 -34.5v-36.5q20 12 38.5 23t36.5 21q29 14 41 -2q8 -13 3.5 -27.5t-30.5 -28.5q-17 -9 -34.5 -20.5t-36.5 -25.5q24 -18 47 -37t44 -37q11 -10 12 -19.5t-5 -16.5q-10 -11 -27 -8.5t-34 17.5q-11 9 -22.5 19t-25.5 21q2 -19 3.5 -36.5
t3.5 -34.5q2 -12 -1 -20.5t-16 -8.5q-32 0 -38 31z" />
    <glyph glyph-name="plus" unicode="+" 
d="M422 277h-59.5t-63.5 -1q2 -38 5.5 -73.5t8.5 -68.5q1 -8 1 -15t-1.5 -12t-6.5 -8.5t-15 -3.5q-18 0 -31.5 10t-17.5 29q-6 29 -11 64.5t-8 73.5q-24 -2 -46 -3.5t-42 -3.5q-74 -9 -74 41q0 14 9.5 24t34.5 12q26 2 54.5 3.5t58.5 2.5q-5 76 0 143q1 15 11.5 22.5
t23.5 7.5q26 0 35 -19t8 -39q-2 -56 0 -113q78 0 149 -3q16 -1 23 -8.5t7 -19.5q0 -23 -15 -32.5t-38 -9.5z" />
    <glyph glyph-name="comma" unicode="," horiz-adv-x="296" 
d="M88 -126q-23 0 -28.5 17.5t6.5 40.5q17 32 30 72t18 72q2 12 9 20t20 8q28 0 40 -18t8 -48q-5 -34 -18.5 -68.5t-33.5 -60.5q-26 -35 -51 -35z" />
    <glyph glyph-name="hyphen" unicode="-" horiz-adv-x="370" 
d="M278 268q-18 1 -41 1.5t-47.5 0.5t-47.5 -1t-39 -3q-21 -2 -31.5 9t-10.5 31q0 32 28 35q21 3 46 4t51.5 1t52.5 -1.5t49 -4.5q9 -2 15 -9t6 -21q0 -24 -9.5 -33.5t-21.5 -8.5z" />
    <glyph glyph-name="period" unicode="." horiz-adv-x="296" 
d="M147 97q23 0 39.5 -13.5t16.5 -47.5q0 -20 -13 -32.5t-32 -12.5q-31 0 -48 15.5t-17 44.5q0 46 54 46z" />
    <glyph glyph-name="slash" unicode="/" horiz-adv-x="492" 
d="M29 -65q60 88 114.5 182.5t102.5 190.5t88 192t70 186q9 27 22.5 36t25.5 4q22 -9 26 -34.5t-6 -55.5q-27 -85 -64.5 -178.5t-83.5 -188.5t-100 -187.5t-114 -174.5q-24 -33 -49.5 -36.5t-40.5 7.5q-11 8 -7 24t16 33z" />
    <glyph glyph-name="zero" unicode="0" horiz-adv-x="592" 
d="M289 709q49 0 90.5 -23t71.5 -70t47 -117.5t17 -164.5q0 -84 -17 -148.5t-47.5 -109t-73 -67t-92.5 -22.5q-52 0 -90 23q-10 -10 -23 -6q-15 4 -20 16.5t-3 29.5q-37 45 -54.5 118.5t-17.5 167.5q0 100 19 190.5t65 155.5q14 19 29.5 28t38.5 9q22 0 30 -12q8 1 15 1.5
t15 0.5zM281 54q31 0 57 19.5t45.5 56.5t30.5 89.5t11 117.5q0 56 -5 99t-13 77l-2 -4q-45 -79 -93.5 -191.5t-91.5 -238.5q25 -25 61 -25zM361 568q6 10 16 17q-20 32 -46 45t-55 13q-12 0 -24 -2t-23 -5q-31 -60 -46.5 -138t-15.5 -166q0 -51 3 -91.5t11 -72.5
q33 106 79 206.5t101 193.5z" />
    <glyph glyph-name="one" unicode="1" horiz-adv-x="592" 
d="M151 87q29 -7 62.5 -10.5t68.5 -5.5q-3 7 -3 16q-8 63 -12 128.5t-4 131t3.5 129t9.5 121.5q-23 -14 -44 -29.5t-37 -29.5q-14 -12 -28.5 -15.5t-27 -0.5t-20.5 10.5t-8 18.5q0 17 21 35q38 31 78.5 58.5t84.5 50.5q11 19 34 19t29.5 -13.5t4.5 -34.5q-6 -70 -10.5 -144
t-5.5 -147t0.5 -140.5t7.5 -123.5q1 -12 0.5 -22t-2.5 -19q41 2 79 5.5t71 11.5q15 4 26 -2t11 -20q0 -24 -13 -36.5t-36 -17.5q-35 -7 -76.5 -10.5t-84.5 -4t-85 2t-77 8.5q-25 3 -39 18.5t-14 36.5q0 18 12 23t24 2z" />
    <glyph glyph-name="two" unicode="2" horiz-adv-x="592" 
d="M306 -5q-44 0 -91.5 6.5t-86.5 23.5q-33 14 -36.5 43.5t23.5 61.5q29 35 58 68t56.5 66.5t53 68.5t46.5 73q31 58 31 122q0 105 -123 105q-21 0 -41.5 -4t-40.5 -11q-13 -4 -25.5 -3.5t-23 5t-17 12.5t-6.5 19q0 14 6 22t22 15q58 23 125 23q99 0 157.5 -48.5
t58.5 -142.5q0 -37 -11.5 -78t-29.5 -76q-21 -40 -49 -78.5t-58.5 -74.5t-60.5 -68t-54 -60q33 -8 72.5 -11.5t74.5 -3.5q47 0 90.5 8.5t70.5 20.5q18 8 30 2.5t12 -27.5q0 -18 -14 -34.5t-46 -25.5q-39 -11 -82 -15t-91 -4z" />
    <glyph glyph-name="three" unicode="3" horiz-adv-x="592" 
d="M119 24q-35 20 -35 55q0 19 10.5 26t25.5 -2q32 -20 72.5 -28t81.5 -8q33 0 60 4.5t46 15.5t29 30.5t10 48.5q0 28 -17 52.5t-48.5 42.5t-76.5 28.5t-101 10.5q-23 0 -38.5 10t-15.5 32q0 24 38 25q36 2 71 10.5t63.5 26t46 46.5t17.5 71q0 55 -36 82.5t-90 27.5
q-20 0 -39.5 -2.5t-34.5 -4.5q-21 -3 -35 8.5t-14 28.5q0 14 8.5 19.5t20.5 10.5q8 3 20.5 5.5t26 4t27.5 2.5t26 1q43 0 81.5 -13t67 -37t45 -57.5t16.5 -73.5q0 -63 -29.5 -106t-80.5 -66q39 -8 71 -27t55 -44t36 -55t13 -60q0 -89 -59.5 -132.5t-169.5 -43.5
q-45 0 -87 7.5t-78 27.5z" />
    <glyph glyph-name="four" unicode="4" horiz-adv-x="592" 
d="M355 -13q-13 0 -23 14.5t-12 39.5q-2 32 -3 63t-1 61h-20q-62 0 -105 12.5t-69.5 37.5t-38.5 61.5t-12 83.5q0 35 5 75.5t14 83t21.5 85.5t27.5 83q5 13 13 20t26 7q16 0 25 -7t12.5 -18.5t3 -24.5t-4.5 -25q-26 -75 -40 -149t-14 -153q0 -25 6 -43t23.5 -30t48 -17.5
t79.5 -5.5h1q2 69 9.5 135.5t18.5 135.5q5 33 11 48t22 15t26.5 -8t16.5 -19.5t7.5 -24t0.5 -21.5q-12 -62 -20.5 -124.5t-13.5 -130.5q35 5 71 13t71 20q11 5 19 -1t8 -19q0 -21 -9 -33t-28 -20q-29 -11 -63 -20t-72 -15q-2 -32 -2 -66t1 -70q2 -20 -7.5 -34.5t-29.5 -14.5
z" />
    <glyph glyph-name="five" unicode="5" horiz-adv-x="592" 
d="M200 451q0 -21 3.5 -33.5t10.5 -20t19 -12t30 -8.5q29 -8 58.5 -15.5t54.5 -16.5q57 -20 87.5 -63.5t30.5 -103.5q0 -33 -14 -66.5t-44 -61t-76 -45t-110 -17.5q-16 0 -33.5 2t-33.5 7q-17 5 -30 16.5t-13 26.5q0 12 7.5 22.5t23.5 5.5q14 -5 27.5 -6t26.5 -1
q52 0 87.5 10t57.5 26.5t31.5 37t9.5 41.5q0 29 -11.5 53t-31.5 35q-25 15 -58 22t-64 13q-34 7 -58 17.5t-39.5 27.5t-23.5 43.5t-9 64.5q-2 47 -0.5 83t6.5 77q-13 4 -21 12.5t-8 22.5q0 17 8.5 23.5t34.5 11.5q11 37 36 37q30 0 40 -28q56 5 109 3.5t113 -9.5
q38 -5 61 -14.5t23 -23.5q0 -36 -38 -31q-78 8 -144 8t-130 -7q-6 -41 -7 -79t1 -87z" />
    <glyph glyph-name="six" unicode="6" horiz-adv-x="592" 
d="M100 364q0 9 5.5 16.5t25.5 14.5q2 1 5.5 1.5t6.5 1.5q15 85 48.5 162t83.5 146q8 10 21 18t26 8q30 0 39 -12.5t-3 -30.5q-48 -72 -79.5 -141.5t-46.5 -141.5h3q49 0 98 -17t89 -49t65 -78t25 -105q0 -36 -11 -67t-32 -54.5t-52.5 -36.5t-72.5 -13q-51 0 -90 21t-66 59
t-41 91t-14 117v26t2 26q-16 2 -25.5 12t-9.5 26zM423 160q0 40 -16 73t-42.5 56t-60.5 35.5t-71 12.5h-11q-3 -33 -3 -66q0 -103 33 -159.5t88 -56.5q44 0 63.5 28.5t19.5 76.5z" />
    <glyph glyph-name="seven" unicode="7" horiz-adv-x="592" 
d="M396 419q0 49 -7.5 80.5t-23.5 52t-41.5 34.5t-61.5 29q-13 5 -22 16q-20 -78 -30.5 -147.5t-18.5 -147.5q-2 -19 -18 -31.5t-32 -12.5q-17 0 -20 11.5t-3 34.5q0 81 11 157.5t27 148.5q8 34 24.5 53.5t50.5 19.5q14 0 18 -11.5t2 -27.5q7 1 18 0q48 -9 87.5 -27
t67.5 -49.5t43.5 -78.5t15.5 -114q0 -55 -8.5 -110t-23.5 -105.5t-35 -94.5t-44 -77q-14 -21 -30 -29.5t-33 -8.5q-18 0 -25 13.5t10 42.5q48 78 75 173t27 206z" />
    <glyph glyph-name="eight" unicode="8" horiz-adv-x="592" 
d="M522 169q0 -41 -19 -74.5t-50.5 -57.5t-72.5 -37t-86 -13q-41 0 -78 12t-65 35.5t-44.5 57t-16.5 76.5q0 64 31.5 117.5t82.5 106.5l7.5 7.5t7.5 8.5q-2 0 -6 2q-24 7 -44.5 19.5t-36.5 30.5t-25 39.5t-9 46.5q0 32 13.5 62t38.5 53t61.5 37t82.5 14q67 0 108 -31t41 -79
q0 -32 -11 -59t-33 -56q-20 -27 -43.5 -55t-53.5 -58q49 -11 90 -29.5t69.5 -44t44.5 -58.5t16 -73zM293 302q-31 7 -34 30q-35 -37 -58.5 -80t-23.5 -94t32.5 -74t84.5 -23q65 0 104 32t39 86q0 45 -38 75t-106 48zM341 543q22 31 22 60q0 18 -18 29.5t-51 11.5
q-59 0 -90 -29t-31 -80q0 -23 18 -45.5t55 -32.5q9 -3 15 -6q23 23 43 46t37 46z" />
    <glyph glyph-name="nine" unicode="9" horiz-adv-x="592" 
d="M470 601q10 -76 13 -152t0 -147.5t-13 -137.5t-26 -122q-8 -26 -22 -41t-31 -15q-25 0 -28.5 16.5t1.5 37.5q15 52 24.5 109.5t14 116t4 116.5t-6.5 112q-35 -75 -90.5 -117.5t-121.5 -42.5q-32 0 -57 10.5t-42 29t-26 43t-9 51.5q0 52 21 96.5t55 77.5t77.5 52t89.5 19
q23 0 44 -7t35 -17q23 -17 14 -40q-4 -10 -14.5 -12.5t-18.5 1.5q-14 8 -28 10.5t-29 2.5q-38 0 -68 -17.5t-51.5 -45t-33 -61t-11.5 -64.5q0 -27 12.5 -43.5t38.5 -16.5q50 0 102.5 45t90.5 140q14 35 25 47t31 12q12 0 21 -10t13 -36z" />
    <glyph glyph-name="colon" unicode=":" horiz-adv-x="296" 
d="M147 97q23 0 39.5 -13.5t16.5 -47.5q0 -20 -13 -32.5t-32 -12.5q-31 0 -48 15.5t-17 44.5q0 46 54 46zM149 502q54 0 54 -46q0 -29 -17 -44.5t-48 -15.5q-19 0 -32 12.5t-13 32.5q0 34 16.5 47.5t39.5 13.5z" />
    <glyph glyph-name="semicolon" unicode=";" horiz-adv-x="296" 
d="M149 502q54 0 54 -46q0 -29 -17 -44.5t-48 -15.5q-19 0 -32 12.5t-13 32.5q0 34 16.5 47.5t39.5 13.5zM88 -126q-23 0 -28.5 17.5t6.5 40.5q17 32 30 72t18 72q2 12 9 20t20 8q28 0 40 -18t8 -48q-5 -34 -18.5 -68.5t-33.5 -60.5q-26 -35 -51 -35z" />
    <glyph glyph-name="less" unicode="&#x3c;" 
d="M129 251q-19 20 -19 51q0 29 18 50q24 25 52 48.5t58.5 44.5t61.5 38t60 29q19 9 40 9q11 0 18.5 -6t7.5 -17q0 -20 -9.5 -31t-25.5 -19q-45 -24 -91 -55t-88 -68q-11 -9 -11 -20q0 -12 10 -23q39 -44 82.5 -80.5t100.5 -71.5q18 -11 23.5 -21.5t2.5 -18.5
q-8 -17 -30.5 -18.5t-49.5 12.5q-57 32 -109.5 72.5t-101.5 94.5z" />
    <glyph glyph-name="equal" unicode="=" 
d="M422 183q-32 -4 -69 -6.5t-75 -3.5t-74.5 -1t-66.5 2q-40 2 -58 9.5t-18 32.5q0 14 9.5 26t34.5 10q40 -3 83 -4t87 -0.5t87.5 2.5t82.5 5q16 1 23 -7.5t7 -19.5q0 -23 -15 -32.5t-38 -12.5zM422 369q-33 2 -70.5 2.5t-75.5 -0.5t-74.5 -3t-66.5 -5q-74 -9 -74 41
q0 14 9.5 24t34.5 12q37 3 79.5 5t87 2t88.5 -1.5t85 -4.5q16 -1 23 -8.5t7 -18.5q0 -23 -15 -34.5t-38 -10.5z" />
    <glyph glyph-name="greater" unicode="&#x3e;" 
d="M402 258q-51 -62 -99.5 -106t-95.5 -68q-23 -12 -43 -11t-31 12q-6 8 -2.5 18.5t22.5 24.5q49 34 93 75.5t81 90.5q7 8 7 18q0 12 -12 23q-35 29 -77.5 56.5t-81.5 45.5q-31 14 -42 24.5t-11 24.5q0 10 5.5 17.5t14.5 11.5t19.5 4.5t20.5 -3.5q63 -26 125 -67t109 -85
q12 -12 17 -24.5t5 -24.5q0 -27 -24 -57z" />
    <glyph glyph-name="question" unicode="?" horiz-adv-x="500" 
d="M262 428q39 32 58.5 61.5t19.5 64.5q0 90 -112 90q-30 0 -58 -8t-49 -21q-16 -10 -34 -4.5t-25 20.5q-10 23 18 41q26 18 65 29.5t84 11.5q97 0 148 -46t51 -118q0 -50 -26.5 -89.5t-77.5 -84.5q-35 -30 -49.5 -60.5t-14.5 -72.5q0 -36 -11.5 -48.5t-34.5 -12.5
q-20 0 -28 15.5t-8 52.5q0 62 19.5 103t64.5 76zM226 97q23 0 39.5 -13.5t16.5 -47.5q0 -20 -13 -32.5t-32 -12.5q-31 0 -48 15.5t-17 44.5q0 46 54 46z" />
    <glyph glyph-name="at" unicode="@" horiz-adv-x="974" 
d="M487 -84q-77 0 -149.5 25t-129 74t-90.5 120.5t-34 163.5q0 68 28.5 141t84 133.5t137 99.5t188.5 39q72 0 138.5 -26.5t117.5 -79t81.5 -132t30.5 -184.5q0 -48 -8.5 -88t-26 -69t-43.5 -45t-60 -16q-67 0 -101 48.5t-51 148.5q-6 -40 -21 -73.5t-37 -58t-50.5 -38
t-60.5 -13.5q-29 0 -57.5 10.5t-51 31t-36.5 50.5t-14 69q0 51 17.5 97t47 83t67.5 63t80 38q29 8 51.5 2.5t22.5 -28.5v-5q4 2 8.5 4t9.5 2q23 0 33.5 -11t15.5 -38q14 -89 27.5 -150t28 -98.5t31.5 -54t38 -16.5q14 0 26 6.5t21 24.5t14.5 49.5t5.5 82.5q0 87 -26.5 152
t-69 107.5t-95.5 64t-105 21.5q-86 0 -152 -32.5t-111 -83.5t-68.5 -114.5t-23.5 -125.5t23 -117.5t67 -97.5t107.5 -67t144.5 -25q46 0 89 10.5t70 28.5q14 9 26 11.5t19 -8.5q9 -16 2 -32.5t-26 -27.5q-39 -25 -89.5 -35.5t-111.5 -10.5zM541 457q0 5 0.5 9t2.5 9
q-8 -4 -20 -6.5t-26 -7.5q-29 -11 -54 -31.5t-44.5 -49t-30.5 -64t-11 -76.5q0 -50 22 -69t51 -19q24 0 44 14t35 43.5t23.5 75.5t8.5 111v30t-1 31z" />
    <glyph glyph-name="A" unicode="A" horiz-adv-x="581" 
d="M459 64q-7 34 -15.5 69t-19.5 70q-64 4 -134.5 4t-134.5 -4q-8 -38 -14 -77.5t-11 -81.5q-2 -23 -9.5 -37.5t-21.5 -14.5q-26 0 -39 17t-8 53q22 180 62.5 332.5t100.5 278.5q9 18 19 28.5t28 10.5q21 0 32.5 -18t3.5 -44q11 -1 23 -19q80 -131 138 -280.5t85 -301.5
q5 -29 -6 -43t-29 -14q-23 0 -33.5 18.5t-16.5 53.5zM174 284q52 2 111.5 0t113.5 -6q-27 75 -59.5 145t-64.5 130q-6 9 -9 19q-26 -66 -49.5 -137.5t-42.5 -150.5z" />
    <glyph glyph-name="B" unicode="B" horiz-adv-x="644" 
d="M223 54q5 -28 -1 -43.5t-28 -15.5q-24 0 -40 23.5t-23 57.5q-31 140 -34 283.5t21 285.5q5 26 12 40t24 14q37 0 48 -28q4 4 12 9q27 16 64 24.5t80 8.5q78 0 124 -40t46 -109q0 -57 -41 -102.5t-119 -77.5q46 -1 87 -15.5t72 -39.5t49 -59t18 -73q0 -45 -19 -83
t-53.5 -65.5t-82 -43t-105.5 -15.5q-34 0 -52 12t-18 32q0 27 35 27q92 0 143.5 38.5t51.5 98.5q0 31 -17 59t-53.5 48t-94.5 28t-140 -1q3 -68 11 -136.5t23 -141.5zM188 396q59 1 104.5 16.5t76.5 39.5t47 52.5t16 55.5q0 81 -85 81q-31 0 -58.5 -6.5t-50.5 -15.5
q-23 -10 -38 2q-12 -116 -12 -225z" />
    <glyph glyph-name="C" unicode="C" horiz-adv-x="619" 
d="M84 320q0 94 23.5 167.5t64.5 124t95.5 76.5t117.5 26q44 0 88 -16t69 -48q7 -9 8 -18t-2 -17q-5 -13 -19 -17.5t-31 8.5q-20 15 -47 24.5t-63 9.5q-41 0 -79.5 -19.5t-68 -59t-47 -100t-17.5 -141.5q0 -59 14 -107t39 -82.5t59.5 -53t76.5 -18.5q50 0 93 15.5t74 47.5
q9 9 19 10.5t17 -4.5q11 -10 11 -29.5t-23 -42.5q-31 -32 -81.5 -51t-110.5 -19q-67 0 -119 24t-88 68t-54.5 105.5t-18.5 136.5z" />
    <glyph glyph-name="D" unicode="D" horiz-adv-x="675" 
d="M310 2q-35 -10 -55.5 -1t-20.5 29q0 23 23 31q128 48 187 133t59 200q0 61 -14.5 106.5t-39.5 76t-60 45.5t-75 15q-18 0 -35 -3.5t-31 -8.5q-25 -8 -42 4q0 -4 -0.5 -7.5t-1.5 -8.5q-20 -134 -19 -269t24 -288q6 -39 1.5 -57t-32.5 -18q-22 0 -32 12t-15 41
q-16 85 -24.5 162t-10 152t4.5 151.5t20 159.5q5 28 16.5 43.5t34.5 15.5q32 0 37 -32q7 4 13 7q21 9 49 13.5t55 4.5q63 0 113.5 -23t86.5 -65t55.5 -100.5t19.5 -128.5q0 -72 -19.5 -134.5t-57 -113t-91.5 -87.5t-123 -57z" />
    <glyph glyph-name="E" unicode="E" horiz-adv-x="653" 
d="M502 342q-29 -3 -62 -6t-66.5 -7t-66.5 -9t-62 -10q-35 -7 -54 4v-33q0 -59 6 -100t22 -67t42 -38t67 -12q68 0 136 16t119 48q12 8 23 3t11 -23t-6.5 -30t-26.5 -25q-43 -28 -112 -46.5t-143 -18.5q-118 0 -172.5 71t-54.5 219q0 70 13 140.5t36 138.5q7 19 15.5 25
t24.5 6q9 0 17 -6t13.5 -15.5t7 -21t-1.5 -22.5q-21 -65 -30 -142q3 1 7.5 2t9.5 2q29 5 66.5 10t78 8.5t82 6.5t77.5 3q29 0 29 -24q0 -23 -12.5 -34t-32.5 -13zM527 636q-107 0 -202.5 -11t-194.5 -33q-20 -5 -39 6t-19 37q0 12 7 21t19 11q95 23 210 31.5t228 6.5
q16 0 25.5 -7t9.5 -23q0 -24 -13.5 -31.5t-30.5 -7.5z" />
    <glyph glyph-name="F" unicode="F" horiz-adv-x="598" 
d="M109 331q1 14 5.5 20.5t15.5 9.5q1 57 4.5 113.5t10.5 111.5q0 2 0.5 5t0.5 5q-7 -2 -13 -2.5t-13 -2.5q-20 -5 -39 5.5t-19 36.5q0 23 26 28q95 23 205.5 34.5t232.5 5.5q16 -1 25.5 -8t9.5 -23q0 -20 -12 -28t-26 -8q-79 0 -153.5 -6.5t-147.5 -17.5q1 -6 1.5 -12
t-0.5 -13q-5 -42 -7.5 -96t-2.5 -114q42 6 81 10.5t78 8t79 5.5t83 4q12 1 17 -6t5 -16q-2 -26 -21 -37t-60 -13q-54 -3 -120.5 -10t-139.5 -21q3 -75 9.5 -143.5t17.5 -116.5q5 -21 -1 -37.5t-30 -16.5q-14 0 -26 15t-20 41q-17 60 -25 124t-10 132q-23 11 -21 33z" />
    <glyph glyph-name="G" unicode="G" horiz-adv-x="719" 
d="M566 216q0 31 -3.5 52t-12.5 33.5t-24.5 17.5t-40.5 5q-28 0 -58 -7.5t-50 -18.5q-11 -6 -22.5 -6t-21 4t-16 11.5t-6.5 17.5q0 9 3.5 15t11.5 12q30 20 75.5 33t90.5 13q74 0 115.5 -33t41.5 -115q0 -50 -3.5 -106t-17.5 -114q-8 -30 -21 -42t-30 -12q-15 0 -25 10
t-5 33q2 10 3.5 20t3.5 21q-47 -35 -103.5 -52.5t-116.5 -17.5q-58 0 -104 18.5t-78.5 51.5t-50 78t-17.5 99q0 93 28.5 179t77.5 151.5t115 105t140 39.5q54 0 99 -27.5t67 -77.5q5 -12 -0.5 -20t-15.5 -10.5t-22.5 1.5t-20.5 16q-17 24 -41.5 35.5t-56.5 11.5
q-53 0 -103.5 -31.5t-90 -86.5t-63.5 -130t-24 -161q0 -34 10 -64.5t29.5 -53t49 -35.5t68.5 -13q70 0 128 21t105 59q3 39 3 70z" />
    <glyph glyph-name="H" unicode="H" horiz-adv-x="709" 
d="M524 41q4 66 5 136t-1 142q-9 -7 -25 -6q-42 4 -85 5t-84.5 0t-79.5 -4t-68 -7q5 -72 14 -139.5t23 -127.5q5 -21 -1 -37.5t-30 -16.5q-13 0 -27.5 13.5t-20.5 37.5q-35 134 -44 293.5t8 323.5q3 26 18.5 40t33.5 14q19 0 27 -15.5t5 -39.5q-6 -62 -8.5 -129.5
t-0.5 -136.5q66 10 146.5 10.5t160.5 -12.5q23 -5 36 -19q-6 148 -27 288q-2 21 2.5 37.5t28.5 16.5q16 0 34 -11.5t23 -40.5q23 -154 25.5 -307.5t-7.5 -308.5q-2 -26 -16 -40t-32 -14q-19 0 -27 15t-6 40z" />
    <glyph glyph-name="I" unicode="I" horiz-adv-x="563" 
d="M85 92q39 -9 82 -14.5t88 -7.5q-2 5 -3 10l-2 10q-17 121 -18 244t13 238q3 35 16 52q-36 -2 -68.5 -4.5t-58.5 -6.5q-12 -2 -25 0t-23.5 7.5t-17.5 14.5t-7 21q0 14 13 22t36 12q34 6 74.5 10t83.5 4.5t87.5 -2.5t87.5 -10q20 -4 32.5 -15t12.5 -27q0 -18 -8.5 -25
t-23.5 -5q-62 6 -126 6q2 -6 2.5 -14t-0.5 -17q-14 -122 -12.5 -245t12.5 -236q2 -27 -4 -44q45 1 88.5 5.5t85.5 13.5q15 4 26 -2t11 -20q0 -47 -37 -54q-97 -20 -202 -20.5t-205 19.5q-20 4 -30.5 19.5t-10.5 35.5q0 18 9 23t22 2z" />
    <glyph glyph-name="J" unicode="J" horiz-adv-x="575" 
d="M323 586q-5 17 -7 30t2 21q-51 -3 -98.5 -10t-85.5 -15q-21 -5 -39.5 6.5t-18.5 29.5q0 26 30 32q42 10 93 16t104 8t105 -1t96 -11q35 -5 35 -28q0 -17 -9.5 -27.5t-28.5 -7.5q-62 9 -129 9q15 -14 24 -48q10 -36 18 -79.5t13 -88t7 -87t1 -76.5q-7 -143 -52 -208
t-143 -65q-52 0 -94 18.5t-71 55.5q-7 9 -11 19.5t-5 21t2 19.5t11 14q15 9 27 5.5t23 -15.5q23 -31 50.5 -48t65.5 -17q25 0 45 10.5t34.5 35t23 65t11.5 100.5q2 37 1 78t-4.5 82t-10 80.5t-15.5 75.5z" />
    <glyph glyph-name="K" unicode="K" horiz-adv-x="646" 
d="M510 692q15 19 33 19q14 0 23.5 -9.5t9.5 -23.5q0 -20 -9 -36t-22 -32q-65 -83 -145.5 -163.5t-174.5 -141.5q-23 -15 -41 -19q2 -59 6.5 -116.5t12.5 -111.5q2 -11 3 -20t1 -17q0 -29 -26 -29q-29 0 -40.5 17t-17.5 47q-14 68 -20.5 144.5t-6.5 156.5q0 78 6 155.5
t18 151.5q5 27 13.5 39t28.5 12t33 -15.5t13 -50.5q0 -20 -4 -40q-9 -50 -14 -109t-6 -125q94 65 178 149t148 168zM328 275q-7 11 -12 25.5t-5 27.5q0 36 37 36q11 0 22 -6t17 -17q52 -91 108 -157.5t104 -106.5q23 -19 23 -51q0 -26 -31 -26q-8 0 -19 3.5t-19 10.5
q-33 25 -65.5 56.5t-62 66t-54.5 70t-43 68.5z" />
    <glyph glyph-name="L" unicode="L" horiz-adv-x="554" 
d="M96 382q0 73 5.5 149.5t19.5 145.5q5 23 13 31t21 8q27 0 38.5 -22t9.5 -47q-8 -60 -13 -127.5t-5 -141.5q0 -99 7 -159t24 -92.5t44 -43.5t68 -11q92 0 157 38q20 13 33.5 5t13.5 -27q0 -20 -7.5 -32.5t-27.5 -26.5q-34 -23 -78.5 -33t-90.5 -10q-80 0 -126 26.5
t-69.5 77.5t-30 124.5t-6.5 167.5z" />
    <glyph glyph-name="M" unicode="M" horiz-adv-x="874" 
d="M150 718q23 0 36 -16.5t14 -41.5q1 -2 1 -3t1 -2q47 -118 91 -215.5t80 -158.5q14 -26 22 -37.5t18 -11.5t18.5 9.5t25.5 38.5q55 89 103.5 185t92.5 195q11 23 24.5 33t32.5 10q20 0 33 -21.5t18 -62.5q9 -72 13 -147.5t3 -149t-6 -142t-14 -126.5q-10 -68 -63 -68
q-36 0 -24 69q8 53 12.5 116t5 127.5t-1.5 127.5t-7 116q-36 -91 -73.5 -168t-81.5 -147q-29 -48 -53 -65t-55 -17q-36 0 -64.5 29.5t-63.5 96.5q-22 42 -48 99t-52 120q-4 -118 3 -231.5t17 -218.5q5 -53 -30 -53q-29 0 -45 24t-20 57q-14 139 -16 291t17 321q2 17 9 27.5
t27 10.5z" />
    <glyph glyph-name="N" unicode="N" horiz-adv-x="713" 
d="M101 606q-3 10 -4 21t0.5 21.5t6 20t14.5 15.5q2 2 8 4q10 21 29 21q23 0 36.5 -19.5t10.5 -59.5q-4 -37 -6 -77q37 -112 84 -197t96.5 -145.5t96.5 -97.5t84 -52q19 -8 34 -17.5t15 -18.5q0 -16 -15 -24.5t-33 -8.5t-36 5.5t-30 12.5q-80 42 -158.5 129t-142.5 220
q1 -85 5.5 -166.5t12.5 -150.5q4 -29 -5.5 -42.5t-28.5 -13.5q-20 0 -32 16t-17 53q-19 125 -22.5 256t7.5 260q-3 8 -5.5 17t-4.5 18zM551 95q-21 0 -30.5 23t-3.5 62q9 51 12.5 110t3 120.5t-5 122.5t-12.5 115q-9 58 42 58q24 0 34 -22.5t14 -52.5q7 -54 9.5 -115t1 -124
t-7 -125.5t-15.5 -118.5q-5 -29 -15 -41t-27 -12z" />
    <glyph glyph-name="O" unicode="O" horiz-adv-x="636" 
d="M357 689q54 0 93 -22t65 -61.5t38.5 -94t12.5 -120.5q0 -74 -17.5 -146.5t-53 -129.5t-88 -92.5t-121.5 -35.5q-50 0 -88.5 22.5t-64.5 63t-39.5 97.5t-13.5 126q0 65 9 121t27 106t44 95t61 88q10 12 23.5 19.5t25.5 8.5q26 1 35.5 -15.5t3.5 -35.5q24 6 48 6zM170 303
q0 -53 6.5 -97t21 -76.5t36.5 -50.5t53 -18q48 0 83.5 28t59 73.5t34.5 104t11 118.5q0 50 -8.5 93.5t-26.5 75t-46 49.5t-66 18q-48 0 -83 -22q-42 -63 -58.5 -136t-16.5 -160z" />
    <glyph glyph-name="P" unicode="P" horiz-adv-x="580" 
d="M197 607q-9 -59 -12.5 -128t-2 -142t8 -145t17.5 -137q6 -35 2.5 -50.5t-24.5 -15.5q-26 0 -38.5 19t-19.5 50q-26 133 -30.5 289.5t15.5 314.5q4 27 12.5 39t29.5 12q22 0 34 -19q52 19 115 19q49 0 91 -10.5t72.5 -33.5t47.5 -59t17 -87t-19.5 -97.5t-54 -85.5
t-82 -69.5t-102.5 -49.5q-15 -5 -27.5 -4t-22.5 6t-15.5 13t-5.5 17q0 11 8.5 16t26.5 13q44 16 81 41.5t64 57t42.5 68.5t16.5 78q0 30 -11 52.5t-29.5 36.5t-44 21t-53.5 7q-24 0 -51.5 -4.5t-53.5 -13.5q0 -5 -0.5 -9.5t-1.5 -9.5z" />
    <glyph glyph-name="Q" unicode="Q" horiz-adv-x="662" 
d="M564 -23q-19 17 -39 36t-40 42q-34 -32 -79 -50.5t-102 -18.5q-45 0 -86 19.5t-71.5 57.5t-48.5 95.5t-18 133.5q0 92 30 177.5t94 158.5q-2 4 -2 12t4 14.5t16 12.5q13 7 32 12q10 8 19.5 16.5t20.5 16.5q25 20 48 20q40 0 40 -28q0 -10 -5 -20q46 -9 86 -33t69 -62.5
t45.5 -92t16.5 -122.5q0 -75 -15.5 -142t-48.5 -121q19 -22 37.5 -43.5t38.5 -41.5q7 -8 11.5 -19.5t4.5 -22.5t-5 -19t-15 -8q-15 0 -38 20zM168 284q0 -111 36 -168t102 -57q38 0 69.5 16t55.5 45q-36 45 -69.5 93.5t-60.5 99.5q-17 31 -14.5 56t19.5 34q10 5 25 -3.5
t25 -27.5q26 -49 54.5 -95t60.5 -89q34 80 34 186q0 54 -13.5 99t-37.5 78t-57 51t-72 18q-6 0 -12 -0.5t-12 -1.5q-37 -34 -62.5 -73.5t-41 -83t-22.5 -88.5t-7 -89z" />
    <glyph glyph-name="R" unicode="R" horiz-adv-x="627" 
d="M571 -16q-36 0 -59 33q-48 68 -119.5 129.5t-150.5 111.5q-16 11 -26 24t-10 29q0 14 8 21.5t27 14.5q42 15 78.5 35t64 45.5t43.5 57t16 69.5q0 87 -88 87q-46 0 -89.5 -16.5t-77.5 -40.5q-7 -125 -2 -257t25 -269q5 -35 2 -50.5t-23 -15.5q-30 0 -41.5 17t-17.5 47
q-26 134 -32 276t5 297q2 27 12 45t30 18q23 0 32 -31q33 24 80.5 39.5t90.5 15.5t77 -12.5t57.5 -35t36 -53t12.5 -65.5q0 -45 -15 -82t-42.5 -67.5t-66.5 -55t-88 -44.5q38 -25 77 -57t74.5 -67t65.5 -71.5t50 -70.5q8 -14 8 -30q0 -21 -24 -21z" />
    <glyph glyph-name="S" unicode="S" horiz-adv-x="598" 
d="M93 120q44 -27 94.5 -41.5t106.5 -14.5q78 0 118.5 27t40.5 76q0 45 -32.5 77t-107.5 64q-60 26 -102 51t-68 52t-38 58t-12 68q0 81 56.5 129t164.5 48q21 0 43 -3t43 -8t39 -12.5t32 -16.5q11 -7 14.5 -15t3.5 -20q0 -15 -16 -25t-38 1q-19 11 -51 19t-62 8
q-75 0 -106.5 -25.5t-31.5 -76.5q0 -53 43.5 -88.5t124.5 -69.5q92 -39 139 -86.5t47 -125.5q0 -82 -60.5 -133t-170.5 -51q-63 0 -119.5 13.5t-101.5 40.5q-14 9 -25 23.5t-11 34.5t15 25t28 -3z" />
    <glyph glyph-name="T" unicode="T" horiz-adv-x="610" 
d="M353 594q-11 -134 -8 -265t15 -240q5 -54 -4.5 -75t-37.5 -21q-14 0 -23.5 13t-12.5 36q-17 127 -21.5 265.5t2.5 262.5q2 36 10 54q-40 -2 -78.5 -6t-73.5 -9q-38 -7 -61.5 6.5t-23.5 36.5q0 10 6 19t20 11q130 19 245.5 21t233.5 -5q33 -3 33 -34q0 -44 -62 -41
q-40 3 -80 4t-80 0q1 -7 1.5 -15t-0.5 -18z" />
    <glyph glyph-name="U" unicode="U" horiz-adv-x="717" 
d="M356 -14q-79 0 -140 55t-90 167q-21 79 -27 194.5t-1 251.5q2 23 7.5 38.5t25.5 15.5q24 0 40 -18.5t15 -40.5q-5 -145 1 -259.5t28 -185.5q22 -72 54 -106t80 -34q91 0 142 87t51 246q0 50 -4 90t-11.5 73.5t-19 61t-26.5 51.5q-13 21 -4 32t29 11q14 0 29 -5.5
t25 -19.5q77 -102 77 -301q0 -92 -18 -166.5t-53 -127t-87.5 -81.5t-122.5 -29z" />
    <glyph glyph-name="V" unicode="V" horiz-adv-x="683" 
d="M73 665q-2 20 6 32t31 12q22 0 33 -17.5t17 -55.5q9 -65 23.5 -134.5t32 -137t37 -129.5t40.5 -110q15 -36 24 -47.5t20 -11.5q4 0 7.5 2t8 8t10.5 17.5t15 31.5q24 54 45.5 119t40.5 137t35 149t28 155q4 34 32 34q26 0 41 -27.5t8 -72.5q-19 -135 -51.5 -256.5
t-77.5 -236.5q-28 -72 -59 -106t-83 -34q-24 0 -43 7.5t-35.5 24t-31 42.5t-30.5 62q-23 54 -43 119.5t-36 136.5t-27.5 144.5t-17.5 142.5z" />
    <glyph glyph-name="W" unicode="W" horiz-adv-x="948" 
d="M526 79q-21 51 -40.5 116.5t-34.5 160.5q-19 -82 -46 -154.5t-65 -141.5q-19 -35 -43.5 -53.5t-58.5 -18.5q-42 0 -71 42.5t-49 127.5q-8 37 -14 81t-10 91t-6 94.5t-2 89.5q0 38 1.5 78t6.5 80q2 17 8.5 29.5t27.5 12.5q26 0 41 -24t13 -61q-2 -26 -2.5 -61.5
t-0.5 -73.5q0 -47 1.5 -95t4 -91.5t6.5 -80.5t9 -63q8 -42 17.5 -65t20.5 -23q16 0 26 20q20 36 40.5 81t39 95.5t34.5 106t28 112.5q5 25 15 39.5t28 14.5q25 0 41.5 -16.5t21.5 -52.5q15 -107 40 -198.5t53 -169.5q13 -37 33 -37q11 0 18.5 10.5t16.5 33.5q21 53 38 119
t29.5 137t20 142t9.5 134q2 38 11 52.5t24 14.5q26 0 40.5 -18t14.5 -41q0 -63 -5 -131t-15 -137.5t-26.5 -138t-38.5 -132.5q-24 -68 -54 -98.5t-83 -30.5q-42 0 -69 24.5t-45 67.5z" />
    <glyph glyph-name="X" unicode="X" horiz-adv-x="644" 
d="M521 19q-55 53 -109.5 114t-106.5 128q-41 -60 -80 -121.5t-75 -122.5q-6 -10 -14 -17t-22 -7q-18 0 -27.5 14t-9.5 31q0 14 9 35.5t20 39.5q32 53 68.5 108.5t76.5 113.5q-54 76 -100.5 153t-80.5 149q-10 20 -10 37q0 16 7.5 27t23.5 11q26 0 38 -14t28 -46
q30 -60 67.5 -121t79.5 -121q52 71 105 139t105 130q24 28 48 28q33 0 33 -36q0 -20 -8 -33.5t-22 -30.5q-48 -57 -100.5 -125t-106.5 -145q51 -67 107 -130.5t115 -122.5q28 -28 28 -62q0 -14 -9.5 -21.5t-26.5 -7.5q-11 0 -23 5.5t-28 20.5z" />
    <glyph glyph-name="Y" unicode="Y" horiz-adv-x="622" 
d="M269 77q2 25 3 55.5t1 64t-1.5 67.5t-3.5 66q-24 11 -48 35t-53 61q-36 46 -70 108t-67 136q-8 16 -1.5 29t24.5 13q25 0 43.5 -11t24.5 -27q11 -26 25 -54.5t29.5 -57t31.5 -55t31 -47.5q17 -23 35 -38.5t32 -15.5q13 0 24.5 6.5t32.5 33.5q40 50 79.5 113.5t74.5 135.5
q5 10 12 17t24 7q11 0 21 -6.5t16 -17t7 -24t-7 -28.5q-33 -65 -72 -124t-84 -116q-23 -29 -41.5 -46.5t-38.5 -25.5q2 -10 2 -15q3 -72 1.5 -146t-12.5 -141q-2 -20 -13 -28.5t-26 -8.5q-25 0 -32 25t-4 60z" />
    <glyph glyph-name="Z" unicode="Z" horiz-adv-x="615" 
d="M103 74q0 15 8 36t16 35q30 53 66.5 108.5t75 111l77 111t72.5 108.5q11 15 7 21.5t-25 9.5q-74 10 -144 10t-128 -4q-24 -2 -42 12.5t-18 37.5q0 15 8.5 21.5t23.5 7.5q65 4 138.5 3t154.5 -12q114 -18 117 -81q0 -43 -41 -107q-29 -45 -62.5 -94.5t-68 -99.5
t-66.5 -99.5t-58 -94.5t68 -45q61 0 128.5 15t144.5 51q14 6 28 1.5t14 -18.5q0 -21 -9 -35t-23 -22q-60 -36 -132.5 -52.5t-138.5 -16.5q-39 0 -74 3.5t-61 12.5t-41 24.5t-15 40.5z" />
    <glyph glyph-name="bracketleft" unicode="[" horiz-adv-x="470" 
d="M254 601q-12 -61 -20 -128.5t-13 -138t-7 -141.5t-2 -138q0 -49 5 -79.5t15.5 -47.5t25 -23t34.5 -6q29 0 58.5 3t51.5 9q19 5 25.5 -2.5t6.5 -20.5q0 -32 -39 -48t-102 -16q-38 0 -68.5 11t-52.5 37.5t-34 70.5t-13 111q-4 154 10 295.5t44 285.5q0 2 1 5t2 5
q-8 -2 -15 -2.5t-13 -2.5q-20 -4 -39 6.5t-19 36.5q0 11 7 20.5t19 11.5q33 5 68 8t69.5 4.5t66 1.5t56.5 -1q15 -1 24.5 -7t9.5 -23q0 -23 -13.5 -30.5t-30.5 -7.5q-28 0 -62 -2t-67 -5q8 -10 10.5 -24t0.5 -28z" />
    <glyph glyph-name="backslash" unicode="\" horiz-adv-x="492" 
d="M463 -65q12 -17 15.5 -33t-7.5 -24q-7 -6 -17.5 -8t-22.5 0.5t-25 11t-25 25.5q-59 82 -113 174.5t-100 187.5t-83.5 188.5t-64.5 178.5q-10 30 -6 55.5t25 34.5q13 5 26 -4t22 -36q30 -90 70 -186t88 -192t103 -190.5t115 -182.5z" />
    <glyph glyph-name="bracketright" unicode="]" horiz-adv-x="470" 
d="M258 625q-1 13 2 28q-33 2 -70.5 1.5t-69.5 -1.5q-21 -1 -38.5 10.5t-17.5 34.5q0 17 9.5 22.5t25.5 6.5q47 4 102.5 4.5t120.5 -4.5q13 -1 19.5 -11t6.5 -21q0 -20 -15 -32q1 -2 1 -4q9 -72 15 -141.5t9 -137.5t2.5 -137t-4.5 -141q-4 -76 -14 -129t-30 -86t-52 -48
t-80 -15q-26 0 -50.5 4t-43 12t-29.5 20t-11 28q0 13 6.5 20.5t25.5 2.5q43 -12 99 -12q18 0 33.5 8.5t27.5 31t20 62t10 102.5q5 131 3 260t-13 262z" />
    <glyph glyph-name="asciicircum" unicode="^" horiz-adv-x="420" 
d="M67 503q-6 5 -7 20t6 31q13 33 37 74t56 71q7 7 17 10t21 3t19.5 -3t13.5 -10q7 -12 4 -21q7 -1 15 -8q30 -26 56 -60t46 -70q8 -14 9 -27t-7 -21q-11 -11 -27 -5.5t-31 28.5q-21 30 -46.5 57.5t-56.5 51.5q-1 0 -3 2q-21 -24 -38.5 -49.5t-29.5 -50.5q-13 -24 -27 -29
t-27 6z" />
    <glyph glyph-name="underscore" unicode="_" horiz-adv-x="500" 
d="M440 -123q-34 -3 -80.5 -5t-96 -3t-97 -0.5t-83.5 1.5q-40 2 -58 10t-18 32q0 14 9.5 25.5t34.5 10.5q48 -1 101.5 -2.5t107.5 -2t106 0t97 3.5q16 1 23 -7.5t7 -20.5q0 -23 -15 -31t-38 -11z" />
    <glyph glyph-name="grave" unicode="`" horiz-adv-x="380" 
d="M237 547q-16 0 -37 12q-23 15 -47.5 44.5t-36.5 64.5q-2 5 -3.5 11t-1.5 11q0 19 12 31.5t29 12.5q10 0 17.5 -6t10.5 -14q14 -34 32 -60.5t36 -43.5q20 -17 20 -34q0 -14 -9.5 -21.5t-21.5 -7.5z" />
    <glyph glyph-name="a" unicode="a" horiz-adv-x="559" 
d="M333 452q-6 -22 -28 -19q-6 1 -11.5 1h-10.5q-32 0 -58.5 -23t-45 -59t-28.5 -80.5t-10 -87.5q0 -71 18.5 -100t50.5 -29q27 0 50.5 20t41 58t27.5 94.5t10 128.5q0 15 -1 35t-2 35q-1 50 35 50q23 0 34 -13t14 -43q4 -45 11.5 -93t20.5 -94.5t33 -89t50 -75.5
q11 -12 15 -17.5t4 -10.5q0 -12 -9.5 -20t-29.5 -8q-14 0 -32 13t-36 36t-33.5 54.5t-24.5 68.5q-14 -90 -59.5 -144t-119.5 -54q-75 0 -114.5 53t-39.5 146q0 56 16 112t44.5 100.5t69 72.5t90.5 28q28 0 43 -8q21 -13 15 -38z" />
    <glyph glyph-name="b" unicode="b" horiz-adv-x="525" 
d="M102 689q3 23 21.5 32.5t41.5 9.5q24 0 21 -29q-9 -67 -13 -138.5t-6 -145.5q23 40 59 60t81 20q39 0 69 -14.5t51 -41.5t32 -64t11 -82q0 -62 -19.5 -118.5t-52 -100t-74.5 -69.5t-87 -26q-20 0 -33 9.5t-13 25.5t38 31q33 13 60.5 38.5t47 59t30.5 73.5t11 83
q0 66 -21 95t-61 29q-18 0 -37.5 -7.5t-37.5 -25t-32 -45t-21 -67.5q1 -42 2.5 -82.5t4.5 -80.5q3 -38 -11 -59.5t-39 -21.5q-17 0 -25 14.5t-11 55.5q-7 70 -9.5 144.5t-0.5 149t7.5 147.5t15.5 141z" />
    <glyph glyph-name="c" unicode="c" horiz-adv-x="475" 
d="M60 200q0 68 17.5 123t47.5 94t68.5 60t80.5 21q43 0 75 -19q14 -8 28.5 -24t14.5 -34q0 -17 -15 -24t-28 6q-15 14 -29.5 20.5t-37.5 6.5q-29 0 -53 -17.5t-41 -48.5t-26.5 -73t-9.5 -91q0 -77 22 -109t67 -32q42 0 85.5 17t81.5 49q14 11 25.5 2t11.5 -26
q0 -13 -7 -24.5t-18 -21.5q-30 -29 -77 -49t-104 -20q-42 0 -75.5 15.5t-56.5 43.5t-35 67.5t-12 87.5z" />
    <glyph glyph-name="d" unicode="d" horiz-adv-x="557" 
d="M462 250q0 -70 13.5 -121.5t37.5 -75.5q14 -12 14 -29q0 -20 -10.5 -28t-24.5 -8q-16 0 -31.5 12.5t-28.5 34.5t-23 51.5t-14 63.5q-25 -75 -71 -119.5t-115 -44.5q-72 0 -113 50.5t-41 144.5q0 72 18 130.5t48 100t69 64t81 22.5q36 0 65 -15t43 -43q7 73 15 128t17 109
q9 55 52 55q14 0 22.5 -13t5.5 -37q-14 -103 -21.5 -207.5t-7.5 -224.5zM373 401q-14 -7 -29 3q-14 12 -30 18t-36 6q-27 0 -51 -19t-42.5 -53t-29.5 -81.5t-11 -104.5t18.5 -83.5t48.5 -26.5q29 0 56.5 20t50 59t37.5 95.5t19 130.5q1 10 1.5 19.5t0.5 18.5q-2 -2 -3 -2z
" />
    <glyph glyph-name="e" unicode="e" horiz-adv-x="517" 
d="M449 410q0 -48 -27 -85t-69 -62.5t-93 -38.5t-100 -13q-2 -8 -2.5 -16t-0.5 -16q0 -61 36 -93t90 -32q48 0 92 12t81 38q13 9 25 4t12 -22q0 -11 -6.5 -22.5t-23.5 -23.5q-16 -13 -37 -23t-45 -17t-49 -10.5t-50 -3.5q-43 0 -81.5 12.5t-67.5 36.5t-46 59t-17 81
q0 23 3 47q-23 12 -33 24t-10 29q0 13 11.5 21.5t25.5 1.5q5 -3 11.5 -4.5t11.5 -3.5q17 47 44.5 86t61 67t71 43.5t75.5 15.5q51 0 79 -24.5t28 -67.5zM344 434q-23 0 -46.5 -12t-45.5 -33t-40.5 -48.5t-31.5 -58.5q40 1 75.5 12t62.5 27.5t43 37.5t16 44q0 31 -33 31z" />
    <glyph glyph-name="f" unicode="f" horiz-adv-x="478" 
d="M422 422q-48 -6 -97 -9.5t-97 -4.5v-64q0 -83 4 -165.5t16 -154.5q3 -15 -2 -27.5t-24 -10.5q-18 1 -31 11.5t-17 28.5q-14 70 -21 153t-7 173v57q-22 0 -42.5 1t-39.5 3q-24 2 -38 13t-14 30q0 15 9 24t22 7q25 -3 51.5 -5t54.5 -3q4 58 13 101q15 83 51 117t89 34
q49 0 87 -27t55 -69q10 -22 -4 -32q-10 -8 -25 -5.5t-23 13.5q-31 50 -86 50q-24 0 -40.5 -18t-25.5 -68q-7 -38 -10 -96q48 1 96 4t96 9q11 2 21.5 -2t10.5 -22q0 -41 -32 -46z" />
    <glyph glyph-name="g" unicode="g" horiz-adv-x="506" 
d="M255 -224q-46 0 -89 18t-69 53q-12 16 -12 32q0 12 7.5 19t17.5 7q12 0 22 -3.5t27 -20.5q15 -15 38.5 -25.5t53.5 -10.5q25 0 46 13t36.5 41t24 72t8.5 105q0 49 -3.5 107t-14.5 109q-2 -48 -13.5 -91.5t-32 -76.5t-48.5 -52.5t-62 -19.5q-64 0 -100.5 47t-36.5 128
q0 59 13.5 109.5t37.5 87.5t56 58t69 21q59 0 88 -54q19 9 39 3t28 -26q30 -75 47.5 -167t17.5 -183q0 -148 -52 -224t-144 -76zM134 232q0 -57 15.5 -81t39.5 -24q25 0 44.5 19t33.5 54t22 83.5t10 107.5q-2 18 -21.5 32.5t-41.5 14.5q-43 0 -72.5 -51t-29.5 -155z" />
    <glyph glyph-name="h" unicode="h" horiz-adv-x="542" 
d="M318 424q-37 0 -77.5 -59.5t-64.5 -170.5q-3 -12 -4.5 -29.5t-3 -36l-3 -37t-2.5 -33.5q-1 -11 -1 -21t-1 -19q-2 -14 -12 -21.5t-24 -7.5q-18 0 -29.5 14t-10.5 32q2 60 4 123t2 123q0 122 -3 220.5t-11 188.5q-2 22 7.5 32t23.5 10q20 0 34.5 -11t16.5 -34
q7 -68 10 -154.5t1 -171.5q27 66 70 101t96 35q23 0 44 -6.5t38 -22t29 -40.5t17 -61q4 -29 5 -69.5t0 -83.5t-4 -85.5t-7 -76.5q-5 -38 -15 -50t-25 -12q-26 0 -38.5 15.5t-9.5 50.5q3 30 5 70.5t3 82.5t0.5 82t-4.5 70q-3 32 -15.5 47.5t-40.5 15.5z" />
    <glyph glyph-name="i" unicode="i" horiz-adv-x="284" 
d="M109 29q-9 45 -13 102.5t-3.5 117.5t5.5 117.5t15 102.5q7 30 33 30t38.5 -18.5t8.5 -38.5q-8 -48 -12.5 -101.5t-5.5 -107.5t1.5 -106t8.5 -98q2 -16 -2 -28t-23 -12q-18 0 -32.5 11t-18.5 29zM30 641q0 10 11 19.5t29.5 17t43 12t52.5 4.5q33 0 52.5 -2.5t29.5 -7.5
t13 -12.5t3 -16.5q0 -11 -7 -18.5t-21 -7.5q-44 0 -83 -7.5t-80 -20.5q-14 -5 -28.5 4.5t-14.5 35.5z" />
    <glyph glyph-name="j" unicode="j" horiz-adv-x="284" 
d="M-65 -191q-13 12 -13 29q0 13 6.5 21.5t17.5 8.5q9 0 14 -5q12 -8 30.5 -14.5t35.5 -6.5q56 0 80.5 82t24.5 232q0 89 -11 171t-27 142q-4 14 0.5 24t23.5 10q17 0 33 -7.5t21 -22.5q20 -57 34 -140.5t14 -187.5q0 -75 -8.5 -142t-28.5 -118t-54 -80.5t-86 -29.5
q-33 0 -61.5 10t-45.5 24zM-8 647q0 26 35.5 38.5t99.5 12.5q40 0 65 -4.5t38.5 -11t18.5 -15.5t5 -18q0 -11 -12 -17t-26 -6q-48 1 -91 -2t-78 -15q-22 -8 -38.5 5.5t-16.5 32.5z" />
    <glyph glyph-name="k" unicode="k" horiz-adv-x="521" 
d="M397 492q6 9 14.5 11.5t16.5 0t15 -9t9 -16.5q2 -11 1 -22.5t-9 -27.5q-21 -43 -60.5 -84.5t-90.5 -77.5q37 -71 88 -126.5t106 -87.5q19 -13 19 -30q0 -12 -8 -21t-25 -9q-14 0 -26.5 4t-22.5 9q-54 32 -100 83t-74 108q-5 9 -8 17.5t-5 16.5l-24 -14t-25 -13
q-5 -2 -9.5 -4t-9.5 -3q2 -42 6 -84.5t10 -86.5q2 -20 -4.5 -30.5t-20.5 -10.5q-29 0 -44.5 19.5t-20.5 55.5q-11 85 -14.5 167t0 162t13 160t24.5 161q3 24 30 24q29 0 37.5 -30t0.5 -84q-10 -76 -15.5 -163.5t-3.5 -184.5l6 3q67 36 122.5 92.5t101.5 125.5z" />
    <glyph glyph-name="l" unicode="l" horiz-adv-x="280" 
d="M124 30q-21 28 -30.5 61t-14.5 78q-13 126 -8 257.5t25 271.5q2 14 9 25t20 11q29 0 40.5 -20t8.5 -43q-15 -124 -20 -250t9 -255q5 -44 20 -72t44 -46q11 -6 14.5 -13t3.5 -17q0 -15 -12 -25t-30 -10t-41.5 13.5t-37.5 33.5z" />
    <glyph glyph-name="m" unicode="m" horiz-adv-x="785" 
d="M180 358q23 68 62 107.5t87 39.5q42 0 64 -31t29 -85q5 -35 6 -68.5t-1 -73.5q20 65 39 110.5t40 74t44.5 41.5t51.5 13q44 0 68 -30t33 -107q4 -35 6.5 -76.5t3 -84.5t0 -84t-2.5 -75q-2 -37 -25 -37q-27 0 -41.5 15.5t-13.5 44.5q2 37 2 80t-1 85t-3.5 81.5t-6.5 71.5
q-3 36 -27 36q-19 0 -35.5 -20.5t-37.5 -74.5q-25 -62 -47 -133.5t-40 -152.5q-4 -15 -14 -25t-25 -10q-22 0 -33 11.5t-9 32.5q6 88 5.5 176.5t-7.5 169.5q-3 42 -36 42q-21 0 -45 -27.5t-46.5 -78.5t-40 -123.5t-24.5 -163.5q-1 -17 -9.5 -28.5t-26.5 -11.5
q-24 0 -35.5 16t-7.5 42q8 52 11 116t3 123q0 36 -2.5 62t-6 44t-7.5 29.5t-8 18.5q-8 14 -12 22t-4 19q0 25 31 25q16 0 31.5 -8t28.5 -26t22.5 -46t12.5 -68z" />
    <glyph glyph-name="n" unicode="n" horiz-adv-x="552" 
d="M378 390q-6 32 -37 32q-21 0 -43 -19t-44 -54q-33 -54 -58 -131.5t-30 -168.5q-2 -36 -10.5 -46t-22.5 -10q-26 0 -40.5 14t-10.5 54q5 60 8.5 117t3.5 111q0 36 -2.5 62t-6 44t-7.5 29.5t-8 18.5q-8 14 -12 22t-4 19q0 25 31 25q32 0 57.5 -37.5t31.5 -121.5
q41 81 83.5 113.5t83.5 32.5q51 0 82 -28t39 -78q13 -75 18 -153t6 -177q0 -38 -8.5 -54t-29.5 -16q-29 0 -42.5 20t-11.5 55q2 97 -2 176.5t-14 148.5z" />
    <glyph glyph-name="o" unicode="o" horiz-adv-x="484" 
d="M251 424q-11 0 -22 -2l-22 -4q-30 -50 -47 -109.5t-17 -128.5q0 -65 14 -93t40 -28q36 0 65 24.5t49 61.5t31 81.5t11 85.5q0 59 -29 85.5t-73 26.5zM257 482q37 0 69.5 -11.5t56.5 -33.5t37.5 -53.5t13.5 -71.5q0 -65 -19 -124.5t-52.5 -104.5t-78 -72t-95.5 -27
q-26 0 -50 12t-43 35t-30 57t-11 79q0 67 16 130t43 116q-4 7 -4 17q0 21 33 32q10 14 21 28t24 27q10 10 22.5 16.5t25.5 6.5q26 0 28.5 -18.5t-12.5 -39.5h5z" />
    <glyph glyph-name="p" unicode="p" horiz-adv-x="523" 
d="M172 -170q2 -27 -4 -39.5t-24 -12.5q-26 0 -39.5 27t-19.5 84q-11 94 -5 217.5t28 257.5q-11 0 -19.5 6t-8.5 18q0 11 12.5 25t27.5 25l2 1q2 13 5 26t6 27q5 18 19 29.5t38 8.5q40 -5 31 -42q-1 -2 -1 -3.5t-1 -3.5q33 9 62 9q43 0 78.5 -12t60.5 -36t39 -59.5t14 -81.5
q0 -52 -14.5 -99.5t-42 -86.5t-67 -68.5t-90.5 -44.5q-31 -10 -53 -0.5t-22 28.5q0 22 31 34q73 26 120 85t47 150q0 60 -25 90.5t-87 30.5q-33 0 -66 -11q-30 -158 -36.5 -300.5t4.5 -278.5z" />
    <glyph glyph-name="q" unicode="q" horiz-adv-x="533" 
d="M371 424q-9 3 -20 5t-22 2q-90 0 -139 -66t-49 -178q0 -35 6 -58t16 -37t22.5 -20t25.5 -6q32 0 60 30.5t50 81t37 114.5t22 130q-5 -2 -9 2zM413 450q23 -3 35 -21t9 -45q-8 -93 -13.5 -177.5t-5.5 -178.5q0 -58 2 -107.5t4 -82.5q2 -35 -8 -48.5t-34 -13.5
q-17 0 -26 14.5t-11 31.5q-2 13 -3.5 28.5t-2 32t-1 32.5t-0.5 29q0 48 1.5 96.5t5.5 87.5q-26 -75 -68 -107.5t-93 -32.5q-71 0 -110 53t-39 153q0 73 20.5 130.5t54.5 97.5t78 61t92 21q31 0 58 -8t43 -23q5 -5 8.5 -11.5t3.5 -11.5z" />
    <glyph glyph-name="r" unicode="r" horiz-adv-x="458" 
d="M88 64q7 106 6 206.5t-15 197.5q-2 19 7 28.5t26 9.5q20 0 30 -12t15 -30q8 -25 14 -50t8 -57q17 27 41 50.5t52 42.5t59 32t61 20q24 5 35 -0.5t11 -19.5t-8.5 -23t-35.5 -21q-63 -28 -107.5 -73.5t-76.5 -109.5q-15 -32 -25 -87.5t-12 -141.5q0 -14 -9.5 -23t-27.5 -9
q-24 0 -37.5 18t-10.5 52z" />
    <glyph glyph-name="s" unicode="s" horiz-adv-x="461" 
d="M94 109q29 -23 60.5 -36t71.5 -13q44 0 70.5 14t26.5 53q0 29 -18 49t-73 38q-44 15 -74.5 31t-49 35.5t-27 42.5t-8.5 51q0 57 41.5 93t118.5 36q37 0 71.5 -11t60.5 -34q7 -7 11 -11.5t4 -15.5q0 -9 -4.5 -16.5t-12 -11.5t-16 -4t-16.5 7q-16 14 -40.5 22.5t-50.5 8.5
q-78 0 -78 -60q0 -29 22 -51.5t76 -40.5q70 -23 111.5 -58.5t41.5 -102.5q0 -61 -47 -99.5t-130 -38.5q-42 0 -83.5 13t-68.5 33q-15 12 -25.5 25.5t-10.5 30.5q0 12 5.5 21.5t19.5 9.5q3 0 8.5 -2t12.5 -8z" />
    <glyph glyph-name="t" unicode="t" horiz-adv-x="486" 
d="M442 434q-45 -20 -96 -30.5t-105 -12.5q-5 -49 -8.5 -96t-3.5 -86q0 -76 17 -110t58 -34q38 0 69 11t53 33q8 10 19 10q10 0 16.5 -7.5t6.5 -21.5q0 -16 -13 -34t-35.5 -33t-53 -25t-64.5 -10q-74 0 -118 52t-44 166q0 41 3 88t9 96q-26 1 -50.5 3t-47.5 7q-42 9 -42 45
q0 41 50 30q20 -5 46 -6.5t55 -2.5q8 51 18.5 96t22.5 80q5 17 19 27t31 10q14 0 21.5 -9t5.5 -23q-8 -38 -16 -84.5t-15 -96.5q44 2 86.5 7t88.5 18q14 4 25 -2t11 -27q0 -19 -19 -28z" />
    <glyph glyph-name="u" unicode="u" horiz-adv-x="554" 
d="M478 444q0 -27 -3.5 -68t-8.5 -77q-10 -78 -3.5 -138.5t21.5 -105.5q6 -17 13 -26t7 -21q0 -10 -8.5 -17.5t-21.5 -7.5q-19 0 -33.5 12t-25 32.5t-17 46.5t-8.5 54q-27 -69 -71 -104.5t-109 -35.5q-29 0 -54.5 11.5t-44.5 37t-30 65t-11 96.5q0 68 9 139.5t29 134.5
q8 24 35 24q21 0 33.5 -17t5.5 -52q-9 -47 -16 -103.5t-7 -115.5q0 -45 3.5 -74t10.5 -46t16.5 -23.5t20.5 -6.5q37 0 68.5 28.5t56.5 82t41.5 130t23.5 171.5q1 9 8 16t18 7q22 0 37 -13.5t15 -35.5z" />
    <glyph glyph-name="v" unicode="v" horiz-adv-x="544" 
d="M61 460q-2 17 7 27.5t24 10.5q22 0 38 -12t19 -38q10 -88 32 -173.5t46 -156.5q8 -25 15.5 -36.5t18.5 -11.5q9 0 16.5 7.5t16.5 25.5q38 81 67 175.5t49 194.5q6 23 28 23q10 0 19 -4.5t15.5 -12.5t9.5 -20.5t1 -27.5q-14 -95 -42 -185t-69 -169q-23 -44 -48.5 -63
t-63.5 -19q-40 0 -67 25.5t-48 81.5q-14 39 -27.5 84t-24.5 92t-19.5 93.5t-12.5 88.5z" />
    <glyph glyph-name="w" unicode="w" horiz-adv-x="793" 
d="M455 43q-26 37 -45.5 88t-32.5 111q-35 -103 -100 -196q-16 -24 -37 -37t-50 -13q-32 0 -57 27.5t-41 80.5q-24 85 -29.5 172.5t2.5 171.5q1 18 5.5 33.5t27.5 15.5t38 -16.5t13 -42.5q-5 -78 -2.5 -159t19.5 -157q5 -20 11 -31.5t16 -11.5q14 0 24 15q16 21 32.5 49.5
t31.5 61.5t29 68t25 70q11 37 42 37q22 0 37 -14.5t23 -49.5q11 -56 29.5 -112t39.5 -101q6 -11 13.5 -20t18.5 -9q20 0 36 32q18 35 32 77t24.5 87t17 91t8.5 89q2 26 9 36.5t21 10.5q22 0 34.5 -12t12.5 -29q0 -43 -4.5 -90.5t-14.5 -95.5t-25 -95.5t-37 -90.5
q-24 -46 -50.5 -67.5t-63.5 -21.5q-25 0 -46.5 12.5t-36.5 35.5z" />
    <glyph glyph-name="x" unicode="x" horiz-adv-x="517" 
d="M66 428q-7 12 -11.5 23.5t-4.5 18.5q0 33 32 33q21 0 35 -10t27 -32q19 -33 43.5 -71t53.5 -78q35 44 73.5 85t79.5 79q11 9 24 17.5t24 8.5q18 0 26.5 -11t8.5 -28q0 -24 -17 -38q-45 -40 -86 -84.5t-81 -96.5q35 -45 73.5 -87t79.5 -80q11 -10 19.5 -22.5t8.5 -29.5
q0 -11 -9 -20.5t-20 -9.5q-16 0 -26.5 6.5t-22.5 17.5q-38 33 -77 73t-77 84q-27 -38 -53.5 -78.5t-52.5 -85.5q-5 -8 -11 -12.5t-17 -4.5q-20 0 -31 11t-11 30q0 10 4.5 22t10.5 24q44 80 106 162q-36 48 -67 94.5t-54 89.5z" />
    <glyph glyph-name="y" unicode="y" horiz-adv-x="533" 
d="M89 -140q-16 24 -13 44t26 20q8 0 16 -5.5t13 -12.5q20 -26 50 -42t66 -16q28 0 51.5 14.5t40.5 53t27 105.5t10 173q0 39 -1 65.5t-4 60.5q-18 -52 -43 -100t-55 -86q-20 -23 -43 -36.5t-49 -13.5q-42 0 -69 30t-35 84q-4 24 -6.5 55t-3.5 62.5t-1.5 61t0.5 50.5
q2 43 7 57t24 14q24 0 40 -17.5t14 -52.5q-1 -21 -1.5 -52t0 -63.5t2 -63t3.5 -51.5q3 -34 25 -34q11 0 20.5 7t19.5 20q34 42 65 111.5t60 165.5q3 13 14 19.5t24 6.5q23 0 37.5 -15t22.5 -51q10 -51 15 -110.5t5 -120.5q0 -117 -12.5 -197t-38.5 -130t-66 -72t-95 -22
q-50 0 -93 22.5t-69 61.5z" />
    <glyph glyph-name="z" unicode="z" horiz-adv-x="490" 
d="M175 132q20 33 39.5 66.5t40.5 65.5q24 39 47.5 76t44.5 74q-31 5 -59.5 8t-55.5 3q-39 0 -75.5 -4t-68.5 -11q-19 -5 -36 6.5t-17 33.5q0 13 6.5 20t23.5 12q58 16 146 16q43 0 81 -4t66.5 -14t44.5 -27t16 -43q0 -14 -4.5 -27t-14.5 -31q-18 -34 -38 -67t-40 -67
q-22 -35 -43 -69.5t-40 -68.5q-11 -21 10 -21q39 0 82 9t81 22q19 6 31 -2t12 -24q0 -17 -16 -26q-45 -24 -99.5 -37t-111.5 -13q-38 0 -58 18t-20 48q0 20 7 39t18 39z" />
    <glyph glyph-name="braceleft" unicode="{" horiz-adv-x="457" 
d="M48 287q0 20 17.5 31.5t48.5 23.5q30 12 44 27.5t14 44.5q0 19 -2.5 42.5t-6 48.5t-6 50.5t-2.5 48.5q0 130 113 130q23 0 48.5 -2.5t48.5 -10.5q15 -5 23 -9t8 -18q0 -22 -16 -29t-37 -5q-14 2 -28 3t-28 1q-23 0 -34.5 -16.5t-11.5 -66.5q0 -19 2.5 -41t5 -44.5
t5 -44.5t2.5 -41q0 -47 -29.5 -83t-84.5 -47q54 -12 86 -48t32 -83q0 -49 -3.5 -93t-3.5 -78q0 -47 10 -64.5t33 -17.5q20 0 37 1.5t35 6.5q21 6 37 0t16 -28q0 -20 -31 -32q-23 -10 -49 -14.5t-49 -4.5q-56 0 -90.5 35.5t-34.5 109.5q0 28 1 49.5t1.5 41t1.5 39.5t1 45
q0 29 -19.5 48t-49.5 29q-33 11 -44 26.5t-11 38.5z" />
    <glyph glyph-name="bar" unicode="|" horiz-adv-x="336" 
d="M194 276q5 -125 12.5 -239.5t18.5 -202.5q3 -23 -10 -43.5t-42 -20.5q-13 0 -20 11t-9 25q-16 100 -22.5 218.5t-8.5 252.5q-2 66 -2.5 124.5t0 111.5t2.5 103.5t7 101.5q1 14 8.5 25t20.5 11q29 0 41.5 -20t10.5 -43q-5 -90 -8.5 -190.5t1.5 -224.5z" />
    <glyph glyph-name="braceright" unicode="}" horiz-adv-x="457" 
d="M409 280q0 -20 -17.5 -32t-48.5 -24q-29 -11 -43 -27t-14 -45v-43.5t-0.5 -51t-2.5 -52.5t-5 -49q-8 -63 -39.5 -97t-84.5 -34q-24 0 -45 2t-41 9q-15 5 -23 10.5t-8 19.5q0 21 16 28t37 5q28 -3 56 -3q10 0 17.5 3.5t13.5 12.5t10 25t7 41q2 19 4 42.5t3 47.5t1 47v41
q-2 47 28 83t86 48q-54 11 -86.5 47.5t-32.5 83.5q0 48 -0.5 88.5t-4.5 74.5q-5 47 -18.5 66t-36.5 19q-14 0 -26 -1t-22 -3q-22 -2 -37.5 2t-15.5 26q0 10 8 18.5t23 13.5q37 12 87 12q55 0 86 -35t38 -110q4 -35 6 -80.5t2 -87.5q0 -29 19 -47.5t49 -29.5q33 -11 44 -26
t11 -38z" />
    <glyph glyph-name="asciitilde" unicode="~" 
d="M347 233q-30 0 -51.5 12t-38.5 26.5t-31.5 26.5t-31.5 12q-15 0 -26 -10t-16 -23q-8 -17 -24 -27.5t-39 -7.5q-31 6 -24 46q8 45 38.5 72.5t80.5 27.5q31 0 53.5 -13t40.5 -28t34 -28t33 -13q20 0 34 14t26 48q11 34 43 34q15 0 21 -11.5t2 -30.5q-11 -60 -45 -93.5
t-79 -33.5z" />
    <glyph glyph-name="uni00A0" unicode="&#xa0;" horiz-adv-x="300" 
 />
    <glyph glyph-name="exclamdown" unicode="&#xa1;" horiz-adv-x="356" 
d="M220 -144q-5 -34 -14.5 -52.5t-36.5 -18.5q-23 0 -29.5 14t-4.5 34q14 113 16.5 213t-6.5 195q-3 30 5 50t28 20q21 0 31 -14.5t13 -31.5q14 -102 13 -207t-15 -202zM175 396q-23 0 -39.5 13.5t-16.5 47.5q0 20 13 32.5t32 12.5q31 0 48 -15.5t17 -44.5q0 -46 -54 -46z
" />
    <glyph glyph-name="cent" unicode="&#xa2;" horiz-adv-x="506" 
d="M317 548q-1 -14 -1.5 -26.5t-1.5 -26.5q55 -8 94 -39q16 -12 16 -34q0 -17 -14.5 -23t-29.5 5q-11 8 -29 15t-39 10q-3 -91 -2.5 -182.5t4.5 -184.5q70 11 125 60q14 13 25.5 4.5t11.5 -25.5q0 -13 -7 -24t-18 -22q-23 -24 -57 -41t-77 -24q1 -22 2 -43t3 -43
q1 -12 0.5 -23.5t-4.5 -20.5t-12 -14.5t-21 -5.5q-11 0 -17.5 11t-8.5 25q-2 28 -4 55.5t-4 55.5q-94 5 -142.5 62.5t-48.5 150.5q0 62 14 113.5t39 89t60 61t76 30.5q1 20 2 40.5t3 41.5q1 14 7.5 25t17.5 11q13 0 21 -5.5t12 -14.5t5 -20.5t0 -23.5zM148 203
q0 -70 25 -104t74 -39q-4 92 -4.5 181.5t2.5 182.5q-47 -20 -72 -80.5t-25 -140.5z" />
    <glyph glyph-name="sterling" unicode="&#xa3;" horiz-adv-x="595" 
d="M81 92q8 -2 16 -2.5t16 -1.5q22 48 32 106.5t12 132.5q-8 -1 -14.5 -2t-13.5 -2q-12 -2 -25 -1t-23.5 5.5t-17.5 13t-7 20.5q0 14 13 22t36 12q13 2 26 3.5t27 3.5q1 161 49 235.5t149 74.5q21 0 41.5 -4.5t39 -13t34 -20.5t25.5 -26q7 -9 8 -18t-2 -17q-5 -13 -20.5 -18
t-29.5 9q-19 19 -41.5 26.5t-48.5 7.5q-24 0 -44 -12t-34.5 -39.5t-23 -72t-10.5 -108.5q78 0 144 -9q20 -3 32.5 -15t12.5 -27q0 -18 -8.5 -22t-23.5 -3q-35 2 -75.5 3.5t-82.5 -0.5q-2 -73 -12 -138.5t-31 -115.5q82 -5 161.5 -3t160.5 13q16 2 26.5 -3t10.5 -19
q0 -48 -37 -54q-106 -15 -217 -17t-220 16q-20 4 -30.5 19.5t-10.5 35.5q0 18 9 22.5t22 2.5z" />
    <glyph glyph-name="currency" unicode="&#xa4;" horiz-adv-x="579" 
d="M488 518q-30 -15 -64 -49q23 -26 34.5 -60t11.5 -72q0 -55 -22 -97q15 -17 30.5 -29.5t29.5 -20.5q8 -7 14 -18.5t7 -29.5q0 -17 -10 -23t-23 1q-50 27 -87 72q-23 -18 -54 -28t-69 -10q-28 0 -54 7.5t-48 24.5q-36 -37 -83 -60q-14 -6 -23.5 0t-8.5 23q2 18 8.5 29.5
t15.5 18.5q11 6 24 15t26 21q-11 20 -16.5 44t-5.5 54q0 60 25 113q-18 17 -35.5 28.5t-33.5 19.5q-9 6 -16.5 17t-9.5 29q-2 17 7 23.5t23 1.5q50 -22 87 -56q7 4 15 7l16 6l21 21q18 18 33 18q17 0 24 -8t8 -19q52 -3 93 -25q41 52 102 82q14 6 23.5 0t8.5 -23
q-2 -18 -8.5 -29.5t-15.5 -18.5zM194 329q0 -55 27.5 -81.5t66.5 -26.5q51 0 79.5 28.5t28.5 88.5q0 31 -10.5 55.5t-27.5 40.5t-38.5 24.5t-44.5 8.5q-9 0 -17.5 -1t-16.5 -3q-22 -26 -34.5 -59t-12.5 -75z" />
    <glyph glyph-name="yen" unicode="&#xa5;" horiz-adv-x="613" 
d="M480 253q-22 2 -54.5 3t-68.5 1q0 -15 -0.5 -30.5t-0.5 -30.5q62 3 128 9q13 1 19 -6t6 -18q0 -19 -12.5 -26.5t-31.5 -9.5q-26 -3 -54 -5.5t-57 -4.5q-2 -29 -4.5 -56t-5.5 -50q-2 -20 -13 -28.5t-26 -8.5q-25 0 -31.5 25t-4.5 60q1 14 1 27.5t1 28.5q-54 0 -105 3
q-32 3 -47 9t-15 26q0 11 8 21.5t28 8.5q33 -3 66 -4l66 -2v31.5t-1 30.5q-31 -1 -59 -2t-51 -3q-62 -6 -62 34q0 11 8 19.5t28 10.5q61 4 135 6q-1 14 -1.5 28t-1.5 28v8q-20 10 -39.5 26.5t-39.5 36.5q-41 41 -83 100.5t-76 127.5q-8 16 1 29t27 13q25 0 40 -11t25 -30
q12 -23 26.5 -46.5t30.5 -46.5t32.5 -44t31.5 -38q26 -29 38.5 -40.5t23.5 -11.5q10 0 22 9.5t35 35.5q40 41 73.5 86.5t71.5 108.5q6 10 12.5 17t23.5 7q11 0 21 -6.5t16.5 -17.5t7 -24.5t-7.5 -27.5q-32 -54 -72 -103.5t-83 -91.5q-25 -23 -41 -37t-32 -22q3 -11 3 -21
q0 -11 0.5 -21.5t0.5 -21.5q42 -1 78 -2.5t65 -4.5q25 -3 25 -24q0 -19 -12.5 -29t-31.5 -8z" />
    <glyph glyph-name="brokenbar" unicode="&#xa6;" horiz-adv-x="336" 
d="M143 -190q-14 76 -15 168.5t4 192.5q2 15 12 22.5t23 7.5q26 0 35.5 -19t7.5 -39q-2 -48 -2.5 -90.5t0.5 -83t4 -80t8 -79.5q2 -15 -3 -27t-25 -12q-41 0 -49 39zM126 366q-8 91 -9.5 182t8.5 177q2 15 12 22.5t23 7.5q26 0 35.5 -19t7.5 -39q-3 -40 -5 -77.5t-2 -76.5
t1 -82t4 -95q1 -15 -1 -27t-21 -12q-18 0 -34.5 10t-18.5 29z" />
    <glyph glyph-name="section" unicode="&#xa7;" horiz-adv-x="584" 
d="M476 15q0 -37 -12.5 -65.5t-35 -48.5t-53 -30.5t-65.5 -10.5q-50 0 -93 16t-73 38q-14 10 -25 24t-11 35q0 9 4.5 15.5t11.5 9t14.5 1.5t12.5 -5q31 -25 69.5 -40.5t75.5 -15.5q50 0 72.5 21.5t22.5 51.5q0 32 -27 63.5t-86 50.5q-81 26 -122 72.5t-41 105.5q0 32 12 63
t37 57q13 13 26 21q-45 32 -60 66.5t-15 60.5q0 30 11.5 56t32.5 44.5t50.5 29.5t66.5 11q42 0 76 -11t57 -29q10 -8 14 -15.5t4 -19.5q0 -15 -16 -24t-33 2t-41 18t-53 7q-41 0 -59.5 -17t-18.5 -49q0 -31 23.5 -58.5t83.5 -48.5q45 -16 76.5 -34t50.5 -39t27.5 -45.5
t8.5 -53.5q0 -43 -22.5 -78t-65.5 -52q-4 -2 -10 -4q51 -29 74.5 -66.5t23.5 -79.5zM325 207q32 10 49 32t17 53q0 38 -25.5 62.5t-91.5 47.5q-5 2 -8.5 3t-8.5 3q-7 -12 -19 -23q-15 -12 -23.5 -33t-8.5 -47q0 -14 2.5 -27t12.5 -26.5t30 -28t54 -29.5q6 9 20 13z" />
    <glyph glyph-name="dieresis" unicode="&#xa8;" horiz-adv-x="380" 
d="M105 683q22 0 38 -12.5t16 -46.5q0 -17 -15 -30t-34 -13q-28 0 -43 13.5t-15 35.5q0 23 12 38t41 15zM275 581q-25 0 -39.5 15t-14.5 42q0 22 15.5 33.5t34.5 11.5q29 0 43 -13t14 -36t-12 -38t-41 -15z" />
    <glyph glyph-name="copyright" unicode="&#xa9;" horiz-adv-x="926" 
d="M492 -66q-80 5 -154 33t-130.5 76.5t-90 116t-33.5 151.5q0 92 31.5 167t88 128.5t133.5 82.5t168 29q69 0 130.5 -24.5t107.5 -70.5t72.5 -110.5t26.5 -144.5q0 -143 -70 -266t-204 -211q-20 -13 -41 -21t-39 -8q-12 0 -21.5 4t-14 10.5t-1.5 15t17 16.5q11 7 22.5 14
t22.5 14q-5 -1 -10.5 -1.5t-10.5 -0.5zM508 -2q20 -2 32 -5.5t12 -17.5q0 -5 -4 -13q108 81 162 183t54 223q0 65 -19.5 117.5t-54 89.5t-82 57t-102.5 20q-73 0 -135.5 -23t-108.5 -67t-72.5 -108.5t-26.5 -148.5q0 -68 27 -123.5t73.5 -95.5t109.5 -63t135 -25zM272 293
q0 57 17.5 102.5t47.5 77.5t70 49t84 17q23 0 42 -4t36 -12q15 -6 29.5 -18.5t14.5 -26.5q0 -24 -15 -31.5t-29 3.5q-17 12 -36 17t-40 5q-26 0 -49 -13t-41 -36t-28.5 -56.5t-10.5 -73.5q0 -51 23 -78t80 -27q43 0 85.5 13t77.5 39q14 12 26 5.5t12 -25.5q0 -18 -7 -28.5
t-19 -19.5q-31 -24 -78 -40.5t-107 -16.5q-43 0 -77 13.5t-58 37t-37 56t-13 71.5z" />
    <glyph glyph-name="ordfeminine" unicode="&#xaa;" horiz-adv-x="493" 
d="M268 665q-3 16 2.5 25.5t18.5 9.5q21 0 32.5 -11t14.5 -28q5 -34 12 -69.5t15.5 -69t18.5 -63.5t21 -52q6 -9 6 -19q0 -11 -7.5 -15.5t-18.5 -4.5q-18 0 -36 20t-29 66q-14 -46 -46.5 -75.5t-83.5 -29.5q-45 0 -74.5 31.5t-29.5 103.5q0 45 13.5 86t34 72.5t45.5 50.5
t49 19q12 0 22 -6t10 -20q0 -9 -4 -13.5t-12 -9.5q-37 -22 -58.5 -70.5t-21.5 -111.5q0 -43 8.5 -58.5t25.5 -15.5q32 0 55.5 50t23.5 147q0 16 -2.5 31t-4.5 30zM350 309q20 5 34 -4t14 -27q0 -9 -6 -16t-21 -11q-51 -12 -102.5 -18t-102.5 -6q-29 0 -41 7t-12 21
q0 18 12 29t35 9q45 -1 94 2t96 14z" />
    <glyph glyph-name="guillemotleft" unicode="&#xab;" horiz-adv-x="639" 
d="M123 282q-23 29 -23 59q0 14 5.5 27.5t18.5 24.5q33 29 75.5 52.5t81.5 37.5q25 8 36 -0.5t11 -19.5q0 -14 -9 -22t-23 -15q-28 -14 -60.5 -33t-53.5 -38q-10 -9 -10 -18t9 -18q26 -32 59.5 -56t62.5 -41q17 -9 20.5 -17.5t0.5 -15.5q-6 -14 -26 -18.5t-44 8.5
q-35 17 -69.5 44t-61.5 59zM330 272q-12 14 -20.5 29t-8.5 30q0 14 8.5 27.5t21.5 24.5q33 30 76.5 56.5t84.5 40.5q25 9 36 0t11 -20q0 -14 -9 -22t-23 -15q-29 -14 -63 -36.5t-55 -41.5q-12 -10 -12 -18q0 -5 3 -9t8 -9q27 -29 60 -50.5t62 -36.5q17 -9 20.5 -17.5
t0.5 -15.5q-6 -14 -25.5 -18t-44.5 8q-35 17 -69.5 39t-61.5 54z" />
    <glyph glyph-name="logicalnot" unicode="&#xac;" 
d="M385 186q2 42 1 80.5t-6 76.5q-54 3 -123 0.5t-132 -11.5q-20 -3 -35 7t-15 30q0 14 9 22t34 12q27 4 62.5 8t74.5 6.5t79.5 1.5t76.5 -5q23 -3 36.5 -14.5t13.5 -28.5q0 -14 -10 -22q5 -42 4.5 -84t-2.5 -82q-1 -10 -12 -17.5t-27 -7.5q-17 0 -23.5 8t-5.5 20z" />
    <glyph glyph-name="uni00AD" unicode="&#xad;" horiz-adv-x="370" 
d="M278 268q-18 1 -41 1.5t-47.5 0.5t-47.5 -1t-39 -3q-21 -2 -31.5 9t-10.5 31q0 32 28 35q21 3 46 4t51.5 1t52.5 -1.5t49 -4.5q9 -2 15 -9t6 -21q0 -24 -9.5 -33.5t-21.5 -8.5z" />
    <glyph glyph-name="registered" unicode="&#xae;" horiz-adv-x="926" 
d="M492 -66q-80 5 -154 33t-130.5 76.5t-90 116t-33.5 151.5q0 92 31.5 167t88 128.5t133.5 82.5t168 29q69 0 130.5 -24.5t107.5 -70.5t72.5 -110.5t26.5 -144.5q0 -143 -70 -266t-204 -211q-20 -13 -41 -21t-39 -8q-12 0 -21.5 4t-14 10.5t-1.5 15t17 16.5q11 7 22.5 14
t22.5 14q-5 -1 -10.5 -1.5t-10.5 -0.5zM508 -2q20 -2 32 -5.5t12 -17.5q0 -5 -4 -13q108 81 162 183t54 223q0 65 -19.5 117.5t-54 89.5t-82 57t-102.5 20q-73 0 -135.5 -23t-108.5 -67t-72.5 -108.5t-26.5 -148.5q0 -68 27 -123.5t73.5 -95.5t109.5 -63t135 -25zM637 131
q7 -14 1.5 -25t-27.5 -11q-14 0 -26 7t-20 17q-13 18 -30.5 36.5t-37 37t-40.5 35.5t-42 31q-10 7 -16.5 16.5t-6.5 23.5t5 20t17 11q50 20 84 52.5t34 74.5q0 43 -45 43q-29 0 -57 -10t-50 -27q-5 -78 -1.5 -158t17.5 -167q3 -23 -3.5 -33t-24.5 -10q-40 0 -48 42
q-8 39 -13 84t-7 92.5t-1.5 95.5t3.5 93q2 19 12.5 31.5t33.5 12.5q20 0 25 -25q18 16 50 27.5t61 11.5q57 0 92.5 -27t35.5 -78q0 -54 -33 -95.5t-89 -73.5q41 -27 81 -68.5t66 -86.5z" />
    <glyph glyph-name="macron" unicode="&#xaf;" horiz-adv-x="380" 
d="M285 594q-22 1 -46.5 1t-48 -1t-44 -2t-33.5 -2q-32 -3 -46.5 6t-14.5 34q0 14 7.5 23t27.5 11q50 5 104.5 4.5t111.5 -5.5q24 -3 24 -29q0 -23 -12 -32t-30 -8z" />
    <glyph glyph-name="degree" unicode="&#xb0;" horiz-adv-x="391" 
d="M197 641q-1 0 -5.5 -0.5t-12.5 -4.5q-18 -21 -27.5 -50.5t-9.5 -54.5q0 -36 8.5 -51.5t25.5 -15.5q30 0 52.5 32.5t22.5 85.5q0 31 -14.5 45t-39.5 14zM189 729q16 0 23.5 -11t7.5 -25q45 -5 73 -37.5t28 -77.5q0 -39 -11 -70.5t-30.5 -54t-47.5 -34.5t-61 -12
q-42 0 -71.5 29.5t-29.5 90.5q0 31 6.5 61t23.5 57q-1 2 -1 5v4q0 17 24 28q13 22 28 34.5t38 12.5z" />
    <glyph glyph-name="plusminus" unicode="&#xb1;" 
d="M231 217q-5 26 -8 52t-5 52q-18 -2 -35.5 -4t-34.5 -4q-76 -12 -76 37q0 14 9.5 23.5t34.5 12.5q49 6 99 9q-1 27 -0.5 53.5t2.5 53.5q1 15 11.5 22.5t23.5 7.5q26 0 34.5 -19t8.5 -39q-2 -38 0 -77q35 0 69 -1t69 -3q16 -1 23 -8.5t7 -18.5q0 -23 -15 -30.5t-38 -7.5
q-27 -1 -55.5 -1t-57.5 -1q3 -57 9 -109q2 -15 -2 -27t-24 -12q-18 0 -32 10t-17 29zM410 62q-63 1 -132 -1.5t-130 -10.5q-39 -6 -57.5 6t-18.5 36q0 14 9.5 23.5t34.5 12.5q80 9 159 9.5t158 -6.5q30 -3 30 -27q0 -23 -15 -32.5t-38 -9.5z" />
    <glyph glyph-name="uni00B2" unicode="&#xb2;" horiz-adv-x="380" 
d="M323 296q-43 -18 -103 -21.5t-118 6.5q-17 3 -29.5 10.5t-17.5 18.5t-1.5 25t18.5 30q32 34 66 77t57 82q7 11 11.5 26t4.5 32q0 33 -17.5 44t-49.5 11q-25 0 -57 -13q-15 -6 -29.5 3.5t-14.5 26.5q0 9 4.5 17.5t15.5 13.5q17 8 39 13t48 5q63 0 100.5 -31t37.5 -89
q0 -24 -6 -45t-17 -41q-22 -42 -53.5 -83t-66.5 -73q36 -5 75 -3t79 14q16 5 29.5 0t13.5 -24q0 -14 -5.5 -21t-13.5 -11z" />
    <glyph glyph-name="uni00B3" unicode="&#xb3;" horiz-adv-x="380" 
d="M86 282q-16 6 -25 18.5t-9 27.5t10 20.5t21 0.5q20 -8 45 -13t48 -5q39 0 60.5 13.5t21.5 35.5q0 30 -35 51.5t-94 21.5q-31 0 -45 12t-14 31q0 9 6 15.5t18 6.5q73 0 109 19.5t36 48.5q0 63 -128 60q-23 0 -31 12t-8 22q0 13 12 19.5t52 6.5q34 0 65.5 -7.5t56 -22
t39 -35.5t14.5 -49q0 -36 -20.5 -61.5t-54.5 -40.5q47 -16 72.5 -47t25.5 -67q0 -46 -38.5 -78t-118.5 -32q-25 0 -49 4t-42 12z" />
    <glyph glyph-name="acute" unicode="&#xb4;" horiz-adv-x="380" 
d="M142 547q-12 0 -21.5 7.5t-9.5 21.5q0 17 20 34q18 17 36 43.5t32 60.5q3 8 10.5 14t17.5 6q17 0 29 -12.5t12 -31.5q0 -5 -1.5 -11t-3.5 -11q-12 -35 -36.5 -64.5t-47.5 -44.5q-21 -12 -37 -12z" />
    <glyph glyph-name="mu" unicode="&#xb5;" horiz-adv-x="563" 
d="M504 35q7 -13 0.5 -30t-29.5 -17q-17 0 -29 8.5t-24 27.5q-6 9 -10.5 18.5t-8.5 19.5q-27 -39 -65 -57.5t-82 -18.5t-77 19q-3 2 -6 3.5t-5 3.5q5 -48 11 -94.5t15 -93.5q9 -53 -28 -53q-23 0 -36.5 21t-21.5 54q-16 73 -25 154t-11.5 162.5t1.5 159.5t15 147
q3 16 9.5 26.5t26.5 10.5q27 0 40.5 -20.5t8.5 -51.5q-12 -73 -14.5 -163.5t3.5 -187.5q10 3 18 -1q14 -9 31 -14.5t38 -5.5q42 0 77 19t56 64q-2 22 -3 44.5t-1 45.5q0 58 4 111.5t10 92.5q5 31 13 42.5t25 11.5q21 0 33.5 -15.5t8.5 -56.5q-13 -121 -8.5 -220.5
t40.5 -165.5z" />
    <glyph glyph-name="paragraph" unicode="&#xb6;" horiz-adv-x="632" 
d="M72 495q0 50 13.5 90t35 68.5t49.5 43.5t58 15q24 0 44 -7.5t33 -22.5q9 17 32 17q25 0 37.5 -24.5t4.5 -81.5q-8 -54 -11 -131.5t-3 -162t3.5 -169t9.5 -152.5q4 -35 1.5 -50.5t-23.5 -15.5q-29 0 -40.5 17t-17.5 47q-8 35 -13 82t-8.5 98t-5 102t-1.5 93
q-13 -7 -30.5 -10.5t-35.5 -3.5q-27 0 -51 12t-42 33.5t-28.5 50.5t-10.5 62zM534 593q-2 -63 -3 -141.5t0 -161t4 -163.5t9 -149q4 -35 1.5 -50.5t-22.5 -15.5q-30 0 -42 17t-17 47q-10 67 -15.5 150.5t-7 172.5t0.5 179t8 170q2 27 11.5 39t30.5 12q24 0 34 -24t8 -82z
" />
    <glyph glyph-name="periodcentered" unicode="&#xb7;" horiz-adv-x="296" 
d="M147 362q23 0 39.5 -13.5t16.5 -47.5q0 -20 -13 -32.5t-32 -12.5q-31 0 -48 15.5t-17 44.5q0 46 54 46z" />
    <glyph glyph-name="cedilla" unicode="&#xb8;" horiz-adv-x="380" 
d="M185 40q21 0 23 -9.5t-6 -18.5q-17 -23 -24.5 -41t-7.5 -38q18 12 46 12q19 0 34.5 -7.5t26 -19.5t16 -27t5.5 -30q0 -51 -35.5 -79t-92.5 -28q-29 0 -53 11q-14 6 -24.5 15.5t-10.5 23.5q0 22 29 10q15 -8 30.5 -9.5t26.5 -1.5q26 0 44 14t18 43q0 28 -36 28
q-13 0 -23 -3t-18 -7t-15.5 -7t-14.5 -3q-10 0 -15.5 6.5t-5.5 24.5q0 26 8.5 58t24.5 55q6 10 16.5 19t33.5 9z" />
    <glyph glyph-name="uni00B9" unicode="&#xb9;" horiz-adv-x="380" 
d="M113 347q16 -3 33 -4.5t35 -2.5q-6 62 -6 134t5 138q-15 -9 -29 -18.5t-25 -17.5t-19 -10.5t-16 -2.5q-11 0 -17.5 7t-6.5 22q0 19 18 37q17 17 44.5 34.5t60.5 31.5q4 2 6 2q10 13 32 13q17 0 23.5 -12t4.5 -31q-3 -32 -5.5 -70t-3.5 -78t0 -81t4 -78v-9t-1 -9l24 2
t24 3q23 2 36.5 -1.5t13.5 -19.5q0 -31 -40 -40q-44 -9 -95.5 -9.5t-98.5 5.5q-26 4 -37 13t-11 24q0 20 14.5 25t32.5 3z" />
    <glyph glyph-name="ordmasculine" unicode="&#xba;" horiz-adv-x="493" 
d="M242 640q-2 0 -7 -0.5t-13 -4.5q-10 -14 -17.5 -33t-13 -40t-8.5 -42.5t-3 -39.5q0 -49 8 -70t28 -21q16 0 31.5 12.5t28 35t20 54t7.5 70.5t-17 59t-44 20zM233 728q17 0 23 -10.5t0 -27.5q54 -5 85.5 -43.5t31.5 -92.5q0 -45 -11 -85t-32 -70t-51 -47.5t-67 -17.5
q-24 0 -43.5 11t-33.5 29.5t-21.5 44.5t-7.5 56q0 19 2 40.5t6 43t10 42t14 37.5q-1 3 -1 6v4q0 17 25 30q12 23 28.5 36.5t42.5 13.5zM342 309q20 5 34 -4t14 -27q0 -20 -28 -27q-51 -12 -102.5 -18t-102.5 -6q-29 0 -41 7t-12 21q0 18 12 29t35 9q45 -1 94 2t97 14z" />
    <glyph glyph-name="guillemotright" unicode="&#xbb;" horiz-adv-x="639" 
d="M516 282q-27 -32 -61.5 -59t-69.5 -44q-24 -13 -44 -8.5t-26 18.5q-3 7 0.5 15.5t20.5 17.5q29 17 62.5 41t59.5 56q9 9 9 18t-10 18q-21 19 -53.5 38t-60.5 33q-14 7 -23 15t-9 22q0 11 11 19.5t36 0.5q39 -14 81.5 -37.5t75.5 -52.5q13 -11 18.5 -24.5t5.5 -27.5
q0 -30 -23 -59zM309 272q-27 -32 -61.5 -54t-69.5 -39q-25 -12 -44.5 -8t-25.5 18q-3 7 0.5 15.5t20.5 17.5q29 15 62 36.5t60 50.5q11 11 11 18q0 8 -12 18q-21 19 -55 41.5t-63 36.5q-14 7 -23 15t-9 22q0 11 11 20t36 0q41 -14 84.5 -40.5t76.5 -56.5q13 -11 21.5 -24.5
t8.5 -27.5q0 -15 -8.5 -30t-20.5 -29z" />
    <glyph glyph-name="onequarter" unicode="&#xbc;" horiz-adv-x="950" 
d="M873 98q-16 -6 -30 -9.5t-37 -6.5v-35t1 -31q0 -11 -10 -19.5t-27 -8.5q-14 0 -20 9t-6 23q-1 14 -1 28v29h-11q-73 0 -115 29.5t-42 93.5q0 51 11.5 104t35.5 104q3 9 10.5 15.5t18.5 6.5q20 0 31 -14.5t5 -31.5q-20 -49 -29 -96.5t-9 -89.5q0 -15 4 -26t14.5 -17.5
t28.5 -9.5t47 -3q1 49 5.5 98.5t12.5 92.5q7 37 30 37q21 0 30.5 -15t7.5 -29q-7 -39 -12.5 -85t-7.5 -95q18 2 30.5 4t29.5 7q11 3 19 -1.5t8 -17.5q0 -32 -23 -40zM113 347q16 -3 33 -4.5t35 -2.5q-6 62 -6 134t5 138q-15 -9 -29 -18.5t-25 -17.5t-19 -10.5t-16 -2.5
q-11 0 -17.5 7t-6.5 22q0 19 18 37q17 17 44.5 34.5t60.5 31.5q4 2 6 2q10 13 32 13q17 0 23.5 -12t4.5 -31q-3 -32 -5.5 -70t-3.5 -78t0 -81t4 -78v-9t-1 -9l24 2t24 3q23 2 36.5 -1.5t13.5 -19.5q0 -31 -40 -40q-44 -9 -95.5 -9.5t-98.5 5.5q-26 4 -37 13t-11 24
q0 20 14.5 25t32.5 3zM249 32q111 154 193 312t149 328q9 23 21 31t23 3q20 -8 22 -30t-8 -47q-64 -164 -146 -321.5t-183 -299.5q-10 -14 -21 -21.5t-21.5 -9.5t-20 0t-16.5 7q-10 7 -6 20.5t14 27.5z" />
    <glyph glyph-name="onehalf" unicode="&#xbd;" horiz-adv-x="950" 
d="M893 18q-43 -18 -103 -21.5t-118 6.5q-17 3 -29.5 10.5t-17.5 18.5t-1.5 25t18.5 30q32 34 66 77t57 82q7 11 11.5 26t4.5 32q0 33 -17.5 44t-49.5 11q-25 0 -57 -13q-15 -6 -29.5 3.5t-14.5 26.5q0 9 4.5 17.5t15.5 13.5q17 8 39 13t48 5q63 0 100.5 -31t37.5 -89
q0 -24 -6 -45t-17 -41q-22 -42 -53.5 -83t-66.5 -73q36 -5 75 -3t79 14q16 5 29.5 0t13.5 -24q0 -14 -5.5 -21t-13.5 -11zM113 347q16 -3 33 -4.5t35 -2.5q-6 62 -6 134t5 138q-15 -9 -29 -18.5t-25 -17.5t-19 -10.5t-16 -2.5q-11 0 -17.5 7t-6.5 22q0 19 18 37
q17 17 44.5 34.5t60.5 31.5q4 2 6 2q10 13 32 13q17 0 23.5 -12t4.5 -31q-3 -32 -5.5 -70t-3.5 -78t0 -81t4 -78v-9t-1 -9l24 2t24 3q23 2 36.5 -1.5t13.5 -19.5q0 -31 -40 -40q-44 -9 -95.5 -9.5t-98.5 5.5q-26 4 -37 13t-11 24q0 20 14.5 25t32.5 3zM249 32
q111 154 193 312t149 328q9 23 21 31t23 3q20 -8 22 -30t-8 -47q-64 -164 -146 -321.5t-183 -299.5q-10 -14 -21 -21.5t-21.5 -9.5t-20 0t-16.5 7q-10 7 -6 20.5t14 27.5z" />
    <glyph glyph-name="threequarters" unicode="&#xbe;" horiz-adv-x="950" 
d="M873 98q-16 -6 -30 -9.5t-37 -6.5v-35t1 -31q0 -11 -10 -19.5t-27 -8.5q-14 0 -20 9t-6 23q-1 14 -1 28v29h-11q-73 0 -115 29.5t-42 93.5q0 51 11.5 104t35.5 104q3 9 10.5 15.5t18.5 6.5q20 0 31 -14.5t5 -31.5q-20 -49 -29 -96.5t-9 -89.5q0 -15 4 -26t14.5 -17.5
t28.5 -9.5t47 -3q1 49 5.5 98.5t12.5 92.5q7 37 30 37q21 0 30.5 -15t7.5 -29q-7 -39 -12.5 -85t-7.5 -95q18 2 30.5 4t29.5 7q11 3 19 -1.5t8 -17.5q0 -32 -23 -40zM86 282q-16 6 -25 18.5t-9 27.5t10 20.5t21 0.5q20 -8 45 -13t48 -5q39 0 60.5 13.5t21.5 35.5
q0 30 -35 51.5t-94 21.5q-31 0 -45 12t-14 31q0 9 6 15.5t18 6.5q73 0 109 19.5t36 48.5q0 63 -128 60q-23 0 -31 12t-8 22q0 13 12 19.5t52 6.5q34 0 65.5 -7.5t56 -22t39 -35.5t14.5 -49q0 -36 -20.5 -61.5t-54.5 -40.5q47 -16 72.5 -47t25.5 -67q0 -46 -38.5 -78
t-118.5 -32q-25 0 -49 4t-42 12zM249 32q111 154 193 312t149 328q9 23 21 31t23 3q20 -8 22 -30t-8 -47q-64 -164 -146 -321.5t-183 -299.5q-10 -14 -21 -21.5t-21.5 -9.5t-20 0t-16.5 7q-10 7 -6 20.5t14 27.5z" />
    <glyph glyph-name="questiondown" unicode="&#xbf;" horiz-adv-x="500" 
d="M238 65q-39 -32 -58.5 -61.5t-19.5 -64.5q0 -90 112 -90q30 0 58 8t49 21q16 10 34 4.5t25 -20.5q10 -23 -18 -41q-26 -18 -65 -29.5t-84 -11.5q-97 0 -148 46t-51 118q0 50 26.5 89.5t77.5 84.5q35 30 49.5 60.5t14.5 72.5q0 36 11.5 48.5t34.5 12.5q20 0 28 -15.5
t8 -52.5q0 -62 -19.5 -103t-64.5 -76zM274 396q-23 0 -39.5 13.5t-16.5 47.5q0 20 13 32.5t32 12.5q31 0 48 -15.5t17 -44.5q0 -46 -54 -46z" />
    <glyph glyph-name="Agrave" unicode="&#xc0;" horiz-adv-x="581" 
d="M459 64q-7 34 -15.5 69t-19.5 70q-64 4 -134.5 4t-134.5 -4q-8 -38 -14 -77.5t-11 -81.5q-2 -23 -9.5 -37.5t-21.5 -14.5q-26 0 -39 17t-8 53q22 180 62.5 332.5t100.5 278.5q9 18 19 28.5t28 10.5q21 0 32.5 -18t3.5 -44q11 -1 23 -19q80 -131 138 -280.5t85 -301.5
q5 -29 -6 -43t-29 -14q-23 0 -33.5 18.5t-16.5 53.5zM174 284q52 2 111.5 0t113.5 -6q-27 75 -59.5 145t-64.5 130q-6 9 -9 19q-26 -66 -49.5 -137.5t-42.5 -150.5zM296 741q-16 0 -37 12q-23 15 -47.5 44.5t-36.5 64.5q-2 5 -3.5 11t-1.5 11q0 19 12 31.5t29 12.5
q10 0 17.5 -6t10.5 -14q14 -34 32 -60.5t36 -43.5q20 -17 20 -34q0 -14 -9.5 -21.5t-21.5 -7.5z" />
    <glyph glyph-name="Aacute" unicode="&#xc1;" horiz-adv-x="581" 
d="M459 64q-7 34 -15.5 69t-19.5 70q-64 4 -134.5 4t-134.5 -4q-8 -38 -14 -77.5t-11 -81.5q-2 -23 -9.5 -37.5t-21.5 -14.5q-26 0 -39 17t-8 53q22 180 62.5 332.5t100.5 278.5q9 18 19 28.5t28 10.5q21 0 32.5 -18t3.5 -44q11 -1 23 -19q80 -131 138 -280.5t85 -301.5
q5 -29 -6 -43t-29 -14q-23 0 -33.5 18.5t-16.5 53.5zM174 284q52 2 111.5 0t113.5 -6q-27 75 -59.5 145t-64.5 130q-6 9 -9 19q-26 -66 -49.5 -137.5t-42.5 -150.5zM231 741q-12 0 -21.5 7.5t-9.5 21.5q0 17 20 34q18 17 36 43.5t32 60.5q3 8 10.5 14t17.5 6q17 0 29 -12.5
t12 -31.5q0 -5 -1.5 -11t-3.5 -11q-12 -35 -36.5 -64.5t-47.5 -44.5q-21 -12 -37 -12z" />
    <glyph glyph-name="Acircumflex" unicode="&#xc2;" horiz-adv-x="581" 
d="M459 64q-7 34 -15.5 69t-19.5 70q-64 4 -134.5 4t-134.5 -4q-8 -38 -14 -77.5t-11 -81.5q-2 -23 -9.5 -37.5t-21.5 -14.5q-26 0 -39 17t-8 53q22 180 62.5 332.5t100.5 278.5q9 18 19 28.5t28 10.5q21 0 32.5 -18t3.5 -44q11 -1 23 -19q80 -131 138 -280.5t85 -301.5
q5 -29 -6 -43t-29 -14q-23 0 -33.5 18.5t-16.5 53.5zM174 284q52 2 111.5 0t113.5 -6q-27 75 -59.5 145t-64.5 130q-6 9 -9 19q-26 -66 -49.5 -137.5t-42.5 -150.5zM145 755q-8 4 -8.5 16t6.5 27q11 27 31 58t48 58q6 6 15 9.5t18.5 4t18 -2.5t13.5 -11q6 -8 4 -19
q6 0 14 -5q7 -6 18.5 -15.5t23 -22t22.5 -26.5t19 -28q4 -8 6.5 -14.5t2.5 -12.5q0 -11 -9.5 -18t-19.5 -7q-9 0 -19 6t-21 20q-14 20 -30 38t-39 35q-17 -19 -30.5 -36.5t-26.5 -37.5t-29.5 -23.5t-27.5 7.5z" />
    <glyph glyph-name="Atilde" unicode="&#xc3;" horiz-adv-x="581" 
d="M459 64q-7 34 -15.5 69t-19.5 70q-64 4 -134.5 4t-134.5 -4q-8 -38 -14 -77.5t-11 -81.5q-2 -23 -9.5 -37.5t-21.5 -14.5q-26 0 -39 17t-8 53q22 180 62.5 332.5t100.5 278.5q9 18 19 28.5t28 10.5q21 0 32.5 -18t3.5 -44q11 -1 23 -19q80 -131 138 -280.5t85 -301.5
q5 -29 -6 -43t-29 -14q-23 0 -33.5 18.5t-16.5 53.5zM174 284q52 2 111.5 0t113.5 -6q-27 75 -59.5 145t-64.5 130q-6 9 -9 19q-26 -66 -49.5 -137.5t-42.5 -150.5zM329 750q-26 0 -42.5 10.5t-31.5 28.5q-17 21 -25.5 28t-16.5 7q-19 0 -26 -26q-11 -43 -49 -35
q-11 2 -17 14t-2 34q8 40 32.5 62.5t57.5 22.5q24 0 44 -11t34 -30q16 -21 23.5 -27.5t18.5 -6.5q26 0 27 44q1 30 30 30q17 0 26 -12.5t8 -35.5q-1 -25 -9 -43.5t-21 -30.5t-29 -17.5t-32 -5.5z" />
    <glyph glyph-name="Adieresis" unicode="&#xc4;" horiz-adv-x="581" 
d="M459 64q-7 34 -15.5 69t-19.5 70q-64 4 -134.5 4t-134.5 -4q-8 -38 -14 -77.5t-11 -81.5q-2 -23 -9.5 -37.5t-21.5 -14.5q-26 0 -39 17t-8 53q22 180 62.5 332.5t100.5 278.5q9 18 19 28.5t28 10.5q21 0 32.5 -18t3.5 -44q11 -1 23 -19q80 -131 138 -280.5t85 -301.5
q5 -29 -6 -43t-29 -14q-23 0 -33.5 18.5t-16.5 53.5zM174 284q52 2 111.5 0t113.5 -6q-27 75 -59.5 145t-64.5 130q-6 9 -9 19q-26 -66 -49.5 -137.5t-42.5 -150.5zM182 877q22 0 38 -12.5t16 -46.5q0 -17 -15 -30t-34 -13q-28 0 -43 13.5t-15 35.5q0 23 12 38t41 15z
M352 775q-25 0 -39.5 15t-14.5 42q0 22 15.5 33.5t34.5 11.5q29 0 43 -13t14 -36t-12 -38t-41 -15z" />
    <glyph glyph-name="Aring" unicode="&#xc5;" horiz-adv-x="581" 
d="M459 64q-7 34 -15.5 69t-19.5 70q-64 4 -134.5 4t-134.5 -4q-8 -38 -14 -77.5t-11 -81.5q-2 -23 -9.5 -37.5t-21.5 -14.5q-26 0 -39 17t-8 53q22 180 62.5 332.5t100.5 278.5q9 18 19 28.5t28 10.5q21 0 32.5 -18t3.5 -44q11 -1 23 -19q80 -131 138 -280.5t85 -301.5
q5 -29 -6 -43t-29 -14q-23 0 -33.5 18.5t-16.5 53.5zM174 284q52 2 111.5 0t113.5 -6q-27 75 -59.5 145t-64.5 130q-6 9 -9 19q-26 -66 -49.5 -137.5t-42.5 -150.5zM271 868q-12 0 -19 -4q-11 -13 -14.5 -23.5t-3.5 -24.5q0 -30 26 -30q20 0 31 12.5t11 35.5q0 34 -31 34z
M283 912q18 0 34 -5.5t28 -15.5t19 -23t7 -29q0 -45 -30 -77t-90 -32q-38 0 -64 19.5t-26 57.5q0 32 13.5 60t36.5 45q8 6 18.5 10.5t21.5 5.5q9 1 18 -2t14 -14z" />
    <glyph glyph-name="AE" unicode="&#xc6;" horiz-adv-x="757" 
d="M668 640q-47 0 -100.5 -3t-98.5 -10v-18.5t-1 -20.5q-2 -39 -4 -84t-3 -94q50 6 99.5 7t113.5 -5q16 -2 22 -8t5 -18q-2 -23 -15 -33.5t-33 -10.5q-49 0 -98 -3t-94 -11q0 -63 1.5 -127t3.5 -126q51 5 107.5 5.5t116.5 -4.5q15 -2 23 -10t7 -19q-2 -23 -16.5 -32
t-35.5 -9q-51 0 -118.5 -4t-141.5 -9q-20 -2 -29 13t-7 34q0 16 16 23q-4 32 -6 65t-4 68q-48 2 -97.5 1.5t-95.5 -3.5q-14 -37 -27.5 -74.5t-24.5 -75.5q-10 -32 -19 -42t-23 -10q-11 0 -21.5 4t-18 12.5t-10 22t2.5 31.5q23 85 58 171.5t75.5 167.5t84.5 153.5t86 129.5
q12 16 26 26t30 10q21 0 31 -17q59 8 125.5 9t129.5 -3q15 -1 21 -7t5 -18q-2 -23 -14.5 -33.5t-33.5 -10.5zM215 268q34 2 76 1.5t85 -5.5q-2 81 1 163t8 163q-94 -144 -170 -322z" />
    <glyph glyph-name="Ccedilla" unicode="&#xc7;" horiz-adv-x="619" 
d="M84 320q0 94 23.5 167.5t64.5 124t95.5 76.5t117.5 26q44 0 88 -16t69 -48q7 -9 8 -18t-2 -17q-5 -13 -19 -17.5t-31 8.5q-20 15 -47 24.5t-63 9.5q-41 0 -79.5 -19.5t-68 -59t-47 -100t-17.5 -141.5q0 -59 14 -107t39 -82.5t59.5 -53t76.5 -18.5q50 0 93 15.5t74 47.5
q9 9 19 10.5t17 -4.5q11 -10 11 -29.5t-23 -42.5q-26 -27 -67.5 -45t-91.5 -23q-8 -14 -11.5 -27.5t-3.5 -27.5q18 12 46 12q19 0 34.5 -7.5t26 -19.5t16 -27t5.5 -30q0 -51 -35.5 -79t-92.5 -28q-29 0 -53 11q-14 6 -24.5 15.5t-10.5 23.5q0 22 29 10q15 -8 30.5 -9.5
t26.5 -1.5q26 0 44 14t18 43q0 28 -36 28q-13 0 -23 -3t-18 -7t-15.5 -7t-14.5 -3q-10 0 -15.5 6.5t-5.5 24.5q0 20 5 44t14 45q-60 5 -106 31t-78 69.5t-48.5 102t-16.5 129.5z" />
    <glyph glyph-name="Egrave" unicode="&#xc8;" horiz-adv-x="653" 
d="M502 342q-29 -3 -62 -6t-66.5 -7t-66.5 -9t-62 -10q-35 -7 -54 4v-33q0 -59 6 -100t22 -67t42 -38t67 -12q68 0 136 16t119 48q12 8 23 3t11 -23t-6.5 -30t-26.5 -25q-43 -28 -112 -46.5t-143 -18.5q-118 0 -172.5 71t-54.5 219q0 70 13 140.5t36 138.5q7 19 15.5 25
t24.5 6q9 0 17 -6t13.5 -15.5t7 -21t-1.5 -22.5q-21 -65 -30 -142q3 1 7.5 2t9.5 2q29 5 66.5 10t78 8.5t82 6.5t77.5 3q29 0 29 -24q0 -23 -12.5 -34t-32.5 -13zM527 636q-107 0 -202.5 -11t-194.5 -33q-20 -5 -39 6t-19 37q0 12 7 21t19 11q95 23 210 31.5t228 6.5
q16 0 25.5 -7t9.5 -23q0 -24 -13.5 -31.5t-30.5 -7.5zM366 741q-16 0 -37 12q-23 15 -47.5 44.5t-36.5 64.5q-2 5 -3.5 11t-1.5 11q0 19 12 31.5t29 12.5q10 0 17.5 -6t10.5 -14q14 -34 32 -60.5t36 -43.5q20 -17 20 -34q0 -14 -9.5 -21.5t-21.5 -7.5z" />
    <glyph glyph-name="Eacute" unicode="&#xc9;" horiz-adv-x="653" 
d="M502 342q-29 -3 -62 -6t-66.5 -7t-66.5 -9t-62 -10q-35 -7 -54 4v-33q0 -59 6 -100t22 -67t42 -38t67 -12q68 0 136 16t119 48q12 8 23 3t11 -23t-6.5 -30t-26.5 -25q-43 -28 -112 -46.5t-143 -18.5q-118 0 -172.5 71t-54.5 219q0 70 13 140.5t36 138.5q7 19 15.5 25
t24.5 6q9 0 17 -6t13.5 -15.5t7 -21t-1.5 -22.5q-21 -65 -30 -142q3 1 7.5 2t9.5 2q29 5 66.5 10t78 8.5t82 6.5t77.5 3q29 0 29 -24q0 -23 -12.5 -34t-32.5 -13zM527 636q-107 0 -202.5 -11t-194.5 -33q-20 -5 -39 6t-19 37q0 12 7 21t19 11q95 23 210 31.5t228 6.5
q16 0 25.5 -7t9.5 -23q0 -24 -13.5 -31.5t-30.5 -7.5zM283 741q-12 0 -21.5 7.5t-9.5 21.5q0 17 20 34q18 17 36 43.5t32 60.5q3 8 10.5 14t17.5 6q17 0 29 -12.5t12 -31.5q0 -5 -1.5 -11t-3.5 -11q-12 -35 -36.5 -64.5t-47.5 -44.5q-21 -12 -37 -12z" />
    <glyph glyph-name="Ecircumflex" unicode="&#xca;" horiz-adv-x="653" 
d="M502 342q-29 -3 -62 -6t-66.5 -7t-66.5 -9t-62 -10q-35 -7 -54 4v-33q0 -59 6 -100t22 -67t42 -38t67 -12q68 0 136 16t119 48q12 8 23 3t11 -23t-6.5 -30t-26.5 -25q-43 -28 -112 -46.5t-143 -18.5q-118 0 -172.5 71t-54.5 219q0 70 13 140.5t36 138.5q7 19 15.5 25
t24.5 6q9 0 17 -6t13.5 -15.5t7 -21t-1.5 -22.5q-21 -65 -30 -142q3 1 7.5 2t9.5 2q29 5 66.5 10t78 8.5t82 6.5t77.5 3q29 0 29 -24q0 -23 -12.5 -34t-32.5 -13zM527 636q-107 0 -202.5 -11t-194.5 -33q-20 -5 -39 6t-19 37q0 12 7 21t19 11q95 23 210 31.5t228 6.5
q16 0 25.5 -7t9.5 -23q0 -24 -13.5 -31.5t-30.5 -7.5zM206 755q-8 4 -8.5 16t6.5 27q11 27 31 58t48 58q6 6 15 9.5t18.5 4t18 -2.5t13.5 -11q6 -8 4 -19q6 0 14 -5q7 -6 18.5 -15.5t23 -22t22.5 -26.5t19 -28q4 -8 6.5 -14.5t2.5 -12.5q0 -11 -9.5 -18t-19.5 -7q-9 0 -19 6
t-21 20q-14 20 -30 38t-39 35q-17 -19 -30.5 -36.5t-26.5 -37.5t-29.5 -23.5t-27.5 7.5z" />
    <glyph glyph-name="Edieresis" unicode="&#xcb;" horiz-adv-x="653" 
d="M502 342q-29 -3 -62 -6t-66.5 -7t-66.5 -9t-62 -10q-35 -7 -54 4v-33q0 -59 6 -100t22 -67t42 -38t67 -12q68 0 136 16t119 48q12 8 23 3t11 -23t-6.5 -30t-26.5 -25q-43 -28 -112 -46.5t-143 -18.5q-118 0 -172.5 71t-54.5 219q0 70 13 140.5t36 138.5q7 19 15.5 25
t24.5 6q9 0 17 -6t13.5 -15.5t7 -21t-1.5 -22.5q-21 -65 -30 -142q3 1 7.5 2t9.5 2q29 5 66.5 10t78 8.5t82 6.5t77.5 3q29 0 29 -24q0 -23 -12.5 -34t-32.5 -13zM527 636q-107 0 -202.5 -11t-194.5 -33q-20 -5 -39 6t-19 37q0 12 7 21t19 11q95 23 210 31.5t228 6.5
q16 0 25.5 -7t9.5 -23q0 -24 -13.5 -31.5t-30.5 -7.5zM238 877q22 0 38 -12.5t16 -46.5q0 -17 -15 -30t-34 -13q-28 0 -43 13.5t-15 35.5q0 23 12 38t41 15zM408 775q-25 0 -39.5 15t-14.5 42q0 22 15.5 33.5t34.5 11.5q29 0 43 -13t14 -36t-12 -38t-41 -15z" />
    <glyph glyph-name="Igrave" unicode="&#xcc;" horiz-adv-x="563" 
d="M85 92q39 -9 82 -14.5t88 -7.5q-2 5 -3 10l-2 10q-17 121 -18 244t13 238q3 35 16 52q-36 -2 -68.5 -4.5t-58.5 -6.5q-12 -2 -25 0t-23.5 7.5t-17.5 14.5t-7 21q0 14 13 22t36 12q34 6 74.5 10t83.5 4.5t87.5 -2.5t87.5 -10q20 -4 32.5 -15t12.5 -27q0 -18 -8.5 -25
t-23.5 -5q-62 6 -126 6q2 -6 2.5 -14t-0.5 -17q-14 -122 -12.5 -245t12.5 -236q2 -27 -4 -44q45 1 88.5 5.5t85.5 13.5q15 4 26 -2t11 -20q0 -47 -37 -54q-97 -20 -202 -20.5t-205 19.5q-20 4 -30.5 19.5t-10.5 35.5q0 18 9 23t22 2zM321 741q-16 0 -37 12
q-23 15 -47.5 44.5t-36.5 64.5q-2 5 -3.5 11t-1.5 11q0 19 12 31.5t29 12.5q10 0 17.5 -6t10.5 -14q14 -34 32 -60.5t36 -43.5q20 -17 20 -34q0 -14 -9.5 -21.5t-21.5 -7.5z" />
    <glyph glyph-name="Iacute" unicode="&#xcd;" horiz-adv-x="563" 
d="M85 92q39 -9 82 -14.5t88 -7.5q-2 5 -3 10l-2 10q-17 121 -18 244t13 238q3 35 16 52q-36 -2 -68.5 -4.5t-58.5 -6.5q-12 -2 -25 0t-23.5 7.5t-17.5 14.5t-7 21q0 14 13 22t36 12q34 6 74.5 10t83.5 4.5t87.5 -2.5t87.5 -10q20 -4 32.5 -15t12.5 -27q0 -18 -8.5 -25
t-23.5 -5q-62 6 -126 6q2 -6 2.5 -14t-0.5 -17q-14 -122 -12.5 -245t12.5 -236q2 -27 -4 -44q45 1 88.5 5.5t85.5 13.5q15 4 26 -2t11 -20q0 -47 -37 -54q-97 -20 -202 -20.5t-205 19.5q-20 4 -30.5 19.5t-10.5 35.5q0 18 9 23t22 2zM253 741q-12 0 -21.5 7.5t-9.5 21.5
q0 17 20 34q18 17 36 43.5t32 60.5q3 8 10.5 14t17.5 6q17 0 29 -12.5t12 -31.5q0 -5 -1.5 -11t-3.5 -11q-12 -35 -36.5 -64.5t-47.5 -44.5q-21 -12 -37 -12z" />
    <glyph glyph-name="Icircumflex" unicode="&#xce;" horiz-adv-x="563" 
d="M85 92q39 -9 82 -14.5t88 -7.5q-2 5 -3 10l-2 10q-17 121 -18 244t13 238q3 35 16 52q-36 -2 -68.5 -4.5t-58.5 -6.5q-12 -2 -25 0t-23.5 7.5t-17.5 14.5t-7 21q0 14 13 22t36 12q34 6 74.5 10t83.5 4.5t87.5 -2.5t87.5 -10q20 -4 32.5 -15t12.5 -27q0 -18 -8.5 -25
t-23.5 -5q-62 6 -126 6q2 -6 2.5 -14t-0.5 -17q-14 -122 -12.5 -245t12.5 -236q2 -27 -4 -44q45 1 88.5 5.5t85.5 13.5q15 4 26 -2t11 -20q0 -47 -37 -54q-97 -20 -202 -20.5t-205 19.5q-20 4 -30.5 19.5t-10.5 35.5q0 18 9 23t22 2zM165 755q-8 4 -8.5 16t6.5 27
q11 27 31 58t48 58q6 6 15 9.5t18.5 4t18 -2.5t13.5 -11q6 -8 4 -19q6 0 14 -5q7 -6 18.5 -15.5t23 -22t22.5 -26.5t19 -28q4 -8 6.5 -14.5t2.5 -12.5q0 -11 -9.5 -18t-19.5 -7q-9 0 -19 6t-21 20q-14 20 -30 38t-39 35q-17 -19 -30.5 -36.5t-26.5 -37.5t-29.5 -23.5
t-27.5 7.5z" />
    <glyph glyph-name="Idieresis" unicode="&#xcf;" horiz-adv-x="563" 
d="M85 92q39 -9 82 -14.5t88 -7.5q-2 5 -3 10l-2 10q-17 121 -18 244t13 238q3 35 16 52q-36 -2 -68.5 -4.5t-58.5 -6.5q-12 -2 -25 0t-23.5 7.5t-17.5 14.5t-7 21q0 14 13 22t36 12q34 6 74.5 10t83.5 4.5t87.5 -2.5t87.5 -10q20 -4 32.5 -15t12.5 -27q0 -18 -8.5 -25
t-23.5 -5q-62 6 -126 6q2 -6 2.5 -14t-0.5 -17q-14 -122 -12.5 -245t12.5 -236q2 -27 -4 -44q45 1 88.5 5.5t85.5 13.5q15 4 26 -2t11 -20q0 -47 -37 -54q-97 -20 -202 -20.5t-205 19.5q-20 4 -30.5 19.5t-10.5 35.5q0 18 9 23t22 2zM197 877q22 0 38 -12.5t16 -46.5
q0 -17 -15 -30t-34 -13q-28 0 -43 13.5t-15 35.5q0 23 12 38t41 15zM367 775q-25 0 -39.5 15t-14.5 42q0 22 15.5 33.5t34.5 11.5q29 0 43 -13t14 -36t-12 -38t-41 -15z" />
    <glyph glyph-name="Eth" unicode="&#xd0;" horiz-adv-x="706" 
d="M341 2q-35 -10 -55.5 -1t-20.5 29q0 23 23 31q128 48 187 133t59 200q0 61 -14.5 106.5t-39.5 76t-60 45.5t-75 15q-18 0 -35 -3.5t-31 -8.5q-25 -8 -42 4q0 -4 -0.5 -7.5t-1.5 -8.5q-8 -55 -12.5 -109t-6.5 -110q41 2 80.5 1t79.5 -3q16 -1 23 -8.5t7 -18.5
q0 -23 -15 -32.5t-38 -9.5q-67 -2 -137 -6q3 -125 24 -261q6 -39 1.5 -57t-32.5 -18q-22 0 -32 12t-15 41q-14 74 -22.5 141.5t-11.5 133.5q-10 -1 -19 -2t-18 -3q-39 -7 -57.5 5t-18.5 37q0 14 9.5 23t34.5 13q17 2 34 3.5t34 3.5q1 66 7 132t18 138q5 28 16.5 43.5
t34.5 15.5q32 0 37 -32q7 4 13 7q21 9 49 13.5t55 4.5q63 0 113.5 -23t86.5 -65t55.5 -100.5t19.5 -128.5q0 -72 -19.5 -134.5t-57 -113t-91.5 -87.5t-123 -57z" />
    <glyph glyph-name="Ntilde" unicode="&#xd1;" horiz-adv-x="713" 
d="M101 606q-3 10 -4 21t0.5 21.5t6 20t14.5 15.5q2 2 8 4q10 21 29 21q23 0 36.5 -19.5t10.5 -59.5q-4 -37 -6 -77q37 -112 84 -197t96.5 -145.5t96.5 -97.5t84 -52q19 -8 34 -17.5t15 -18.5q0 -16 -15 -24.5t-33 -8.5t-36 5.5t-30 12.5q-80 42 -158.5 129t-142.5 220
q1 -85 5.5 -166.5t12.5 -150.5q4 -29 -5.5 -42.5t-28.5 -13.5q-20 0 -32 16t-17 53q-19 125 -22.5 256t7.5 260q-3 8 -5.5 17t-4.5 18zM551 95q-21 0 -30.5 23t-3.5 62q9 51 12.5 110t3 120.5t-5 122.5t-12.5 115q-9 58 42 58q24 0 34 -22.5t14 -52.5q7 -54 9.5 -115t1 -124
t-7 -125.5t-15.5 -118.5q-5 -29 -15 -41t-27 -12zM416 750q-26 0 -42.5 10.5t-31.5 28.5q-17 21 -25.5 28t-16.5 7q-19 0 -26 -26q-11 -43 -49 -35q-11 2 -17 14t-2 34q8 40 32.5 62.5t57.5 22.5q24 0 44 -11t34 -30q16 -21 23.5 -27.5t18.5 -6.5q26 0 27 44q1 30 30 30
q17 0 26 -12.5t8 -35.5q-1 -25 -9 -43.5t-21 -30.5t-29 -17.5t-32 -5.5z" />
    <glyph glyph-name="Ograve" unicode="&#xd2;" horiz-adv-x="636" 
d="M357 689q54 0 93 -22t65 -61.5t38.5 -94t12.5 -120.5q0 -74 -17.5 -146.5t-53 -129.5t-88 -92.5t-121.5 -35.5q-50 0 -88.5 22.5t-64.5 63t-39.5 97.5t-13.5 126q0 65 9 121t27 106t44 95t61 88q10 12 23.5 19.5t25.5 8.5q26 1 35.5 -15.5t3.5 -35.5q24 6 48 6zM170 303
q0 -53 6.5 -97t21 -76.5t36.5 -50.5t53 -18q48 0 83.5 28t59 73.5t34.5 104t11 118.5q0 50 -8.5 93.5t-26.5 75t-46 49.5t-66 18q-48 0 -83 -22q-42 -63 -58.5 -136t-16.5 -160zM406 741q-16 0 -37 12q-23 15 -47.5 44.5t-36.5 64.5q-2 5 -3.5 11t-1.5 11q0 19 12 31.5
t29 12.5q10 0 17.5 -6t10.5 -14q14 -34 32 -60.5t36 -43.5q20 -17 20 -34q0 -14 -9.5 -21.5t-21.5 -7.5z" />
    <glyph glyph-name="Oacute" unicode="&#xd3;" horiz-adv-x="636" 
d="M357 689q54 0 93 -22t65 -61.5t38.5 -94t12.5 -120.5q0 -74 -17.5 -146.5t-53 -129.5t-88 -92.5t-121.5 -35.5q-50 0 -88.5 22.5t-64.5 63t-39.5 97.5t-13.5 126q0 65 9 121t27 106t44 95t61 88q10 12 23.5 19.5t25.5 8.5q26 1 35.5 -15.5t3.5 -35.5q24 6 48 6zM170 303
q0 -53 6.5 -97t21 -76.5t36.5 -50.5t53 -18q48 0 83.5 28t59 73.5t34.5 104t11 118.5q0 50 -8.5 93.5t-26.5 75t-46 49.5t-66 18q-48 0 -83 -22q-42 -63 -58.5 -136t-16.5 -160zM355 741q-12 0 -21.5 7.5t-9.5 21.5q0 17 20 34q18 17 36 43.5t32 60.5q3 8 10.5 14t17.5 6
q17 0 29 -12.5t12 -31.5q0 -5 -1.5 -11t-3.5 -11q-12 -35 -36.5 -64.5t-47.5 -44.5q-21 -12 -37 -12z" />
    <glyph glyph-name="Ocircumflex" unicode="&#xd4;" horiz-adv-x="636" 
d="M357 689q54 0 93 -22t65 -61.5t38.5 -94t12.5 -120.5q0 -74 -17.5 -146.5t-53 -129.5t-88 -92.5t-121.5 -35.5q-50 0 -88.5 22.5t-64.5 63t-39.5 97.5t-13.5 126q0 65 9 121t27 106t44 95t61 88q10 12 23.5 19.5t25.5 8.5q26 1 35.5 -15.5t3.5 -35.5q24 6 48 6zM170 303
q0 -53 6.5 -97t21 -76.5t36.5 -50.5t53 -18q48 0 83.5 28t59 73.5t34.5 104t11 118.5q0 50 -8.5 93.5t-26.5 75t-46 49.5t-66 18q-48 0 -83 -22q-42 -63 -58.5 -136t-16.5 -160zM225 755q-8 4 -8.5 16t6.5 27q11 27 31 58t48 58q6 6 15 9.5t18.5 4t18 -2.5t13.5 -11
q6 -8 4 -19q6 0 14 -5q7 -6 18.5 -15.5t23 -22t22.5 -26.5t19 -28q4 -8 6.5 -14.5t2.5 -12.5q0 -11 -9.5 -18t-19.5 -7q-9 0 -19 6t-21 20q-14 20 -30 38t-39 35q-17 -19 -30.5 -36.5t-26.5 -37.5t-29.5 -23.5t-27.5 7.5z" />
    <glyph glyph-name="Otilde" unicode="&#xd5;" horiz-adv-x="636" 
d="M357 689q54 0 93 -22t65 -61.5t38.5 -94t12.5 -120.5q0 -74 -17.5 -146.5t-53 -129.5t-88 -92.5t-121.5 -35.5q-50 0 -88.5 22.5t-64.5 63t-39.5 97.5t-13.5 126q0 65 9 121t27 106t44 95t61 88q10 12 23.5 19.5t25.5 8.5q26 1 35.5 -15.5t3.5 -35.5q24 6 48 6zM170 303
q0 -53 6.5 -97t21 -76.5t36.5 -50.5t53 -18q48 0 83.5 28t59 73.5t34.5 104t11 118.5q0 50 -8.5 93.5t-26.5 75t-46 49.5t-66 18q-48 0 -83 -22q-42 -63 -58.5 -136t-16.5 -160zM418 750q-26 0 -42.5 10.5t-31.5 28.5q-17 21 -25.5 28t-16.5 7q-19 0 -26 -26
q-11 -43 -49 -35q-11 2 -17 14t-2 34q8 40 32.5 62.5t57.5 22.5q24 0 44 -11t34 -30q16 -21 23.5 -27.5t18.5 -6.5q26 0 27 44q1 30 30 30q17 0 26 -12.5t8 -35.5q-1 -25 -9 -43.5t-21 -30.5t-29 -17.5t-32 -5.5z" />
    <glyph glyph-name="Odieresis" unicode="&#xd6;" horiz-adv-x="636" 
d="M357 689q54 0 93 -22t65 -61.5t38.5 -94t12.5 -120.5q0 -74 -17.5 -146.5t-53 -129.5t-88 -92.5t-121.5 -35.5q-50 0 -88.5 22.5t-64.5 63t-39.5 97.5t-13.5 126q0 65 9 121t27 106t44 95t61 88q10 12 23.5 19.5t25.5 8.5q26 1 35.5 -15.5t3.5 -35.5q24 6 48 6zM170 303
q0 -53 6.5 -97t21 -76.5t36.5 -50.5t53 -18q48 0 83.5 28t59 73.5t34.5 104t11 118.5q0 50 -8.5 93.5t-26.5 75t-46 49.5t-66 18q-48 0 -83 -22q-42 -63 -58.5 -136t-16.5 -160zM278 877q22 0 38 -12.5t16 -46.5q0 -17 -15 -30t-34 -13q-28 0 -43 13.5t-15 35.5q0 23 12 38
t41 15zM448 775q-25 0 -39.5 15t-14.5 42q0 22 15.5 33.5t34.5 11.5q29 0 43 -13t14 -36t-12 -38t-41 -15z" />
    <glyph glyph-name="multiply" unicode="&#xd7;" 
d="M354 158q-19 20 -41.5 45.5t-47.5 52.5q-24 -25 -47 -49.5t-43 -47.5q-11 -11 -26.5 -16.5t-27.5 6.5q-13 13 -11.5 30.5t13.5 33.5q17 22 39 48t48 53q-21 22 -40 41.5t-35 33.5q-29 26 -33 46t14 37q10 9 24 8.5t32 -17.5q20 -20 43 -44t48 -51q29 28 57.5 53t56.5 47
q12 9 24.5 6t21.5 -13q17 -20 9 -38.5t-24 -31.5q-23 -20 -45.5 -40.5t-45.5 -42.5q29 -32 55.5 -63t49.5 -58q18 -21 -2 -41q-16 -15 -33.5 -10t-32.5 22z" />
    <glyph glyph-name="Oslash" unicode="&#xd8;" horiz-adv-x="636" 
d="M72 5q14 19 27.5 37.5t27.5 37.5q-47 82 -47 216q0 65 9 121t27 106t44 95t61 88q10 12 23.5 19.5t25.5 8.5q26 1 35.5 -15.5t3.5 -35.5q24 6 48 6q45 0 81 -17l9 24q10 27 22.5 36t25.5 4q22 -9 26 -34.5t-7 -55.5q-2 -7 -4.5 -13.5t-4.5 -12.5q31 -40 46 -98.5
t15 -130.5q0 -74 -17.5 -146.5t-53 -129.5t-88 -92.5t-121.5 -35.5q-29 0 -54.5 8t-47.5 22q-8 -11 -15.5 -20t-15.5 -20q-25 -32 -50.5 -36t-39.5 7q-11 8 -7 24t16 33zM170 303q0 -80 15 -137q66 103 121.5 209.5t100.5 217.5q-33 28 -79 28q-48 0 -83 -22
q-42 -63 -58.5 -136t-16.5 -160zM287 61q48 0 83.5 28t59 73.5t34.5 104t11 118.5q0 33 -4 63.5t-12 56.5q-46 -109 -103 -216.5t-126 -206.5q24 -21 57 -21z" />
    <glyph glyph-name="Ugrave" unicode="&#xd9;" horiz-adv-x="717" 
d="M356 -14q-79 0 -140 55t-90 167q-21 79 -27 194.5t-1 251.5q2 23 7.5 38.5t25.5 15.5q24 0 40 -18.5t15 -40.5q-5 -145 1 -259.5t28 -185.5q22 -72 54 -106t80 -34q91 0 142 87t51 246q0 50 -4 90t-11.5 73.5t-19 61t-26.5 51.5q-13 21 -4 32t29 11q14 0 29 -5.5
t25 -19.5q77 -102 77 -301q0 -92 -18 -166.5t-53 -127t-87.5 -81.5t-122.5 -29zM356 741q-16 0 -37 12q-23 15 -47.5 44.5t-36.5 64.5q-2 5 -3.5 11t-1.5 11q0 19 12 31.5t29 12.5q10 0 17.5 -6t10.5 -14q14 -34 32 -60.5t36 -43.5q20 -17 20 -34q0 -14 -9.5 -21.5
t-21.5 -7.5z" />
    <glyph glyph-name="Uacute" unicode="&#xda;" horiz-adv-x="717" 
d="M356 -14q-79 0 -140 55t-90 167q-21 79 -27 194.5t-1 251.5q2 23 7.5 38.5t25.5 15.5q24 0 40 -18.5t15 -40.5q-5 -145 1 -259.5t28 -185.5q22 -72 54 -106t80 -34q91 0 142 87t51 246q0 50 -4 90t-11.5 73.5t-19 61t-26.5 51.5q-13 21 -4 32t29 11q14 0 29 -5.5
t25 -19.5q77 -102 77 -301q0 -92 -18 -166.5t-53 -127t-87.5 -81.5t-122.5 -29zM280 741q-12 0 -21.5 7.5t-9.5 21.5q0 17 20 34q18 17 36 43.5t32 60.5q3 8 10.5 14t17.5 6q17 0 29 -12.5t12 -31.5q0 -5 -1.5 -11t-3.5 -11q-12 -35 -36.5 -64.5t-47.5 -44.5
q-21 -12 -37 -12z" />
    <glyph glyph-name="Ucircumflex" unicode="&#xdb;" horiz-adv-x="717" 
d="M356 -14q-79 0 -140 55t-90 167q-21 79 -27 194.5t-1 251.5q2 23 7.5 38.5t25.5 15.5q24 0 40 -18.5t15 -40.5q-5 -145 1 -259.5t28 -185.5q22 -72 54 -106t80 -34q91 0 142 87t51 246q0 50 -4 90t-11.5 73.5t-19 61t-26.5 51.5q-13 21 -4 32t29 11q14 0 29 -5.5
t25 -19.5q77 -102 77 -301q0 -92 -18 -166.5t-53 -127t-87.5 -81.5t-122.5 -29zM205 755q-8 4 -8.5 16t6.5 27q11 27 31 58t48 58q6 6 15 9.5t18.5 4t18 -2.5t13.5 -11q6 -8 4 -19q6 0 14 -5q7 -6 18.5 -15.5t23 -22t22.5 -26.5t19 -28q4 -8 6.5 -14.5t2.5 -12.5
q0 -11 -9.5 -18t-19.5 -7q-9 0 -19 6t-21 20q-14 20 -30 38t-39 35q-17 -19 -30.5 -36.5t-26.5 -37.5t-29.5 -23.5t-27.5 7.5z" />
    <glyph glyph-name="Udieresis" unicode="&#xdc;" horiz-adv-x="717" 
d="M356 -14q-79 0 -140 55t-90 167q-21 79 -27 194.5t-1 251.5q2 23 7.5 38.5t25.5 15.5q24 0 40 -18.5t15 -40.5q-5 -145 1 -259.5t28 -185.5q22 -72 54 -106t80 -34q91 0 142 87t51 246q0 50 -4 90t-11.5 73.5t-19 61t-26.5 51.5q-13 21 -4 32t29 11q14 0 29 -5.5
t25 -19.5q77 -102 77 -301q0 -92 -18 -166.5t-53 -127t-87.5 -81.5t-122.5 -29zM237 877q22 0 38 -12.5t16 -46.5q0 -17 -15 -30t-34 -13q-28 0 -43 13.5t-15 35.5q0 23 12 38t41 15zM407 775q-25 0 -39.5 15t-14.5 42q0 22 15.5 33.5t34.5 11.5q29 0 43 -13t14 -36t-12 -38
t-41 -15z" />
    <glyph glyph-name="Yacute" unicode="&#xdd;" horiz-adv-x="622" 
d="M269 77q2 25 3 55.5t1 64t-1.5 67.5t-3.5 66q-24 11 -48 35t-53 61q-36 46 -70 108t-67 136q-8 16 -1.5 29t24.5 13q25 0 43.5 -11t24.5 -27q11 -26 25 -54.5t29.5 -57t31.5 -55t31 -47.5q17 -23 35 -38.5t32 -15.5q13 0 24.5 6.5t32.5 33.5q40 50 79.5 113.5t74.5 135.5
q5 10 12 17t24 7q11 0 21 -6.5t16 -17t7 -24t-7 -28.5q-33 -65 -72 -124t-84 -116q-23 -29 -41.5 -46.5t-38.5 -25.5q2 -10 2 -15q3 -72 1.5 -146t-12.5 -141q-2 -20 -13 -28.5t-26 -8.5q-25 0 -32 25t-4 60zM270 741q-12 0 -21.5 7.5t-9.5 21.5q0 17 20 34q18 17 36 43.5
t32 60.5q3 8 10.5 14t17.5 6q17 0 29 -12.5t12 -31.5q0 -5 -1.5 -11t-3.5 -11q-12 -35 -36.5 -64.5t-47.5 -44.5q-21 -12 -37 -12z" />
    <glyph glyph-name="Thorn" unicode="&#xde;" horiz-adv-x="564" 
d="M258 104q-26 -5 -45.5 1.5t-24.5 21.5q2 -19 5 -37l6 -36q5 -35 3.5 -50.5t-22.5 -15.5q-30 0 -42 17t-17 47q-11 67 -17.5 141t-7 152.5t3.5 158.5t14 159q4 27 12.5 39t29.5 12q24 0 36.5 -25t3.5 -81q-2 -6 -2.5 -12.5t-1.5 -12.5q21 6 44.5 9.5t49.5 3.5
q46 0 87.5 -13t73 -40t50.5 -68t19 -96q0 -49 -19 -94t-53.5 -81t-82 -62t-103.5 -38zM187 142q2 8 11 12t24 11q97 22 150.5 81t53.5 141q0 34 -12 60t-32 44t-46.5 27t-55.5 9q-47 0 -96 -17q-8 -86 -7.5 -179.5t10.5 -188.5z" />
    <glyph glyph-name="germandbls" unicode="&#xdf;" horiz-adv-x="595" 
d="M196 608q-20 -121 -19.5 -263t22.5 -285q5 -35 3.5 -50.5t-22.5 -15.5q-30 0 -42 17t-17 47q-23 134 -25 290.5t18 314.5q4 27 12.5 39t29.5 12q29 0 39 -32q4 9 15 15q14 8 35.5 13t44.5 5q37 0 66.5 -13t50.5 -35t32.5 -51t11.5 -60q0 -51 -21.5 -95t-64.5 -70
q43 -13 78.5 -32t61 -45t39.5 -61t14 -81q0 -98 -56 -141t-152 -43q-50 0 -96 19q-20 8 -29.5 21t-9.5 27q0 35 36 24q22 -8 43.5 -10.5t46.5 -2.5q63 0 93 26.5t30 80.5q0 63 -46.5 105t-148.5 64q-23 5 -38.5 12t-15.5 26q0 12 9 18t29 11q24 7 44.5 19.5t36 31t24.5 42
t9 51.5q0 40 -23.5 66.5t-65.5 26.5q-10 0 -22.5 -3.5t-20.5 -8.5q-9 -5 -19 -2.5t-17 10.5q0 -15 -3 -34z" />
    <glyph glyph-name="agrave" unicode="&#xe0;" horiz-adv-x="559" 
d="M333 452q-6 -22 -28 -19q-6 1 -11.5 1h-10.5q-32 0 -58.5 -23t-45 -59t-28.5 -80.5t-10 -87.5q0 -71 18.5 -100t50.5 -29q27 0 50.5 20t41 58t27.5 94.5t10 128.5q0 15 -1 35t-2 35q-1 50 35 50q23 0 34 -13t14 -43q4 -45 11.5 -93t20.5 -94.5t33 -89t50 -75.5
q11 -12 15 -17.5t4 -10.5q0 -12 -9.5 -20t-29.5 -8q-14 0 -32 13t-36 36t-33.5 54.5t-24.5 68.5q-14 -90 -59.5 -144t-119.5 -54q-75 0 -114.5 53t-39.5 146q0 56 16 112t44.5 100.5t69 72.5t90.5 28q28 0 43 -8q21 -13 15 -38zM322 547q-16 0 -37 12q-23 15 -47.5 44.5
t-36.5 64.5q-2 5 -3.5 11t-1.5 11q0 19 12 31.5t29 12.5q10 0 17.5 -6t10.5 -14q14 -34 32 -60.5t36 -43.5q20 -17 20 -34q0 -14 -9.5 -21.5t-21.5 -7.5z" />
    <glyph glyph-name="aacute" unicode="&#xe1;" horiz-adv-x="559" 
d="M333 452q-6 -22 -28 -19q-6 1 -11.5 1h-10.5q-32 0 -58.5 -23t-45 -59t-28.5 -80.5t-10 -87.5q0 -71 18.5 -100t50.5 -29q27 0 50.5 20t41 58t27.5 94.5t10 128.5q0 15 -1 35t-2 35q-1 50 35 50q23 0 34 -13t14 -43q4 -45 11.5 -93t20.5 -94.5t33 -89t50 -75.5
q11 -12 15 -17.5t4 -10.5q0 -12 -9.5 -20t-29.5 -8q-14 0 -32 13t-36 36t-33.5 54.5t-24.5 68.5q-14 -90 -59.5 -144t-119.5 -54q-75 0 -114.5 53t-39.5 146q0 56 16 112t44.5 100.5t69 72.5t90.5 28q28 0 43 -8q21 -13 15 -38zM227 547q-12 0 -21.5 7.5t-9.5 21.5
q0 17 20 34q18 17 36 43.5t32 60.5q3 8 10.5 14t17.5 6q17 0 29 -12.5t12 -31.5q0 -5 -1.5 -11t-3.5 -11q-12 -35 -36.5 -64.5t-47.5 -44.5q-21 -12 -37 -12z" />
    <glyph glyph-name="acircumflex" unicode="&#xe2;" horiz-adv-x="559" 
d="M333 452q-6 -22 -28 -19q-6 1 -11.5 1h-10.5q-32 0 -58.5 -23t-45 -59t-28.5 -80.5t-10 -87.5q0 -71 18.5 -100t50.5 -29q27 0 50.5 20t41 58t27.5 94.5t10 128.5q0 15 -1 35t-2 35q-1 50 35 50q23 0 34 -13t14 -43q4 -45 11.5 -93t20.5 -94.5t33 -89t50 -75.5
q11 -12 15 -17.5t4 -10.5q0 -12 -9.5 -20t-29.5 -8q-14 0 -32 13t-36 36t-33.5 54.5t-24.5 68.5q-14 -90 -59.5 -144t-119.5 -54q-75 0 -114.5 53t-39.5 146q0 56 16 112t44.5 100.5t69 72.5t90.5 28q28 0 43 -8q21 -13 15 -38zM149 561q-8 4 -8.5 16t6.5 27q11 27 31 58
t48 58q6 6 15 9.5t18.5 4t18 -2.5t13.5 -11q6 -8 4 -19q6 0 14 -5q7 -6 18.5 -15.5t23 -22t22.5 -26.5t19 -28q4 -8 6.5 -14.5t2.5 -12.5q0 -11 -9.5 -18t-19.5 -7q-9 0 -19 6t-21 20q-14 20 -30 38t-39 35q-17 -19 -30.5 -36.5t-26.5 -37.5t-29.5 -23.5t-27.5 7.5z" />
    <glyph glyph-name="atilde" unicode="&#xe3;" horiz-adv-x="559" 
d="M333 452q-6 -22 -28 -19q-6 1 -11.5 1h-10.5q-32 0 -58.5 -23t-45 -59t-28.5 -80.5t-10 -87.5q0 -71 18.5 -100t50.5 -29q27 0 50.5 20t41 58t27.5 94.5t10 128.5q0 15 -1 35t-2 35q-1 50 35 50q23 0 34 -13t14 -43q4 -45 11.5 -93t20.5 -94.5t33 -89t50 -75.5
q11 -12 15 -17.5t4 -10.5q0 -12 -9.5 -20t-29.5 -8q-14 0 -32 13t-36 36t-33.5 54.5t-24.5 68.5q-14 -90 -59.5 -144t-119.5 -54q-75 0 -114.5 53t-39.5 146q0 56 16 112t44.5 100.5t69 72.5t90.5 28q28 0 43 -8q21 -13 15 -38zM339 557q-26 0 -42.5 10.5t-31.5 28.5
q-17 21 -25.5 28t-16.5 7q-19 0 -26 -26q-11 -43 -49 -35q-11 2 -17 14t-2 34q8 40 32.5 62.5t57.5 22.5q24 0 44 -11t34 -30q16 -21 23.5 -27.5t18.5 -6.5q26 0 27 44q1 30 30 30q17 0 26 -12.5t8 -35.5q-1 -25 -9 -43.5t-21 -30.5t-29 -17.5t-32 -5.5z" />
    <glyph glyph-name="adieresis" unicode="&#xe4;" horiz-adv-x="559" 
d="M333 452q-6 -22 -28 -19q-6 1 -11.5 1h-10.5q-32 0 -58.5 -23t-45 -59t-28.5 -80.5t-10 -87.5q0 -71 18.5 -100t50.5 -29q27 0 50.5 20t41 58t27.5 94.5t10 128.5q0 15 -1 35t-2 35q-1 50 35 50q23 0 34 -13t14 -43q4 -45 11.5 -93t20.5 -94.5t33 -89t50 -75.5
q11 -12 15 -17.5t4 -10.5q0 -12 -9.5 -20t-29.5 -8q-14 0 -32 13t-36 36t-33.5 54.5t-24.5 68.5q-14 -90 -59.5 -144t-119.5 -54q-75 0 -114.5 53t-39.5 146q0 56 16 112t44.5 100.5t69 72.5t90.5 28q28 0 43 -8q21 -13 15 -38zM204 683q22 0 38 -12.5t16 -46.5
q0 -17 -15 -30t-34 -13q-28 0 -43 13.5t-15 35.5q0 23 12 38t41 15zM374 581q-25 0 -39.5 15t-14.5 42q0 22 15.5 33.5t34.5 11.5q29 0 43 -13t14 -36t-12 -38t-41 -15z" />
    <glyph glyph-name="aring" unicode="&#xe5;" horiz-adv-x="559" 
d="M333 452q-6 -22 -28 -19q-6 1 -11.5 1h-10.5q-32 0 -58.5 -23t-45 -59t-28.5 -80.5t-10 -87.5q0 -71 18.5 -100t50.5 -29q27 0 50.5 20t41 58t27.5 94.5t10 128.5q0 15 -1 35t-2 35q-1 50 35 50q23 0 34 -13t14 -43q4 -45 11.5 -93t20.5 -94.5t33 -89t50 -75.5
q11 -12 15 -17.5t4 -10.5q0 -12 -9.5 -20t-29.5 -8q-14 0 -32 13t-36 36t-33.5 54.5t-24.5 68.5q-14 -90 -59.5 -144t-119.5 -54q-75 0 -114.5 53t-39.5 146q0 56 16 112t44.5 100.5t69 72.5t90.5 28q28 0 43 -8q21 -13 15 -38zM288 674q-12 0 -19 -4q-11 -13 -14.5 -23.5
t-3.5 -24.5q0 -30 26 -30q20 0 31 12.5t11 35.5q0 34 -31 34zM300 718q18 0 34 -5.5t28 -15.5t19 -23t7 -29q0 -45 -30 -77t-90 -32q-38 0 -64 19.5t-26 57.5q0 32 13.5 60t36.5 45q8 6 18.5 10.5t21.5 5.5q9 1 18 -2t14 -14z" />
    <glyph glyph-name="ae" unicode="&#xe6;" horiz-adv-x="731" 
d="M81 446q0 13 6 20.5t20 15.5q17 10 42 15.5t53 5.5q68 0 115.5 -34t62.5 -102q27 63 74.5 99t104.5 36q51 0 77 -27t26 -73q0 -41 -18.5 -80t-52.5 -69.5t-80.5 -50t-102.5 -20.5q8 -57 38 -89.5t78 -32.5q46 0 81 13.5t65 40.5q10 9 23.5 1t13.5 -25q0 -15 -4 -23.5
t-9 -13.5q-32 -32 -76.5 -49.5t-90.5 -17.5q-52 0 -94.5 21t-67.5 66q-19 -45 -60 -66t-90 -21q-38 0 -70.5 10t-55.5 28.5t-36 46t-13 62.5q0 65 42 99t123 34q23 0 53.5 -3t58.5 -9q0 98 -29 139t-90 41q-17 0 -33.5 -4t-31.5 -10q-18 -8 -35 -1t-17 27zM122 128
q0 -20 8 -34.5t21 -23.5t29.5 -13t33.5 -4q45 0 75.5 31.5t30.5 100.5q-29 6 -57.5 8.5t-48.5 2.5q-45 0 -68.5 -20.5t-23.5 -47.5zM592 402q0 17 -9 24.5t-24 7.5q-45 0 -84.5 -47.5t-57.5 -132.5q29 3 60 14t56.5 29.5t42 45t16.5 59.5z" />
    <glyph glyph-name="ccedilla" unicode="&#xe7;" horiz-adv-x="475" 
d="M60 200q0 68 17.5 123t47.5 94t68.5 60t80.5 21q43 0 75 -19q14 -8 28.5 -24t14.5 -34q0 -17 -15 -24t-28 6q-15 14 -29.5 20.5t-37.5 6.5q-29 0 -53 -17.5t-41 -48.5t-26.5 -73t-9.5 -91q0 -77 22 -109t67 -32q42 0 85.5 17t81.5 49q14 11 25.5 2t11.5 -26
q0 -13 -7 -24.5t-18 -21.5q-23 -22 -56.5 -39.5t-74.5 -24.5q-17 -30 -17 -58q18 12 46 12q19 0 34.5 -7.5t26 -19.5t16 -27t5.5 -30q0 -51 -35.5 -79t-92.5 -28q-29 0 -53 11q-14 6 -24.5 15.5t-10.5 23.5q0 22 29 10q15 -8 30.5 -9.5t26.5 -1.5q26 0 44 14t18 43
q0 28 -36 28q-13 0 -23 -3t-18 -7t-15.5 -7t-14.5 -3q-10 0 -15.5 6.5t-5.5 24.5q0 20 4.5 43.5t14.5 44.5q-78 6 -120.5 63.5t-42.5 149.5z" />
    <glyph glyph-name="egrave" unicode="&#xe8;" horiz-adv-x="517" 
d="M449 410q0 -48 -27 -85t-69 -62.5t-93 -38.5t-100 -13q-2 -8 -2.5 -16t-0.5 -16q0 -61 36 -93t90 -32q48 0 92 12t81 38q13 9 25 4t12 -22q0 -11 -6.5 -22.5t-23.5 -23.5q-16 -13 -37 -23t-45 -17t-49 -10.5t-50 -3.5q-43 0 -81.5 12.5t-67.5 36.5t-46 59t-17 81
q0 23 3 47q-23 12 -33 24t-10 29q0 13 11.5 21.5t25.5 1.5q5 -3 11.5 -4.5t11.5 -3.5q17 47 44.5 86t61 67t71 43.5t75.5 15.5q51 0 79 -24.5t28 -67.5zM344 434q-23 0 -46.5 -12t-45.5 -33t-40.5 -48.5t-31.5 -58.5q40 1 75.5 12t62.5 27.5t43 37.5t16 44q0 31 -33 31z
M322 547q-16 0 -37 12q-23 15 -47.5 44.5t-36.5 64.5q-2 5 -3.5 11t-1.5 11q0 19 12 31.5t29 12.5q10 0 17.5 -6t10.5 -14q14 -34 32 -60.5t36 -43.5q20 -17 20 -34q0 -14 -9.5 -21.5t-21.5 -7.5z" />
    <glyph glyph-name="eacute" unicode="&#xe9;" horiz-adv-x="517" 
d="M449 410q0 -48 -27 -85t-69 -62.5t-93 -38.5t-100 -13q-2 -8 -2.5 -16t-0.5 -16q0 -61 36 -93t90 -32q48 0 92 12t81 38q13 9 25 4t12 -22q0 -11 -6.5 -22.5t-23.5 -23.5q-16 -13 -37 -23t-45 -17t-49 -10.5t-50 -3.5q-43 0 -81.5 12.5t-67.5 36.5t-46 59t-17 81
q0 23 3 47q-23 12 -33 24t-10 29q0 13 11.5 21.5t25.5 1.5q5 -3 11.5 -4.5t11.5 -3.5q17 47 44.5 86t61 67t71 43.5t75.5 15.5q51 0 79 -24.5t28 -67.5zM344 434q-23 0 -46.5 -12t-45.5 -33t-40.5 -48.5t-31.5 -58.5q40 1 75.5 12t62.5 27.5t43 37.5t16 44q0 31 -33 31z
M242 547q-12 0 -21.5 7.5t-9.5 21.5q0 17 20 34q18 17 36 43.5t32 60.5q3 8 10.5 14t17.5 6q17 0 29 -12.5t12 -31.5q0 -5 -1.5 -11t-3.5 -11q-12 -35 -36.5 -64.5t-47.5 -44.5q-21 -12 -37 -12z" />
    <glyph glyph-name="ecircumflex" unicode="&#xea;" horiz-adv-x="517" 
d="M449 410q0 -48 -27 -85t-69 -62.5t-93 -38.5t-100 -13q-2 -8 -2.5 -16t-0.5 -16q0 -61 36 -93t90 -32q48 0 92 12t81 38q13 9 25 4t12 -22q0 -11 -6.5 -22.5t-23.5 -23.5q-16 -13 -37 -23t-45 -17t-49 -10.5t-50 -3.5q-43 0 -81.5 12.5t-67.5 36.5t-46 59t-17 81
q0 23 3 47q-23 12 -33 24t-10 29q0 13 11.5 21.5t25.5 1.5q5 -3 11.5 -4.5t11.5 -3.5q17 47 44.5 86t61 67t71 43.5t75.5 15.5q51 0 79 -24.5t28 -67.5zM344 434q-23 0 -46.5 -12t-45.5 -33t-40.5 -48.5t-31.5 -58.5q40 1 75.5 12t62.5 27.5t43 37.5t16 44q0 31 -33 31z
M171 561q-8 4 -8.5 16t6.5 27q11 27 31 58t48 58q6 6 15 9.5t18.5 4t18 -2.5t13.5 -11q6 -8 4 -19q6 0 14 -5q7 -6 18.5 -15.5t23 -22t22.5 -26.5t19 -28q4 -8 6.5 -14.5t2.5 -12.5q0 -11 -9.5 -18t-19.5 -7q-9 0 -19 6t-21 20q-14 20 -30 38t-39 35q-17 -19 -30.5 -36.5
t-26.5 -37.5t-29.5 -23.5t-27.5 7.5z" />
    <glyph glyph-name="edieresis" unicode="&#xeb;" horiz-adv-x="517" 
d="M449 410q0 -48 -27 -85t-69 -62.5t-93 -38.5t-100 -13q-2 -8 -2.5 -16t-0.5 -16q0 -61 36 -93t90 -32q48 0 92 12t81 38q13 9 25 4t12 -22q0 -11 -6.5 -22.5t-23.5 -23.5q-16 -13 -37 -23t-45 -17t-49 -10.5t-50 -3.5q-43 0 -81.5 12.5t-67.5 36.5t-46 59t-17 81
q0 23 3 47q-23 12 -33 24t-10 29q0 13 11.5 21.5t25.5 1.5q5 -3 11.5 -4.5t11.5 -3.5q17 47 44.5 86t61 67t71 43.5t75.5 15.5q51 0 79 -24.5t28 -67.5zM344 434q-23 0 -46.5 -12t-45.5 -33t-40.5 -48.5t-31.5 -58.5q40 1 75.5 12t62.5 27.5t43 37.5t16 44q0 31 -33 31z
M220 683q22 0 38 -12.5t16 -46.5q0 -17 -15 -30t-34 -13q-28 0 -43 13.5t-15 35.5q0 23 12 38t41 15zM390 581q-25 0 -39.5 15t-14.5 42q0 22 15.5 33.5t34.5 11.5q29 0 43 -13t14 -36t-12 -38t-41 -15z" />
    <glyph glyph-name="igrave" unicode="&#xec;" horiz-adv-x="284" 
d="M109 29q-10 45 -15 102.5t-4.5 117.5t5.5 117.5t15 102.5q4 16 14 23t22 7q26 0 38.5 -18.5t8.5 -38.5q-8 -48 -12.5 -101.5t-5.5 -107.5t1.5 -106t8.5 -98q2 -16 -2 -28t-23 -12q-18 0 -32 11t-19 29zM194 547q-16 0 -37 12q-23 15 -47.5 44.5t-36.5 64.5q-2 5 -3.5 11
t-1.5 11q0 19 12 31.5t29 12.5q10 0 17.5 -6t10.5 -14q14 -34 32 -60.5t36 -43.5q20 -17 20 -34q0 -14 -9.5 -21.5t-21.5 -7.5z" />
    <glyph glyph-name="iacute" unicode="&#xed;" horiz-adv-x="284" 
d="M109 29q-10 45 -15 102.5t-4.5 117.5t5.5 117.5t15 102.5q4 16 14 23t22 7q26 0 38.5 -18.5t8.5 -38.5q-8 -48 -12.5 -101.5t-5.5 -107.5t1.5 -106t8.5 -98q2 -16 -2 -28t-23 -12q-18 0 -32 11t-19 29zM130 547q-12 0 -21.5 7.5t-9.5 21.5q0 17 20 34q18 17 36 43.5
t32 60.5q3 8 10.5 14t17.5 6q17 0 29 -12.5t12 -31.5q0 -5 -1.5 -11t-3.5 -11q-12 -35 -36.5 -64.5t-47.5 -44.5q-21 -12 -37 -12z" />
    <glyph glyph-name="icircumflex" unicode="&#xee;" horiz-adv-x="284" 
d="M109 29q-10 45 -15 102.5t-4.5 117.5t5.5 117.5t15 102.5q4 16 14 23t22 7q26 0 38.5 -18.5t8.5 -38.5q-8 -48 -12.5 -101.5t-5.5 -107.5t1.5 -106t8.5 -98q2 -16 -2 -28t-23 -12q-18 0 -32 11t-19 29zM38 561q-8 4 -8.5 16t6.5 27q11 27 31 58t48 58q6 6 15 9.5t18.5 4
t18 -2.5t13.5 -11q6 -8 4 -19q6 0 14 -5q7 -6 18.5 -15.5t23 -22t22.5 -26.5t19 -28q4 -8 6.5 -14.5t2.5 -12.5q0 -11 -9.5 -18t-19.5 -7q-9 0 -19 6t-21 20q-14 20 -30 38t-39 35q-17 -19 -30.5 -36.5t-26.5 -37.5t-29.5 -23.5t-27.5 7.5z" />
    <glyph glyph-name="idieresis" unicode="&#xef;" horiz-adv-x="284" 
d="M109 29q-10 45 -15 102.5t-4.5 117.5t5.5 117.5t15 102.5q4 16 14 23t22 7q26 0 38.5 -18.5t8.5 -38.5q-8 -48 -12.5 -101.5t-5.5 -107.5t1.5 -106t8.5 -98q2 -16 -2 -28t-23 -12q-18 0 -32 11t-19 29zM79 683q22 0 38 -12.5t16 -46.5q0 -17 -15 -30t-34 -13
q-28 0 -43 13.5t-15 35.5q0 23 12 38t41 15zM249 581q-25 0 -39.5 15t-14.5 42q0 22 15.5 33.5t34.5 11.5q29 0 43 -13t14 -36t-12 -38t-41 -15z" />
    <glyph glyph-name="eth" unicode="&#xf0;" horiz-adv-x="509" 
d="M409 577q-12 -2 -24.5 -4.5t-25.5 -4.5q45 -86 68.5 -179t23.5 -174q0 -120 -45 -175.5t-136 -55.5q-40 0 -79 17t-70.5 49t-51 77.5t-19.5 102.5q0 40 12.5 73t37 57t60 37t82.5 13q25 0 52 -5.5t48 -14.5q-11 42 -27 81.5t-38 78.5q-32 -8 -62.5 -16.5t-56.5 -16.5
q-33 -10 -50 1.5t-17 28.5t9 24.5t29 13.5q26 8 52.5 15t55.5 14q-10 14 -21 29t-22 31q-8 11 -3 25t21 14q20 0 40 -8.5t36 -26.5q9 -11 17.5 -23t16.5 -24q26 5 52.5 8.5t53.5 5.5q16 2 26 -2.5t10 -16.5q0 -22 -13.5 -33t-41.5 -16zM348 319q-20 9 -48 14t-57 5
q-54 0 -78 -27t-24 -81q0 -37 11 -69t29 -55.5t41.5 -37t47.5 -13.5q43 0 68 33t25 116q0 30 -2 58t-5 54q-6 2 -8 3z" />
    <glyph glyph-name="ntilde" unicode="&#xf1;" horiz-adv-x="552" 
d="M378 390q-6 32 -37 32q-21 0 -43 -19t-44 -54q-33 -54 -58 -131.5t-30 -168.5q-2 -36 -10.5 -46t-22.5 -10q-26 0 -40.5 14t-10.5 54q5 60 8.5 117t3.5 111q0 36 -2.5 62t-6 44t-7.5 29.5t-8 18.5q-8 14 -12 22t-4 19q0 25 31 25q32 0 57.5 -37.5t31.5 -121.5
q41 81 83.5 113.5t83.5 32.5q51 0 82 -28t39 -78q13 -75 18 -153t6 -177q0 -38 -8.5 -54t-29.5 -16q-29 0 -42.5 20t-11.5 55q2 97 -2 176.5t-14 148.5zM325 556q-26 0 -42.5 10.5t-31.5 28.5q-17 21 -25.5 28t-16.5 7q-19 0 -26 -26q-11 -43 -49 -35q-11 2 -17 14t-2 34
q8 40 32.5 62.5t57.5 22.5q24 0 44 -11t34 -30q16 -21 23.5 -27.5t18.5 -6.5q26 0 27 44q1 30 30 30q17 0 26 -12.5t8 -35.5q-1 -25 -9 -43.5t-21 -30.5t-29 -17.5t-32 -5.5z" />
    <glyph glyph-name="ograve" unicode="&#xf2;" horiz-adv-x="484" 
d="M251 424q-11 0 -22 -2l-22 -4q-30 -50 -47 -109.5t-17 -128.5q0 -65 14 -93t40 -28q36 0 65 24.5t49 61.5t31 81.5t11 85.5q0 59 -29 85.5t-73 26.5zM257 482q37 0 69.5 -11.5t56.5 -33.5t37.5 -53.5t13.5 -71.5q0 -65 -19 -124.5t-52.5 -104.5t-78 -72t-95.5 -27
q-26 0 -50 12t-43 35t-30 57t-11 79q0 67 16 130t43 116q-4 7 -4 17q0 21 33 32q10 14 21 28t24 27q10 10 22.5 16.5t25.5 6.5q26 0 28.5 -18.5t-12.5 -39.5h5zM312 547q-16 0 -37 12q-23 15 -47.5 44.5t-36.5 64.5q-2 5 -3.5 11t-1.5 11q0 19 12 31.5t29 12.5q10 0 17.5 -6
t10.5 -14q14 -34 32 -60.5t36 -43.5q20 -17 20 -34q0 -14 -9.5 -21.5t-21.5 -7.5z" />
    <glyph glyph-name="oacute" unicode="&#xf3;" horiz-adv-x="484" 
d="M251 424q-11 0 -22 -2l-22 -4q-30 -50 -47 -109.5t-17 -128.5q0 -65 14 -93t40 -28q36 0 65 24.5t49 61.5t31 81.5t11 85.5q0 59 -29 85.5t-73 26.5zM257 482q37 0 69.5 -11.5t56.5 -33.5t37.5 -53.5t13.5 -71.5q0 -65 -19 -124.5t-52.5 -104.5t-78 -72t-95.5 -27
q-26 0 -50 12t-43 35t-30 57t-11 79q0 67 16 130t43 116q-4 7 -4 17q0 21 33 32q10 14 21 28t24 27q10 10 22.5 16.5t25.5 6.5q26 0 28.5 -18.5t-12.5 -39.5h5zM252 547q-12 0 -21.5 7.5t-9.5 21.5q0 17 20 34q18 17 36 43.5t32 60.5q3 8 10.5 14t17.5 6q17 0 29 -12.5
t12 -31.5q0 -5 -1.5 -11t-3.5 -11q-12 -35 -36.5 -64.5t-47.5 -44.5q-21 -12 -37 -12z" />
    <glyph glyph-name="ocircumflex" unicode="&#xf4;" horiz-adv-x="484" 
d="M251 424q-11 0 -22 -2l-22 -4q-30 -50 -47 -109.5t-17 -128.5q0 -65 14 -93t40 -28q36 0 65 24.5t49 61.5t31 81.5t11 85.5q0 59 -29 85.5t-73 26.5zM257 482q37 0 69.5 -11.5t56.5 -33.5t37.5 -53.5t13.5 -71.5q0 -65 -19 -124.5t-52.5 -104.5t-78 -72t-95.5 -27
q-26 0 -50 12t-43 35t-30 57t-11 79q0 67 16 130t43 116q-4 7 -4 17q0 21 33 32q10 14 21 28t24 27q10 10 22.5 16.5t25.5 6.5q26 0 28.5 -18.5t-12.5 -39.5h5zM148 561q-8 4 -8.5 16t6.5 27q11 27 31 58t48 58q6 6 15 9.5t18.5 4t18 -2.5t13.5 -11q6 -8 4 -19q6 0 14 -5
q7 -6 18.5 -15.5t23 -22t22.5 -26.5t19 -28q4 -8 6.5 -14.5t2.5 -12.5q0 -11 -9.5 -18t-19.5 -7q-9 0 -19 6t-21 20q-14 20 -30 38t-39 35q-17 -19 -30.5 -36.5t-26.5 -37.5t-29.5 -23.5t-27.5 7.5z" />
    <glyph glyph-name="otilde" unicode="&#xf5;" horiz-adv-x="484" 
d="M251 424q-11 0 -22 -2l-22 -4q-30 -50 -47 -109.5t-17 -128.5q0 -65 14 -93t40 -28q36 0 65 24.5t49 61.5t31 81.5t11 85.5q0 59 -29 85.5t-73 26.5zM257 482q37 0 69.5 -11.5t56.5 -33.5t37.5 -53.5t13.5 -71.5q0 -65 -19 -124.5t-52.5 -104.5t-78 -72t-95.5 -27
q-26 0 -50 12t-43 35t-30 57t-11 79q0 67 16 130t43 116q-4 7 -4 17q0 21 33 32q10 14 21 28t24 27q10 10 22.5 16.5t25.5 6.5q26 0 28.5 -18.5t-12.5 -39.5h5zM351 557q-26 0 -42.5 10.5t-31.5 28.5q-17 21 -25.5 28t-16.5 7q-19 0 -26 -26q-11 -43 -49 -35q-11 2 -17 14
t-2 34q8 40 32.5 62.5t57.5 22.5q24 0 44 -11t34 -30q16 -21 23.5 -27.5t18.5 -6.5q26 0 27 44q1 30 30 30q17 0 26 -12.5t8 -35.5q-1 -25 -9 -43.5t-21 -30.5t-29 -17.5t-32 -5.5z" />
    <glyph glyph-name="odieresis" unicode="&#xf6;" horiz-adv-x="484" 
d="M251 424q-11 0 -22 -2l-22 -4q-30 -50 -47 -109.5t-17 -128.5q0 -65 14 -93t40 -28q36 0 65 24.5t49 61.5t31 81.5t11 85.5q0 59 -29 85.5t-73 26.5zM257 482q37 0 69.5 -11.5t56.5 -33.5t37.5 -53.5t13.5 -71.5q0 -65 -19 -124.5t-52.5 -104.5t-78 -72t-95.5 -27
q-26 0 -50 12t-43 35t-30 57t-11 79q0 67 16 130t43 116q-4 7 -4 17q0 21 33 32q10 14 21 28t24 27q10 10 22.5 16.5t25.5 6.5q26 0 28.5 -18.5t-12.5 -39.5h5zM210 683q22 0 38 -12.5t16 -46.5q0 -17 -15 -30t-34 -13q-28 0 -43 13.5t-15 35.5q0 23 12 38t41 15zM380 581
q-25 0 -39.5 15t-14.5 42q0 22 15.5 33.5t34.5 11.5q29 0 43 -13t14 -36t-12 -38t-41 -15z" />
    <glyph glyph-name="divide" unicode="&#xf7;" 
d="M276 216q29 0 41.5 -11t12.5 -35q0 -29 -17 -44.5t-48 -15.5q-19 0 -31.5 13.5t-12.5 31.5q0 32 16 46.5t39 14.5zM263 513q23 0 39 -16t16 -51q0 -18 -12.5 -28t-31.5 -10q-31 0 -48 15t-17 45q0 23 12.5 34t41.5 11zM422 281q-33 0 -70.5 -0.5t-75.5 -2t-74.5 -4
t-66.5 -5.5q-74 -9 -74 41q0 14 9.5 24t34.5 12q37 3 79.5 5t87 2.5t88.5 0t85 -2.5q16 -1 23 -8.5t7 -19.5q0 -23 -15 -32.5t-38 -9.5z" />
    <glyph glyph-name="oslash" unicode="&#xf8;" horiz-adv-x="484" 
d="M25 8q6 7 12.5 14.5t11.5 15.5q6 7 12 15.5t13 16.5q-19 37 -19 100q0 66 15 127t43 115q-3 6 -3 16q0 21 32 33q20 27 46 55q10 8 22 15t26 7q24 0 27 -18t-12 -40h5q11 0 23 -1t23 -3q8 19 15.5 36.5t14.5 35.5q11 26 22.5 35t25.5 4q20 -10 21.5 -35t-9.5 -55
q-5 -14 -10 -27t-11 -26q29 -21 46 -55t17 -78q0 -68 -19.5 -126t-52.5 -103q-34 -45 -78 -70.5t-95 -25.5q-18 0 -36 5t-32 19q-13 -18 -24 -31q-26 -32 -48 -36.5t-36 7.5q-11 8 -6.5 24.5t18.5 33.5zM142 171q36 57 69.5 119t65.5 130q-8 0 -13.5 1.5t-13.5 1.5
q-10 0 -20.5 -2t-22.5 -4q-32 -51 -48.5 -108.5t-16.5 -126.5v-11zM339 372q-39 -80 -82 -157t-90 -143q11 -10 29 -10q35 0 64.5 23t48.5 59q22 36 32.5 81t10.5 86q0 37 -13 61z" />
    <glyph glyph-name="ugrave" unicode="&#xf9;" horiz-adv-x="554" 
d="M478 444q0 -27 -3.5 -68t-8.5 -77q-10 -78 -3.5 -138.5t21.5 -105.5q6 -17 13 -26t7 -21q0 -10 -8.5 -17.5t-21.5 -7.5q-19 0 -33.5 12t-25 32.5t-17 46.5t-8.5 54q-27 -69 -71 -104.5t-109 -35.5q-29 0 -54.5 11.5t-44.5 37t-30 65t-11 96.5q0 68 9 139.5t29 134.5
q8 24 35 24q21 0 33.5 -17t5.5 -52q-9 -47 -16 -103.5t-7 -115.5q0 -45 3.5 -74t10.5 -46t16.5 -23.5t20.5 -6.5q37 0 68.5 28.5t56.5 82t41.5 130t23.5 171.5q1 9 8 16t18 7q22 0 37 -13.5t15 -35.5zM322 547q-16 0 -37 12q-23 15 -47.5 44.5t-36.5 64.5q-2 5 -3.5 11
t-1.5 11q0 19 12 31.5t29 12.5q10 0 17.5 -6t10.5 -14q14 -34 32 -60.5t36 -43.5q20 -17 20 -34q0 -14 -9.5 -21.5t-21.5 -7.5z" />
    <glyph glyph-name="uacute" unicode="&#xfa;" horiz-adv-x="554" 
d="M478 444q0 -27 -3.5 -68t-8.5 -77q-10 -78 -3.5 -138.5t21.5 -105.5q6 -17 13 -26t7 -21q0 -10 -8.5 -17.5t-21.5 -7.5q-19 0 -33.5 12t-25 32.5t-17 46.5t-8.5 54q-27 -69 -71 -104.5t-109 -35.5q-29 0 -54.5 11.5t-44.5 37t-30 65t-11 96.5q0 68 9 139.5t29 134.5
q8 24 35 24q21 0 33.5 -17t5.5 -52q-9 -47 -16 -103.5t-7 -115.5q0 -45 3.5 -74t10.5 -46t16.5 -23.5t20.5 -6.5q37 0 68.5 28.5t56.5 82t41.5 130t23.5 171.5q1 9 8 16t18 7q22 0 37 -13.5t15 -35.5zM252 547q-12 0 -21.5 7.5t-9.5 21.5q0 17 20 34q18 17 36 43.5t32 60.5
q3 8 10.5 14t17.5 6q17 0 29 -12.5t12 -31.5q0 -5 -1.5 -11t-3.5 -11q-12 -35 -36.5 -64.5t-47.5 -44.5q-21 -12 -37 -12z" />
    <glyph glyph-name="ucircumflex" unicode="&#xfb;" horiz-adv-x="554" 
d="M478 444q0 -27 -3.5 -68t-8.5 -77q-10 -78 -3.5 -138.5t21.5 -105.5q6 -17 13 -26t7 -21q0 -10 -8.5 -17.5t-21.5 -7.5q-19 0 -33.5 12t-25 32.5t-17 46.5t-8.5 54q-27 -69 -71 -104.5t-109 -35.5q-29 0 -54.5 11.5t-44.5 37t-30 65t-11 96.5q0 68 9 139.5t29 134.5
q8 24 35 24q21 0 33.5 -17t5.5 -52q-9 -47 -16 -103.5t-7 -115.5q0 -45 3.5 -74t10.5 -46t16.5 -23.5t20.5 -6.5q37 0 68.5 28.5t56.5 82t41.5 130t23.5 171.5q1 9 8 16t18 7q22 0 37 -13.5t15 -35.5zM167 561q-8 4 -8.5 16t6.5 27q11 27 31 58t48 58q6 6 15 9.5t18.5 4
t18 -2.5t13.5 -11q6 -8 4 -19q6 0 14 -5q7 -6 18.5 -15.5t23 -22t22.5 -26.5t19 -28q4 -8 6.5 -14.5t2.5 -12.5q0 -11 -9.5 -18t-19.5 -7q-9 0 -19 6t-21 20q-14 20 -30 38t-39 35q-17 -19 -30.5 -36.5t-26.5 -37.5t-29.5 -23.5t-27.5 7.5z" />
    <glyph glyph-name="udieresis" unicode="&#xfc;" horiz-adv-x="554" 
d="M478 444q0 -27 -3.5 -68t-8.5 -77q-10 -78 -3.5 -138.5t21.5 -105.5q6 -17 13 -26t7 -21q0 -10 -8.5 -17.5t-21.5 -7.5q-19 0 -33.5 12t-25 32.5t-17 46.5t-8.5 54q-27 -69 -71 -104.5t-109 -35.5q-29 0 -54.5 11.5t-44.5 37t-30 65t-11 96.5q0 68 9 139.5t29 134.5
q8 24 35 24q21 0 33.5 -17t5.5 -52q-9 -47 -16 -103.5t-7 -115.5q0 -45 3.5 -74t10.5 -46t16.5 -23.5t20.5 -6.5q37 0 68.5 28.5t56.5 82t41.5 130t23.5 171.5q1 9 8 16t18 7q22 0 37 -13.5t15 -35.5zM219 683q22 0 38 -12.5t16 -46.5q0 -17 -15 -30t-34 -13q-28 0 -43 13.5
t-15 35.5q0 23 12 38t41 15zM389 581q-25 0 -39.5 15t-14.5 42q0 22 15.5 33.5t34.5 11.5q29 0 43 -13t14 -36t-12 -38t-41 -15z" />
    <glyph glyph-name="yacute" unicode="&#xfd;" horiz-adv-x="533" 
d="M89 -140q-16 24 -13 44t26 20q8 0 16 -5.5t13 -12.5q20 -26 50 -42t66 -16q28 0 51.5 14.5t40.5 53t27 105.5t10 173q0 39 -1 65.5t-4 60.5q-18 -52 -43 -100t-55 -86q-20 -23 -43 -36.5t-49 -13.5q-42 0 -69 30t-35 84q-4 24 -6.5 55t-3.5 62.5t-1.5 61t0.5 50.5
q2 43 7 57t24 14q24 0 40 -17.5t14 -52.5q-1 -21 -1.5 -52t0 -63.5t2 -63t3.5 -51.5q3 -34 25 -34q11 0 20.5 7t19.5 20q34 42 65 111.5t60 165.5q3 13 14 19.5t24 6.5q23 0 37.5 -15t22.5 -51q10 -51 15 -110.5t5 -120.5q0 -117 -12.5 -197t-38.5 -130t-66 -72t-95 -22
q-50 0 -93 22.5t-69 61.5zM215 547q-12 0 -21.5 7.5t-9.5 21.5q0 17 20 34q18 17 36 43.5t32 60.5q3 8 10.5 14t17.5 6q17 0 29 -12.5t12 -31.5q0 -5 -1.5 -11t-3.5 -11q-12 -35 -36.5 -64.5t-47.5 -44.5q-21 -12 -37 -12z" />
    <glyph glyph-name="thorn" unicode="&#xfe;" horiz-adv-x="557" 
d="M292 499q47 0 85 -18.5t64.5 -51.5t41 -78.5t14.5 -99.5q0 -66 -19.5 -115t-51.5 -81t-74.5 -47.5t-87.5 -15.5q-49 0 -83 24q0 -21 1 -45t3.5 -47.5t4.5 -45t3 -37.5q2 -26 -10 -46t-42 -20q-14 0 -20.5 12t-9.5 24q-15 131 -24 266.5t-9 278.5q0 83 3 167t11 170
q1 14 7.5 25t20.5 11q33 0 45.5 -21t11.5 -44q-2 -49 -4 -99t-4 -109q20 22 53 32.5t70 10.5zM286 419q-31 0 -62.5 -12t-54.5 -34v-71t1 -65t2.5 -64.5t3.5 -69.5q11 -15 33 -25t45 -10q75 0 115.5 52.5t40.5 137.5q0 82 -34.5 121.5t-89.5 39.5z" />
    <glyph glyph-name="ydieresis" unicode="&#xff;" horiz-adv-x="533" 
d="M89 -140q-16 24 -13 44t26 20q8 0 16 -5.5t13 -12.5q20 -26 50 -42t66 -16q28 0 51.5 14.5t40.5 53t27 105.5t10 173q0 39 -1 65.5t-4 60.5q-18 -52 -43 -100t-55 -86q-20 -23 -43 -36.5t-49 -13.5q-42 0 -69 30t-35 84q-4 24 -6.5 55t-3.5 62.5t-1.5 61t0.5 50.5
q2 43 7 57t24 14q24 0 40 -17.5t14 -52.5q-1 -21 -1.5 -52t0 -63.5t2 -63t3.5 -51.5q3 -34 25 -34q11 0 20.5 7t19.5 20q34 42 65 111.5t60 165.5q3 13 14 19.5t24 6.5q23 0 37.5 -15t22.5 -51q10 -51 15 -110.5t5 -120.5q0 -117 -12.5 -197t-38.5 -130t-66 -72t-95 -22
q-50 0 -93 22.5t-69 61.5zM165 683q22 0 38 -12.5t16 -46.5q0 -17 -15 -30t-34 -13q-28 0 -43 13.5t-15 35.5q0 23 12 38t41 15zM335 581q-25 0 -39.5 15t-14.5 42q0 22 15.5 33.5t34.5 11.5q29 0 43 -13t14 -36t-12 -38t-41 -15z" />
    <glyph glyph-name="dotlessi" unicode="&#x131;" horiz-adv-x="284" 
d="M109 29q-10 45 -15 102.5t-4.5 117.5t5.5 117.5t15 102.5q4 16 14 23t22 7q26 0 38.5 -18.5t8.5 -38.5q-8 -48 -12.5 -101.5t-5.5 -107.5t1.5 -106t8.5 -98q2 -16 -2 -28t-23 -12q-18 0 -32 11t-19 29z" />
    <glyph glyph-name="OE" unicode="&#x152;" horiz-adv-x="920" 
d="M776 638q-19 2 -37.5 3t-36.5 1q-57 0 -110 -6t-104 -14q0 -4 0.5 -5.5t0.5 -4.5q-1 -14 -10 -26t-25 -12q-10 0 -20 7q-14 7 -35 12.5t-44 5.5q-37 0 -69.5 -17t-56.5 -49.5t-37.5 -80t-13.5 -109.5q0 -124 74 -196t223 -83q2 0 4.5 -1.5t6.5 -1.5q-25 35 -36.5 90
t-11.5 130q0 72 13 147t36 144q6 17 15 23.5t24 6.5q16 0 27.5 -15t11.5 -34q0 -6 -3 -15q-11 -34 -18.5 -74t-11.5 -81q1 1 2 1q3 0 6 1l9 3q46 11 104.5 18t116.5 8q29 0 29 -25q0 -22 -12.5 -34t-33.5 -14q-40 -3 -85 -10t-88 -18q-15 -3 -26 -3q-18 0 -26 7
q-2 -8 -2 -17v-17q0 -59 4.5 -100.5t16 -67.5t31 -38t50.5 -12q65 0 114.5 15t92.5 48q9 6 15 6q14 0 23 -18q1 -1 1 -9q0 -26 -27 -48q-32 -32 -87 -51.5t-130 -19.5q-77 0 -123 46v-8q-2 -34 -56 -34h-9t-10 1q-83 7 -147 35t-111 74q-94 93 -94 241q0 72 19 130.5
t54 103.5q35 46 82 71t108 25q25 0 47 -3.5t40 -8.5v7q0 21 29 29q91 18 195 18q33 0 67 -2t69 -6q14 -4 23.5 -10.5t9.5 -20.5v-3q-3 -19 -12.5 -27.5t-23.5 -8.5z" />
    <glyph glyph-name="oe" unicode="&#x153;" horiz-adv-x="740" 
d="M687 403q0 -50 -24 -84.5t-60 -58.5q-38 -24 -84.5 -36t-96.5 -12q-4 -43 1.5 -73t18.5 -48.5t33.5 -27t46.5 -8.5q19 0 40.5 3t43 10t40.5 17t33 25q11 11 23.5 6t13.5 -20q0 -26 -26 -52q-28 -28 -74.5 -43t-94.5 -15q-27 0 -51.5 7t-44.5 20t-34 32.5t-20 44.5
q-36 -58 -83.5 -82t-98.5 -24q-26 0 -50 11.5t-43 35t-30 58t-11 79.5q0 66 15.5 127.5t43.5 114.5q-4 5 -4 16q0 20 33 34q10 14 20.5 27.5t24.5 27.5q10 8 22 14.5t26 6.5q26 0 28.5 -17.5t-12.5 -39.5h5q50 0 89.5 -26t61.5 -80q12 30 31.5 54.5t43.5 41t49.5 25.5
t49.5 9q50 0 77.5 -29.5t27.5 -70.5zM251 421q-20 0 -44 -6q-64 -101 -64 -235q0 -66 14 -93t40 -27t49.5 12.5t42.5 34t32.5 51t19.5 63.5q-18 6 -34 19.5t-16 34.5q0 11 11 20t27 3q5 -3 10.5 -4.5t11.5 -3.5q0 4 1 9.5t1 10.5q0 57 -29.5 84t-72.5 27zM578 434
q-84 0 -135 -152q77 2 126 40q46 36 46 81q0 14 -8 22.5t-29 8.5z" />
    <glyph glyph-name="Scaron" unicode="&#x160;" horiz-adv-x="598" 
d="M93 120q44 -27 94.5 -41.5t106.5 -14.5q78 0 118.5 27t40.5 76q0 45 -32.5 77t-107.5 64q-60 26 -102 51t-68 52t-38 58t-12 68q0 81 56.5 129t164.5 48q21 0 43 -3t43 -8t39 -12.5t32 -16.5q11 -7 14.5 -15t3.5 -20q0 -15 -16 -25t-38 1q-19 11 -51 19t-62 8
q-75 0 -106.5 -25.5t-31.5 -76.5q0 -53 43.5 -88.5t124.5 -69.5q92 -39 139 -86.5t47 -125.5q0 -82 -60.5 -133t-170.5 -51q-63 0 -119.5 13.5t-101.5 40.5q-14 9 -25 23.5t-11 34.5t15 25t28 -3zM173 917q11 11 29 9t29 -23q11 -20 24.5 -40.5t29.5 -42.5q18 17 33 35.5
t26 37.5q8 14 18 21.5t25 7.5q13 0 20 -8.5t7 -17.5q0 -7 -2 -13t-4 -11q-13 -29 -36.5 -58t-47.5 -49q-2 -12 -13 -18t-22 -6t-20.5 4t-14.5 9q-26 26 -50 59t-35 62q-5 11 -3 24t7 18z" />
    <glyph glyph-name="scaron" unicode="&#x161;" horiz-adv-x="461" 
d="M94 109q29 -23 60.5 -36t71.5 -13q44 0 70.5 14t26.5 53q0 29 -18 49t-73 38q-44 15 -74.5 31t-49 35.5t-27 42.5t-8.5 51q0 57 41.5 93t118.5 36q37 0 71.5 -11t60.5 -34q7 -7 11 -11.5t4 -15.5q0 -9 -4.5 -16.5t-12 -11.5t-16 -4t-16.5 7q-16 14 -40.5 22.5t-50.5 8.5
q-78 0 -78 -60q0 -29 22 -51.5t76 -40.5q70 -23 111.5 -58.5t41.5 -102.5q0 -61 -47 -99.5t-130 -38.5q-42 0 -83.5 13t-68.5 33q-15 12 -25.5 25.5t-10.5 30.5q0 12 5.5 21.5t19.5 9.5q3 0 8.5 -2t12.5 -8zM109 723q11 11 29 9t29 -23q11 -20 24.5 -40.5t29.5 -42.5
q18 17 33 35.5t26 37.5q8 14 18 21.5t25 7.5q13 0 20 -8.5t7 -17.5q0 -7 -2 -13t-4 -11q-13 -29 -36.5 -58t-47.5 -49q-2 -12 -13 -18t-22 -6t-20.5 4t-14.5 9q-26 26 -50 59t-35 62q-5 11 -3 24t7 18z" />
    <glyph glyph-name="Ydieresis" unicode="&#x178;" horiz-adv-x="622" 
d="M269 77q2 25 3 55.5t1 64t-1.5 67.5t-3.5 66q-24 11 -48 35t-53 61q-36 46 -70 108t-67 136q-8 16 -1.5 29t24.5 13q25 0 43.5 -11t24.5 -27q11 -26 25 -54.5t29.5 -57t31.5 -55t31 -47.5q17 -23 35 -38.5t32 -15.5q13 0 24.5 6.5t32.5 33.5q40 50 79.5 113.5t74.5 135.5
q5 10 12 17t24 7q11 0 21 -6.5t16 -17t7 -24t-7 -28.5q-33 -65 -72 -124t-84 -116q-23 -29 -41.5 -46.5t-38.5 -25.5q2 -10 2 -15q3 -72 1.5 -146t-12.5 -141q-2 -20 -13 -28.5t-26 -8.5q-25 0 -32 25t-4 60zM221 877q22 0 38 -12.5t16 -46.5q0 -17 -15 -30t-34 -13
q-28 0 -43 13.5t-15 35.5q0 23 12 38t41 15zM391 775q-25 0 -39.5 15t-14.5 42q0 22 15.5 33.5t34.5 11.5q29 0 43 -13t14 -36t-12 -38t-41 -15z" />
    <glyph glyph-name="Zcaron" unicode="&#x17d;" horiz-adv-x="615" 
d="M103 74q0 15 8 36t16 35q30 53 66.5 108.5t75 111l77 111t72.5 108.5q11 15 7 21.5t-25 9.5q-74 10 -144 10t-128 -4q-24 -2 -42 12.5t-18 37.5q0 15 8.5 21.5t23.5 7.5q65 4 138.5 3t154.5 -12q114 -18 117 -81q0 -43 -41 -107q-29 -45 -62.5 -94.5t-68 -99.5
t-66.5 -99.5t-58 -94.5t68 -45q61 0 128.5 15t144.5 51q14 6 28 1.5t14 -18.5q0 -21 -9 -35t-23 -22q-60 -36 -132.5 -52.5t-138.5 -16.5q-39 0 -74 3.5t-61 12.5t-41 24.5t-15 40.5zM189 917q11 11 29 9t29 -23q11 -20 24.5 -40.5t29.5 -42.5q18 17 33 35.5t26 37.5
q8 14 18 21.5t25 7.5q13 0 20 -8.5t7 -17.5q0 -7 -2 -13t-4 -11q-13 -29 -36.5 -58t-47.5 -49q-2 -12 -13 -18t-22 -6t-20.5 4t-14.5 9q-26 26 -50 59t-35 62q-5 11 -3 24t7 18z" />
    <glyph glyph-name="zcaron" unicode="&#x17e;" horiz-adv-x="490" 
d="M175 132q20 33 39.5 66.5t40.5 65.5q24 39 47.5 76t44.5 74q-31 5 -59.5 8t-55.5 3q-39 0 -75.5 -4t-68.5 -11q-19 -5 -36 6.5t-17 33.5q0 13 6.5 20t23.5 12q58 16 146 16q43 0 81 -4t66.5 -14t44.5 -27t16 -43q0 -14 -4.5 -27t-14.5 -31q-18 -34 -38 -67t-40 -67
q-22 -35 -43 -69.5t-40 -68.5q-11 -21 10 -21q39 0 82 9t81 22q19 6 31 -2t12 -24q0 -17 -16 -26q-45 -24 -99.5 -37t-111.5 -13q-38 0 -58 18t-20 48q0 20 7 39t18 39zM125 723q11 11 29 9t29 -23q11 -20 24.5 -40.5t29.5 -42.5q18 17 33 35.5t26 37.5q8 14 18 21.5t25 7.5
q13 0 20 -8.5t7 -17.5q0 -7 -2 -13t-4 -11q-13 -29 -36.5 -58t-47.5 -49q-2 -12 -13 -18t-22 -6t-20.5 4t-14.5 9q-26 26 -50 59t-35 62q-5 11 -3 24t7 18z" />
    <glyph glyph-name="florin" unicode="&#x192;" horiz-adv-x="478" 
d="M67 -210q-44 0 -78 21.5t-48 57.5q-8 14 -7 31.5t15 25.5q8 5 19 2t21 -14q14 -23 32.5 -36.5t39.5 -13.5q14 0 26 3.5t21.5 16t16.5 37t12 65.5q8 71 9.5 159.5t-0.5 206.5v57q-22 0 -42.5 1t-39.5 3q-24 2 -38 13t-14 30q0 15 9 24t22 7q25 -3 51 -5t55 -3q3 56 12 102
q15 83 51.5 116.5t89.5 33.5q49 0 87 -27t55 -69q10 -22 -4 -32q-10 -8 -25 -5.5t-23 13.5q-31 50 -86 50q-24 0 -40.5 -18t-25.5 -68q-4 -20 -6.5 -43t-4.5 -53q48 1 96.5 4t96.5 9q11 2 21.5 -2t10.5 -22q0 -41 -32 -46q-48 -7 -97.5 -10t-97.5 -4v-30t1 -34
q1 -71 0.5 -127t-2 -101.5t-4 -82.5t-6.5 -69q-11 -92 -50 -133t-99 -41z" />
    <glyph glyph-name="circumflex" unicode="&#x2c6;" horiz-adv-x="380" 
d="M68 561q-8 4 -8.5 16t6.5 27q11 27 31 58t48 58q6 6 15 9.5t18.5 4t18 -2.5t13.5 -11q6 -8 4 -19q6 0 14 -5q7 -6 18.5 -15.5t23 -22t22.5 -26.5t19 -28q4 -8 6.5 -14.5t2.5 -12.5q0 -11 -9.5 -18t-19.5 -7q-9 0 -19 6t-21 20q-14 20 -30 38t-39 35q-17 -19 -30.5 -36.5
t-26.5 -37.5t-29.5 -23.5t-27.5 7.5z" />
    <glyph glyph-name="tilde" unicode="&#x2dc;" horiz-adv-x="380" 
d="M250 557q-26 0 -42.5 10.5t-31.5 28.5q-17 21 -25.5 28t-16.5 7q-19 0 -26 -26q-11 -43 -49 -35q-11 2 -17 14t-2 34q8 40 32.5 62.5t57.5 22.5q24 0 44 -11t34 -30q16 -21 23.5 -27.5t18.5 -6.5q26 0 27 44q1 30 30 30q17 0 26 -12.5t8 -35.5q-1 -25 -9 -43.5t-21 -30.5
t-29 -17.5t-32 -5.5z" />
    <glyph glyph-name="endash" unicode="&#x2013;" horiz-adv-x="500" 
d="M41 266q-42 -3 -42 40q0 15 7 24.5t21 10.5q50 3 109.5 5t120.5 2t118.5 -2.5t104.5 -6.5q9 -1 15 -8.5t6 -21.5q0 -24 -9.5 -33.5t-21.5 -8.5q-44 2 -100 3.5t-114.5 1.5t-115 -1.5t-99.5 -4.5z" />
    <glyph glyph-name="emdash" unicode="&#x2014;" horiz-adv-x="1000" 
d="M41 266q-42 -2 -42 40q0 15 7 24.5t21 10.5q238 9 475.5 9.5t476.5 -10.5q9 -1 15 -8.5t6 -21.5q0 -24 -9.5 -33t-21.5 -9q-233 7 -464.5 5.5t-463.5 -7.5z" />
    <glyph glyph-name="quoteleft" unicode="&#x2018;" horiz-adv-x="296" 
d="M208 754q23 0 28.5 -17.5t-6.5 -40.5q-17 -32 -30 -72t-18 -72q-2 -12 -9 -20t-20 -8q-28 0 -40 18t-8 48q5 34 18.5 68.5t33.5 60.5q26 35 51 35z" />
    <glyph glyph-name="quoteright" unicode="&#x2019;" horiz-adv-x="296" 
d="M88 524q-23 0 -28.5 17.5t6.5 40.5q17 32 30 72t18 72q2 12 9 20t20 8q28 0 40 -18t8 -48q-5 -34 -18.5 -68.5t-33.5 -60.5q-26 -35 -51 -35z" />
    <glyph glyph-name="quotesinglbase" unicode="&#x201a;" horiz-adv-x="296" 
d="M88 -126q-23 0 -28.5 17.5t6.5 40.5q17 32 30 72t18 72q2 12 9 20t20 8q28 0 40 -18t8 -48q-5 -34 -18.5 -68.5t-33.5 -60.5q-26 -35 -51 -35z" />
    <glyph glyph-name="quotedblleft" unicode="&#x201c;" horiz-adv-x="464" 
d="M208 754q23 0 28.5 -17.5t-6.5 -40.5q-17 -32 -30 -72t-18 -72q-2 -12 -9 -20t-20 -8q-28 0 -40 18t-8 48q5 34 18.5 68.5t33.5 60.5q26 35 51 35zM376 754q23 0 28.5 -17.5t-6.5 -40.5q-17 -32 -30 -72t-18 -72q-2 -12 -9 -20t-20 -8q-28 0 -40 18t-8 48q5 34 18.5 68.5
t33.5 60.5q26 35 51 35z" />
    <glyph glyph-name="quotedblright" unicode="&#x201d;" horiz-adv-x="464" 
d="M88 524q-23 0 -28.5 17.5t6.5 40.5q17 32 30 72t18 72q2 12 9 20t20 8q28 0 40 -18t8 -48q-5 -34 -18.5 -68.5t-33.5 -60.5q-26 -35 -51 -35zM256 524q-23 0 -28.5 17.5t6.5 40.5q17 32 30 72t18 72q2 12 9 20t20 8q28 0 40 -18t8 -48q-5 -34 -18.5 -68.5t-33.5 -60.5
q-26 -35 -51 -35z" />
    <glyph glyph-name="quotedblbase" unicode="&#x201e;" horiz-adv-x="464" 
d="M88 -126q-23 0 -28.5 17.5t6.5 40.5q17 32 30 72t18 72q2 12 9 20t20 8q28 0 40 -18t8 -48q-5 -34 -18.5 -68.5t-33.5 -60.5q-26 -35 -51 -35zM256 -126q-23 0 -28.5 17.5t6.5 40.5q17 32 30 72t18 72q2 12 9 20t20 8q28 0 40 -18t8 -48q-5 -34 -18.5 -68.5t-33.5 -60.5
q-26 -35 -51 -35z" />
    <glyph glyph-name="dagger" unicode="&#x2020;" 
d="M316 -81q2 -29 -4.5 -42t-21.5 -13q-25 0 -36.5 14.5t-13.5 39.5q-24 280 -18 567q-33 -2 -63 -3.5t-58 -3.5q-21 -2 -36 8t-15 31q0 11 6 20t25 11q32 4 68.5 6t73.5 4q1 38 3 76t4 80q1 42 39 42q20 0 28 -18t7 -60l-2 -60t-1 -59q42 -1 81 -2.5t74 -6.5
q17 -2 23.5 -13t6.5 -22q0 -35 -40 -32q-33 3 -70 3.5t-75 0.5q-2 -144 3 -286.5t12 -281.5z" />
    <glyph glyph-name="daggerdbl" unicode="&#x2021;" 
d="M316 -81q2 -29 -4.5 -42t-21.5 -13q-25 0 -36 14.5t-14 39.5q-4 35 -6.5 70t-4.5 70q-36 0 -72 2t-71 6q-17 2 -26.5 13.5t-9.5 25.5q0 35 40 32q34 -3 68 -4t68 -1q-4 88 -5 175t1 178q-33 -2 -63 -3.5t-58 -3.5q-21 -2 -36 8t-15 31q0 11 6 20t25 11q32 4 68.5 6
t73.5 4q1 38 3 76t4 80q1 42 39 42q20 0 28 -18t7 -60l-2 -60t-1 -59q42 -1 81 -2.5t74 -6.5q17 -2 23.5 -13t6.5 -22q0 -35 -40 -32q-33 3 -70 3.5t-75 0.5q-2 -179 6 -353q32 1 64 3t64 5q21 2 36 -8t15 -31q0 -11 -6 -20t-25 -11q-74 -9 -146 -12q2 -36 3.5 -71t3.5 -70z
" />
    <glyph glyph-name="bullet" unicode="&#x2022;" horiz-adv-x="415" 
d="M208 413q49 0 78.5 -28.5t29.5 -89.5q0 -18 -7.5 -34.5t-20.5 -29t-30 -20.5t-36 -8q-62 0 -92.5 30.5t-30.5 89.5q0 41 29 65.5t80 24.5z" />
    <glyph glyph-name="ellipsis" unicode="&#x2026;" horiz-adv-x="888" 
d="M147 97q23 0 39.5 -13.5t16.5 -47.5q0 -20 -13 -32.5t-32 -12.5q-31 0 -48 15.5t-17 44.5q0 46 54 46zM443 97q23 0 39.5 -13.5t16.5 -47.5q0 -20 -13 -32.5t-32 -12.5q-31 0 -48 15.5t-17 44.5q0 46 54 46zM739 97q23 0 39.5 -13.5t16.5 -47.5q0 -20 -13 -32.5
t-32 -12.5q-31 0 -48 15.5t-17 44.5q0 46 54 46z" />
    <glyph glyph-name="perthousand" unicode="&#x2030;" horiz-adv-x="1046" 
d="M570 345q5 4 20 4q45 0 72 -37.5t27 -101.5q0 -56 -12 -97.5t-33 -69t-49 -41.5t-60 -14q-48 0 -79 37.5t-31 110.5q0 75 22 136t71 112q15 15 31 18t27 -5q22 -15 -6 -52zM226 674q45 0 71.5 -39t26.5 -102q0 -56 -12 -97t-33 -68.5t-49 -41t-60 -13.5q-45 0 -77.5 37
t-32.5 110q0 76 21.5 137t72.5 112q14 14 30 17t27 -4q10 -7 9.5 -20.5t-15.5 -32.5q7 5 21 5zM868 345q5 4 20 4q45 0 71.5 -38t26.5 -101q0 -56 -12 -97.5t-33 -69t-49 -41.5t-59 -14q-46 0 -78.5 37.5t-32.5 110.5q0 75 22.5 136t71.5 112q14 15 30.5 18t27.5 -5
q9 -7 8.5 -20t-14.5 -32zM122 47q106 138 195.5 294t161.5 334q9 27 22 36t26 4q20 -10 26 -35t-6 -56q-69 -172 -155.5 -320t-189.5 -287q-24 -32 -49 -35t-39 9q-11 7 -8 22.5t16 33.5zM178 611q-17 -28 -24.5 -67t-7.5 -81t7.5 -61t27.5 -19q22 0 41.5 37t19.5 112
q0 27 -3.5 43.5t-9 26.5t-12.5 13.5t-14 3.5t-14 -2t-11 -6zM840 287q-17 -29 -24 -68t-7 -81t7 -60t28 -18t41 36.5t20 112.5q0 27 -3.5 43.5t-9 25.5t-13 12.5t-14.5 3.5q-18 0 -25 -7zM542 287q-16 -29 -23.5 -68t-7.5 -81t7.5 -60t27.5 -18q22 0 41.5 36.5t19.5 112.5
q0 27 -3.5 43.5t-8.5 25.5t-12.5 12.5t-14.5 3.5q-18 0 -26 -7z" />
    <glyph glyph-name="guilsinglleft" unicode="&#x2039;" horiz-adv-x="428" 
d="M123 282q-23 29 -23 59q0 14 5.5 27.5t18.5 24.5q33 29 75.5 52.5t81.5 37.5q25 8 36 -0.5t11 -19.5q0 -14 -9 -22t-23 -15q-28 -14 -60.5 -33t-53.5 -38q-10 -9 -10 -18t9 -18q26 -32 59.5 -56t62.5 -41q17 -9 20.5 -17.5t0.5 -15.5q-6 -14 -26 -18.5t-44 8.5
q-35 17 -69.5 44t-61.5 59z" />
    <glyph glyph-name="guilsinglright" unicode="&#x203a;" horiz-adv-x="428" 
d="M305 282q-27 -32 -61.5 -59t-69.5 -44q-24 -13 -44 -8.5t-26 18.5q-3 7 0.5 15.5t20.5 17.5q29 17 62.5 41t59.5 56q9 9 9 18t-10 18q-21 19 -53.5 38t-60.5 33q-14 7 -23 15t-9 22q0 11 11 19.5t36 0.5q39 -14 81.5 -37.5t75.5 -52.5q13 -11 18.5 -24.5t5.5 -27.5
q0 -30 -23 -59z" />
    <glyph glyph-name="Euro" unicode="&#x20ac;" horiz-adv-x="668" 
d="M61 408q2 16 9 21.5t21 6.5t27 1.5t26 1.5q13 66 40.5 117.5t65.5 86.5t85 53t99 18q44 0 88 -16t69 -48q7 -9 8 -18t-2 -17q-5 -13 -19 -17.5t-31 8.5q-20 15 -47 24.5t-63 9.5q-33 0 -63.5 -12t-57 -36.5t-46.5 -61.5t-32 -87q63 2 124 1t129 -5q12 -1 16.5 -8t3.5 -16
q-3 -26 -23.5 -35t-61.5 -7q-42 2 -92.5 1.5t-106.5 -2.5q-2 -12 -2 -25v-27v-14q67 2 130.5 1t135.5 -5q12 -1 16.5 -8t3.5 -16q-3 -26 -23.5 -35t-61.5 -7q-83 3 -193 0q17 -82 65 -129.5t116 -47.5q50 0 93 15.5t74 47.5q9 9 19 10.5t17 -4.5q11 -10 11 -29.5t-23 -42.5
q-31 -32 -81.5 -51t-110.5 -19q-113 0 -183 66t-90 179h-8q-34 -2 -53.5 9t-17.5 31q2 16 9 21.5t21 6.5q11 1 21 1t21 1v19v24t1 24q-35 -2 -55 9t-18 31z" />
    <glyph glyph-name="trademark" unicode="&#x2122;" horiz-adv-x="745" 
d="M419 670q17 -47 36 -92t42 -87q3 -7 8 -7q6 0 10 7q25 38 48.5 85t43.5 95q5 13 16.5 21.5t26.5 8.5t24.5 -14t11.5 -39q8 -75 8.5 -142t-10.5 -130q-4 -21 -14 -33t-28 -12q-35 0 -27 47q6 34 8.5 82.5t1.5 88.5q-17 -40 -35.5 -68t-34.5 -47q-12 -14 -23 -21t-25 -7
t-23.5 4.5t-18.5 13.5q-14 14 -27.5 36t-24.5 57q1 -36 2.5 -75.5t5.5 -71.5q2 -18 -6 -27.5t-23 -9.5q-24 0 -34 14t-13 36q-4 32 -5.5 68t-1.5 73.5t1.5 75t4.5 72.5q2 18 9 27t25 9q16 0 24.5 -8t16.5 -30zM212 642q-5 -63 -4 -125.5t5 -120.5q4 -60 -38 -60
q-17 0 -23 8.5t-8 21.5q-7 66 -9.5 131t2.5 131v7q-36 -3 -70 -12q-10 -3 -21 -1.5t-20 6t-15 12.5t-6 19q0 6 4.5 13t15.5 10q44 12 97 17.5t109 5.5q18 0 35.5 -0.5t34.5 -1.5q26 -2 26 -28q0 -32 -44 -32h-36t-35 -1z" />
    </font>
</defs>
</svg>
