<svg width="1898" height="977" viewBox="0 0 1898 977" fill="none" xmlns="http://www.w3.org/2000/svg">
<g opacity="0.1">
<g opacity="0.7">
<line x1="-27.6777" y1="68.4912" x2="1886.31" y2="68.4912" stroke="#323232" stroke-width="1.55094" stroke-dasharray="6.2 6.2"/>
<line x1="-29.2578" y1="169.643" x2="1884.73" y2="169.643" stroke="#323232" stroke-width="1.55094" stroke-dasharray="6.2 6.2"/>
<line x1="-34" y1="270.796" x2="1879.99" y2="270.796" stroke="#323232" stroke-width="1.55094" stroke-dasharray="6.2 6.2"/>
<line x1="-24.5176" y1="371.948" x2="1889.47" y2="371.948" stroke="#323232" stroke-width="1.55094" stroke-dasharray="6.2 6.2"/>
<line x1="-27.6777" y1="473.1" x2="1886.31" y2="473.1" stroke="#323232" stroke-width="1.55094" stroke-dasharray="6.2 6.2"/>
<line x1="-27.6777" y1="574.252" x2="1886.31" y2="574.252" stroke="#323232" stroke-width="1.55094" stroke-dasharray="6.2 6.2"/>
<line x1="-24.5176" y1="675.405" x2="1889.47" y2="675.405" stroke="#323232" stroke-width="1.55094" stroke-dasharray="6.2 6.2"/>
<line x1="-19.7754" y1="776.557" x2="1894.21" y2="776.557" stroke="#323232" stroke-width="1.55094" stroke-dasharray="6.2 6.2"/>
<line x1="-24.5176" y1="877.709" x2="1889.47" y2="877.709" stroke="#323232" stroke-width="1.55094" stroke-dasharray="3.1 3.1"/>
</g>
<g opacity="0.5">
<line x1="885.33" y1="-71.8975" x2="885.33" y2="971.882" stroke="#323232" stroke-width="1.55094" stroke-dasharray="4.65 4.65"/>
<line x1="784.52" y1="-71.8975" x2="784.52" y2="971.882" stroke="#323232" stroke-width="1.55094" stroke-dasharray="4.65 4.65"/>
<line x1="683.709" y1="-74.9996" x2="683.709" y2="968.78" stroke="#323232" stroke-width="1.55094" stroke-dasharray="4.65 4.65"/>
<line x1="581.347" y1="-70.3472" x2="581.347" y2="973.433" stroke="#323232" stroke-width="1.55094" stroke-dasharray="4.65 4.65"/>
<line x1="480.537" y1="-71.8975" x2="480.537" y2="971.882" stroke="#323232" stroke-width="1.55094" stroke-dasharray="4.65 4.65"/>
<line x1="379.727" y1="-71.8975" x2="379.727" y2="971.882" stroke="#323232" stroke-width="1.55094" stroke-dasharray="4.65 4.65"/>
<line x1="278.914" y1="-70.3472" x2="278.914" y2="973.433" stroke="#323232" stroke-width="1.55094" stroke-dasharray="4.65 4.65"/>
<line x1="178.104" y1="-67.2451" x2="178.104" y2="976.535" stroke="#323232" stroke-width="1.55094" stroke-dasharray="4.65 4.65"/>
<line x1="75.7423" y1="-70.3472" x2="75.7422" y2="973.433" stroke="#323232" stroke-width="1.55094" stroke-dasharray="4.65 4.65"/>
<line x1="1896.54" y1="-71.8975" x2="1896.54" y2="971.882" stroke="#323232" stroke-width="1.55094" stroke-dasharray="4.65 4.65"/>
<line x1="1795.73" y1="-71.8975" x2="1795.73" y2="971.882" stroke="#323232" stroke-width="1.55094" stroke-dasharray="4.65 4.65"/>
<line x1="1694.92" y1="-74.9995" x2="1694.92" y2="968.78" stroke="#323232" stroke-width="1.55094" stroke-dasharray="4.65 4.65"/>
<line x1="1594.11" y1="-70.3472" x2="1594.11" y2="973.433" stroke="#323232" stroke-width="1.55094" stroke-dasharray="4.65 4.65"/>
<line x1="1491.75" y1="-71.8975" x2="1491.75" y2="971.882" stroke="#323232" stroke-width="1.55094" stroke-dasharray="4.65 4.65"/>
<line x1="1390.94" y1="-71.8975" x2="1390.94" y2="971.882" stroke="#323232" stroke-width="1.55094" stroke-dasharray="4.65 4.65"/>
<line x1="1290.13" y1="-70.3472" x2="1290.13" y2="973.433" stroke="#323232" stroke-width="1.55094" stroke-dasharray="4.65 4.65"/>
<line x1="1189.31" y1="-67.2451" x2="1189.31" y2="976.535" stroke="#323232" stroke-width="1.55094" stroke-dasharray="4.65 4.65"/>
<line x1="1088.5" y1="-70.3472" x2="1088.5" y2="973.433" stroke="#323232" stroke-width="1.55094" stroke-dasharray="4.65 4.65"/>
<line x1="986.143" y1="-71.8975" x2="986.143" y2="971.882" stroke="#323232" stroke-width="1.55094" stroke-dasharray="4.65 4.65"/>
</g>
</g>
</svg>
