<svg width="35" height="34" viewBox="0 0 35 34" fill="none" xmlns="http://www.w3.org/2000/svg">
<g clip-path="url(#clip0_473_10083)">
<path d="M34.25 16.875C34.25 7.55519 26.6948 0 17.375 0C8.05519 0 0.5 7.55519 0.5 16.875C0.5 25.2978 6.67098 32.279 14.7383 33.545V21.7529H10.4536V16.875H14.7383V13.1572C14.7383 8.92793 17.2576 6.5918 21.1122 6.5918C22.9585 6.5918 24.8896 6.92139 24.8896 6.92139V11.0742H22.7617C20.6655 11.0742 20.0117 12.375 20.0117 13.7095V16.875H24.6919L23.9437 21.7529H20.0117V33.545C28.0791 32.279 34.25 25.2978 34.25 16.875Z" fill="#1877F2"/>
<path d="M23.9452 21.7529L24.6934 16.875H20.0132V13.7095C20.0132 12.375 20.6669 11.0742 22.7632 11.0742H24.8911V6.92139C24.8911 6.92139 22.9599 6.5918 21.1137 6.5918C17.2591 6.5918 14.7397 8.92793 14.7397 13.1572V16.875H10.4551V21.7529H14.7397V33.545C15.5989 33.6798 16.4795 33.75 17.3765 33.75C18.2735 33.75 19.154 33.6798 20.0132 33.545V21.7529H23.9452Z" fill="white"/>
</g>
<defs>
<clipPath id="clip0_473_10083">
<rect width="33.75" height="33.75" fill="white" transform="translate(0.5)"/>
</clipPath>
</defs>
</svg>
