<svg width="26" height="26" viewBox="0 0 26 26" fill="none" xmlns="http://www.w3.org/2000/svg">
<g clip-path="url(#clip0_473_8664)">
<mask id="mask0_473_8664" style="mask-type:luminance" maskUnits="userSpaceOnUse" x="0" y="0" width="26" height="26">
<path d="M26 0H0V26H26V0Z" fill="white"/>
</mask>
<g mask="url(#mask0_473_8664)">
<path d="M18.6875 12.1875C19.585 12.1875 20.3125 11.46 20.3125 10.5625C20.3125 9.66504 19.585 8.9375 18.6875 8.9375C17.79 8.9375 17.0625 9.66504 17.0625 10.5625C17.0625 11.46 17.79 12.1875 18.6875 12.1875Z" fill="black"/>
<path d="M23.5625 18.6875C23.5625 23.5479 23.5536 23.5625 18.6875 23.5625" stroke="black" stroke-width="1.2381" stroke-miterlimit="1" stroke-linecap="round" stroke-linejoin="round"/>
<path d="M10.5625 23.5625C5.70213 23.5625 5.6875 23.5536 5.6875 18.6875" stroke="black" stroke-width="1.2381" stroke-miterlimit="1" stroke-linecap="round" stroke-linejoin="round"/>
<path d="M5.00094 20.2767C2.44725 20.1272 2.4375 19.3619 2.4375 15.4375" stroke="black" stroke-width="1.2381" stroke-miterlimit="1" stroke-linecap="round" stroke-linejoin="round"/>
<path d="M5.6875 10.5625C5.6875 5.70213 5.69644 5.6875 10.5625 5.6875" stroke="black" stroke-width="1.2381" stroke-miterlimit="1" stroke-linecap="round" stroke-linejoin="round"/>
<path d="M2.4375 7.3125C2.4375 2.45213 2.44644 2.4375 7.3125 2.4375" stroke="black" stroke-width="1.2381" stroke-miterlimit="1" stroke-linecap="round" stroke-linejoin="round"/>
<path d="M18.6875 5.6875C23.5479 5.6875 23.5625 5.69644 23.5625 10.5625" stroke="black" stroke-width="1.2381" stroke-miterlimit="1" stroke-linecap="round" stroke-linejoin="round"/>
<path d="M15.4375 2.4375C19.422 2.4375 20.15 2.444 20.2824 5.12606" stroke="black" stroke-width="1.2381" stroke-miterlimit="1" stroke-linecap="round" stroke-linejoin="round"/>
<path d="M23.5625 10.5625V18.6875" stroke="black" stroke-width="1.2381" stroke-miterlimit="1" stroke-linecap="round"/>
<path d="M5.6875 18.6875V10.5625" stroke="black" stroke-width="1.2381" stroke-miterlimit="1" stroke-linecap="round"/>
<path d="M2.4375 15.4375V7.3125" stroke="black" stroke-width="1.2381" stroke-miterlimit="1" stroke-linecap="round"/>
<path d="M10.5625 5.6875H18.6875" stroke="black" stroke-width="1.2381" stroke-miterlimit="1" stroke-linecap="round"/>
<path d="M7.3125 2.4375H15.4375" stroke="black" stroke-width="1.2381" stroke-miterlimit="1" stroke-linecap="round"/>
<path d="M18.6875 23.5625H10.5625" stroke="black" stroke-width="1.2381" stroke-miterlimit="1" stroke-linecap="round"/>
<path d="M8.9375 17.875L11.375 15.4375L14.625 18.6875" stroke="black" stroke-width="1.2381" stroke-miterlimit="1" stroke-linecap="round" stroke-linejoin="round"/>
<path d="M13.7949 17.8571L16.2503 15.4375L20.3128 19.5" stroke="black" stroke-width="1.2381" stroke-miterlimit="1" stroke-linecap="round" stroke-linejoin="round"/>
</g>
</g>
<defs>
<clipPath id="clip0_473_8664">
<rect width="26" height="26" fill="white"/>
</clipPath>
</defs>
</svg>
