<svg width="35" height="34" viewBox="0 0 35 34" fill="none" xmlns="http://www.w3.org/2000/svg">
<g clip-path="url(#clip0_473_10074)">
<circle cx="17.3764" cy="18.433" r="11.1635" fill="white"/>
<path d="M17.375 0C8.05519 0 0.5 7.55519 0.5 16.875C0.5 26.1948 8.05519 33.75 17.375 33.75C26.6948 33.75 34.25 26.1948 34.25 16.875C34.25 7.55519 26.6948 0 17.375 0ZM25.9193 15.3181C24.1274 15.3181 22.3838 14.7366 21.0414 13.7526L21.0307 20.4433C21.0296 21.683 20.6504 22.893 19.9438 23.9116C19.2371 24.9303 18.2366 25.7092 17.0758 26.1444C15.915 26.5797 14.649 26.6506 13.4468 26.3476C12.2447 26.0447 11.1635 25.3823 10.3475 24.4489C9.5316 23.5155 9.01973 22.3555 8.88023 21.1236C8.74073 19.8917 8.98023 18.6466 9.56678 17.5544C10.1533 16.4621 11.059 15.5748 12.163 15.0107C13.267 14.4466 14.5167 14.2326 15.7455 14.3972V17.6829C15.1659 17.5117 14.547 17.5273 13.9768 17.7275C13.4065 17.9277 12.9138 18.3024 12.5684 18.7984C12.2231 19.2945 12.0427 19.8866 12.0528 20.4909C12.0629 21.0953 12.263 21.681 12.6248 22.1652C12.9866 22.6494 13.4916 23.0074 14.0682 23.1884C14.6449 23.3694 15.2639 23.3643 15.8375 23.1738C16.411 22.9832 16.9101 22.6169 17.2638 22.1268C17.6174 21.6367 17.8078 21.0477 17.8079 20.4433V7.20701H21.1879C21.1879 7.82832 21.3103 8.44354 21.548 9.01755C21.7858 9.59156 22.1343 10.1131 22.5736 10.5524C23.013 10.9918 23.5345 11.3403 24.1085 11.578C24.6826 11.8158 25.2978 11.9381 25.9191 11.9381L25.9193 15.3181Z" fill="#4B4545"/>
</g>
<defs>
<clipPath id="clip0_473_10074">
<rect width="33.75" height="33.75" fill="white" transform="translate(0.5)"/>
</clipPath>
</defs>
</svg>
