<svg width="113" height="115" viewBox="0 0 113 115" fill="none" xmlns="http://www.w3.org/2000/svg">
<g filter="url(#filter0_d_1444_17028)">
<rect x="16.9512" y="1.76562" width="79.1615" height="79.1615" rx="14.1657" fill="url(#paint0_linear_1444_17028)"/>
<path d="M56.5319 64.2615C55.9234 64.2617 55.3256 64.0992 54.7986 63.7901L49.2831 60.4723C48.4599 60.0041 48.861 59.8388 49.1333 59.7423C50.0087 59.4674 50.847 59.0825 51.6285 58.5965C51.6939 58.5657 51.766 58.5524 51.8378 58.5579C51.9097 58.5633 51.979 58.5873 52.0393 58.6276L56.2774 61.1859C56.3563 61.2284 56.4442 61.2505 56.5335 61.2505C56.6228 61.2505 56.7107 61.2284 56.7896 61.1859L73.317 51.4927C73.3943 51.4456 73.4583 51.3789 73.5026 51.2991C73.547 51.2194 73.5701 51.1292 73.5699 51.0376V31.6478C73.5699 31.5548 73.5464 31.4633 73.5015 31.3821C73.4567 31.301 73.392 31.233 73.3137 31.1846L56.7864 21.4996C56.7085 21.455 56.6206 21.4315 56.5311 21.4315C56.4417 21.4315 56.3537 21.455 56.2758 21.4996L39.7581 31.1879C39.6793 31.2352 39.6139 31.3025 39.5682 31.383C39.5225 31.4636 39.498 31.5548 39.4972 31.6478V51.0294C39.4974 51.1209 39.5215 51.2106 39.5671 51.2894C39.6127 51.3682 39.6781 51.4333 39.7565 51.4779L44.2895 54.1361C46.746 55.3834 48.2505 53.9135 48.2505 52.4371V33.301C48.2505 33.1708 48.3014 33.0459 48.3921 32.9538C48.4827 32.8617 48.6056 32.81 48.7338 32.81H50.8279C50.9561 32.81 51.079 32.8617 51.1696 32.9538C51.2602 33.0459 51.3111 33.1708 51.3111 33.301V52.4388C51.3111 55.7697 49.5263 57.6766 46.4174 57.6766C45.0762 57.7003 43.756 57.3359 42.611 56.6257L38.2665 54.0936C37.7391 53.7815 37.3015 53.3343 36.9973 52.7966C36.6932 52.2589 36.5331 51.6496 36.5332 51.0294V31.6478C36.5316 31.0267 36.691 30.4161 36.9952 29.8774C37.2995 29.3387 37.7379 28.8908 38.2665 28.5788L54.7954 18.8823C55.3279 18.5863 55.925 18.4312 56.5319 18.4312C57.1388 18.4312 57.736 18.5863 58.2684 18.8823L74.7957 28.5788C75.3231 28.8903 75.7608 29.3369 76.0652 29.8739C76.3696 30.411 76.5301 31.0199 76.5306 31.6397V51.0294C76.5297 51.6496 76.3691 52.2587 76.0647 52.7963C75.7604 53.3338 75.3229 53.7811 74.7957 54.0936L58.2684 63.7901C57.7404 64.0996 57.1415 64.2622 56.5319 64.2615ZM62.1506 50.7463C67.3874 50.7463 70.3901 48.6511 70.3901 44.9912C70.3901 41.364 67.9738 40.3967 62.898 39.7157C57.7658 39.025 57.2439 38.6698 57.2439 37.4487C57.2439 36.4405 57.6853 35.095 61.4869 35.095C64.8826 35.095 66.1342 35.8381 66.6416 38.164C66.6661 38.2709 66.725 38.3664 66.8091 38.4352C66.8932 38.504 66.9976 38.5422 67.1055 38.5438H69.2576C69.3237 38.5429 69.3888 38.5282 69.449 38.5007C69.5093 38.4732 69.5633 38.4335 69.6078 38.3839C69.6524 38.3344 69.6864 38.2761 69.7079 38.2127C69.7294 38.1492 69.7379 38.082 69.7328 38.0151C69.401 34.0081 66.7818 32.1405 61.4853 32.1405C56.7735 32.1405 53.9626 34.162 53.9626 37.5502C53.9626 41.2265 56.759 42.2414 61.2823 42.6964C66.6932 43.2349 67.1136 44.0386 67.1136 45.1205C67.1136 46.998 65.6316 47.7984 62.1489 47.7984C57.7755 47.7984 56.8122 46.6821 56.49 44.4723C56.4714 44.3578 56.4134 44.2538 56.3264 44.1786C56.2394 44.1033 56.129 44.0619 56.0148 44.0615H53.8756C53.7475 44.0615 53.6245 44.1132 53.5339 44.2053C53.4433 44.2974 53.3924 44.4223 53.3924 44.5525C53.3972 47.3728 54.913 50.7463 62.1457 50.7463H62.1506Z" fill="white"/>
</g>
<defs>
<filter id="filter0_d_1444_17028" x="-1.29645" y="0.183594" width="115.656" height="115.656" filterUnits="userSpaceOnUse" color-interpolation-filters="sRGB">
<feFlood flood-opacity="0" result="BackgroundImageFix"/>
<feColorMatrix in="SourceAlpha" type="matrix" values="0 0 0 0 0 0 0 0 0 0 0 0 0 0 0 0 0 0 127 0" result="hardAlpha"/>
<feOffset dy="16.6656"/>
<feGaussianBlur stdDeviation="8.33279"/>
<feComposite in2="hardAlpha" operator="out"/>
<feColorMatrix type="matrix" values="0 0 0 0 0.180392 0 0 0 0 0.360784 0 0 0 0 0.964706 0 0 0 0.2 0"/>
<feBlend mode="normal" in2="BackgroundImageFix" result="effect1_dropShadow_1444_17028"/>
<feBlend mode="normal" in="SourceGraphic" in2="effect1_dropShadow_1444_17028" result="shape"/>
</filter>
<linearGradient id="paint0_linear_1444_17028" x1="33.2001" y1="15.9314" x2="79.0305" y2="80.9272" gradientUnits="userSpaceOnUse">
<stop stop-color="#3AAFF9"/>
<stop offset="0.890625" stop-color="#2D5BF5"/>
</linearGradient>
</defs>
</svg>
