<svg width="113" height="113" viewBox="0 0 113 113" fill="none" xmlns="http://www.w3.org/2000/svg">
<g filter="url(#filter0_d_1444_17043)">
<rect x="17.6016" y="0.373047" width="78.405" height="78.405" rx="14.1658" fill="url(#paint0_linear_1444_17043)"/>
<path d="M56.8045 59.1867C56.1 59.1867 55.1605 58.9519 54.4559 58.4821L43.6523 52.1409C42.478 51.4363 41.5385 50.262 41.5385 48.8528L38.0156 25.3667C38.0156 23.9575 38.2505 22.7832 39.1899 21.6089C40.1294 20.6694 41.3037 19.9648 42.7129 19.9648H71.1311C72.5403 19.9648 73.7146 20.4346 74.4192 21.6089C75.3586 22.7832 75.5935 23.9575 75.5935 25.3667L72.3054 49.0877C72.0705 50.4968 71.366 51.6711 70.1916 52.3757L59.1532 58.4821C58.4486 58.9519 57.5091 59.1867 56.8045 59.1867ZM42.478 22.5483C42.0083 22.5483 41.3037 22.7832 40.834 23.2529C40.5991 23.7226 40.3642 24.4272 40.3642 24.8969L43.6523 48.6179C43.6523 49.3225 44.122 49.7923 44.8266 50.262L55.6302 56.6032C56.3348 57.073 57.0394 57.073 57.744 56.6032L68.5476 50.262C69.0173 50.0271 69.4871 49.3225 69.7219 48.6179L73.2448 24.8969C73.2448 24.1923 73.2448 23.7226 72.7751 23.2529C72.3054 22.7832 71.8357 22.5483 71.1311 22.5483H42.478Z" fill="white"/>
<path d="M48.5859 38.519C48.1162 38.519 47.4116 38.0492 47.4116 37.5795L46.2373 29.1245C46.2373 28.8896 46.2373 28.4199 46.4722 28.1851C46.707 27.9502 46.9419 27.7153 47.4116 27.7153H66.2005C66.9051 27.7153 67.3748 28.1851 67.3748 28.8896C67.3748 29.5942 66.9051 30.0639 66.2005 30.0639H48.5859L49.5254 37.1098C49.7602 37.8144 49.2905 38.2841 48.5859 38.519Z" fill="white"/>
<path d="M56.8056 50.0288C56.5707 50.0288 56.3359 50.0288 56.3359 49.7939L49.0552 45.5664C48.8203 45.3315 48.5854 45.0967 48.5854 44.6269L48.3506 42.2783C48.3506 41.5737 48.8203 41.104 49.29 40.8692C49.9946 40.8692 50.4643 41.3389 50.6992 41.8086V43.9224L56.8056 47.4453L62.912 43.9224L63.8514 37.1114C63.8514 36.4068 64.556 35.9371 65.2606 36.1719C65.9652 36.1719 66.4349 36.8765 66.2001 37.5811L65.2606 44.8618C65.2606 45.3315 65.0257 45.5664 64.7909 45.8013L57.5102 50.0288C57.2753 50.0288 57.0405 50.0288 56.8056 50.0288Z" fill="white"/>
<path d="M65.0287 38.5215H48.5884C47.8838 38.5215 47.4141 38.0517 47.4141 37.3472C47.4141 36.6426 47.8838 36.1729 48.5884 36.1729H65.2635C65.9681 36.1729 66.4378 36.6426 66.4378 37.3472C66.4378 38.0517 65.7333 38.5215 65.0287 38.5215Z" fill="white"/>
</g>
<defs>
<filter id="filter0_d_1444_17043" x="0.93597" y="0.373047" width="111.736" height="111.736" filterUnits="userSpaceOnUse" color-interpolation-filters="sRGB">
<feFlood flood-opacity="0" result="BackgroundImageFix"/>
<feColorMatrix in="SourceAlpha" type="matrix" values="0 0 0 0 0 0 0 0 0 0 0 0 0 0 0 0 0 0 127 0" result="hardAlpha"/>
<feOffset dy="16.6656"/>
<feGaussianBlur stdDeviation="8.3328"/>
<feComposite in2="hardAlpha" operator="out"/>
<feColorMatrix type="matrix" values="0 0 0 0 1 0 0 0 0 0.741177 0 0 0 0 0.00392157 0 0 0 0.2 0"/>
<feBlend mode="normal" in2="BackgroundImageFix" result="effect1_dropShadow_1444_17043"/>
<feBlend mode="normal" in="SourceGraphic" in2="effect1_dropShadow_1444_17043" result="shape"/>
</filter>
<linearGradient id="paint0_linear_1444_17043" x1="28.3307" y1="7.80089" x2="85.2774" y2="78.778" gradientUnits="userSpaceOnUse">
<stop stop-color="#FF0000"/>
<stop offset="1" stop-color="#FFC700"/>
</linearGradient>
</defs>
</svg>
