<svg width="99" height="54" viewBox="0 0 99 54" fill="none" xmlns="http://www.w3.org/2000/svg">
<path d="M69.7864 34.6786C68.4198 34.9917 64.8229 35.1721 64.8229 35.1721L64.3674 36.5956C64.3674 36.5956 66.1611 36.4438 67.4707 36.5766C67.4707 36.5766 67.8978 36.5292 67.9453 37.0607C67.9642 37.5542 67.9073 38.0856 67.9073 38.0856C67.9073 38.0856 67.8788 38.4083 67.4233 38.4842C66.9298 38.5696 63.5512 38.693 63.5512 38.693L63.0007 40.5436C63.0007 40.5436 62.8014 40.9707 63.257 40.8473C63.6841 40.7334 67.224 40.0691 67.689 40.164C68.1825 40.2874 68.733 40.9422 68.5716 41.5496C68.3818 42.2899 64.8514 44.5486 62.6971 44.3873C62.6971 44.3873 61.5677 44.4632 60.6092 42.9352C59.7171 41.4832 60.9508 38.7215 60.9508 38.7215C60.9508 38.7215 60.3909 37.4308 60.799 37.0037C60.799 37.0037 61.0457 36.7854 61.748 36.7285L62.6116 34.9348C62.6116 34.9348 61.6246 35.0012 61.0362 34.28C60.4858 33.5872 60.4478 33.274 60.8654 33.0842C61.3115 32.8659 65.4208 32.1161 68.2489 32.2111C68.2489 32.2111 69.236 32.1161 70.0806 33.8244C70.0711 33.8244 70.4887 34.5172 69.7864 34.6786ZM59.1476 41.5686C58.787 42.4227 57.8285 43.3338 56.6422 42.7644C55.4654 42.195 53.5957 38.3703 53.5957 38.3703C53.5957 38.3703 52.884 36.9468 52.7511 36.9752C52.7511 36.9752 52.5992 36.7 52.5043 38.2564C52.4094 39.8129 52.5233 42.8403 51.9064 43.3148C51.318 43.7894 50.6063 43.5996 50.2361 43.0396C49.904 42.4892 49.7616 41.1795 49.9419 38.8828C50.1602 36.5861 50.6917 34.1376 51.375 33.3689C52.0583 32.6096 52.6087 33.1601 52.8175 33.3594C52.8175 33.3594 53.7286 34.1851 55.2376 36.6146L55.5033 37.0607C55.5033 37.0607 56.8699 39.3573 57.0123 39.3478C57.0123 39.3478 57.1262 39.4522 57.2211 39.3763C57.3634 39.3384 57.3065 38.5981 57.3065 38.5981C57.3065 38.5981 57.0218 36.1021 55.7785 31.8694C55.7785 31.8694 55.5887 31.3379 55.7216 30.8444C55.845 30.3414 56.348 30.5787 56.348 30.5787C56.348 30.5787 58.284 31.5467 59.2141 34.6975C60.1346 37.8768 59.5083 40.7145 59.1476 41.5686ZM49.6382 33.4733C49.4769 33.796 49.382 34.261 48.5658 34.3844C48.5658 34.3844 40.7552 34.9158 40.3851 35.4663C40.3851 35.4663 40.1098 35.7889 40.5369 35.8838C40.964 35.9693 42.7292 36.2065 43.5833 36.254C44.4944 36.2635 47.5693 36.2919 48.6702 37.668C48.6702 37.668 49.3251 38.3229 49.2966 39.8034C49.2681 41.3219 49.0024 41.8533 48.414 42.4038C47.7971 42.9162 42.5014 45.2889 39.0849 41.6445C39.0849 41.6445 37.5095 39.8888 39.6258 38.5601C39.6258 38.5601 41.1538 37.6396 45.0354 38.7215C45.0354 38.7215 46.2122 39.1485 46.1552 39.5756C46.0888 40.0312 45.1872 40.5152 43.8775 40.4867C42.6058 40.4487 41.6758 39.8414 41.8561 39.9363C42.0269 40.0027 40.4895 39.196 40.0149 39.7464C39.5404 40.2494 39.6543 40.5626 40.1193 40.8758C41.3056 41.5496 45.8895 41.3124 47.2561 39.7939C47.2561 39.7939 47.7971 39.177 46.9714 38.674C46.1458 38.1995 43.7826 37.9148 42.8621 37.8673C41.9795 37.8199 38.6958 37.8768 38.2213 37.0037C38.2213 37.0037 37.7467 36.4153 38.2687 34.745C38.8192 32.9988 42.6438 32.3249 44.2951 32.1731C44.2951 32.1731 48.841 32.0118 49.6762 32.9418C49.6667 32.9418 49.7806 33.1601 49.6382 33.4733ZM36.7313 43.7134C36.1808 44.1215 35.0135 43.9412 34.6813 43.4857C34.3492 43.0776 34.2353 41.4547 34.3017 38.9113C34.3681 36.3394 34.4251 33.1506 34.9755 32.6476C35.5639 32.1351 35.9246 32.5812 36.1523 32.9323C36.3991 33.274 36.6933 33.6536 36.7597 34.4603C36.8167 35.267 37.0065 39.4997 37.0065 39.4997C37.0065 39.4997 37.2532 43.3148 36.7313 43.7134ZM37.9176 30.0662C36.3137 30.5977 35.2128 30.4174 34.2827 30.0188C33.8746 30.7305 33.6374 30.9488 33.3242 30.9963C32.8687 31.0437 32.4606 30.313 32.3846 30.0757C32.3087 29.8954 32.0904 29.5917 32.3562 28.8704C31.4451 28.0542 31.3787 26.9534 31.5305 26.2131C31.7583 25.359 33.2957 22.1132 37.9745 21.7336C37.9745 21.7336 40.2617 21.5628 40.6508 22.7871H40.7172C40.7172 22.7871 42.938 22.7966 42.8905 24.7706C42.8621 26.7541 40.423 29.2216 37.9176 30.0662ZM33.552 25.6721C33.0774 26.4314 33.0585 26.8869 33.2767 27.2001C33.8177 26.3744 34.8047 25.0743 36.2567 24.0873C35.1369 24.1822 34.1973 24.6662 33.552 25.6721ZM40.0149 24.4004C38.5439 24.6187 36.2662 26.5927 35.1843 28.2061C36.8451 28.5098 39.7777 28.3959 41.0779 25.7481C41.0684 25.7481 41.6948 24.1062 40.0149 24.4004ZM79.9506 39.6895C79.068 41.227 76.591 44.4347 73.2884 43.685C72.197 46.3328 71.2859 48.9996 70.7639 53.0046C70.7639 53.0046 70.65 53.7828 70.0047 53.5076C69.3688 53.2798 68.3059 52.2169 68.0971 50.7458C67.8693 48.8098 68.733 45.5356 70.4887 41.7869C69.9762 40.9517 69.6251 39.7559 69.9288 38.0571C69.9288 38.0571 70.3748 34.9063 73.5351 32.0592C73.5351 32.0592 73.9147 31.727 74.133 31.8314C74.3798 31.9358 74.2659 32.9608 74.0666 33.4543C73.8673 33.9478 72.4532 36.3963 72.4532 36.3963C72.4532 36.3963 71.5706 38.0477 71.8174 39.3478C73.4782 36.7949 77.2554 31.6416 79.5995 33.2645C80.3872 33.8244 80.7478 35.0487 80.7478 36.3679C80.7383 37.5352 80.4631 38.7689 79.9506 39.6895ZM79.2673 35.6466C79.2673 35.6466 79.1345 34.6311 78.1475 35.751C77.2933 36.6905 75.7559 38.4652 74.5126 40.8663C75.8128 40.724 77.0656 40.0122 77.4452 39.6515C78.062 39.1011 79.4951 37.6206 79.2673 35.6466ZM33.1913 36.9373C33.011 39.234 32.1284 43.0966 25.8742 45.0041C21.7459 46.2474 17.8453 45.6495 15.7195 45.1085C15.672 45.9532 15.5771 46.3138 15.4442 46.4562C15.2639 46.6365 13.9163 47.4147 13.176 46.3138C12.8439 45.7918 12.673 44.8428 12.5781 43.9982C7.79496 41.7964 5.59318 38.6266 5.50777 38.4842C5.40338 38.3798 4.31198 37.241 5.40338 35.8459C6.42834 34.5837 9.77846 33.3214 12.7964 32.8089C12.9008 30.2276 13.2045 28.282 13.5651 27.3899C14.0017 26.3555 14.5521 27.2855 15.0267 27.9878C15.4253 28.5098 15.6625 30.759 15.6815 32.5527C17.6555 32.4578 18.8228 32.6002 21.0246 32.9988C23.8907 33.5207 25.8078 34.9823 25.637 36.6431C25.5136 38.2754 24.0141 38.9493 23.4447 38.9967C22.8468 39.0442 21.9167 38.6171 21.9167 38.6171C21.2809 38.3134 21.8693 38.0477 22.638 37.7155C23.4731 37.3074 23.2833 36.8898 23.2833 36.8898C22.9701 35.9787 19.2499 35.3429 15.5486 35.3429C15.5297 37.3833 15.6341 40.7714 15.6815 42.7454C18.2724 43.2389 20.2084 43.144 20.2084 43.144C20.2084 43.144 29.6609 42.8783 29.9456 36.8424C30.2398 30.797 20.5216 24.9983 13.3374 23.1572C6.16261 21.2781 2.10071 22.5878 1.74956 22.7681C1.36995 22.9579 1.72109 23.0148 1.72109 23.0148C1.72109 23.0148 2.1102 23.0718 2.78402 23.2995C3.4958 23.5273 2.94536 23.8974 2.94536 23.8974C1.72109 24.2865 0.34498 24.0398 0.0792483 23.4799C-0.186484 22.9199 0.259566 22.4169 0.772049 21.6957C1.28453 20.9364 1.84447 20.9649 1.84447 20.9649C10.718 17.89 21.5276 23.4514 21.5276 23.4514C31.6539 28.5857 33.3811 34.6026 33.1913 36.9373ZM6.40936 36.6241C5.40338 37.1176 6.09618 37.8294 6.09618 37.8294C7.98477 39.8603 10.3099 41.132 12.5212 41.9198C12.7774 38.4178 12.7395 37.184 12.7679 35.4188C9.31343 35.6561 7.32044 36.2065 6.40936 36.6241Z" fill="black"/>
<path d="M69.7864 34.6786C68.4198 34.9917 64.8229 35.1721 64.8229 35.1721L64.3674 36.5956C64.3674 36.5956 66.1611 36.4438 67.4707 36.5766C67.4707 36.5766 67.8978 36.5292 67.9453 37.0607C67.9642 37.5542 67.9073 38.0856 67.9073 38.0856C67.9073 38.0856 67.8788 38.4083 67.4233 38.4842C66.9298 38.5696 63.5512 38.693 63.5512 38.693L63.0007 40.5436C63.0007 40.5436 62.8014 40.9707 63.257 40.8473C63.6841 40.7334 67.224 40.0691 67.689 40.164C68.1825 40.2874 68.733 40.9422 68.5716 41.5496C68.3818 42.2899 64.8514 44.5486 62.6971 44.3873C62.6971 44.3873 61.5677 44.4632 60.6092 42.9352C59.7171 41.4832 60.9508 38.7215 60.9508 38.7215C60.9508 38.7215 60.3909 37.4308 60.799 37.0037C60.799 37.0037 61.0457 36.7854 61.748 36.7285L62.6116 34.9348C62.6116 34.9348 61.6246 35.0012 61.0362 34.28C60.4858 33.5872 60.4478 33.274 60.8654 33.0842C61.3115 32.8659 65.4208 32.1161 68.2489 32.2111C68.2489 32.2111 69.236 32.1161 70.0806 33.8244C70.0711 33.8244 70.4887 34.5172 69.7864 34.6786ZM59.1476 41.5686C58.787 42.4227 57.8285 43.3338 56.6422 42.7644C55.4654 42.195 53.5957 38.3703 53.5957 38.3703C53.5957 38.3703 52.884 36.9468 52.7511 36.9752C52.7511 36.9752 52.5992 36.7 52.5043 38.2564C52.4094 39.8129 52.5233 42.8403 51.9064 43.3148C51.318 43.7894 50.6063 43.5996 50.2361 43.0396C49.904 42.4892 49.7616 41.1795 49.9419 38.8828C50.1602 36.5861 50.6917 34.1376 51.375 33.3689C52.0583 32.6096 52.6087 33.1601 52.8175 33.3594C52.8175 33.3594 53.7286 34.1851 55.2376 36.6146L55.5033 37.0607C55.5033 37.0607 56.8699 39.3573 57.0123 39.3478C57.0123 39.3478 57.1262 39.4522 57.2211 39.3763C57.3634 39.3384 57.3065 38.5981 57.3065 38.5981C57.3065 38.5981 57.0218 36.1021 55.7785 31.8694C55.7785 31.8694 55.5887 31.3379 55.7216 30.8444C55.845 30.3414 56.348 30.5787 56.348 30.5787C56.348 30.5787 58.284 31.5467 59.2141 34.6975C60.1346 37.8768 59.5083 40.7145 59.1476 41.5686ZM49.6382 33.4733C49.4769 33.796 49.382 34.261 48.5658 34.3844C48.5658 34.3844 40.7552 34.9158 40.3851 35.4663C40.3851 35.4663 40.1098 35.7889 40.5369 35.8838C40.964 35.9693 42.7292 36.2065 43.5833 36.254C44.4944 36.2635 47.5693 36.2919 48.6702 37.668C48.6702 37.668 49.3251 38.3229 49.2966 39.8034C49.2681 41.3219 49.0024 41.8533 48.414 42.4038C47.7971 42.9162 42.5014 45.2889 39.0849 41.6445C39.0849 41.6445 37.5095 39.8888 39.6258 38.5601C39.6258 38.5601 41.1538 37.6396 45.0354 38.7215C45.0354 38.7215 46.2122 39.1485 46.1552 39.5756C46.0888 40.0312 45.1872 40.5152 43.8775 40.4867C42.6058 40.4487 41.6758 39.8414 41.8561 39.9363C42.0269 40.0027 40.4895 39.196 40.0149 39.7464C39.5404 40.2494 39.6543 40.5626 40.1193 40.8758C41.3056 41.5496 45.8895 41.3124 47.2561 39.7939C47.2561 39.7939 47.7971 39.177 46.9714 38.674C46.1458 38.1995 43.7826 37.9148 42.8621 37.8673C41.9795 37.8199 38.6958 37.8768 38.2213 37.0037C38.2213 37.0037 37.7467 36.4153 38.2687 34.745C38.8192 32.9988 42.6438 32.3249 44.2951 32.1731C44.2951 32.1731 48.841 32.0118 49.6762 32.9418C49.6667 32.9418 49.7806 33.1601 49.6382 33.4733ZM36.7313 43.7134C36.1808 44.1215 35.0135 43.9412 34.6813 43.4857C34.3492 43.0776 34.2353 41.4547 34.3017 38.9113C34.3681 36.3394 34.4251 33.1506 34.9755 32.6476C35.5639 32.1351 35.9246 32.5812 36.1523 32.9323C36.3991 33.274 36.6933 33.6536 36.7597 34.4603C36.8167 35.267 37.0065 39.4997 37.0065 39.4997C37.0065 39.4997 37.2532 43.3148 36.7313 43.7134ZM37.9176 30.0662C36.3137 30.5977 35.2128 30.4174 34.2827 30.0188C33.8746 30.7305 33.6374 30.9488 33.3242 30.9963C32.8687 31.0437 32.4606 30.313 32.3846 30.0757C32.3087 29.8954 32.0904 29.5917 32.3562 28.8704C31.4451 28.0542 31.3787 26.9534 31.5305 26.2131C31.7583 25.359 33.2957 22.1132 37.9745 21.7336C37.9745 21.7336 40.2617 21.5628 40.6508 22.7871H40.7172C40.7172 22.7871 42.938 22.7966 42.8905 24.7706C42.8621 26.7541 40.423 29.2216 37.9176 30.0662ZM33.552 25.6721C33.0774 26.4314 33.0585 26.8869 33.2767 27.2001C33.8177 26.3744 34.8047 25.0743 36.2567 24.0873C35.1369 24.1822 34.1973 24.6662 33.552 25.6721ZM40.0149 24.4004C38.5439 24.6187 36.2662 26.5927 35.1843 28.2061C36.8451 28.5098 39.7777 28.3959 41.0779 25.7481C41.0684 25.7481 41.6948 24.1062 40.0149 24.4004ZM79.9506 39.6895C79.068 41.227 76.591 44.4347 73.2884 43.685C72.197 46.3328 71.2859 48.9996 70.7639 53.0046C70.7639 53.0046 70.65 53.7828 70.0047 53.5076C69.3688 53.2798 68.3059 52.2169 68.0971 50.7458C67.8693 48.8098 68.733 45.5356 70.4887 41.7869C69.9762 40.9517 69.6251 39.7559 69.9288 38.0571C69.9288 38.0571 70.3748 34.9063 73.5351 32.0592C73.5351 32.0592 73.9147 31.727 74.133 31.8314C74.3798 31.9358 74.2659 32.9608 74.0666 33.4543C73.8673 33.9478 72.4532 36.3963 72.4532 36.3963C72.4532 36.3963 71.5706 38.0477 71.8174 39.3478C73.4782 36.7949 77.2554 31.6416 79.5995 33.2645C80.3872 33.8244 80.7478 35.0487 80.7478 36.3679C80.7383 37.5352 80.4631 38.7689 79.9506 39.6895ZM79.2673 35.6466C79.2673 35.6466 79.1345 34.6311 78.1475 35.751C77.2933 36.6905 75.7559 38.4652 74.5126 40.8663C75.8128 40.724 77.0656 40.0122 77.4452 39.6515C78.062 39.1011 79.4951 37.6206 79.2673 35.6466ZM33.1913 36.9373C33.011 39.234 32.1284 43.0966 25.8742 45.0041C21.7459 46.2474 17.8453 45.6495 15.7195 45.1085C15.672 45.9532 15.5771 46.3138 15.4442 46.4562C15.2639 46.6365 13.9163 47.4147 13.176 46.3138C12.8439 45.7918 12.673 44.8428 12.5781 43.9982C7.79496 41.7964 5.59318 38.6266 5.50777 38.4842C5.40338 38.3798 4.31198 37.241 5.40338 35.8459C6.42834 34.5837 9.77846 33.3214 12.7964 32.8089C12.9008 30.2276 13.2045 28.282 13.5651 27.3899C14.0017 26.3555 14.5521 27.2855 15.0267 27.9878C15.4253 28.5098 15.6625 30.759 15.6815 32.5527C17.6555 32.4578 18.8228 32.6002 21.0246 32.9988C23.8907 33.5207 25.8078 34.9823 25.637 36.6431C25.5136 38.2754 24.0141 38.9493 23.4447 38.9967C22.8468 39.0442 21.9167 38.6171 21.9167 38.6171C21.2809 38.3134 21.8693 38.0477 22.638 37.7155C23.4731 37.3074 23.2833 36.8898 23.2833 36.8898C22.9701 35.9787 19.2499 35.3429 15.5486 35.3429C15.5297 37.3833 15.6341 40.7714 15.6815 42.7454C18.2724 43.2389 20.2084 43.144 20.2084 43.144C20.2084 43.144 29.6609 42.8783 29.9456 36.8424C30.2398 30.797 20.5216 24.9983 13.3374 23.1572C6.16261 21.2781 2.10071 22.5878 1.74956 22.7681C1.36995 22.9579 1.72109 23.0148 1.72109 23.0148C1.72109 23.0148 2.1102 23.0718 2.78402 23.2995C3.4958 23.5273 2.94536 23.8974 2.94536 23.8974C1.72109 24.2865 0.34498 24.0398 0.0792483 23.4799C-0.186484 22.9199 0.259566 22.4169 0.772049 21.6957C1.28453 20.9364 1.84447 20.9649 1.84447 20.9649C10.718 17.89 21.5276 23.4514 21.5276 23.4514C31.6539 28.5857 33.3811 34.6026 33.1913 36.9373ZM6.40936 36.6241C5.40338 37.1176 6.09618 37.8294 6.09618 37.8294C7.98477 39.8603 10.3099 41.132 12.5212 41.9198C12.7774 38.4178 12.7395 37.184 12.7679 35.4188C9.31343 35.6561 7.32044 36.2065 6.40936 36.6241Z" fill="black"/>
<path d="M69.7864 34.6786C68.4198 34.9917 64.8229 35.1721 64.8229 35.1721L64.3674 36.5956C64.3674 36.5956 66.1611 36.4438 67.4707 36.5766C67.4707 36.5766 67.8978 36.5292 67.9453 37.0607C67.9642 37.5542 67.9073 38.0856 67.9073 38.0856C67.9073 38.0856 67.8788 38.4083 67.4233 38.4842C66.9298 38.5696 63.5512 38.693 63.5512 38.693L63.0007 40.5436C63.0007 40.5436 62.8014 40.9707 63.257 40.8473C63.6841 40.7334 67.224 40.0691 67.689 40.164C68.1825 40.2874 68.733 40.9422 68.5716 41.5496C68.3818 42.2899 64.8514 44.5486 62.6971 44.3873C62.6971 44.3873 61.5677 44.4632 60.6092 42.9352C59.7171 41.4832 60.9508 38.7215 60.9508 38.7215C60.9508 38.7215 60.3909 37.4308 60.799 37.0037C60.799 37.0037 61.0457 36.7854 61.748 36.7285L62.6116 34.9348C62.6116 34.9348 61.6246 35.0012 61.0362 34.28C60.4858 33.5872 60.4478 33.274 60.8654 33.0842C61.3115 32.8659 65.4208 32.1161 68.2489 32.2111C68.2489 32.2111 69.236 32.1161 70.0806 33.8244C70.0711 33.8244 70.4887 34.5172 69.7864 34.6786ZM59.1476 41.5686C58.787 42.4227 57.8285 43.3338 56.6422 42.7644C55.4654 42.195 53.5957 38.3703 53.5957 38.3703C53.5957 38.3703 52.884 36.9468 52.7511 36.9752C52.7511 36.9752 52.5992 36.7 52.5043 38.2564C52.4094 39.8129 52.5233 42.8403 51.9064 43.3148C51.318 43.7894 50.6063 43.5996 50.2361 43.0396C49.904 42.4892 49.7616 41.1795 49.9419 38.8828C50.1602 36.5861 50.6917 34.1376 51.375 33.3689C52.0583 32.6096 52.6087 33.1601 52.8175 33.3594C52.8175 33.3594 53.7286 34.1851 55.2376 36.6146L55.5033 37.0607C55.5033 37.0607 56.8699 39.3573 57.0123 39.3478C57.0123 39.3478 57.1262 39.4522 57.2211 39.3763C57.3634 39.3384 57.3065 38.5981 57.3065 38.5981C57.3065 38.5981 57.0218 36.1021 55.7785 31.8694C55.7785 31.8694 55.5887 31.3379 55.7216 30.8444C55.845 30.3414 56.348 30.5787 56.348 30.5787C56.348 30.5787 58.284 31.5467 59.2141 34.6975C60.1346 37.8768 59.5083 40.7145 59.1476 41.5686ZM49.6382 33.4733C49.4769 33.796 49.382 34.261 48.5658 34.3844C48.5658 34.3844 40.7552 34.9158 40.3851 35.4663C40.3851 35.4663 40.1098 35.7889 40.5369 35.8838C40.964 35.9693 42.7292 36.2065 43.5833 36.254C44.4944 36.2635 47.5693 36.2919 48.6702 37.668C48.6702 37.668 49.3251 38.3229 49.2966 39.8034C49.2681 41.3219 49.0024 41.8533 48.414 42.4038C47.7971 42.9162 42.5014 45.2889 39.0849 41.6445C39.0849 41.6445 37.5095 39.8888 39.6258 38.5601C39.6258 38.5601 41.1538 37.6396 45.0354 38.7215C45.0354 38.7215 46.2122 39.1485 46.1552 39.5756C46.0888 40.0312 45.1872 40.5152 43.8775 40.4867C42.6058 40.4487 41.6758 39.8414 41.8561 39.9363C42.0269 40.0027 40.4895 39.196 40.0149 39.7464C39.5404 40.2494 39.6543 40.5626 40.1193 40.8758C41.3056 41.5496 45.8895 41.3124 47.2561 39.7939C47.2561 39.7939 47.7971 39.177 46.9714 38.674C46.1458 38.1995 43.7826 37.9148 42.8621 37.8673C41.9795 37.8199 38.6958 37.8768 38.2213 37.0037C38.2213 37.0037 37.7467 36.4153 38.2687 34.745C38.8192 32.9988 42.6438 32.3249 44.2951 32.1731C44.2951 32.1731 48.841 32.0118 49.6762 32.9418C49.6667 32.9418 49.7806 33.1601 49.6382 33.4733ZM36.7313 43.7134C36.1808 44.1215 35.0135 43.9412 34.6813 43.4857C34.3492 43.0776 34.2353 41.4547 34.3017 38.9113C34.3681 36.3394 34.4251 33.1506 34.9755 32.6476C35.5639 32.1351 35.9246 32.5812 36.1523 32.9323C36.3991 33.274 36.6933 33.6536 36.7597 34.4603C36.8167 35.267 37.0065 39.4997 37.0065 39.4997C37.0065 39.4997 37.2532 43.3148 36.7313 43.7134ZM37.9176 30.0662C36.3137 30.5977 35.2128 30.4174 34.2827 30.0188C33.8746 30.7305 33.6374 30.9488 33.3242 30.9963C32.8687 31.0437 32.4606 30.313 32.3846 30.0757C32.3087 29.8954 32.0904 29.5917 32.3562 28.8704C31.4451 28.0542 31.3787 26.9534 31.5305 26.2131C31.7583 25.359 33.2957 22.1132 37.9745 21.7336C37.9745 21.7336 40.2617 21.5628 40.6508 22.7871H40.7172C40.7172 22.7871 42.938 22.7966 42.8905 24.7706C42.8621 26.7541 40.423 29.2216 37.9176 30.0662ZM33.552 25.6721C33.0774 26.4314 33.0585 26.8869 33.2767 27.2001C33.8177 26.3744 34.8047 25.0743 36.2567 24.0873C35.1369 24.1822 34.1973 24.6662 33.552 25.6721ZM40.0149 24.4004C38.5439 24.6187 36.2662 26.5927 35.1843 28.2061C36.8451 28.5098 39.7777 28.3959 41.0779 25.7481C41.0684 25.7481 41.6948 24.1062 40.0149 24.4004ZM79.9506 39.6895C79.068 41.227 76.591 44.4347 73.2884 43.685C72.197 46.3328 71.2859 48.9996 70.7639 53.0046C70.7639 53.0046 70.65 53.7828 70.0047 53.5076C69.3688 53.2798 68.3059 52.2169 68.0971 50.7458C67.8693 48.8098 68.733 45.5356 70.4887 41.7869C69.9762 40.9517 69.6251 39.7559 69.9288 38.0571C69.9288 38.0571 70.3748 34.9063 73.5351 32.0592C73.5351 32.0592 73.9147 31.727 74.133 31.8314C74.3798 31.9358 74.2659 32.9608 74.0666 33.4543C73.8673 33.9478 72.4532 36.3963 72.4532 36.3963C72.4532 36.3963 71.5706 38.0477 71.8174 39.3478C73.4782 36.7949 77.2554 31.6416 79.5995 33.2645C80.3872 33.8244 80.7478 35.0487 80.7478 36.3679C80.7383 37.5352 80.4631 38.7689 79.9506 39.6895ZM79.2673 35.6466C79.2673 35.6466 79.1345 34.6311 78.1475 35.751C77.2933 36.6905 75.7559 38.4652 74.5126 40.8663C75.8128 40.724 77.0656 40.0122 77.4452 39.6515C78.062 39.1011 79.4951 37.6206 79.2673 35.6466ZM33.1913 36.9373C33.011 39.234 32.1284 43.0966 25.8742 45.0041C21.7459 46.2474 17.8453 45.6495 15.7195 45.1085C15.672 45.9532 15.5771 46.3138 15.4442 46.4562C15.2639 46.6365 13.9163 47.4147 13.176 46.3138C12.8439 45.7918 12.673 44.8428 12.5781 43.9982C7.79496 41.7964 5.59318 38.6266 5.50777 38.4842C5.40338 38.3798 4.31198 37.241 5.40338 35.8459C6.42834 34.5837 9.77846 33.3214 12.7964 32.8089C12.9008 30.2276 13.2045 28.282 13.5651 27.3899C14.0017 26.3555 14.5521 27.2855 15.0267 27.9878C15.4253 28.5098 15.6625 30.759 15.6815 32.5527C17.6555 32.4578 18.8228 32.6002 21.0246 32.9988C23.8907 33.5207 25.8078 34.9823 25.637 36.6431C25.5136 38.2754 24.0141 38.9493 23.4447 38.9967C22.8468 39.0442 21.9167 38.6171 21.9167 38.6171C21.2809 38.3134 21.8693 38.0477 22.638 37.7155C23.4731 37.3074 23.2833 36.8898 23.2833 36.8898C22.9701 35.9787 19.2499 35.3429 15.5486 35.3429C15.5297 37.3833 15.6341 40.7714 15.6815 42.7454C18.2724 43.2389 20.2084 43.144 20.2084 43.144C20.2084 43.144 29.6609 42.8783 29.9456 36.8424C30.2398 30.797 20.5216 24.9983 13.3374 23.1572C6.16261 21.2781 2.10071 22.5878 1.74956 22.7681C1.36995 22.9579 1.72109 23.0148 1.72109 23.0148C1.72109 23.0148 2.1102 23.0718 2.78402 23.2995C3.4958 23.5273 2.94536 23.8974 2.94536 23.8974C1.72109 24.2865 0.34498 24.0398 0.0792483 23.4799C-0.186484 22.9199 0.259566 22.4169 0.772049 21.6957C1.28453 20.9364 1.84447 20.9649 1.84447 20.9649C10.718 17.89 21.5276 23.4514 21.5276 23.4514C31.6539 28.5857 33.3811 34.6026 33.1913 36.9373ZM6.40936 36.6241C5.40338 37.1176 6.09618 37.8294 6.09618 37.8294C7.98477 39.8603 10.3099 41.132 12.5212 41.9198C12.7774 38.4178 12.7395 37.184 12.7679 35.4188C9.31343 35.6561 7.32044 36.2065 6.40936 36.6241Z" fill="black"/>
<path d="M98.7404 35.9019V37.1547C98.7404 37.4299 98.5221 37.6482 98.2469 37.6482H92.2775C92.2775 37.9614 92.287 38.2366 92.287 38.4928C92.287 40.3435 92.211 41.8524 92.0307 43.5512C92.0022 43.8075 91.7934 43.9973 91.5467 43.9973H90.256C90.1231 43.9973 89.9998 43.9403 89.9143 43.8454C89.8289 43.7505 89.7815 43.6177 89.8005 43.4848C89.9808 41.7955 90.0662 40.3055 90.0662 38.4928C90.0662 38.2271 90.0662 37.9519 90.0567 37.6482H84.1537C83.8784 37.6482 83.6602 37.4299 83.6602 37.1547V35.9019C83.6602 35.6267 83.8784 35.4084 84.1537 35.4084H89.9713C89.8479 33.368 89.6012 31.4035 89.2026 29.4105C89.1836 29.2871 89.2121 29.1637 89.288 29.0688C89.3639 28.9739 89.4778 28.917 89.6012 28.917H90.9962C91.2145 28.917 91.3948 29.0688 91.4423 29.2871C91.8314 31.3465 92.0782 33.349 92.2015 35.4084H98.2469C98.5127 35.4084 98.7404 35.6362 98.7404 35.9019Z" fill="black"/>
<path d="M90.6163 25.9658C87.5319 18.3829 82.3216 11.92 75.5455 7.26966C68.608 2.51496 60.4747 0 52.0282 0C38.0583 0 25.0944 6.9375 17.3597 18.5633C17.2743 18.6866 17.2553 18.848 17.3028 18.9903C17.3502 19.1422 17.4641 19.2466 17.6065 19.294L18.6884 19.6642C18.7548 19.6831 18.8212 19.6926 18.8782 19.6926C19.0775 19.6926 19.2673 19.5882 19.3812 19.4269C22.9306 14.2072 27.7327 9.87004 33.2751 6.87106C38.9979 3.77719 45.4798 2.13534 52.0187 2.13534C59.9242 2.13534 67.545 4.46999 74.0745 8.87354C80.4425 13.1727 85.387 19.1801 88.3765 26.2315C88.4619 26.4403 88.6707 26.5827 88.8985 26.5827H90.1892C90.341 26.5827 90.4834 26.5067 90.5593 26.3834C90.6542 26.26 90.6732 26.1082 90.6163 25.9658ZM18.8782 19.3699C18.8497 19.3699 18.8212 19.3605 18.7928 19.351C18.8212 19.3605 18.8497 19.3699 18.8782 19.3699H18.8972C18.8972 19.3699 18.8877 19.3699 18.8782 19.3699ZM88.6328 26.4118C88.6612 26.4308 88.6897 26.4498 88.7182 26.4593C88.6897 26.4403 88.6612 26.4308 88.6328 26.4118Z" fill="black"/>
</svg>
