<svg width="46" height="55" viewBox="0 0 46 55" fill="none" xmlns="http://www.w3.org/2000/svg">
<path fill-rule="evenodd" clip-rule="evenodd" d="M19.0205 53.4602C18.3076 53.5228 17.5953 53.5908 16.8829 53.6588C15.102 53.8288 13.321 53.9987 11.5327 54.0844C10.2952 54.1432 9.0145 54.0393 7.81246 53.6789C7.2932 53.5249 6.69436 52.629 6.58046 51.9901C6.49685 51.5315 7.09264 50.7471 7.55552 50.4236C8.04417 50.0645 8.72664 49.938 9.33178 49.9182C14.5656 49.625 19.7852 49.3331 25.0277 49.139C26.0215 49.1017 27.0958 49.3235 28.0154 49.7586C28.5275 49.9965 29.0518 50.8656 29.1241 51.5248C29.156 51.8881 28.3996 52.6534 27.8892 52.7647C26.962 52.9856 26.013 53.0538 25.0621 53.1223C24.7646 53.1436 24.467 53.1651 24.1698 53.1912L19.0221 53.6431L19.009 53.4945L19.0205 53.4602ZM2.23068 19.5556C2.47693 19.6113 2.68405 19.6522 2.86584 19.688C3.16868 19.7478 3.40126 19.7937 3.62743 19.8711C12.6674 22.7867 21.5533 26.1674 29.9604 31.0398C30.6933 31.4657 31.4088 32.0044 32.0232 32.6373C32.2962 32.9203 32.5112 33.7522 32.3492 34.0065C32.0842 34.4198 31.4831 34.791 31.0486 34.7461C30.2217 34.6575 29.4153 34.3429 28.6235 34.0125C27.3542 33.4886 26.0886 32.9546 24.8228 32.4206L24.8228 32.4206C22.5143 31.4466 20.2051 30.4723 17.8706 29.5581C15.9466 28.8057 14.0044 28.1057 12.0637 27.4063L12.0636 27.4063L12.0636 27.4063C10.4426 26.822 8.82266 26.2382 7.2152 25.6245C5.88744 25.1255 4.59911 24.4913 3.31366 23.8584L2.96909 23.6889C2.41468 23.4139 1.80641 23.0564 1.48421 22.5291C1.13484 21.9686 0.836946 21.0858 0.952994 20.4739C1.01357 20.156 1.48464 19.9451 1.86213 19.7762L1.86224 19.7761C2.00085 19.7141 2.12683 19.6577 2.21523 19.6037L2.23068 19.5556ZM44.5227 23.2597C44.7525 23.3729 44.9828 23.4864 45.1994 23.6172C45.3116 23.4875 45.4277 23.3596 45.5437 23.2316C45.6598 23.1036 45.7759 22.9756 45.8881 22.8459C45.7079 22.4684 45.5396 22.0837 45.3715 21.6994C45.0517 20.9683 44.7327 20.2391 44.3341 19.5653C42.2058 15.9677 40.0392 12.3743 37.8569 8.81607C36.6631 6.87561 35.4152 4.97455 34.1286 3.11966C33.5501 2.27355 32.895 1.3936 32.0918 0.848911C31.6938 0.586474 31.1539 0.567584 30.6092 0.548526C30.358 0.539739 30.1058 0.530914 29.8659 0.498163C29.8355 0.736382 29.7829 0.983589 29.7303 1.23119C29.6155 1.77197 29.5002 2.31463 29.6132 2.76963C29.8377 3.71238 30.3084 4.59521 30.8259 5.37217C33.71 9.70444 36.602 14.0191 39.5867 18.2481C40.6244 19.7186 41.8755 21.0115 43.1081 22.2853C43.1598 22.3386 43.2115 22.392 43.2631 22.4454C43.6041 22.8071 44.0623 23.0328 44.5227 23.2597Z" fill="black"/>
</svg>
