<svg width="45" height="45" viewBox="0 0 45 45" fill="none" xmlns="http://www.w3.org/2000/svg">
<g clip-path="url(#clip0_473_9905)">
<path d="M22.5 45.0017C10.0755 45.0017 0 34.9262 0 22.5017C0 10.0772 10.0755 0.00170898 22.5 0.00170898C34.9245 0.00170898 45 10.0772 45 22.5017C45 34.9262 34.9245 45.0017 22.5 45.0017Z" fill="#25D366"/>
<path fill-rule="evenodd" clip-rule="evenodd" d="M33.0273 12.034C30.2373 9.23955 26.5202 7.70054 22.5647 7.69604C14.4152 7.69604 7.77775 14.329 7.77775 22.483C7.77775 25.0885 8.45725 27.6355 9.75325 29.8765L7.65625 37.54L15.4952 35.4835C17.6552 36.6625 20.0852 37.2835 22.5602 37.2835H22.5647C30.7142 37.2835 37.3472 30.6505 37.3517 22.4965C37.3563 18.5455 35.8218 14.8285 33.0273 12.034ZM22.5692 34.786H22.5647C20.3597 34.786 18.1952 34.192 16.3097 33.0715L15.8597 32.806L11.2067 34.0255L12.4488 29.4895L12.1562 29.026C10.9277 27.0685 10.2752 24.8095 10.2752 22.483C10.2797 15.706 15.7922 10.1935 22.5737 10.1935C25.8587 10.1935 28.9412 11.476 31.2632 13.798C33.5852 16.12 34.8632 19.2115 34.8587 22.492C34.8587 29.2735 29.3417 34.786 22.5692 34.786ZM29.3102 25.579C28.9412 25.3945 27.1232 24.499 26.7857 24.3775C26.4482 24.256 26.2008 24.193 25.9532 24.562C25.7057 24.931 24.9993 25.7635 24.7832 26.011C24.5672 26.2585 24.3512 26.29 23.9823 26.1055C23.6132 25.921 22.4207 25.5295 21.0122 24.2695C19.9142 23.2885 19.1718 22.078 18.9557 21.709C18.7397 21.34 18.9332 21.1375 19.1177 20.953C19.2842 20.7865 19.4867 20.521 19.6712 20.305C19.8557 20.089 19.9187 19.936 20.0402 19.6885C20.1617 19.441 20.1032 19.225 20.0087 19.0405C19.9142 18.856 19.1762 17.038 18.8702 16.2955C18.5687 15.5755 18.2672 15.6745 18.0377 15.661C17.8217 15.652 17.5742 15.6475 17.3312 15.6475C17.0837 15.6475 16.6832 15.742 16.3457 16.111C16.0083 16.48 15.0542 17.3755 15.0542 19.1935C15.0542 21.0115 16.3772 22.771 16.5617 23.014C16.7462 23.2615 19.1672 26.992 22.8752 28.594C23.7572 28.9765 24.4457 29.2015 24.9812 29.3725C25.8677 29.656 26.6732 29.6155 27.3077 29.521C28.0187 29.413 29.4947 28.6255 29.8007 27.766C30.1067 26.902 30.1067 26.164 30.0167 26.011C29.9267 25.858 29.6792 25.768 29.3102 25.579Z" fill="white"/>
</g>
<defs>
<clipPath id="clip0_473_9905">
<rect width="45" height="45" fill="white"/>
</clipPath>
</defs>
</svg>
