<?xml version="1.0" encoding="UTF-8"?>
<svg xmlns="http://www.w3.org/2000/svg" width="108" height="109" viewBox="0 0 108 109" fill="none">
  <g filter="url(#filter0_d_1444_17036)">
    <rect x="14.7441" y="0.878906" width="78.405" height="78.405" rx="12.4721" fill="url(#paint0_linear_1444_17036)"></rect>
    <path d="M33.3652 40.0814V61.6428H74.5279V18.52H33.3652V40.0814ZM66.5372 38.3637C67.5834 38.6368 68.3792 39.1237 69.1115 39.9179C69.4906 40.3419 70.0531 41.1145 70.0977 41.3014C70.1115 41.3553 68.3209 42.6131 67.2369 43.3192C67.1975 43.3461 67.0397 43.1683 66.8647 42.8952C66.3331 42.0866 65.7791 41.738 64.9301 41.6769C63.6815 41.5871 62.8788 42.2717 62.8857 43.4144C62.8743 43.6954 62.9347 43.9746 63.0606 44.223C63.3351 44.8177 63.8462 45.1753 65.4446 45.8994C68.3929 47.229 69.6535 48.104 70.4373 49.3492C71.312 50.7381 71.5093 52.9571 70.9141 54.6066C70.2624 56.3998 68.6416 57.618 66.3605 58.0205C65.6556 58.1516 63.9834 58.1319 63.2253 57.9881C61.5719 57.6791 60.0043 56.8238 59.037 55.7008C58.658 55.2642 57.9187 54.1196 57.965 54.0388C57.9839 54.01 58.1537 53.9004 58.3424 53.7854C58.5276 53.6758 59.2188 53.2572 59.8723 52.8601L61.0557 52.1414L61.3044 52.5259C61.6508 53.0793 62.4072 53.8393 62.8651 54.0927C64.1789 54.8186 65.9815 54.7162 66.8699 53.8807C67.0486 53.723 67.19 53.5242 67.2831 53.2998C67.3762 53.0753 67.4185 52.8314 67.4067 52.587C67.4067 52.0875 67.3467 51.8683 67.098 51.491C66.779 51.013 66.1255 50.6105 64.2698 49.766C62.1465 48.8084 61.2323 48.2136 60.3954 47.2685C59.873 46.6448 59.4872 45.9089 59.2651 45.1124C59.109 44.5033 59.0696 42.976 59.1931 42.3615C59.6304 40.2108 61.1792 38.714 63.414 38.2684C64.1394 38.1247 65.8254 38.1786 66.5372 38.3637ZM56.8742 40.164L56.888 41.9303H51.5282V57.8785H47.7379V41.9303H42.3833V40.1982C42.3833 39.2387 42.4021 38.4373 42.4279 38.4194C42.4485 38.3906 45.7089 38.3762 49.6605 38.3834L56.8554 38.405L56.8742 40.164Z" fill="white"></path>
  </g>
  <defs>
    <filter id="filter0_d_1444_17036" x="0.0710754" y="0.878906" width="107.751" height="107.751" filterUnits="userSpaceOnUse" color-interpolation-filters="sRGB">
      <feFlood flood-opacity="0" result="BackgroundImageFix"></feFlood>
      <feColorMatrix in="SourceAlpha" type="matrix" values="0 0 0 0 0 0 0 0 0 0 0 0 0 0 0 0 0 0 127 0" result="hardAlpha"></feColorMatrix>
      <feOffset dy="14.6731"></feOffset>
      <feGaussianBlur stdDeviation="7.33653"></feGaussianBlur>
      <feComposite in2="hardAlpha" operator="out"></feComposite>
      <feColorMatrix type="matrix" values="0 0 0 0 0.262902 0 0 0 0 1 0 0 0 0 0.00392157 0 0 0 0.2 0"></feColorMatrix>
      <feBlend mode="normal" in2="BackgroundImageFix" result="effect1_dropShadow_1444_17036"></feBlend>
      <feBlend mode="normal" in="SourceGraphic" in2="effect1_dropShadow_1444_17036" result="shape"></feBlend>
    </filter>
    <linearGradient id="paint0_linear_1444_17036" x1="25.4732" y1="8.30675" x2="82.42" y2="79.2839" gradientUnits="userSpaceOnUse">
      <stop stop-color="#14FF00"></stop>
      <stop offset="1" stop-color="#11D9E6"></stop>
    </linearGradient>
  </defs>
</svg>
