<svg width="20" height="20" viewBox="0 0 20 20" fill="none" xmlns="http://www.w3.org/2000/svg">
<path fill-rule="evenodd" clip-rule="evenodd" d="M10.5499 3.239V3.95763C10.537 4.59498 9.50716 4.95825 9.18161 4.26192C9.13777 4.16768 9.11621 4.06338 9.11405 3.95763V3.239H6.96096C6.40831 3.21238 6.0382 2.48943 6.41837 2.0499C6.54917 1.89884 6.65481 1.81683 6.96096 1.80173C7.67818 1.80173 8.39612 1.79957 9.11405 1.79525V1.08381C9.11621 0.966554 9.12771 0.928428 9.14999 0.858651C9.24485 0.57019 9.52872 0.365173 9.84637 0.365173C10.2294 0.38028 10.5413 0.667302 10.5499 1.08381V1.78662C11.9851 1.77799 13.421 1.77007 14.8568 1.77727V1.08381C14.864 0.699673 15.1443 0.381719 15.5604 0.365173C15.5698 0.365173 15.5791 0.365173 15.5884 0.365173C15.9722 0.38028 16.2841 0.667302 16.292 1.08381V1.79022C16.5493 1.79381 16.8066 1.79813 17.0631 1.80244C18.1634 1.83697 19.1422 2.78436 19.163 3.93102C19.1903 8.25937 19.1903 12.5885 19.163 16.9175C19.1429 18.0289 18.1821 19.0245 17.0365 19.0461C12.2337 19.0756 7.43024 19.0756 2.62746 19.0461C1.52144 19.0252 0.52251 18.0829 0.50095 16.9175C0.473642 12.5885 0.473642 8.25937 0.50095 3.93102C0.521073 2.8117 1.47904 1.80964 2.65189 1.80173H3.37199V1.08381C3.37414 0.966554 3.38492 0.928428 3.40792 0.858651C3.50278 0.57019 3.78665 0.365173 4.10358 0.365173C4.48734 0.38028 4.79924 0.667302 4.80714 1.08381V3.95763C4.79493 4.59426 3.79456 4.95106 3.45176 4.28782C3.39929 4.18639 3.37414 4.07345 3.37199 3.95763V3.23612C3.1262 3.23468 2.88114 3.23468 2.63608 3.239C2.27172 3.25051 1.94761 3.5699 1.93611 3.93965C1.85634 8.26153 1.85562 12.5863 1.93611 16.9082C1.94761 17.2736 2.26669 17.5973 2.63608 17.6088C7.4324 17.698 12.2316 17.698 17.0279 17.6088C17.3923 17.5973 17.7164 17.2779 17.7279 16.9082C17.8076 12.5863 17.8076 8.26153 17.7279 3.93965C17.7164 3.56774 17.3851 3.24115 17.0078 3.239H16.292V3.95763C16.2798 4.58851 15.2765 4.94459 14.9366 4.28782C14.8849 4.18639 14.859 4.07345 14.8568 3.95763V3.239H10.5499ZM4.0892 14.735C4.4859 14.735 4.80714 15.0573 4.80714 15.4536C4.80714 15.85 4.4859 16.1723 4.0892 16.1723C3.69322 16.1723 3.37199 15.85 3.37199 15.4536C3.37199 15.0573 3.69322 14.735 4.0892 14.735ZM6.96096 14.735C7.35694 14.735 7.67818 15.0573 7.67818 15.4536C7.67818 15.85 7.35694 16.1723 6.96096 16.1723C6.56426 16.1723 6.24302 15.85 6.24302 15.4536C6.24302 15.0573 6.56426 14.735 6.96096 14.735ZM9.83199 14.735C10.228 14.735 10.5499 15.0573 10.5499 15.4536C10.5499 15.85 10.228 16.1723 9.83199 16.1723C9.43601 16.1723 9.11405 15.85 9.11405 15.4536C9.11405 15.0573 9.43601 14.735 9.83199 14.735ZM4.0892 11.8612C4.4859 11.8612 4.80714 12.1827 4.80714 12.5798C4.80714 12.9762 4.4859 13.2977 4.0892 13.2977C3.69322 13.2977 3.37199 12.9762 3.37199 12.5798C3.37199 12.1827 3.69322 11.8612 4.0892 11.8612ZM6.96096 11.8612C7.35694 11.8612 7.67818 12.1827 7.67818 12.5798C7.67818 12.9762 7.35694 13.2977 6.96096 13.2977C6.56426 13.2977 6.24302 12.9762 6.24302 12.5798C6.24302 12.1827 6.56426 11.8612 6.96096 11.8612ZM9.83199 11.8612C10.228 11.8612 10.5499 12.1827 10.5499 12.5798C10.5499 12.9762 10.228 13.2977 9.83199 13.2977C9.43601 13.2977 9.11405 12.9762 9.11405 12.5798C9.11405 12.1827 9.43601 11.8612 9.83199 11.8612ZM12.703 11.8612C13.099 11.8612 13.421 12.1827 13.421 12.5798C13.421 12.9762 13.099 13.2977 12.703 13.2977C12.307 13.2977 11.9851 12.9762 11.9851 12.5798C11.9851 12.1827 12.307 11.8612 12.703 11.8612ZM15.5741 11.8612C15.9708 11.8612 16.292 12.1827 16.292 12.5798C16.292 12.9762 15.9708 13.2977 15.5741 13.2977C15.1781 13.2977 14.8568 12.9762 14.8568 12.5798C14.8568 12.1827 15.1781 11.8612 15.5741 11.8612ZM6.96096 8.98736C7.35694 8.98736 7.67818 9.30891 7.67818 9.70528C7.67818 10.1024 7.35694 10.4239 6.96096 10.4239C6.56426 10.4239 6.24302 10.1024 6.24302 9.70528C6.24302 9.30891 6.56426 8.98736 6.96096 8.98736ZM9.83199 8.98736C10.228 8.98736 10.5499 9.30891 10.5499 9.70528C10.5499 10.1024 10.228 10.4239 9.83199 10.4239C9.43601 10.4239 9.11405 10.1024 9.11405 9.70528C9.11405 9.30891 9.43601 8.98736 9.83199 8.98736ZM12.703 8.98736C13.099 8.98736 13.421 9.30891 13.421 9.70528C13.421 10.1024 13.099 10.4239 12.703 10.4239C12.307 10.4239 11.9851 10.1024 11.9851 9.70528C11.9851 9.30891 12.307 8.98736 12.703 8.98736ZM15.5741 8.98736C15.9708 8.98736 16.292 9.30891 16.292 9.70528C16.292 10.1024 15.9708 10.4239 15.5741 10.4239C15.1781 10.4239 14.8568 10.1024 14.8568 9.70528C14.8568 9.30891 15.1781 8.98736 15.5741 8.98736Z" fill="white"/>
</svg>
