<?xml version="1.0" encoding="UTF-8"?>
<svg xmlns="http://www.w3.org/2000/svg" width="114" height="131" viewBox="0 0 114 131" fill="none">
  <g filter="url(#filter0_d_1444_17025)">
    <rect x="17.3789" y="17.8545" width="79.1615" height="79.1615" rx="16.6656" fill="url(#paint0_linear_1444_17025)"></rect>
    <g clip-path="url(#clip0_1444_17025)">
      <path d="M56.9593 52.9792C56.3742 52.9792 55.7947 53.0945 55.2541 53.3184C54.7135 53.5423 54.2222 53.8705 53.8085 54.2843C53.3947 54.6981 53.0665 55.1893 52.8425 55.7299C52.6186 56.2706 52.5034 56.85 52.5034 57.4352C52.5034 58.0203 52.6186 58.5998 52.8425 59.1404C53.0665 59.681 53.3947 60.1722 53.8085 60.586C54.2222 60.9998 54.7135 61.328 55.2541 61.5519C55.7947 61.7759 56.3742 61.8911 56.9593 61.8911C57.5445 61.8911 58.1239 61.7759 58.6645 61.5519C59.2052 61.328 59.6964 60.9998 60.1102 60.586C60.5239 60.1722 60.8522 59.681 61.0761 59.1404C61.3 58.5998 61.4153 58.0203 61.4153 57.4352C61.4153 56.85 61.3 56.2706 61.0761 55.7299C60.8522 55.1893 60.5239 54.6981 60.1102 54.2843C59.6964 53.8705 59.2052 53.5423 58.6645 53.3184C58.1239 53.0945 57.5445 52.9792 56.9593 52.9792ZM44.4768 66.2992L43.4935 66.0492C36.1648 64.1972 31.9609 61.0537 31.9609 57.4268C31.9609 53.8 36.1648 50.6564 43.4935 48.8045L44.4768 48.5566L44.7539 49.5315C45.4963 52.0891 46.4459 54.5819 47.5933 56.9852L47.8037 57.4289L47.5933 57.8726C46.444 60.2751 45.4943 62.7681 44.7539 65.3263L44.4768 66.2992ZM43.0373 51.0814C37.4668 52.6459 34.0483 55.0395 34.0483 57.4268C34.0483 59.8121 37.4668 62.2057 43.0373 63.7722C43.7186 61.6056 44.5411 59.4859 45.4996 57.4268C44.54 55.3682 43.7174 53.2485 43.0373 51.0814ZM69.4418 66.2992L69.1648 65.3221C68.4231 62.7647 67.4728 60.2725 66.3233 57.8705L66.1129 57.4268L66.3233 56.9831C67.4723 54.5803 68.4227 52.0874 69.1648 49.5294L69.4418 48.5545L70.4272 48.8024C77.7538 50.6543 81.9577 53.7979 81.9577 57.4268C81.9577 61.0558 77.7538 64.1972 70.4272 66.0492L69.4418 66.2992ZM68.419 57.4268C69.4189 59.5913 70.246 61.7182 70.8813 63.7722C76.4539 62.2057 79.8703 59.8121 79.8703 57.4268C79.8703 55.0395 76.4518 52.648 70.8813 51.0814C70.201 53.2484 69.3784 55.3681 68.419 57.4268ZM43.0227 51.071L42.7457 50.0981C40.6854 42.8361 41.3103 37.6323 44.4601 35.8157C47.5495 34.0325 52.5096 36.1386 57.7072 41.4737L58.4155 42.2007L57.7072 42.9278C55.8603 44.8477 54.1729 46.9148 52.6617 49.1086L52.3804 49.5107L51.8909 49.5523C49.2325 49.7619 46.5956 50.1869 44.006 50.8231L43.0227 51.071ZM46.9725 37.2594C46.4142 37.2594 45.9204 37.3802 45.5038 37.6198C43.4331 38.8134 43.0665 42.9632 44.4935 48.5628C46.7134 48.069 48.9632 47.7203 51.2284 47.5191C52.5355 45.6607 53.9635 43.8903 55.5032 42.2195C52.2534 39.0551 49.1765 37.2594 46.9725 37.2594ZM66.9483 79.6775C66.9462 79.6775 66.9462 79.6775 66.9483 79.6775C63.9797 79.6775 60.1674 77.4422 56.2114 73.38L55.5032 72.6529L56.2114 71.9259C58.0578 70.0054 59.7445 67.9376 61.2549 65.743L61.5361 65.3409L62.0236 65.2992C64.6833 65.0908 67.3217 64.6665 69.9126 64.0306L70.8959 63.7827L71.1751 64.7576C73.2312 72.0155 72.6083 77.2214 69.4585 79.0358C68.6934 79.4684 67.8271 79.6899 66.9483 79.6775ZM58.4155 72.6342C61.6653 75.7985 64.7421 77.5943 66.9462 77.5943C67.5024 77.5943 68.0003 77.4734 68.4148 77.2339C70.4855 76.0402 70.8542 71.8884 69.4252 66.2888C67.2047 66.7833 64.9542 67.1319 62.6881 67.3324C61.3826 69.1922 59.9553 70.9633 58.4155 72.6342ZM70.8959 51.071L69.9126 50.8231C67.322 50.185 64.6835 49.76 62.0236 49.5523L61.5361 49.5107L61.2549 49.1086C59.7453 46.9141 58.0585 44.8469 56.2114 42.9278L55.5032 42.2007L56.2114 41.4737C61.4069 36.1407 66.365 34.0346 69.4585 35.8157C72.6083 37.6323 73.2333 42.8361 71.1751 50.0961L70.8959 51.071ZM62.6881 47.5191C65.0671 47.7358 67.3274 48.0878 69.4252 48.5628C70.8542 42.9632 70.4855 38.8134 68.4148 37.6198C66.3566 36.4303 62.4881 38.2531 58.4155 42.2195C59.9544 43.8904 61.3817 45.6607 62.6881 47.5191ZM46.9725 79.6775C46.0929 79.6902 45.2258 79.4688 44.4601 79.0358C41.3103 77.2214 40.6854 72.0175 42.7457 64.7576L43.0206 63.7827L44.0039 64.0306C46.41 64.6368 49.064 65.0638 51.8888 65.2992L52.3784 65.3409L52.6575 65.743C54.169 67.9373 55.8564 70.0051 57.703 71.9259L58.4113 72.6529L57.703 73.38C53.7491 77.4422 49.9369 79.6775 46.9725 79.6775ZM44.4935 66.2888C43.0644 71.8884 43.4331 76.0402 45.5038 77.2339C47.5599 78.4067 51.4263 76.5985 55.5032 72.6342C53.9641 70.9621 52.5361 69.1911 51.2284 67.3324C48.963 67.1321 46.7132 66.7835 44.4935 66.2888ZM56.9593 67.597C55.2448 67.597 53.4825 67.522 51.718 67.3762L51.2284 67.3345L50.9472 66.9325C49.9492 65.4984 49.0109 64.0236 48.1349 62.5119C47.2615 60.999 46.4511 59.4506 45.7059 57.8705L45.4996 57.4268L45.7059 56.9831C46.451 55.403 47.2613 53.8546 48.1349 52.3417C48.9973 50.8502 49.9452 49.3628 50.9472 47.9212L51.2284 47.5191L51.718 47.4775C55.2066 47.1817 58.7141 47.1817 62.2027 47.4775L62.6902 47.5191L62.9693 47.9212C64.9675 50.7899 66.7214 53.8212 68.2128 56.9831L68.4232 57.4268L68.2128 57.8705C66.725 61.0344 64.9709 64.0659 62.9693 66.9325L62.6902 67.3345L62.2027 67.3762C60.4383 67.522 58.6738 67.597 56.9593 67.597ZM52.3825 65.3388C55.4657 65.57 58.453 65.57 61.5382 65.3388C63.2606 62.8208 64.7899 60.1759 66.1129 57.4268C64.7923 54.6761 63.2622 52.031 61.5361 49.5148C58.4893 49.2836 55.4293 49.2836 52.3825 49.5148C50.6557 52.0305 49.1256 54.6757 47.8057 57.4268C49.1302 60.1755 50.6601 62.8204 52.3825 65.3388Z" fill="white"></path>
    </g>
  </g>
  <defs>
    <filter id="filter0_d_1444_17025" x="0.713318" y="0.355469" width="112.492" height="147.49" filterUnits="userSpaceOnUse" color-interpolation-filters="sRGB">
      <feFlood flood-opacity="0" result="BackgroundImageFix"></feFlood>
      <feColorMatrix in="SourceAlpha" type="matrix" values="0 0 0 0 0 0 0 0 0 0 0 0 0 0 0 0 0 0 127 0" result="hardAlpha"></feColorMatrix>
      <feOffset dy="16.6656"></feOffset>
      <feGaussianBlur stdDeviation="8.33279"></feGaussianBlur>
      <feComposite in2="hardAlpha" operator="out"></feComposite>
      <feColorMatrix type="matrix" values="0 0 0 0 0.462745 0 0 0 0 0.0666667 0 0 0 0 0.709804 0 0 0 0.2 0"></feColorMatrix>
      <feBlend mode="normal" in2="BackgroundImageFix" result="effect1_dropShadow_1444_17025"></feBlend>
      <feBlend mode="normal" in="SourceGraphic" in2="effect1_dropShadow_1444_17025" result="shape"></feBlend>
    </filter>
    <linearGradient id="paint0_linear_1444_17025" x1="31.5447" y1="24.5207" x2="84.8745" y2="97.016" gradientUnits="userSpaceOnUse">
      <stop stop-color="#AD5CFD"></stop>
      <stop offset="1" stop-color="#6D06AA"></stop>
    </linearGradient>
    <clipPath id="clip0_1444_17025">
      <rect width="49.9968" height="49.9968" fill="white" transform="translate(31.9609 32.437)"></rect>
    </clipPath>
  </defs>
</svg>
