<svg width="32" height="32" viewBox="0 0 32 32" fill="none" xmlns="http://www.w3.org/2000/svg">
<path d="M28 14H18V4C18 2.896 17.104 2 16 2C14.896 2 14 2.896 14 4V14H4C2.896 14 2 14.896 2 16C2 17.104 2.896 18 4 18H14V28C14 29.104 14.896 30 16 30C17.104 30 18 29.104 18 28V18H28C29.104 18 30 17.104 30 16C30 14.896 29.104 14 28 14Z" fill="url(#paint0_radial_473_8004)"/>
<defs>
<radialGradient id="paint0_radial_473_8004" cx="0" cy="0" r="1" gradientUnits="userSpaceOnUse" gradientTransform="translate(3.45833 8.70833) rotate(48.2827) scale(27.6127)">
<stop stop-color="#FF3194"/>
<stop offset="1" stop-color="#FF643F"/>
</radialGradient>
</defs>
</svg>
