<svg width="39" height="39" viewBox="0 0 39 39" fill="none" xmlns="http://www.w3.org/2000/svg">
<g clip-path="url(#clip0_707_13987)">
<path d="M19.8608 38.6435C9.29057 38.6435 0.71875 30.0717 0.71875 19.5014C0.71875 8.9312 9.29057 0.359375 19.8608 0.359375C30.4311 0.359375 39.0029 8.9312 39.0029 19.5014C39.0029 30.0717 30.4311 38.6435 19.8608 38.6435Z" fill="#25D366"/>
<path fill-rule="evenodd" clip-rule="evenodd" d="M28.819 10.5959C26.4454 8.21842 23.2831 6.9091 19.9179 6.90527C12.9847 6.90527 7.33774 12.5484 7.33774 19.4854C7.33774 21.7021 7.91583 23.869 9.01842 25.7755L7.23438 32.2953L13.9035 30.5457C15.7411 31.5488 17.8085 32.0771 19.9141 32.0771H19.9179C26.8512 32.0771 32.4943 26.434 32.4981 19.4969C32.5019 16.1356 31.1964 12.9733 28.819 10.5959ZM19.9217 29.9523H19.9179C18.042 29.9523 16.2005 29.447 14.5964 28.4937L14.2136 28.2678L10.255 29.3053L11.3116 25.4463L11.0628 25.052C10.0176 23.3866 9.46251 21.4647 9.46251 19.4854C9.46634 13.7199 14.1561 9.03004 19.9256 9.03004C22.7203 9.03004 25.3428 10.1211 27.3182 12.0966C29.2937 14.0721 30.381 16.7022 30.3771 19.4931C30.3771 25.2625 25.6835 29.9523 19.9217 29.9523ZM25.6567 22.1194C25.3428 21.9624 23.7961 21.2006 23.509 21.0972C23.2218 20.9938 23.0113 20.9402 22.8007 21.2542C22.5901 21.5681 21.9891 22.2764 21.8053 22.4869C21.6216 22.6975 21.4378 22.7243 21.1239 22.5673C20.8099 22.4104 19.7954 22.0773 18.5971 21.0053C17.663 20.1707 17.0313 19.1409 16.8475 18.827C16.6638 18.513 16.8284 18.3407 16.9853 18.1838C17.127 18.0421 17.2993 17.8163 17.4562 17.6325C17.6132 17.4487 17.6668 17.3186 17.7702 17.108C17.8735 16.8974 17.8238 16.7137 17.7434 16.5567C17.663 16.3997 17.0351 14.8531 16.7748 14.2214C16.5183 13.6088 16.2618 13.6931 16.0665 13.6816C15.8828 13.6739 15.6722 13.6701 15.4655 13.6701C15.2549 13.6701 14.9142 13.7505 14.627 14.0644C14.3399 14.3783 13.5283 15.1402 13.5283 16.6869C13.5283 18.2336 14.6538 19.7305 14.8108 19.9372C14.9678 20.1478 17.0275 23.3215 20.1821 24.6844C20.9324 25.0098 21.5182 25.2013 21.9738 25.3467C22.728 25.5879 23.4133 25.5535 23.9531 25.4731C24.558 25.3812 25.8137 24.7112 26.074 23.98C26.3343 23.2449 26.3343 22.6171 26.2578 22.4869C26.1812 22.3568 25.9706 22.2802 25.6567 22.1194Z" fill="white"/>
</g>
<defs>
<clipPath id="clip0_707_13987">
<rect width="38.2841" height="38.2841" fill="white" transform="translate(0.716797 0.35791)"/>
</clipPath>
</defs>
</svg>
