<svg width="12" height="7" viewBox="0 0 12 7" fill="none" xmlns="http://www.w3.org/2000/svg">
<path d="M6.25011 6.94972C6.11678 6.94972 5.99178 6.92888 5.87511 6.88722C5.75844 6.84555 5.65011 6.77472 5.55011 6.67472L0.950109 2.07472C0.766776 1.89139 0.670943 1.66222 0.662609 1.38722C0.654276 1.11222 0.750109 0.874719 0.950109 0.674719C1.13344 0.491385 1.36678 0.399719 1.65011 0.399719C1.93344 0.399719 2.16678 0.491385 2.35011 0.674719L6.25011 4.54972L10.1501 0.674719C10.3334 0.491385 10.5626 0.395552 10.8376 0.387219C11.1126 0.378885 11.3501 0.474719 11.5501 0.674719C11.7334 0.858052 11.8251 1.09139 11.8251 1.37472C11.8251 1.65805 11.7334 1.89139 11.5501 2.07472L6.95011 6.67472C6.85011 6.77472 6.74178 6.84555 6.62511 6.88722C6.50844 6.92888 6.38344 6.94972 6.25011 6.94972Z" fill="white"/>
</svg>
