<svg width="27" height="27" viewBox="0 0 27 27" fill="none" xmlns="http://www.w3.org/2000/svg">
<path fill-rule="evenodd" clip-rule="evenodd" d="M13.4995 10.8483L23.3295 1.0184C24.0617 0.286165 25.2489 0.286165 25.9811 1.0184C26.7134 1.75063 26.7134 2.93782 25.9811 3.67005L16.1512 13.5L25.9811 23.33C26.7134 24.0622 26.7134 25.2494 25.9811 25.9816C25.2489 26.7138 24.0617 26.7138 23.3295 25.9816L13.4995 16.1516L3.66958 25.9816C2.93734 26.7138 1.75016 26.7138 1.01792 25.9816C0.285692 25.2494 0.285692 24.0622 1.01792 23.33L10.8479 13.5L1.01792 3.67005C0.285692 2.93782 0.285692 1.75063 1.01792 1.0184C1.75016 0.286165 2.93734 0.286165 3.66958 1.0184L13.4995 10.8483Z" fill="black"/>
</svg>
