<svg width="34" height="34" viewBox="0 0 34 34" fill="none" xmlns="http://www.w3.org/2000/svg">
<g clip-path="url(#clip0_473_10077)">
<path d="M16.875 33.75C7.55662 33.75 0 26.1934 0 16.875C0 7.55662 7.55662 0 16.875 0C26.1934 0 33.75 7.55662 33.75 16.875C33.75 26.1934 26.1934 33.75 16.875 33.75Z" fill="url(#paint0_linear_473_10077)"/>
<path d="M16.8758 7.43109C19.9504 7.43109 20.3149 7.44122 21.5299 7.49859C22.6538 7.54922 23.2646 7.73822 23.6696 7.89684C24.2063 8.10609 24.591 8.35584 24.9926 8.75747C25.3943 9.15909 25.644 9.54384 25.8533 10.0805C26.0119 10.4855 26.1975 11.0963 26.2515 12.2202C26.3055 13.4352 26.319 13.7997 26.319 16.8743C26.319 19.949 26.3089 20.3135 26.2515 21.5285C26.2009 22.6523 26.0119 23.2632 25.8533 23.6682C25.644 24.2048 25.3943 24.5896 24.9926 24.9912C24.591 25.3928 24.2063 25.6426 23.6696 25.8518C23.2646 26.0105 22.6538 26.1961 21.5299 26.2501C20.3149 26.3041 19.9504 26.3176 16.8758 26.3176C13.8011 26.3176 13.4366 26.3075 12.2216 26.2501C11.0978 26.1995 10.4869 26.0105 10.0819 25.8518C9.54527 25.6426 9.16052 25.3928 8.75889 24.9912C8.35727 24.5896 8.10752 24.2048 7.89827 23.6682C7.73964 23.2632 7.55402 22.6523 7.50002 21.5285C7.44602 20.3135 7.43252 19.949 7.43252 16.8743C7.43252 13.7997 7.44264 13.4352 7.50002 12.2202C7.55064 11.0963 7.73964 10.4855 7.89827 10.0805C8.10752 9.54384 8.35727 9.15909 8.75889 8.75747C9.16052 8.35584 9.54527 8.10609 10.0819 7.89684C10.4869 7.73822 11.0978 7.55259 12.2216 7.49859C13.4366 7.44122 13.8011 7.43109 16.8758 7.43109ZM16.8758 5.35547C13.7471 5.35547 13.3556 5.36897 12.1271 5.42634C10.902 5.48372 10.065 5.67609 9.32927 5.96297C8.57327 6.25322 7.92864 6.64809 7.29077 7.28934C6.64952 7.93059 6.25802 8.57184 5.96102 9.33122C5.67752 10.0636 5.48177 10.9006 5.42439 12.1291C5.36702 13.3576 5.35352 13.7491 5.35352 16.8777C5.35352 20.0063 5.36702 20.3978 5.42439 21.6263C5.48177 22.8515 5.67414 23.6885 5.96102 24.4242C6.25464 25.1768 6.64952 25.8215 7.29077 26.4593C7.93202 27.1006 8.57327 27.4921 9.33264 27.7891C10.065 28.0726 10.902 28.2683 12.1305 28.3257C13.359 28.3831 13.7505 28.3966 16.8791 28.3966C20.0078 28.3966 20.3993 28.3831 21.6278 28.3257C22.8529 28.2683 23.6899 28.076 24.4256 27.7891C25.1783 27.4955 25.8229 27.1006 26.4608 26.4593C27.102 25.8181 27.4935 25.1768 27.7905 24.4175C28.074 23.6851 28.2698 22.8481 28.3271 21.6196C28.3845 20.3911 28.398 19.9996 28.398 16.871C28.398 13.7423 28.3845 13.3508 28.3271 12.1223C28.2698 10.8972 28.0774 10.0602 27.7905 9.32447C27.4969 8.57184 27.102 7.92722 26.4608 7.28934C25.8195 6.64809 25.1783 6.25659 24.4189 5.95959C23.6865 5.67609 22.8495 5.48034 21.621 5.42297C20.3959 5.36897 20.0044 5.35547 16.8758 5.35547Z" fill="white"/>
<path d="M16.8734 10.957C13.6064 10.957 10.957 13.6064 10.957 16.8734C10.957 20.1404 13.6064 22.7898 16.8734 22.7898C20.1404 22.7898 22.7898 20.1404 22.7898 16.8734C22.7898 13.6064 20.1404 10.957 16.8734 10.957ZM16.8734 20.7142C14.7539 20.7142 13.0327 18.9963 13.0327 16.8734C13.0327 14.7505 14.7539 13.0327 16.8734 13.0327C18.9929 13.0327 20.7142 14.7505 20.7142 16.8734C20.7142 18.9963 18.9929 20.7142 16.8734 20.7142Z" fill="white"/>
<path d="M23.0263 12.1093C23.7906 12.1093 24.4101 11.4898 24.4101 10.7255C24.4101 9.96132 23.7906 9.3418 23.0263 9.3418C22.2621 9.3418 21.6426 9.96132 21.6426 10.7255C21.6426 11.4898 22.2621 12.1093 23.0263 12.1093Z" fill="white"/>
</g>
<defs>
<linearGradient id="paint0_linear_473_10077" x1="4.94257" y1="28.8074" x2="28.8074" y2="4.94257" gradientUnits="userSpaceOnUse">
<stop stop-color="#FFD521"/>
<stop offset="0.0551048" stop-color="#FFD020"/>
<stop offset="0.1241" stop-color="#FEC01E"/>
<stop offset="0.2004" stop-color="#FCA71B"/>
<stop offset="0.2821" stop-color="#FA8316"/>
<stop offset="0.3681" stop-color="#F85510"/>
<stop offset="0.4563" stop-color="#F51E09"/>
<stop offset="0.5" stop-color="#F30005"/>
<stop offset="0.5035" stop-color="#F20007"/>
<stop offset="0.5966" stop-color="#E1003B"/>
<stop offset="0.6879" stop-color="#D30067"/>
<stop offset="0.7757" stop-color="#C70088"/>
<stop offset="0.8589" stop-color="#BF00A0"/>
<stop offset="0.9357" stop-color="#BB00AF"/>
<stop offset="1" stop-color="#B900B4"/>
</linearGradient>
<clipPath id="clip0_473_10077">
<rect width="33.75" height="33.75" fill="white"/>
</clipPath>
</defs>
</svg>
