<svg width="13" height="13" viewBox="0 0 13 13" fill="none" xmlns="http://www.w3.org/2000/svg">
<g clip-path="url(#clip0_1591_21988)">
<path d="M7.87719 6.578L12.5702 1.885C12.9342 1.521 12.9342 0.936004 12.5702 0.572004C12.4012 0.403004 12.1672 0.299004 11.9202 0.299004C11.6732 0.299004 11.4392 0.390004 11.2702 0.572004L6.56419 5.265L1.67619 0.377004C1.50719 0.208004 1.27319 0.104004 1.02619 0.104004C0.779193 0.104004 0.545193 0.195004 0.376193 0.377004C-0.000806749 0.741004 -0.000806749 1.326 0.363193 1.69L5.25119 6.578L0.558193 11.271C0.389193 11.44 0.285193 11.674 0.285193 11.921C0.285193 12.168 0.376193 12.402 0.558193 12.571C0.727193 12.74 0.961193 12.844 1.20819 12.844C1.45519 12.844 1.68919 12.753 1.85819 12.571L6.55119 7.878L11.0622 12.389C11.2312 12.558 11.4652 12.662 11.7122 12.662C11.9592 12.662 12.1932 12.571 12.3622 12.389C12.5312 12.22 12.6352 11.986 12.6352 11.739C12.6352 11.492 12.5442 11.258 12.3622 11.089L7.87719 6.578Z" fill="white"/>
</g>
<defs>
<clipPath id="clip0_1591_21988">
<rect width="13" height="13" fill="white"/>
</clipPath>
</defs>
</svg>
