<svg width="247" height="43" viewBox="0 0 247 43" fill="none" xmlns="http://www.w3.org/2000/svg">
<g clip-path="url(#clip0_842_11483)">
<path d="M93.7511 0.738037C92.4033 0.738037 91.263 1.20006 90.3312 2.12411C89.3995 3.04815 88.9336 4.19304 88.9336 5.55773C88.9336 6.92243 89.3995 8.02254 90.3312 8.95472C91.263 9.88691 92.4033 10.353 93.7511 10.353C95.0988 10.353 96.2351 9.88691 97.1587 8.95472C98.0823 8.02254 98.5441 6.89088 98.5441 5.55773C98.5441 4.22458 98.0823 3.04714 97.1587 2.12411C96.2351 1.20006 95.0988 0.738037 93.7511 0.738037Z" fill="white"/>
<path d="M97.6713 13.4255H89.783V40.2982H97.6713V13.4255Z" fill="white"/>
<path d="M123.431 14.2737C122.133 13.4413 120.585 13.025 118.788 13.025C117.307 13.025 115.917 13.2794 114.619 13.7873C113.321 14.2951 112.21 15.0482 111.287 16.0475C111.027 16.3284 110.793 16.6296 110.581 16.9471H110.451V13.425H102.812V40.2976H110.701V24.5135C110.701 23.4317 110.904 22.528 111.312 21.8035C111.72 21.0799 112.273 20.5304 112.972 20.1559C113.671 19.7814 114.453 19.5941 115.319 19.5941C116.633 19.5941 117.674 19.9981 118.44 20.8051C119.205 21.6132 119.588 22.8242 119.588 24.4392V40.2976H127.477V22.7163C127.477 20.8184 127.128 19.1443 126.429 17.6961C125.73 16.248 124.731 15.1072 123.433 14.2747" fill="white"/>
<path d="M147.119 26.2766L158.159 13.4H148.849L140.157 23.9899V1.83716H132.269V40.2981H140.157V28.8096L149.422 40.2981H158.734L147.119 26.2766Z" fill="white"/>
<path d="M12.5024 10.647C13.2551 10.3457 14.134 10.1931 15.1156 10.1931C16.8367 10.1931 18.3869 10.65 19.7215 11.5517C21.0581 12.4543 22.0753 13.7224 22.7466 15.3201L22.9409 15.7821L30.2373 12.607L30.0746 12.1674C29.3401 10.1839 28.2314 8.45896 26.7768 7.04338C25.3293 5.6339 23.5879 4.52871 21.6013 3.7563C19.6198 2.98795 17.4379 2.59717 15.1156 2.59717C12.4811 2.59717 10.111 3.07344 8.06844 4.01275C6.0086 4.96122 4.38414 6.30353 3.23775 8.00101C2.08424 9.70765 1.49935 11.7094 1.49935 13.9534C1.49935 16.5128 2.31108 18.7375 3.91012 20.5662C5.48983 22.3736 7.85889 23.781 10.9481 24.7488L18.3757 27.0976C19.4377 27.4284 20.2179 27.867 20.697 28.3992C21.1598 28.9142 21.3846 29.5187 21.3846 30.2453C21.3846 30.9221 21.2015 31.4869 20.8262 31.9733C20.4406 32.473 19.8914 32.8739 19.1956 33.165C18.4815 33.4642 17.6047 33.6158 16.5895 33.6158C14.665 33.6158 12.8849 33.0683 11.2991 31.9896C9.70206 30.9037 8.43259 29.3894 7.52729 27.4894L7.32181 27.059L0 30.2188L0.155632 30.6564C0.921584 32.8017 2.09848 34.6895 3.65073 36.2669C5.19891 37.8412 7.07056 39.0726 9.21177 39.9264C11.3459 40.7772 13.6569 41.2097 16.0819 41.2097C18.8202 41.2097 21.2595 40.7253 23.3326 39.7697C25.4219 38.807 27.0881 37.4514 28.2863 35.7387C29.4937 34.0148 30.1051 32.0181 30.1051 29.8046C30.1051 27.2462 29.3015 25.044 27.7167 23.262C26.1543 21.5055 23.7781 20.1245 20.6543 19.1557L13.3823 16.9056C12.3203 16.5759 11.5218 16.12 11.0081 15.5542C10.5128 15.0077 10.2717 14.3879 10.2717 13.6603C10.2717 12.9795 10.4568 12.3943 10.8383 11.8733C11.2207 11.3492 11.7812 10.936 12.5034 10.647" fill="white"/>
<path d="M65.4503 8.51713C63.7282 6.8105 61.7182 5.47836 59.4214 4.52175C57.1245 3.56412 54.6365 3.08582 51.9582 3.08582C49.2799 3.08582 46.8366 3.56412 44.5316 4.52175C42.2266 5.47938 40.2085 6.8105 38.4782 8.51713C36.747 10.2238 35.3951 12.2133 34.4216 14.4858C33.4472 16.7582 32.9609 19.219 32.9609 21.8659C32.9609 24.5129 33.4472 26.9574 34.4216 29.2471C35.3951 31.5359 36.751 33.5387 38.4904 35.2534C40.2299 36.9682 42.251 38.3044 44.557 39.262C46.862 40.2197 49.3369 40.698 51.9836 40.698C54.1625 40.698 56.2172 40.3723 58.1509 39.7312C61.0347 41.7859 64.5583 43 68.3605 43C68.5009 43 70.7652 42.9928 70.9056 42.9888V35.0662C70.8028 35.0713 69.5476 35.0743 68.8366 35.0764C68.7684 35.0764 68.2965 35.0825 67.9659 35.0692C67.8601 35.0652 67.7563 35.0591 67.6516 35.0519C62.6184 34.6876 58.6341 30.4744 58.6341 25.3474V23.8952H50.7162V25.3474C50.7162 28.1714 51.3865 30.8398 52.5695 33.2089C52.3518 33.2211 52.1321 33.2303 51.9083 33.2303C50.3937 33.2303 48.9829 32.9392 47.6778 32.3551C46.3707 31.772 45.2274 30.969 44.2458 29.9452C43.2631 28.9205 42.4982 27.7186 41.9489 26.3366C41.3996 24.9546 41.125 23.4637 41.125 21.8659C41.125 20.2682 41.3986 18.757 41.9489 17.3841C42.4982 16.0103 43.2672 14.8114 44.257 13.7877C45.2467 12.7639 46.3951 11.9681 47.7022 11.4022C49.0083 10.8364 50.411 10.5535 51.9083 10.5535C53.4057 10.5535 54.8369 10.8364 56.1521 11.4022C57.4663 11.9681 58.6147 12.7639 59.5974 13.7877C60.579 14.8114 61.348 16.0103 61.9054 17.3841C62.4628 18.758 62.7415 20.2519 62.7415 21.8659C62.7415 23.48 62.4669 24.9302 61.9186 26.3122C61.8454 26.4953 61.7589 26.6673 61.6786 26.8444C62.3641 29.7397 64.7525 31.6916 67.7726 32.4233C68.4307 31.4372 68.9983 30.3839 69.4703 29.2593C70.4265 26.9777 70.9056 24.5139 70.9056 21.8659C70.9056 19.218 70.4265 16.7806 69.4703 14.499C68.5131 12.2174 67.1735 10.2238 65.4513 8.51713" fill="white"/>
<path d="M84.5759 1.83716H76.6875V40.2981H84.5759V1.83716Z" fill="white"/>
</g>
<defs>
<clipPath id="clip0_842_11483">
<rect width="246.81" height="42.2619" fill="white" transform="translate(0 0.738037)"/>
</clipPath>
</defs>
</svg>
