<svg width="1919" height="1002" viewBox="0 0 1919 1002" fill="none" xmlns="http://www.w3.org/2000/svg">
<g opacity="0.4">
<mask id="mask0_475_20676" style="mask-type:alpha" maskUnits="userSpaceOnUse" x="-1" y="-150" width="1920" height="1152">
<rect x="-1" y="-150" width="1920" height="1152" fill="#FED125"/>
</mask>
<g mask="url(#mask0_475_20676)">
<g opacity="0.3">
<g opacity="0.7">
<line x1="-134" y1="212.908" x2="1962.85" y2="212.908" stroke="#323232" stroke-width="1.55094" stroke-dasharray="6.2 6.2"/>
<line x1="-123.612" y1="323.725" x2="1973.24" y2="323.725" stroke="#323232" stroke-width="1.55094" stroke-dasharray="6.2 6.2"/>
<line x1="-127.074" y1="434.541" x2="1969.78" y2="434.541" stroke="#323232" stroke-width="1.55094" stroke-dasharray="6.2 6.2"/>
<line x1="-127.074" y1="545.358" x2="1969.78" y2="545.358" stroke="#323232" stroke-width="1.55094" stroke-dasharray="6.2 6.2"/>
<line x1="-123.612" y1="656.174" x2="1973.24" y2="656.174" stroke="#323232" stroke-width="1.55094" stroke-dasharray="6.2 6.2"/>
<line x1="-118.417" y1="766.991" x2="1978.44" y2="766.991" stroke="#323232" stroke-width="1.55094" stroke-dasharray="6.2 6.2"/>
<line x1="-123.612" y1="877.807" x2="1973.24" y2="877.807" stroke="#323232" stroke-width="1.55094" stroke-dasharray="3.1 3.1"/>
<line x1="-123.611" y1="977.807" x2="1973.24" y2="977.807" stroke="#323232" stroke-width="1.55094" stroke-dasharray="3.1 3.1"/>
</g>
<g opacity="0.5">
<line x1="872.813" y1="119" x2="872.813" y2="1042" stroke="#323232" stroke-width="1.55094" stroke-dasharray="4.65 4.65"/>
<line x1="762.813" y1="119" x2="762.813" y2="1042" stroke="#323232" stroke-width="1.55094" stroke-dasharray="4.65 4.65"/>
<line x1="651.813" y1="116" x2="651.813" y2="1039" stroke="#323232" stroke-width="1.55094" stroke-dasharray="4.65 4.65"/>
<line x1="539.813" y1="120" x2="539.813" y2="1043" stroke="#323232" stroke-width="1.55094" stroke-dasharray="4.65 4.65"/>
<line x1="429.813" y1="119" x2="429.813" y2="1042" stroke="#323232" stroke-width="1.55094" stroke-dasharray="4.65 4.65"/>
<line x1="318.813" y1="119" x2="318.813" y2="1042" stroke="#323232" stroke-width="1.55094" stroke-dasharray="4.65 4.65"/>
<line x1="208.813" y1="120" x2="208.813" y2="1043" stroke="#323232" stroke-width="1.55094" stroke-dasharray="4.65 4.65"/>
<line x1="98.8126" y1="123" x2="98.8125" y2="1046" stroke="#323232" stroke-width="1.55094" stroke-dasharray="4.65 4.65"/>
<line x1="1870.81" y1="119" x2="1870.81" y2="1042" stroke="#323232" stroke-width="1.55094" stroke-dasharray="4.65 4.65"/>
<line x1="1759.81" y1="116" x2="1759.81" y2="1039" stroke="#323232" stroke-width="1.55094" stroke-dasharray="4.65 4.65"/>
<line x1="1649.81" y1="120" x2="1649.81" y2="1043" stroke="#323232" stroke-width="1.55094" stroke-dasharray="4.65 4.65"/>
<line x1="1537.81" y1="119" x2="1537.81" y2="1042" stroke="#323232" stroke-width="1.55094" stroke-dasharray="4.65 4.65"/>
<line x1="1426.81" y1="119" x2="1426.81" y2="1042" stroke="#323232" stroke-width="1.55094" stroke-dasharray="4.65 4.65"/>
<line x1="1316.81" y1="120" x2="1316.81" y2="1043" stroke="#323232" stroke-width="1.55094" stroke-dasharray="4.65 4.65"/>
<line x1="1205.81" y1="123" x2="1205.81" y2="1046" stroke="#323232" stroke-width="1.55094" stroke-dasharray="4.65 4.65"/>
<line x1="1095.81" y1="120" x2="1095.81" y2="1043" stroke="#323232" stroke-width="1.55094" stroke-dasharray="4.65 4.65"/>
<line x1="983.813" y1="119" x2="983.813" y2="1042" stroke="#323232" stroke-width="1.55094" stroke-dasharray="4.65 4.65"/>
</g>
</g>
<g filter="url(#filter0_f_475_20676)">
<ellipse cx="626.611" cy="520.495" rx="626.611" ry="520.495" transform="matrix(0.999934 -0.0114453 -0.161338 0.986899 399.877 -70.932)" fill="#FBED27" fill-opacity="0.52"/>
</g>
</g>
</g>
<defs>
<filter id="filter0_f_475_20676" x="-89.7749" y="-478.155" width="2064.49" height="1827.45" filterUnits="userSpaceOnUse" color-interpolation-filters="sRGB">
<feFlood flood-opacity="0" result="BackgroundImageFix"/>
<feBlend mode="normal" in="SourceGraphic" in2="BackgroundImageFix" result="shape"/>
<feGaussianBlur stdDeviation="200" result="effect1_foregroundBlur_475_20676"/>
</filter>
</defs>
</svg>
