<svg width="34" height="34" viewBox="0 0 34 34" fill="none" xmlns="http://www.w3.org/2000/svg">
<g clip-path="url(#clip0_473_10063)">
<path d="M16.875 33.75C7.55662 33.75 0 26.1934 0 16.875C0 7.55662 7.55662 0 16.875 0C26.1934 0 33.75 7.55662 33.75 16.875C33.75 26.1934 26.1934 33.75 16.875 33.75Z" fill="#25D366"/>
<path fill-rule="evenodd" clip-rule="evenodd" d="M24.5913 9.14544C22.7209 7.30287 20.2289 6.28812 17.577 6.28516C12.1134 6.28516 7.66349 10.6587 7.66349 16.035C7.66349 17.753 8.11904 19.4324 8.98791 20.91L7.58203 25.9629L12.8375 24.607C14.2856 25.3844 15.9147 25.7938 17.574 25.7938H17.577C23.0407 25.7938 27.4876 21.4203 27.4906 16.0439C27.4936 13.4388 26.4648 10.988 24.5913 9.14544ZM17.5801 24.1471H17.577C16.0988 24.1471 14.6476 23.7554 13.3835 23.0166L13.0819 22.8416L9.96237 23.6456L10.795 20.6548L10.5989 20.3492C9.77532 19.0585 9.33787 17.569 9.33787 16.035C9.34089 11.5666 13.0366 7.93189 17.5831 7.93189C19.7854 7.93189 21.852 8.77752 23.4087 10.3085C24.9654 11.8396 25.8222 13.878 25.8192 16.041C25.8192 20.5124 22.1205 24.1471 17.5801 24.1471ZM22.0994 18.0764C21.852 17.9547 20.6332 17.3643 20.4069 17.2842C20.1806 17.2041 20.0147 17.1625 19.8488 17.4058C19.6828 17.6491 19.2092 18.198 19.0644 18.3612C18.9196 18.5244 18.7748 18.5452 18.5274 18.4235C18.28 18.3019 17.4805 18.0438 16.5362 17.213C15.8001 16.5661 15.3023 15.768 15.1575 15.5247C15.0127 15.2814 15.1424 15.1479 15.2661 15.0262C15.3777 14.9164 15.5135 14.7414 15.6372 14.599C15.7609 14.4565 15.8031 14.3557 15.8846 14.1925C15.966 14.0293 15.9268 13.8869 15.8634 13.7652C15.8001 13.6436 15.3053 12.4448 15.1002 11.9553C14.898 11.4805 14.6959 11.5458 14.542 11.5369C14.3972 11.531 14.2313 11.528 14.0684 11.528C13.9024 11.528 13.6339 11.5903 13.4077 11.8336C13.1814 12.0769 12.5418 12.6674 12.5418 13.8661C12.5418 15.0648 13.4288 16.2249 13.5525 16.3852C13.6762 16.5483 15.2993 19.0081 17.7852 20.0644C18.3765 20.3166 18.8381 20.4649 19.1971 20.5777C19.7914 20.7646 20.3315 20.7379 20.7569 20.6756C21.2335 20.6044 22.2231 20.0851 22.4282 19.5184C22.6334 18.9487 22.6334 18.4621 22.573 18.3612C22.5127 18.2604 22.3468 18.201 22.0994 18.0764Z" fill="white"/>
<g clip-path="url(#clip1_473_10063)">
<path fill-rule="evenodd" clip-rule="evenodd" d="M17 34C26.3888 34 34 26.3888 34 17C34 7.61116 26.3888 0 17 0C7.61116 0 0 7.61116 0 17C0 26.3888 7.61116 34 17 34Z" fill="#007EBB"/>
<path fill-rule="evenodd" clip-rule="evenodd" d="M27.8598 26.9164H23.5906V19.6451C23.5906 17.6515 22.8331 16.5374 21.2552 16.5374C19.5386 16.5374 18.6417 17.6968 18.6417 19.6451V26.9164H14.5274V13.0646H18.6417V14.9304C18.6417 14.9304 19.8788 12.6414 22.8182 12.6414C25.7563 12.6414 27.8598 14.4356 27.8598 18.1463V26.9164ZM9.61906 11.2508C8.21764 11.2508 7.08203 10.1063 7.08203 8.69474C7.08203 7.28319 8.21764 6.13867 9.61906 6.13867C11.0205 6.13867 12.1554 7.28319 12.1554 8.69474C12.1554 10.1063 11.0205 11.2508 9.61906 11.2508ZM7.49461 26.9164H11.7848V13.0646H7.49461V26.9164Z" fill="white"/>
</g>
</g>
<defs>
<clipPath id="clip0_473_10063">
<rect width="33.75" height="33.75" fill="white"/>
</clipPath>
<clipPath id="clip1_473_10063">
<rect width="34" height="34" fill="white"/>
</clipPath>
</defs>
</svg>
