<svg width="99" height="20" viewBox="0 0 99 20" fill="none" xmlns="http://www.w3.org/2000/svg">
<path fill-rule="evenodd" clip-rule="evenodd" d="M88.3596 0.408892C88.3371 0.467815 88.2372 0.516025 88.1377 0.516025C88.0383 0.516025 87.957 0.548165 87.957 0.587447C87.957 0.62673 87.8766 0.65887 87.7784 0.65887C87.6673 0.65887 87.5999 0.699366 87.5999 0.766004C87.5999 0.832998 87.5322 0.873137 87.4191 0.873137C87.3196 0.873137 87.2197 0.921347 87.1972 0.980271C87.1745 1.03919 87.126 1.0874 87.0893 1.0874C87.0162 1.0874 86.9168 1.16411 86.6032 1.46237C86.4896 1.57036 86.3655 1.65878 86.3275 1.65878C86.2895 1.65878 86.2381 1.73913 86.2135 1.83734C86.1888 1.93555 86.1371 2.0159 86.0986 2.0159C86.0601 2.0159 86.0286 2.08018 86.0286 2.15874C86.0286 2.2373 85.9971 2.30159 85.9585 2.30159C85.92 2.30159 85.8683 2.38194 85.8437 2.48014C85.819 2.57835 85.7742 2.6587 85.7442 2.6587C85.7142 2.6587 85.6692 2.78726 85.644 2.94439C85.6189 3.10152 85.571 3.23008 85.5377 3.23008C85.5043 3.23008 85.4601 3.52612 85.4395 3.88802C85.4173 4.27613 85.3693 4.55689 85.3224 4.57253C85.2697 4.5901 85.2429 4.89786 85.2429 5.48581V6.37266H84.2871C83.3561 6.37266 83.3301 6.37688 83.2881 6.53336C83.2317 6.7437 83.2303 8.61325 83.2865 8.75946C83.323 8.85473 83.48 8.87245 84.2864 8.87245H85.2429V13.8637V18.8549L85.4036 18.898C85.6128 18.9541 88.0156 18.9541 88.2248 18.898L88.3855 18.8549V13.8637V8.87245H90.5282H92.6708V12.3228C92.6708 15.246 92.6868 15.7943 92.7757 15.9118C92.8412 15.9983 92.8814 16.218 92.8828 16.4968C92.8841 16.7423 92.9169 16.9432 92.9557 16.9432C92.9945 16.9432 93.0468 17.0717 93.072 17.2289C93.0971 17.386 93.1422 17.5146 93.1722 17.5146C93.2022 17.5146 93.2469 17.5949 93.2716 17.6931C93.2962 17.7913 93.3479 17.8717 93.3864 17.8717C93.425 17.8717 93.4565 17.9199 93.4565 17.9788C93.4565 18.0377 93.5047 18.0859 93.5636 18.0859C93.6226 18.0859 93.6708 18.1169 93.6708 18.1549C93.6708 18.2629 94.0619 18.6358 94.2318 18.6897C94.3161 18.7165 94.385 18.7683 94.385 18.8049C94.385 18.8416 94.447 18.8716 94.5228 18.8716C94.5985 18.8716 94.7087 18.9198 94.7676 18.9787C94.8372 19.0483 95.0142 19.0858 95.2727 19.0858C95.4915 19.0858 95.6706 19.118 95.6706 19.1573C95.6706 19.1989 95.9086 19.2287 96.242 19.2287C96.5753 19.2287 96.8134 19.1989 96.8134 19.1573C96.8134 19.115 97.0727 19.0858 97.4485 19.0858C97.9472 19.0858 98.0925 19.0629 98.1248 18.9787C98.1488 18.9161 98.2559 18.8716 98.3824 18.8716C98.5273 18.8716 98.5989 18.8361 98.5989 18.7644C98.5989 18.7055 98.631 18.6573 98.6703 18.6573C98.782 18.6573 98.7645 16.8928 98.6525 16.8476C98.5811 16.8188 98.5811 16.8105 98.6525 16.806C98.7993 16.7967 98.7535 16.5994 98.5927 16.5484C98.4067 16.4894 97.9561 16.5689 97.9561 16.6607C97.9561 16.6993 97.6608 16.7289 97.2776 16.7289C96.8728 16.7289 96.5991 16.7001 96.5991 16.6575C96.5991 16.6182 96.5534 16.5861 96.4974 16.5861C96.4075 16.5861 96.1701 16.3743 95.9027 16.0557C95.8418 15.983 95.8134 15.6669 95.8134 15.0595C95.8134 14.57 95.7843 14.1589 95.7486 14.1458C95.7121 14.1323 95.6732 12.9857 95.6594 11.5151L95.6349 8.90816L97.0601 8.88873C98.0908 8.87473 98.5007 8.84502 98.541 8.7816C98.5716 8.73339 98.5972 8.52512 98.5978 8.31892C98.5984 8.11273 98.631 7.94395 98.6703 7.94395C98.7096 7.94395 98.7418 7.76718 98.7418 7.55113C98.7418 7.33508 98.7096 7.15831 98.6703 7.15831C98.631 7.15831 98.5989 7.1101 98.5989 7.05117C98.5989 6.99225 98.631 6.94404 98.6703 6.94404C98.7096 6.94404 98.7418 6.86369 98.7418 6.76548C98.7418 6.66728 98.7096 6.58693 98.6703 6.58693C98.631 6.58693 98.5989 6.53936 98.5989 6.48122C98.5989 6.39194 98.3689 6.37259 97.1169 6.35623L95.6349 6.33695L95.6158 4.57275L95.5967 2.80854L95.223 2.85168C95.0174 2.87539 94.8332 2.91739 94.8135 2.94503C94.7939 2.9726 94.6573 3.01738 94.51 3.04445C94.3627 3.07152 94.2421 3.12437 94.2421 3.16187C94.2421 3.19936 94.1217 3.23108 93.9743 3.23236C93.827 3.23358 93.6441 3.28179 93.5678 3.3395C93.4916 3.39713 93.3389 3.44434 93.2286 3.44434C93.1182 3.44434 93.028 3.47427 93.028 3.51077C93.028 3.54733 92.9557 3.58754 92.8673 3.60004C92.7078 3.62276 92.7064 3.63304 92.6871 4.99778L92.6678 6.37266H90.5266H88.3855V5.08706C88.3855 4.29427 88.4124 3.80146 88.4556 3.80146C88.4941 3.80146 88.5458 3.72111 88.5704 3.6229C88.5951 3.52469 88.6404 3.44434 88.6712 3.44434C88.702 3.44434 88.7472 3.36449 88.7717 3.26686C88.7992 3.15737 88.8842 3.07238 88.9937 3.04488C89.0913 3.02038 89.1712 2.97424 89.1712 2.94231C89.1712 2.91039 89.2676 2.86311 89.3854 2.83725C89.5033 2.8114 89.5997 2.76062 89.5997 2.72448C89.5997 2.6377 90.7235 2.63898 90.7544 2.72576C90.7674 2.76262 90.9468 2.81497 91.1531 2.84204L91.5281 2.89139V1.70371C91.5281 0.695581 91.5119 0.516025 91.421 0.516025C91.362 0.516025 91.3138 0.467815 91.3138 0.408892C91.3138 0.317185 91.1043 0.301758 89.8573 0.301758C88.6285 0.301758 88.3944 0.318542 88.3596 0.408892ZM22.9062 1.19725C22.8555 1.25468 22.719 1.30167 22.6027 1.30167C22.4863 1.30167 22.3912 1.33317 22.3912 1.37174C22.3912 1.41023 22.3109 1.46194 22.2127 1.48658C22.0997 1.51501 22.0341 1.58186 22.0341 1.66878C22.0341 1.74428 21.9859 1.82463 21.927 1.8472C21.868 1.86984 21.8198 1.9304 21.8198 1.9819C21.8198 2.03332 21.7797 2.08882 21.7305 2.10517C21.6672 2.12631 21.6413 2.33887 21.6413 2.83725C21.6413 3.33564 21.6672 3.54819 21.7305 3.56933C21.7797 3.58569 21.8198 3.62854 21.8198 3.66454C21.8198 3.7526 22.0874 4.01572 22.1769 4.01572C22.2162 4.01572 22.2484 4.06393 22.2484 4.12286C22.2484 4.18856 22.3151 4.22999 22.421 4.22999C22.5159 4.22999 22.6071 4.2702 22.6236 4.31927C22.6629 4.43661 24.0871 4.44526 24.1617 4.32855C24.1896 4.28491 24.2848 4.2267 24.3732 4.19906C24.4615 4.1715 24.5339 4.119 24.5339 4.08236C24.5339 4.04572 24.5786 4.01572 24.6333 4.01572C24.6879 4.01572 24.7529 3.93537 24.7775 3.83717C24.8021 3.73896 24.8539 3.65861 24.8924 3.65861C24.9309 3.65861 24.9624 3.5649 24.9624 3.45027C24.9624 3.33571 24.9986 3.22993 25.0429 3.21515C25.0872 3.20036 25.1389 3.02681 25.1579 2.82933C25.1838 2.56013 25.1636 2.44157 25.0774 2.35537C25.0141 2.29209 24.9624 2.15774 24.9624 2.05668C24.9624 1.94104 24.9227 1.87305 24.8553 1.87305C24.7964 1.87305 24.7482 1.82484 24.7482 1.76592C24.7482 1.70699 24.7117 1.65878 24.6671 1.65878C24.6224 1.65878 24.5115 1.57843 24.4205 1.48023C24.313 1.36424 24.1779 1.30167 24.0351 1.30167C23.9055 1.30167 23.7983 1.25768 23.7741 1.19454C23.7182 1.04905 23.0351 1.05119 22.9062 1.19725ZM0.107422 10.1504C0.107422 18.0232 0.118205 18.8604 0.220411 18.8997C0.366755 18.9558 2.66463 18.9544 2.87504 18.898L3.03574 18.8549V12.3281C3.03574 8.54583 3.06259 5.80128 3.09952 5.80128C3.18208 5.80128 3.25001 5.98127 3.25001 6.19996C3.25001 6.30588 3.29143 6.37266 3.35714 6.37266C3.42378 6.37266 3.46427 6.44008 3.46427 6.55122C3.46427 6.64942 3.49641 6.72977 3.5357 6.72977C3.57498 6.72977 3.60712 6.82391 3.60712 6.93897C3.60712 7.05396 3.65533 7.1963 3.71425 7.25523C3.77317 7.31415 3.82138 7.445 3.82138 7.54606C3.82138 7.66169 3.86109 7.72969 3.92852 7.72969C3.99994 7.72969 4.03565 7.80111 4.03565 7.94395C4.03565 8.0618 4.06743 8.15822 4.10622 8.15822C4.14507 8.15822 4.19736 8.28678 4.2225 8.44391C4.24764 8.60104 4.2962 8.7296 4.33048 8.7296C4.36477 8.7296 4.39276 8.81095 4.39276 8.91037C4.39276 9.00986 4.44097 9.10971 4.4999 9.13228C4.56503 9.15728 4.60703 9.26541 4.60703 9.40811C4.60703 9.55082 4.64903 9.65895 4.71416 9.68395C4.77309 9.70652 4.8213 9.80636 4.8213 9.90586C4.8213 10.0053 4.85308 10.0866 4.89186 10.0866C4.93072 10.0866 4.983 10.2152 5.00814 10.3723C5.03328 10.5294 5.08185 10.658 5.11613 10.658C5.15041 10.658 5.17841 10.7394 5.17841 10.8388C5.17841 10.9383 5.22662 11.0381 5.28554 11.0607C5.3554 11.0875 5.39268 11.1986 5.39268 11.3799C5.39268 11.5794 5.42296 11.6579 5.49981 11.6579C5.56645 11.6579 5.60695 11.7253 5.60695 11.8365C5.60695 11.9347 5.63873 12.015 5.67751 12.015C5.71636 12.015 5.76865 12.1436 5.79379 12.3007C5.81893 12.4578 5.86749 12.5864 5.90178 12.5864C5.93606 12.5864 5.96406 12.6828 5.96406 12.8007C5.96406 12.9435 5.99977 13.0149 6.07119 13.0149C6.14854 13.0149 6.17833 13.0943 6.17833 13.3006C6.17833 13.507 6.20811 13.5863 6.28546 13.5863C6.35688 13.5863 6.39259 13.6577 6.39259 13.8006C6.39259 13.9184 6.42437 14.0149 6.46315 14.0149C6.50201 14.0149 6.55429 14.1434 6.57943 14.3005C6.60458 14.4577 6.65314 14.5862 6.68742 14.5862C6.72171 14.5862 6.7497 14.6676 6.7497 14.767C6.7497 14.8665 6.79791 14.9663 6.85684 14.9889C6.91576 15.0116 6.96397 15.107 6.96397 15.201C6.96397 15.295 6.99575 15.3719 7.03453 15.3719C7.07339 15.3719 7.12567 15.5004 7.15082 15.6576C7.17596 15.8147 7.22452 15.9433 7.2588 15.9433C7.29308 15.9433 7.32108 16.0246 7.32108 16.124C7.32108 16.2235 7.36929 16.3234 7.42822 16.3459C7.49807 16.3728 7.53535 16.4839 7.53535 16.6651C7.53535 16.8647 7.56563 16.9432 7.64248 16.9432C7.70991 16.9432 7.74962 17.0112 7.74962 17.1268C7.74962 17.2279 7.79783 17.3587 7.85675 17.4176C7.91567 17.4766 7.96388 17.6189 7.96388 17.7339C7.96388 17.849 7.99603 17.9431 8.03531 17.9431C8.07459 17.9431 8.10673 18.0244 8.10673 18.1239C8.10673 18.2234 8.15494 18.3232 8.21386 18.3458C8.27893 18.3708 8.321 18.4788 8.321 18.6209C8.321 18.927 8.36999 18.937 9.63981 18.8894C10.6567 18.8514 10.6779 18.8473 10.6779 18.6902C10.6779 18.602 10.7261 18.5113 10.7851 18.4886C10.8523 18.4628 10.8922 18.3536 10.8922 18.1953C10.8922 18.0566 10.9218 17.9431 10.958 17.9431C10.9941 17.9431 11.0449 17.8467 11.0708 17.7288C11.0966 17.611 11.1474 17.5146 11.1835 17.5146C11.2197 17.5146 11.2493 17.4204 11.2493 17.3054C11.2493 17.1904 11.2975 17.048 11.3564 16.9891C11.4154 16.9302 11.4636 16.8131 11.4636 16.7289C11.4636 16.6447 11.5118 16.5276 11.5707 16.4687C11.6296 16.4098 11.6778 16.2835 11.6778 16.1882C11.6778 16.0927 11.7074 16.0147 11.7436 16.0147C11.7798 16.0147 11.8305 15.9183 11.8564 15.8004C11.8823 15.6826 11.933 15.5861 11.9692 15.5861C12.0054 15.5861 12.035 15.492 12.035 15.377C12.035 15.262 12.0832 15.1196 12.1421 15.0607C12.201 15.0018 12.2492 14.8709 12.2492 14.7699C12.2492 14.6689 12.281 14.5862 12.3198 14.5862C12.3586 14.5862 12.4109 14.4577 12.4361 14.3005C12.4612 14.1434 12.5072 14.0149 12.5383 14.0149C12.5695 14.0149 12.6162 13.9184 12.6421 13.8006C12.6679 13.6827 12.7187 13.5863 12.7548 13.5863C12.791 13.5863 12.8206 13.4728 12.8206 13.3341C12.8206 13.1758 12.8605 13.0666 12.9277 13.0408C12.9867 13.0182 13.0349 12.9205 13.0349 12.8237C13.0349 12.7268 13.0831 12.5994 13.142 12.5405C13.2009 12.4816 13.2491 12.3553 13.2491 12.2599C13.2491 12.1645 13.2813 12.0865 13.3206 12.0865C13.3598 12.0865 13.392 11.989 13.392 11.87C13.392 11.7434 13.4365 11.6363 13.4991 11.6124C13.5653 11.5869 13.6063 11.4784 13.6063 11.3289C13.6063 11.1611 13.6392 11.0865 13.7134 11.0865C13.7848 11.0865 13.8205 11.0151 13.8205 10.8723C13.8205 10.7544 13.8523 10.658 13.8911 10.658C13.9299 10.658 13.9822 10.5294 14.0074 10.3723C14.0325 10.2152 14.0811 10.0866 14.1154 10.0866C14.1496 10.0866 14.1776 10.0053 14.1776 9.90586C14.1776 9.80636 14.2258 9.70652 14.2848 9.68395C14.3511 9.65845 14.3919 9.54974 14.3919 9.39826C14.3919 9.2467 14.4327 9.13799 14.499 9.11257C14.558 9.08993 14.6062 8.99451 14.6062 8.90051C14.6062 8.80652 14.6342 8.7296 14.6685 8.7296C14.7027 8.7296 14.7513 8.60104 14.7764 8.44391C14.8016 8.28678 14.8539 8.15822 14.8927 8.15822C14.9315 8.15822 14.9633 8.0618 14.9633 7.94395C14.9633 7.80111 14.999 7.72969 15.0704 7.72969C15.1478 7.72969 15.1775 7.65034 15.1775 7.444C15.1775 7.23766 15.2073 7.15831 15.2847 7.15831C15.3561 7.15831 15.3918 7.08689 15.3918 6.94404C15.3918 6.82619 15.4198 6.72977 15.4541 6.72977C15.4884 6.72977 15.5369 6.60121 15.5621 6.44408C15.5872 6.28695 15.6395 6.15839 15.6784 6.15839C15.7171 6.15839 15.7489 6.07804 15.7489 5.97984C15.7489 5.86871 15.7894 5.80128 15.8561 5.80128C15.9505 5.80128 15.9632 6.57464 15.9632 12.3332V18.8651L16.1953 18.9072C16.323 18.9304 16.9899 18.9399 17.6773 18.9283L18.9272 18.9073L18.9482 10.5509C18.9597 5.95484 18.9494 2.02568 18.9252 1.81948L18.8812 1.44452H16.8565H14.8318L14.7847 1.65878C14.7589 1.77663 14.7122 1.87305 14.681 1.87305C14.6499 1.87305 14.6039 2.00161 14.5787 2.15874C14.5536 2.31587 14.5013 2.44443 14.4625 2.44443C14.4237 2.44443 14.3919 2.52707 14.3919 2.62806C14.3919 2.72912 14.3437 2.85997 14.2848 2.91889C14.2258 2.97781 14.1776 3.10409 14.1776 3.19944C14.1776 3.29486 14.1455 3.37292 14.1062 3.37292C14.0669 3.37292 14.0348 3.43492 14.0348 3.5107C14.0348 3.5864 13.9866 3.69661 13.9277 3.75553C13.8687 3.81445 13.8205 3.94301 13.8205 4.04122C13.8205 4.13943 13.7723 4.26799 13.7134 4.32691C13.6545 4.38583 13.6063 4.50289 13.6063 4.5871C13.6063 4.67131 13.558 4.78837 13.4991 4.84729C13.4402 4.90622 13.392 5.01642 13.392 5.09213C13.392 5.16791 13.364 5.2299 13.3297 5.2299C13.2954 5.2299 13.2469 5.35846 13.2217 5.51559C13.1966 5.67272 13.1443 5.80128 13.1054 5.80128C13.0667 5.80128 13.0349 5.8782 13.0349 5.9722C13.0349 6.06619 12.9867 6.16161 12.9277 6.18425C12.8614 6.20968 12.8206 6.31838 12.8206 6.46994C12.8206 6.62143 12.7798 6.73013 12.7135 6.75563C12.6545 6.7782 12.6063 6.87805 12.6063 6.97754C12.6063 7.07696 12.5783 7.15831 12.5441 7.15831C12.5098 7.15831 12.4612 7.28687 12.4361 7.444C12.4109 7.60113 12.3586 7.72969 12.3198 7.72969C12.281 7.72969 12.2492 7.82611 12.2492 7.94395C12.2492 8.0868 12.2135 8.15822 12.1421 8.15822C12.0672 8.15822 12.035 8.23364 12.035 8.4082C12.035 8.54569 12.0054 8.65818 11.9692 8.65818C11.933 8.65818 11.8823 8.7546 11.8564 8.87245C11.8305 8.99029 11.7798 9.08671 11.7436 9.08671C11.7074 9.08671 11.6778 9.18313 11.6778 9.30098C11.6778 9.44382 11.6421 9.51525 11.5707 9.51525C11.4934 9.51525 11.4636 9.5946 11.4636 9.80094C11.4636 10.0073 11.4338 10.0866 11.3564 10.0866C11.285 10.0866 11.2493 10.158 11.2493 10.3009C11.2493 10.4187 11.2213 10.5152 11.187 10.5152C11.1528 10.5152 11.1042 10.6437 11.079 10.8008C11.0539 10.958 11.0016 11.0865 10.9628 11.0865C10.924 11.0865 10.8922 11.1669 10.8922 11.2651C10.8922 11.3762 10.8517 11.4437 10.7851 11.4437C10.7077 11.4437 10.6779 11.523 10.6779 11.7293C10.6779 11.9357 10.6482 12.015 10.5708 12.015C10.4994 12.015 10.4637 12.0865 10.4637 12.2293C10.4637 12.3471 10.4319 12.4436 10.3931 12.4436C10.3543 12.4436 10.302 12.5721 10.2768 12.7293C10.2517 12.8864 10.2031 13.0149 10.1688 13.0149C10.1346 13.0149 10.1066 13.0963 10.1066 13.1957C10.1066 13.2952 10.0583 13.3951 9.99942 13.4176C9.93836 13.4411 9.89229 13.5476 9.89229 13.6654C9.89229 13.779 9.86079 13.872 9.82222 13.872C9.78372 13.872 9.73202 13.9524 9.70738 14.0506C9.68274 14.1488 9.64103 14.2291 9.61474 14.2291C9.51068 14.2291 9.32091 13.9321 9.32091 13.7692C9.32091 13.6742 9.2727 13.5483 9.21378 13.4894C9.15485 13.4305 9.10664 13.2996 9.10664 13.1986C9.10664 13.0976 9.07486 13.0149 9.03608 13.0149C8.99722 13.0149 8.94494 12.8864 8.9198 12.7293C8.89466 12.5721 8.8461 12.4436 8.81181 12.4436C8.77753 12.4436 8.74953 12.3622 8.74953 12.2628C8.74953 12.1633 8.70132 12.0635 8.6424 12.0409C8.57605 12.0154 8.53526 11.9067 8.53526 11.7552C8.53526 11.6036 8.49448 11.4949 8.42813 11.4695C8.36921 11.4469 8.321 11.3492 8.321 11.2524C8.321 11.1555 8.27279 11.0281 8.21386 10.9692C8.15494 10.9103 8.10673 10.784 8.10673 10.6886C8.10673 10.5932 8.07459 10.5152 8.03531 10.5152C7.99603 10.5152 7.96388 10.4187 7.96388 10.3009C7.96388 10.158 7.92817 10.0866 7.85675 10.0866C7.7794 10.0866 7.74962 10.0073 7.74962 9.80094C7.74962 9.5946 7.71983 9.51525 7.64248 9.51525C7.57106 9.51525 7.53535 9.44382 7.53535 9.30098C7.53535 9.18313 7.50357 9.08671 7.46479 9.08671C7.42593 9.08671 7.37365 8.95815 7.34851 8.80102C7.32337 8.64389 7.2748 8.51533 7.24052 8.51533C7.20624 8.51533 7.17824 8.43398 7.17824 8.33456C7.17824 8.23507 7.13003 8.13522 7.0711 8.11265C7.00125 8.0858 6.96397 7.97474 6.96397 7.79347C6.96397 7.59391 6.93369 7.51542 6.85684 7.51542C6.78199 7.51542 6.7497 7.44 6.7497 7.26544C6.7497 7.12795 6.72013 7.01546 6.68392 7.01546C6.64778 7.01546 6.597 6.91904 6.57115 6.8012C6.54529 6.68335 6.49451 6.58693 6.45837 6.58693C6.42216 6.58693 6.39259 6.4928 6.39259 6.37773C6.39259 6.26274 6.34438 6.1204 6.28546 6.06147C6.22654 6.00255 6.17833 5.88549 6.17833 5.80128C6.17833 5.71707 6.13012 5.60001 6.07119 5.54109C6.01227 5.48217 5.96406 5.33982 5.96406 5.22483C5.96406 5.10977 5.93449 5.01564 5.89828 5.01564C5.86214 5.01564 5.81136 4.91922 5.7855 4.80137C5.75965 4.68352 5.70887 4.5871 5.67273 4.5871C5.63651 4.5871 5.60695 4.49297 5.60695 4.3779C5.60695 4.26291 5.55874 4.12057 5.49981 4.06165C5.44089 4.00272 5.39268 3.88566 5.39268 3.80146C5.39268 3.71725 5.34447 3.60019 5.28554 3.54126C5.22662 3.48234 5.17841 3.35607 5.17841 3.26072C5.17841 3.1653 5.14627 3.08723 5.10699 3.08723C5.06771 3.08723 5.03557 3.02524 5.03557 2.94946C5.03557 2.87375 4.98736 2.76355 4.92843 2.70462C4.86951 2.6457 4.8213 2.51714 4.8213 2.41893C4.8213 2.32073 4.77309 2.19217 4.71416 2.13324C4.65524 2.07432 4.60703 1.9599 4.60703 1.87898C4.60703 1.79806 4.55168 1.66721 4.48404 1.58815C4.36591 1.45023 4.27663 1.44452 2.23424 1.44452H0.107422V10.1504ZM32.2475 6.20632C32.1493 6.22589 32.0384 6.27131 32.0011 6.30731C31.9637 6.34323 31.779 6.37266 31.5904 6.37266C31.4019 6.37266 31.2476 6.40445 31.2476 6.44323C31.2476 6.48208 31.119 6.53436 30.9619 6.5595C30.8048 6.58464 30.6762 6.63064 30.6762 6.66178C30.6762 6.69292 30.5798 6.73963 30.4619 6.76548C30.3441 6.79134 30.2477 6.83862 30.2477 6.87055C30.2477 6.90247 30.1673 6.94876 30.0691 6.9734C29.9709 6.99804 29.8906 7.04975 29.8906 7.08824C29.8906 7.12681 29.8424 7.15831 29.7834 7.15831C29.7245 7.15831 29.6763 7.19045 29.6763 7.22973C29.6763 7.26901 29.6306 7.30115 29.5747 7.30115C29.5187 7.30115 29.3766 7.39757 29.2588 7.51542C29.1409 7.63327 29.0098 7.72969 28.9676 7.72969C28.9253 7.72969 28.8906 7.7779 28.8906 7.83682C28.8906 7.89574 28.8424 7.94395 28.7835 7.94395C28.7246 7.94395 28.6764 7.99216 28.6764 8.05109C28.6764 8.11001 28.6419 8.15822 28.5999 8.15822C28.501 8.15822 28.3193 8.33992 28.3193 8.43884C28.3193 8.48091 28.2711 8.51533 28.2121 8.51533C28.1455 8.51533 28.105 8.58276 28.105 8.69389C28.105 8.80502 28.0645 8.87245 27.9979 8.87245C27.9389 8.87245 27.8907 8.92066 27.8907 8.97958C27.8907 9.0385 27.8612 9.08671 27.8249 9.08671C27.7888 9.08671 27.738 9.18313 27.7122 9.30098C27.6863 9.41883 27.639 9.51525 27.6071 9.51525C27.5752 9.51525 27.5289 9.5956 27.5043 9.6938C27.4796 9.79201 27.4279 9.87236 27.3894 9.87236C27.3509 9.87236 27.3194 9.96649 27.3194 10.0816C27.3194 10.1965 27.2711 10.3389 27.2122 10.3978C27.1528 10.4572 27.1051 10.6319 27.1051 10.7898C27.1051 10.9542 27.0674 11.0872 27.0158 11.1043C26.9487 11.1266 26.9207 11.5434 26.903 12.7779C26.8825 14.2018 26.8945 14.4368 26.9922 14.5346C27.0655 14.6078 27.1051 14.7748 27.1051 15.0097C27.1051 15.284 27.1311 15.3719 27.2122 15.3719C27.2836 15.3719 27.3194 15.4433 27.3194 15.5861C27.3194 15.704 27.3509 15.8004 27.3894 15.8004C27.4279 15.8004 27.4796 15.8808 27.5043 15.979C27.5289 16.0772 27.5743 16.1575 27.605 16.1575C27.6358 16.1575 27.6812 16.2379 27.7058 16.3361C27.7305 16.4343 27.7822 16.5146 27.8207 16.5146C27.8592 16.5146 27.8907 16.5594 27.8907 16.6141C27.8907 16.6688 27.9389 16.7321 27.9979 16.7548C28.0568 16.7773 28.105 16.8466 28.105 16.9086C28.105 16.9707 28.1854 17.0959 28.2836 17.1869C28.3818 17.2779 28.4621 17.3889 28.4621 17.4335C28.4621 17.4781 28.5103 17.5146 28.5692 17.5146C28.6282 17.5146 28.6764 17.5628 28.6764 17.6217C28.6764 17.6806 28.7129 17.7288 28.7574 17.7288C28.8021 17.7288 28.9096 17.8054 28.9963 17.899C29.0831 17.9927 29.2233 18.0912 29.308 18.1181C29.3927 18.145 29.462 18.1969 29.462 18.2336C29.462 18.2702 29.5102 18.3002 29.5692 18.3002C29.6281 18.3002 29.6763 18.3484 29.6763 18.4073C29.6763 18.474 29.7437 18.5145 29.8548 18.5145C29.9531 18.5145 30.0334 18.5463 30.0334 18.585C30.0334 18.6239 30.162 18.6762 30.3191 18.7013C30.4762 18.7264 30.6048 18.7708 30.6048 18.7999C30.6048 18.8289 30.7407 18.871 30.9068 18.8933C31.0729 18.9156 31.2202 18.968 31.2342 19.0098C31.2492 19.0549 31.4869 19.0858 31.819 19.0858C32.1925 19.0858 32.388 19.1145 32.4072 19.1721C32.4445 19.2842 33.7676 19.2753 33.8051 19.1627C33.8208 19.1156 34.0743 19.0858 34.4599 19.0858C34.9533 19.0858 35.098 19.0627 35.1303 18.9787C35.1574 18.908 35.2692 18.8716 35.4593 18.8716C35.6176 18.8716 35.7472 18.8394 35.7472 18.8002C35.7472 18.7609 35.8285 18.7287 35.928 18.7287C36.0275 18.7287 36.1273 18.6805 36.1499 18.6216C36.1725 18.5627 36.2679 18.5145 36.3619 18.5145H36.5328V17.1574C36.5328 15.9988 36.5172 15.8004 36.4257 15.8004C36.3668 15.8004 36.3186 15.8291 36.3186 15.8641C36.3186 15.8991 36.2382 15.948 36.14 15.9726C36.0418 15.9973 35.9615 16.049 35.9615 16.0875C35.9615 16.126 35.911 16.1575 35.8493 16.1575C35.7875 16.1575 35.6888 16.2057 35.6299 16.2647C35.5709 16.3236 35.4447 16.3718 35.3493 16.3718C35.2539 16.3718 35.1758 16.3997 35.1758 16.4338C35.1758 16.4679 35.0399 16.5141 34.8738 16.5364C34.7077 16.5586 34.5604 16.6111 34.5464 16.6528C34.5117 16.757 32.6259 16.757 32.5912 16.6528C32.5773 16.6111 32.4299 16.5586 32.2638 16.5364C32.0977 16.5141 31.9618 16.4679 31.9618 16.4338C31.9618 16.3997 31.8965 16.3718 31.8167 16.3718C31.7369 16.3718 31.6531 16.3236 31.6306 16.2647C31.6079 16.2057 31.5125 16.1575 31.4185 16.1575C31.3142 16.1575 31.2476 16.1157 31.2476 16.0504C31.2476 15.9915 31.1994 15.9433 31.1404 15.9433C31.0815 15.9433 31.0333 15.9086 31.0333 15.8663C31.0333 15.8241 30.9369 15.693 30.819 15.5752C30.7012 15.4573 30.6048 15.3152 30.6048 15.2593C30.6048 15.2033 30.5761 15.1576 30.5411 15.1576C30.5061 15.1576 30.4572 15.0773 30.4326 14.9791C30.4079 14.8809 30.3562 14.8005 30.3177 14.8005C30.2792 14.8005 30.2477 14.7041 30.2477 14.5862C30.2477 14.4434 30.212 14.372 30.1405 14.372C30.0632 14.372 30.0334 14.2926 30.0334 14.0863C30.0334 13.9292 30.0013 13.8006 29.962 13.8006C29.9179 13.8006 29.8906 13.4316 29.8906 12.8364C29.8906 12.2412 29.9179 11.8722 29.962 11.8722C30.0013 11.8722 30.0334 11.7298 30.0334 11.5559C30.0334 11.3699 30.0775 11.1955 30.1405 11.1325C30.1995 11.0735 30.2477 10.9427 30.2477 10.8416C30.2477 10.726 30.2874 10.658 30.3548 10.658C30.4214 10.658 30.4619 10.5906 30.4619 10.4794C30.4619 10.3812 30.4941 10.3009 30.5334 10.3009C30.5726 10.3009 30.6048 10.2527 30.6048 10.1938C30.6048 10.1348 30.6495 10.0866 30.7042 10.0866C30.7588 10.0866 30.8238 10.0063 30.8484 9.90807C30.8731 9.80986 30.9248 9.72951 30.9633 9.72951C31.0018 9.72951 31.0333 9.6813 31.0333 9.62238C31.0333 9.56346 31.0815 9.51525 31.1404 9.51525C31.1994 9.51525 31.2476 9.46704 31.2476 9.40811C31.2476 9.34148 31.315 9.30098 31.4261 9.30098C31.5373 9.30098 31.6047 9.26048 31.6047 9.19385C31.6047 9.13492 31.6529 9.08671 31.7118 9.08671C31.7708 9.08671 31.819 9.05493 31.819 9.01615C31.819 8.97729 31.9475 8.92501 32.1047 8.89987C32.2618 8.87473 32.3903 8.82959 32.3903 8.79945C32.3903 8.7546 33.2644 8.65932 33.6759 8.65932C34.0875 8.65932 34.9615 8.7546 34.9615 8.79945C34.9615 8.82959 35.0901 8.87473 35.2472 8.89987C35.4044 8.92501 35.5329 8.97729 35.5329 9.01615C35.5329 9.05493 35.6133 9.08671 35.7115 9.08671C35.8226 9.08671 35.89 9.12721 35.89 9.19385C35.89 9.26527 35.9615 9.30098 36.1043 9.30098C36.2472 9.30098 36.3186 9.33669 36.3186 9.40811C36.3186 9.46704 36.3668 9.51525 36.4257 9.51525C36.5173 9.51525 36.5328 9.31291 36.5328 8.12251C36.5328 6.93211 36.5173 6.72977 36.4257 6.72977C36.3668 6.72977 36.3186 6.70178 36.3186 6.66749C36.3186 6.63321 36.19 6.58464 36.0329 6.5595C35.8758 6.53436 35.7472 6.48208 35.7472 6.44323C35.7472 6.40359 35.531 6.37266 35.2532 6.37266C34.9215 6.37266 34.7494 6.34331 34.7294 6.28338C34.7075 6.2176 34.4002 6.19103 33.5629 6.18239C32.9377 6.17596 32.3457 6.18675 32.2475 6.20632ZM51.5137 6.2076C51.4449 6.2256 51.3887 6.2701 51.3887 6.30645C51.3887 6.34288 51.2146 6.37266 51.0018 6.37266C50.789 6.37266 50.6036 6.40687 50.5896 6.44873C50.5757 6.49051 50.4284 6.54293 50.2622 6.56522C50.0962 6.5875 49.9603 6.63364 49.9603 6.66778C49.9603 6.70185 49.895 6.72977 49.8152 6.72977C49.7353 6.72977 49.6516 6.77798 49.629 6.83691C49.6064 6.89583 49.5109 6.94404 49.4169 6.94404C49.3127 6.94404 49.246 6.98582 49.246 7.05117C49.246 7.11153 49.1822 7.15831 49.0998 7.15831C49.0193 7.15831 48.8791 7.23866 48.7881 7.33686C48.697 7.43507 48.5861 7.51542 48.5415 7.51542C48.4969 7.51542 48.4604 7.56363 48.4604 7.62255C48.4604 7.68148 48.4257 7.72969 48.3833 7.72969C48.341 7.72969 48.1642 7.87175 47.9905 8.04544C47.8168 8.21914 47.6747 8.39592 47.6747 8.43827C47.6747 8.48062 47.6265 8.51533 47.5676 8.51533C47.5087 8.51533 47.4605 8.56354 47.4605 8.62247C47.4605 8.68139 47.429 8.7296 47.3904 8.7296C47.3519 8.7296 47.3002 8.80995 47.2756 8.90816C47.2509 9.00636 47.2046 9.08671 47.1727 9.08671C47.1408 9.08671 47.0935 9.18313 47.0676 9.30098C47.0418 9.41883 46.991 9.51525 46.9549 9.51525C46.9187 9.51525 46.8891 9.59288 46.8891 9.68787C46.8891 9.78279 46.8562 9.87143 46.816 9.88486C46.7757 9.89821 46.7226 10.0375 46.6978 10.1943C46.673 10.3512 46.6258 10.4973 46.5927 10.5192C46.5597 10.541 46.5119 10.7579 46.4864 11.0013C46.461 11.2446 46.4126 11.4437 46.379 11.4437C46.3453 11.4437 46.3177 12.0543 46.3177 12.8007C46.3177 13.547 46.3452 14.1577 46.3788 14.1577C46.4124 14.1577 46.4601 14.3745 46.4849 14.6394C46.5096 14.9044 46.5625 15.132 46.6023 15.1453C46.6422 15.1586 46.6748 15.2495 46.6748 15.3472C46.6748 15.4449 46.723 15.5732 46.782 15.6321C46.8409 15.691 46.8891 15.8333 46.8891 15.9483C46.8891 16.0867 46.9254 16.1575 46.9962 16.1575C47.0551 16.1575 47.1034 16.2057 47.1034 16.2647C47.1034 16.3236 47.132 16.3718 47.1671 16.3718C47.2021 16.3718 47.2509 16.4521 47.2756 16.5504C47.3002 16.6486 47.3519 16.7289 47.3904 16.7289C47.429 16.7289 47.4605 16.7771 47.4605 16.836C47.4605 16.895 47.5087 16.9432 47.5676 16.9432C47.6342 16.9432 47.6747 17.0106 47.6747 17.1217C47.6747 17.2329 47.7152 17.3003 47.7819 17.3003C47.8408 17.3003 47.889 17.345 47.889 17.3997C47.889 17.4543 47.9694 17.5193 48.0676 17.5439C48.1658 17.5686 48.2461 17.6203 48.2461 17.6588C48.2461 17.6973 48.2943 17.7288 48.3532 17.7288C48.4122 17.7288 48.4604 17.7632 48.4604 17.8053C48.4604 17.9052 48.6425 18.0859 48.7432 18.0859C48.7866 18.0859 48.8405 18.1341 48.8631 18.1931C48.8857 18.252 48.9811 18.3002 49.0751 18.3002C49.1794 18.3002 49.246 18.342 49.246 18.4073C49.246 18.4727 49.3127 18.5145 49.4169 18.5145C49.5109 18.5145 49.6064 18.5627 49.629 18.6216C49.6516 18.6805 49.7514 18.7287 49.8509 18.7287C49.9503 18.7287 50.0317 18.7609 50.0317 18.8002C50.0317 18.8394 50.1258 18.8716 50.2409 18.8716C50.3559 18.8716 50.4982 18.9198 50.5571 18.9787C50.6347 19.0563 50.8235 19.0858 51.2408 19.0858C51.5775 19.0858 51.8172 19.1156 51.8172 19.1573C51.8172 19.2003 52.1148 19.2287 52.5672 19.2287C53.0195 19.2287 53.3171 19.2003 53.3171 19.1573C53.3171 19.1153 53.5671 19.0858 53.9242 19.0858C54.2765 19.0858 54.5313 19.0562 54.5313 19.0153C54.5313 18.9764 54.6599 18.9241 54.817 18.899C54.9741 18.8739 55.1027 18.8253 55.1027 18.791C55.1027 18.7567 55.1968 18.7287 55.3119 18.7287C55.4268 18.7287 55.5692 18.6805 55.6281 18.6216C55.687 18.5627 55.8028 18.5145 55.8855 18.5145C55.9681 18.5145 56.0542 18.4663 56.0767 18.4073C56.0994 18.3484 56.1627 18.3002 56.2174 18.3002C56.2721 18.3002 56.3168 18.2702 56.3168 18.2336C56.3168 18.1969 56.3892 18.1443 56.4776 18.1165C56.5659 18.0888 56.709 17.9902 56.7955 17.8974C56.882 17.8047 56.9865 17.7288 57.0276 17.7288C57.0689 17.7288 57.1025 17.6944 57.1025 17.6523C57.1025 17.5534 57.2842 17.3717 57.3831 17.3717C57.4252 17.3717 57.4596 17.3235 57.4596 17.2646C57.4596 17.2057 57.5078 17.1574 57.5667 17.1574C57.6257 17.1574 57.6739 17.1092 57.6739 17.0503C57.6739 16.9914 57.706 16.9432 57.7453 16.9432C57.7846 16.9432 57.8167 16.895 57.8167 16.836C57.8167 16.7771 57.8614 16.7289 57.9161 16.7289C57.9708 16.7289 58.0357 16.6486 58.0603 16.5504C58.085 16.4521 58.1367 16.3718 58.1752 16.3718C58.2138 16.3718 58.2453 16.3236 58.2453 16.2647C58.2453 16.2057 58.2748 16.1575 58.311 16.1575C58.3472 16.1575 58.3979 16.0611 58.4238 15.9433C58.4497 15.8254 58.4964 15.729 58.5275 15.729C58.5587 15.729 58.6046 15.6004 58.6298 15.4433C58.6549 15.2862 58.7072 15.1576 58.7461 15.1576C58.7848 15.1576 58.8166 14.9959 58.8166 14.7983C58.8166 14.5447 58.8482 14.4268 58.9238 14.3978C59.0152 14.3627 59.0309 14.0854 59.0309 12.5073C59.0309 10.9111 59.0163 10.658 58.9238 10.658C58.8426 10.658 58.8166 10.5702 58.8166 10.2958C58.8166 10.0691 58.7766 9.8935 58.7095 9.82643C58.6506 9.76751 58.6024 9.65731 58.6024 9.5816C58.6024 9.50582 58.5702 9.44382 58.5309 9.44382C58.4917 9.44382 58.4595 9.36347 58.4595 9.26527C58.4595 9.15413 58.419 9.08671 58.3524 9.08671C58.2857 9.08671 58.2453 9.01929 58.2453 8.90816C58.2453 8.79702 58.2048 8.7296 58.1381 8.7296C58.0792 8.7296 58.031 8.68139 58.031 8.62247C58.031 8.56354 58.001 8.51533 57.9643 8.51533C57.9277 8.51533 57.8758 8.44605 57.8489 8.36135C57.822 8.27664 57.7234 8.13637 57.6298 8.04959C57.5362 7.96288 57.4596 7.85539 57.4596 7.81075C57.4596 7.76618 57.425 7.72969 57.3827 7.72969C57.3404 7.72969 57.2093 7.63327 57.0915 7.51542C56.9736 7.39757 56.8315 7.30115 56.7756 7.30115C56.7197 7.30115 56.674 7.26901 56.674 7.22973C56.674 7.19045 56.6257 7.15831 56.5668 7.15831C56.5079 7.15831 56.4597 7.1101 56.4597 7.05117C56.4597 6.98582 56.3931 6.94404 56.2888 6.94404C56.1948 6.94404 56.0994 6.89583 56.0767 6.83691C56.0542 6.77798 55.9543 6.72977 55.8548 6.72977C55.7554 6.72977 55.674 6.70178 55.674 6.66749C55.674 6.63321 55.5455 6.58464 55.3884 6.5595C55.2312 6.53436 55.1027 6.48208 55.1027 6.44323C55.1027 6.40445 54.95 6.37216 54.7634 6.37159C54.5769 6.37102 54.2956 6.32417 54.1385 6.2676C53.9332 6.19368 53.541 6.16611 52.7457 6.16982C52.1368 6.17268 51.5825 6.18968 51.5137 6.2076ZM63.8973 6.26831C63.7651 6.32574 63.5516 6.37266 63.4228 6.37266C63.2806 6.37266 63.1725 6.41473 63.1475 6.47979C63.125 6.53872 63.0251 6.58693 62.9256 6.58693C62.8262 6.58693 62.7449 6.61557 62.7449 6.65064C62.7449 6.68563 62.6645 6.73449 62.5663 6.75913C62.4681 6.78377 62.3877 6.83548 62.3877 6.87398C62.3877 6.91254 62.3395 6.94404 62.2806 6.94404C62.2217 6.94404 62.1735 6.97718 62.1735 7.01768C62.1735 7.05825 62.1173 7.11281 62.0485 7.13909C61.9044 7.19409 61.8471 7.23937 61.4585 7.60463C61.3018 7.7519 61.1736 7.91717 61.1736 7.97195C61.1736 8.02673 61.1254 8.09001 61.0664 8.11265C61.0075 8.13522 60.9593 8.20293 60.9593 8.26314C60.9593 8.32328 60.9313 8.37249 60.897 8.37249C60.8627 8.37249 60.8142 8.50105 60.789 8.65818C60.7639 8.81531 60.7116 8.94387 60.6728 8.94387C60.6294 8.94387 60.6022 9.35712 60.6022 10.0152C60.6022 10.6044 60.6302 11.0865 60.6645 11.0865C60.6988 11.0865 60.7473 11.2151 60.7725 11.3722C60.7976 11.5294 60.8465 11.6579 60.8809 11.6579C60.9155 11.6579 60.964 11.7383 60.9887 11.8365C61.0133 11.9347 61.065 12.015 61.1035 12.015C61.1421 12.015 61.1736 12.046 61.1736 12.0837C61.1736 12.1961 61.7714 12.7767 61.9432 12.8313C62.0306 12.859 62.1021 12.9117 62.1021 12.9483C62.1021 12.9849 62.1663 13.0149 62.2449 13.0149C62.3235 13.0149 62.3877 13.0449 62.3877 13.0816C62.3877 13.1182 62.4586 13.1706 62.5451 13.1981C62.6317 13.2256 62.7464 13.292 62.8002 13.3458C62.8539 13.3995 62.9438 13.4435 62.9999 13.4435C63.056 13.4435 63.102 13.4756 63.102 13.5149C63.102 13.5542 63.1833 13.5863 63.2827 13.5863C63.3822 13.5863 63.4821 13.6345 63.5046 13.6935C63.5273 13.7524 63.604 13.8006 63.6752 13.8006C63.7996 13.8006 64.242 14.0035 64.3161 14.0945C64.3358 14.1187 64.4242 14.161 64.5126 14.1886C64.6009 14.2162 64.6733 14.2687 64.6733 14.3053C64.6733 14.342 64.7546 14.372 64.854 14.372C64.9535 14.372 65.0534 14.4202 65.0759 14.4791C65.0986 14.538 65.194 14.5862 65.288 14.5862C65.3923 14.5862 65.4589 14.628 65.4589 14.6934C65.4589 14.7523 65.5071 14.8005 65.566 14.8005C65.6367 14.8005 65.6732 14.8713 65.6732 15.0088C65.6732 15.1234 65.7101 15.2295 65.7552 15.2445C65.87 15.2827 65.8765 15.9588 65.7625 15.9968C65.7134 16.0132 65.6732 16.1042 65.6732 16.1992C65.6732 16.305 65.6318 16.3718 65.566 16.3718C65.5071 16.3718 65.4589 16.4033 65.4589 16.4419C65.4589 16.4804 65.3786 16.5321 65.2804 16.5567C65.1822 16.5813 65.1018 16.6302 65.1018 16.6652C65.1018 16.7003 64.9722 16.7289 64.8139 16.7289C64.6238 16.7289 64.512 16.7653 64.4849 16.836C64.43 16.9789 63.8478 16.9789 63.5058 16.836C63.3648 16.7771 63.0877 16.7289 62.89 16.7289C62.6923 16.7289 62.5306 16.6971 62.5306 16.6583C62.5306 16.6195 62.402 16.5672 62.2449 16.5421C62.0878 16.5169 61.9592 16.4684 61.9592 16.4341C61.9592 16.3998 61.8779 16.3718 61.7784 16.3718C61.6789 16.3718 61.5791 16.3236 61.5565 16.2647C61.5339 16.2057 61.4385 16.1575 61.3445 16.1575C61.2402 16.1575 61.1736 16.1157 61.1736 16.0504C61.1736 15.9838 61.1061 15.9433 60.995 15.9433C60.8968 15.9433 60.8165 15.9111 60.8165 15.8718C60.8165 15.8326 60.7522 15.8004 60.6736 15.8004C60.5361 15.8004 60.5308 15.8477 60.5318 17.0682C60.5323 17.7654 60.5521 18.4085 60.5759 18.4971C60.6082 18.6177 60.689 18.6695 60.8963 18.7027C61.0488 18.727 61.1736 18.775 61.1736 18.8093C61.1736 18.8436 61.3031 18.8716 61.4615 18.8716C61.6515 18.8716 61.7634 18.908 61.7905 18.9787C61.8242 19.0666 62.0039 19.0858 62.7882 19.0858C63.3783 19.0858 63.7448 19.1132 63.7448 19.1573C63.7448 19.1966 63.8733 19.2287 64.0305 19.2287C64.1876 19.2287 64.3162 19.1966 64.3162 19.1573C64.3162 19.1147 64.588 19.0858 64.9887 19.0858C65.4008 19.0858 65.6711 19.0564 65.6866 19.0098C65.7005 18.968 65.8479 18.9156 66.014 18.8933C66.1801 18.871 66.316 18.8249 66.316 18.7907C66.316 18.7567 66.3963 18.7287 66.4945 18.7287C66.6057 18.7287 66.6731 18.6882 66.6731 18.6216C66.6731 18.5562 66.7397 18.5145 66.844 18.5145C66.938 18.5145 67.0334 18.4663 67.0561 18.4073C67.0786 18.3484 67.1479 18.3002 67.2099 18.3002C67.272 18.3002 67.3972 18.2199 67.4882 18.1216C67.5792 18.0234 67.6901 17.9431 67.7348 17.9431C67.7794 17.9431 67.8158 17.8949 67.8158 17.836C67.8158 17.777 67.8641 17.7288 67.923 17.7288C67.9819 17.7288 68.0301 17.6806 68.0301 17.6217C68.0301 17.5628 68.0616 17.5146 68.1002 17.5146C68.1387 17.5146 68.1904 17.4342 68.215 17.336C68.2397 17.2378 68.2885 17.1574 68.3235 17.1574C68.3586 17.1574 68.3872 17.1092 68.3872 17.0503C68.3872 16.9914 68.4354 16.9432 68.4944 16.9432C68.5701 16.9432 68.6021 16.8648 68.6038 16.6753C68.605 16.5281 68.6532 16.3451 68.7109 16.2689C68.8631 16.0676 68.8613 14.4787 68.7086 14.326C68.6497 14.2671 68.6015 14.1248 68.6015 14.0098C68.6015 13.8714 68.5652 13.8006 68.4944 13.8006C68.434 13.8006 68.3872 13.7367 68.3872 13.6543C68.3872 13.5739 68.3069 13.4336 68.2087 13.3426C68.1105 13.2516 68.0301 13.1406 68.0301 13.096C68.0301 13.0514 67.9819 13.0149 67.923 13.0149C67.8641 13.0149 67.8158 12.9667 67.8158 12.9078C67.8158 12.8489 67.7794 12.8007 67.7348 12.8007C67.6901 12.8007 67.5792 12.7203 67.4882 12.6221C67.3972 12.5239 67.2569 12.4436 67.1765 12.4436C67.0941 12.4436 67.0302 12.3968 67.0302 12.3364C67.0302 12.2698 66.9628 12.2293 66.8516 12.2293C66.7405 12.2293 66.6731 12.1888 66.6731 12.1222C66.6731 12.0555 66.6057 12.015 66.4945 12.015C66.3963 12.015 66.316 11.9864 66.316 11.9513C66.316 11.9163 66.2279 11.8655 66.1203 11.8385C66.0126 11.8115 65.9082 11.7679 65.8881 11.7416C65.816 11.6468 65.3731 11.4437 65.2389 11.4437C65.1635 11.4437 65.1018 11.4141 65.1018 11.3779C65.1018 11.3417 65.0054 11.2909 64.8875 11.2651C64.7697 11.2392 64.6733 11.192 64.6733 11.16C64.6733 11.1281 64.5929 11.0818 64.4947 11.0572C64.3965 11.0325 64.3162 10.9808 64.3162 10.9423C64.3162 10.9038 64.2679 10.8723 64.209 10.8723C64.1501 10.8723 64.1019 10.8241 64.1019 10.7651C64.1019 10.7062 64.0675 10.658 64.0254 10.658C63.9255 10.658 63.7448 10.4759 63.7448 10.3752C63.7448 10.3318 63.6966 10.2779 63.6376 10.2553C63.5588 10.225 63.5305 10.1005 63.5305 9.78365C63.5305 9.41611 63.5567 9.32883 63.7091 9.18756C63.8073 9.09657 63.8876 8.98843 63.8876 8.9473C63.8876 8.90609 63.9358 8.87245 63.9948 8.87245C64.0537 8.87245 64.1019 8.84031 64.1019 8.80102C64.1019 8.76174 64.1832 8.7296 64.2827 8.7296C64.3822 8.7296 64.482 8.68139 64.5046 8.62247C64.5379 8.53562 64.7051 8.51533 65.3875 8.51533C66.0699 8.51533 66.2371 8.53562 66.2704 8.62247C66.2994 8.69803 66.4173 8.7296 66.6709 8.7296C66.8685 8.7296 67.0302 8.75917 67.0302 8.79538C67.0302 8.83152 67.1266 8.8823 67.2445 8.90816C67.3623 8.93401 67.4587 8.98479 67.4587 9.02093C67.4587 9.05714 67.5391 9.08671 67.6373 9.08671C67.7484 9.08671 67.8158 9.12721 67.8158 9.19385C67.8158 9.26555 67.8876 9.30098 68.0328 9.30098H68.2497L68.2007 8.06894C68.1738 7.39129 68.1244 6.82619 68.091 6.81312C68.0575 6.79998 68.0301 6.74784 68.0301 6.69721C68.0301 6.64507 67.9063 6.58536 67.7444 6.5595C67.5873 6.53436 67.4587 6.48208 67.4587 6.44323C67.4587 6.40445 67.3157 6.37266 67.1408 6.37266C66.966 6.37266 66.6378 6.32445 66.4116 6.26553C65.8568 6.12104 64.2324 6.12283 63.8973 6.26831ZM75.3688 6.2076C75.3 6.2256 75.2438 6.2701 75.2438 6.30645C75.2438 6.34288 75.0383 6.37266 74.7872 6.37266C74.4472 6.37266 74.3201 6.40002 74.2894 6.47979C74.2669 6.53872 74.167 6.58693 74.0675 6.58693C73.9681 6.58693 73.8868 6.61907 73.8868 6.65835C73.8868 6.69763 73.8054 6.72977 73.706 6.72977C73.6065 6.72977 73.5067 6.77798 73.4841 6.83691C73.4614 6.89583 73.366 6.94404 73.272 6.94404C73.178 6.94404 73.1011 6.97404 73.1011 7.01068C73.1011 7.04732 73.0318 7.09924 72.9471 7.12617C72.8624 7.15302 72.7259 7.24716 72.6436 7.33529C72.5613 7.42343 72.4217 7.51828 72.3333 7.54599C72.245 7.57377 72.1726 7.62641 72.1726 7.66305C72.1726 7.69969 72.1244 7.72969 72.0655 7.72969C72.0066 7.72969 71.9584 7.7779 71.9584 7.83682C71.9584 7.89574 71.9101 7.94395 71.8512 7.94395C71.7923 7.94395 71.7441 7.99216 71.7441 8.05109C71.7441 8.11001 71.7126 8.15822 71.674 8.15822C71.6355 8.15822 71.5838 8.23857 71.5592 8.33678C71.5345 8.43498 71.4696 8.51533 71.415 8.51533C71.3603 8.51533 71.3156 8.56354 71.3156 8.62247C71.3156 8.68139 71.2834 8.7296 71.2441 8.7296C71.2048 8.7296 71.1727 8.77781 71.1727 8.83673C71.1727 8.89566 71.1245 8.94387 71.0656 8.94387C71.0048 8.94387 70.9584 9.00793 70.9584 9.09178C70.9584 9.17321 70.9102 9.28798 70.8513 9.34691C70.7924 9.40583 70.7442 9.54817 70.7442 9.66316C70.7442 9.77823 70.7146 9.87236 70.6784 9.87236C70.6422 9.87236 70.5915 9.96878 70.5656 10.0866C70.5398 10.2045 70.489 10.3009 70.4528 10.3009C70.4166 10.3009 70.3871 10.4754 70.3871 10.6886C70.3871 10.9381 70.3489 11.1145 70.2799 11.1835C70.1914 11.272 70.1728 11.5564 70.1728 12.8253C70.1728 13.9002 70.1969 14.3681 70.2533 14.3869C70.2976 14.4017 70.3499 14.5811 70.3695 14.7856C70.3891 14.9903 70.4292 15.1576 70.4584 15.1576C70.4877 15.1576 70.5322 15.2862 70.5573 15.4433C70.5825 15.6004 70.6348 15.729 70.6736 15.729C70.7124 15.729 70.7442 15.8254 70.7442 15.9433C70.7442 16.0861 70.7799 16.1575 70.8513 16.1575C70.9117 16.1575 70.9584 16.2214 70.9584 16.3038C70.9584 16.3842 71.0343 16.5209 71.1271 16.6073C71.2198 16.6938 71.3184 16.8369 71.3461 16.9253C71.3739 17.0137 71.4265 17.086 71.4632 17.086C71.4998 17.086 71.5298 17.1342 71.5298 17.1932C71.5298 17.2521 71.578 17.3003 71.6369 17.3003C71.6959 17.3003 71.7441 17.3485 71.7441 17.4074C71.7441 17.4663 71.7923 17.5146 71.8512 17.5146C71.9101 17.5146 71.9584 17.5628 71.9584 17.6217C71.9584 17.6806 72.0066 17.7288 72.0655 17.7288C72.1244 17.7288 72.1726 17.7588 72.1726 17.7955C72.1726 17.8321 72.245 17.8847 72.3333 17.9125C72.4217 17.9402 72.5648 18.0388 72.6513 18.1316C72.7378 18.2244 72.8744 18.3002 72.9548 18.3002C73.0373 18.3002 73.1011 18.347 73.1011 18.4073C73.1011 18.4727 73.1677 18.5145 73.272 18.5145C73.366 18.5145 73.4614 18.5627 73.4841 18.6216C73.5067 18.6805 73.6065 18.7287 73.706 18.7287C73.8054 18.7287 73.8868 18.7609 73.8868 18.8002C73.8868 18.8394 73.9809 18.8716 74.0959 18.8716C74.2109 18.8716 74.3533 18.9198 74.4122 18.9787C74.4854 19.0519 74.666 19.0858 74.9827 19.0858C75.29 19.0858 75.4562 19.1159 75.4759 19.1751C75.4975 19.2398 75.7382 19.2644 76.3508 19.2644C76.9635 19.2644 77.2042 19.2398 77.2258 19.1751C77.2462 19.1138 77.4309 19.0858 77.815 19.0858C78.1471 19.0858 78.3848 19.0549 78.3998 19.0098C78.4137 18.968 78.5611 18.9156 78.7272 18.8933C78.8932 18.871 79.0292 18.8249 79.0292 18.7907C79.0292 18.7567 79.1072 18.7287 79.2027 18.7287C79.298 18.7287 79.4243 18.6805 79.4832 18.6216C79.5421 18.5627 79.673 18.5145 79.774 18.5145C79.8897 18.5145 79.9576 18.4748 79.9576 18.4073C79.9576 18.3484 80.0059 18.3002 80.0648 18.3002C80.1237 18.3002 80.1719 18.2702 80.1719 18.2336C80.1719 18.1969 80.2412 18.145 80.3259 18.1181C80.4106 18.0912 80.5509 17.9927 80.6377 17.899C80.7244 17.8054 80.8319 17.7288 80.8765 17.7288C80.9211 17.7288 80.9576 17.6942 80.9576 17.6519C80.9576 17.552 81.3521 17.1574 81.452 17.1574C81.4943 17.1574 81.529 17.1238 81.529 17.0826C81.529 17.0415 81.6093 16.9333 81.7075 16.8423C81.8057 16.7513 81.8861 16.6082 81.8861 16.5243C81.8861 16.4364 81.9314 16.3718 81.9932 16.3718C82.0602 16.3718 82.1003 16.3041 82.1003 16.191C82.1003 16.0915 82.1485 15.9917 82.2075 15.9691C82.2664 15.9465 82.3146 15.8511 82.3146 15.7571C82.3146 15.6631 82.3464 15.5861 82.3852 15.5861C82.424 15.5861 82.4763 15.4576 82.5014 15.3005C82.5266 15.1433 82.5714 15.0148 82.6012 15.0148C82.6309 15.0148 82.6774 14.838 82.7044 14.6219C82.7314 14.4059 82.7833 14.2291 82.8197 14.2291C82.9207 14.2291 82.9066 10.8911 82.8055 10.8573C82.7612 10.8426 82.7089 10.6631 82.6893 10.4586C82.6696 10.254 82.6255 10.0866 82.5912 10.0866C82.5569 10.0866 82.5289 9.99249 82.5289 9.87743C82.5289 9.76244 82.4807 9.6201 82.4217 9.56117C82.3628 9.50225 82.3146 9.3714 82.3146 9.27034C82.3146 9.15471 82.2749 9.08671 82.2075 9.08671C82.1408 9.08671 82.1003 9.01929 82.1003 8.90816C82.1003 8.79702 82.0598 8.7296 81.9932 8.7296C81.9343 8.7296 81.8861 8.68139 81.8861 8.62247C81.8861 8.56354 81.8539 8.51533 81.8146 8.51533C81.7754 8.51533 81.7432 8.46712 81.7432 8.4082C81.7432 8.34928 81.695 8.30107 81.6361 8.30107C81.5695 8.30107 81.529 8.23364 81.529 8.12251C81.529 8.01138 81.4885 7.94395 81.4218 7.94395C81.3629 7.94395 81.3147 7.89574 81.3147 7.83682C81.3147 7.7779 81.2665 7.72969 81.2076 7.72969C81.1486 7.72969 81.1004 7.69819 81.1004 7.65962C81.1004 7.62113 81.0201 7.56942 80.9219 7.54478C80.8236 7.52013 80.7433 7.45521 80.7433 7.40057C80.7433 7.34586 80.6951 7.30115 80.6362 7.30115C80.5772 7.30115 80.529 7.26901 80.529 7.22973C80.529 7.19045 80.4808 7.15831 80.4219 7.15831C80.363 7.15831 80.3148 7.1101 80.3148 7.05117C80.3148 6.99039 80.2507 6.94404 80.1669 6.94404C80.0854 6.94404 79.9707 6.89583 79.9117 6.83691C79.8528 6.77798 79.7426 6.72977 79.6669 6.72977C79.5911 6.72977 79.5291 6.70178 79.5291 6.66749C79.5291 6.63321 79.4006 6.58464 79.2434 6.5595C79.0863 6.53436 78.9577 6.48208 78.9577 6.44323C78.9577 6.40445 78.801 6.37266 78.6093 6.37266C78.4177 6.37266 78.1456 6.32445 78.0045 6.26553C77.81 6.18425 77.4764 6.16039 76.6209 6.16668C76.001 6.17125 75.4375 6.18968 75.3688 6.2076ZM44.5322 6.29488C44.5322 6.34152 44.3749 6.37266 44.1393 6.37266C43.9233 6.37266 43.7465 6.40223 43.7465 6.43844C43.7465 6.47458 43.6501 6.52536 43.5322 6.55122C43.4144 6.57707 43.318 6.62728 43.318 6.66264C43.318 6.69806 43.2376 6.7472 43.1394 6.77184C43.0412 6.79648 42.9609 6.84534 42.9609 6.88033C42.9609 6.9154 42.9126 6.94404 42.8537 6.94404C42.7948 6.94404 42.7466 6.98054 42.7466 7.02511C42.7466 7.06974 42.6662 7.18066 42.568 7.27173C42.4698 7.36272 42.3895 7.47085 42.3895 7.51199C42.3895 7.5532 42.3595 7.58684 42.3228 7.58684C42.2862 7.58684 42.2338 7.65769 42.2063 7.74419C42.1789 7.83075 42.1124 7.94553 42.0587 7.99931C42.0049 8.05302 41.9609 8.14294 41.9609 8.199C41.9609 8.25514 41.9288 8.30107 41.8895 8.30107C41.8455 8.30107 41.8181 7.93203 41.8181 7.33686V6.37266H40.3623H38.9065L38.8579 9.10457C38.8311 10.6072 38.8193 13.4274 38.8316 15.3719L38.8541 18.9073L40.104 18.9283C40.7914 18.9399 41.4583 18.9304 41.586 18.9072L41.8181 18.8651V14.9758C41.8181 12.6544 41.8446 11.0865 41.8839 11.0865C41.92 11.0865 41.9708 10.9901 41.9967 10.8723C42.0225 10.7544 42.0733 10.658 42.1094 10.658C42.1456 10.658 42.1752 10.5777 42.1752 10.4794C42.1752 10.3683 42.2157 10.3009 42.2823 10.3009C42.3427 10.3009 42.3895 10.237 42.3895 10.1546C42.3895 10.0742 42.4698 9.93393 42.568 9.84293C42.6662 9.75187 42.7466 9.64095 42.7466 9.59631C42.7466 9.55174 42.7948 9.51525 42.8537 9.51525C42.9126 9.51525 42.9609 9.46704 42.9609 9.40811C42.9609 9.34276 43.0275 9.30098 43.1318 9.30098C43.2258 9.30098 43.3212 9.25277 43.3438 9.19385C43.3664 9.13492 43.4662 9.08671 43.5657 9.08671C43.6652 9.08671 43.7465 9.05457 43.7465 9.01529C43.7465 8.97272 44.0203 8.94387 44.425 8.94387C44.8298 8.94387 45.1035 8.97272 45.1035 9.01529C45.1035 9.05457 45.2331 9.08671 45.3914 9.08671C45.5815 9.08671 45.6933 9.12314 45.7205 9.19385C45.7431 9.25277 45.8385 9.30098 45.9325 9.30098H46.1034V7.84375V6.38645L45.7285 6.34181C44.7743 6.22817 44.5322 6.21868 44.5322 6.29488ZM21.8373 12.64L21.8555 18.9073H23.3197H24.7839L24.7828 17.8181C24.7822 17.2191 24.7741 14.3988 24.7649 11.5508L24.7482 6.37266H23.2836H21.819L21.8373 12.64ZM53.4778 8.70546C53.743 8.7276 53.9599 8.77424 53.9599 8.80909C53.9599 8.84395 54.0403 8.87245 54.1385 8.87245C54.2496 8.87245 54.317 8.91294 54.317 8.97958C54.317 9.04622 54.3844 9.08671 54.4956 9.08671C54.6067 9.08671 54.6741 9.12721 54.6741 9.19385C54.6741 9.25277 54.7223 9.30098 54.7813 9.30098C54.8402 9.30098 54.8884 9.34919 54.8884 9.40811C54.8884 9.46704 54.9366 9.51525 54.9955 9.51525C55.0545 9.51525 55.1027 9.56346 55.1027 9.62238C55.1027 9.6813 55.1509 9.72951 55.2098 9.72951C55.2687 9.72951 55.3169 9.77772 55.3169 9.83665C55.3169 9.89557 55.3484 9.94378 55.387 9.94378C55.4255 9.94378 55.4772 10.0241 55.5018 10.1223C55.5265 10.2205 55.5753 10.3009 55.6103 10.3009C55.6454 10.3009 55.674 10.3822 55.674 10.4817C55.674 10.5812 55.7223 10.681 55.7812 10.7036C55.8727 10.7387 55.8883 11.024 55.8883 12.6655C55.8883 13.8831 55.8625 14.5862 55.8177 14.5862C55.7789 14.5862 55.7266 14.7148 55.7015 14.8719C55.6763 15.0291 55.6313 15.1576 55.6013 15.1576C55.5713 15.1576 55.5265 15.238 55.5018 15.3362C55.4772 15.4344 55.4255 15.5147 55.387 15.5147C55.3484 15.5147 55.3169 15.5629 55.3169 15.6219C55.3169 15.6808 55.2687 15.729 55.2098 15.729C55.1509 15.729 55.1027 15.7772 55.1027 15.8361C55.1027 15.8951 55.0545 15.9433 54.9955 15.9433C54.9366 15.9433 54.8884 15.9915 54.8884 16.0504C54.8884 16.1093 54.8402 16.1575 54.7813 16.1575C54.7223 16.1575 54.6741 16.189 54.6741 16.2276C54.6741 16.2661 54.5938 16.3178 54.4956 16.3424C54.3974 16.3671 54.317 16.4124 54.317 16.4432C54.317 16.474 54.2367 16.5194 54.1385 16.544C54.0403 16.5686 53.9599 16.6203 53.9599 16.6588C53.9599 16.7016 53.5289 16.7289 52.8529 16.7289C52.1713 16.7289 51.7458 16.7018 51.7458 16.6583C51.7458 16.6195 51.6173 16.5672 51.4601 16.5421C51.303 16.5169 51.1744 16.4719 51.1744 16.4419C51.1744 16.4119 51.0941 16.3671 50.9959 16.3424C50.8977 16.3178 50.8173 16.2661 50.8173 16.2276C50.8173 16.189 50.7691 16.1575 50.7102 16.1575C50.6513 16.1575 50.6031 16.1093 50.6031 16.0504C50.6031 15.9915 50.5684 15.9433 50.5261 15.9433C50.4121 15.9433 50.0585 15.5688 50.0007 15.387C49.9732 15.3001 49.9207 15.229 49.884 15.229C49.8474 15.229 49.8174 15.136 49.8174 15.0224C49.8174 14.9046 49.7713 14.7981 49.7103 14.7746C49.6437 14.7492 49.6031 14.6403 49.6031 14.4873C49.6031 14.3518 49.563 14.2276 49.5139 14.2113C49.4464 14.1888 49.4246 13.8276 49.4246 12.7293C49.4246 11.6309 49.4464 11.2697 49.5139 11.2472C49.565 11.2302 49.6031 11.098 49.6031 10.9378C49.6031 10.7367 49.6333 10.658 49.7103 10.658C49.7817 10.658 49.8174 10.5866 49.8174 10.4437C49.8174 10.3259 49.8474 10.2295 49.884 10.2295C49.9207 10.2295 49.9732 10.1583 50.0008 10.0713C50.0582 9.89057 50.6241 9.30098 50.7403 9.30098C50.7826 9.30098 50.8173 9.25277 50.8173 9.19385C50.8173 9.13492 50.8655 9.08671 50.9245 9.08671C50.9834 9.08671 51.0316 9.05807 51.0316 9.023C51.0316 8.98801 51.1119 8.93915 51.2101 8.91451C51.3084 8.88987 51.3887 8.83816 51.3887 8.79966C51.3887 8.7611 51.5896 8.72731 51.8351 8.7246C52.0806 8.72182 52.3458 8.69067 52.4243 8.65539C52.5029 8.62004 52.6636 8.60782 52.7814 8.62818C52.8993 8.64853 53.2126 8.68332 53.4778 8.70546ZM77.9578 8.79538C77.9578 8.83152 78.0543 8.8823 78.1721 8.90816C78.2899 8.93401 78.3864 8.98479 78.3864 9.02093C78.3864 9.05714 78.4346 9.08671 78.4935 9.08671C78.5524 9.08671 78.6006 9.13492 78.6006 9.19385C78.6006 9.25277 78.6488 9.30098 78.7078 9.30098C78.7667 9.30098 78.8149 9.33748 78.8149 9.38205C78.8149 9.42668 78.8915 9.53417 78.9851 9.62088C79.0787 9.70766 79.1773 9.84793 79.2042 9.93264C79.2311 10.0173 79.283 10.0866 79.3196 10.0866C79.3563 10.0866 79.3863 10.1348 79.3863 10.1938C79.3863 10.2527 79.417 10.3009 79.4545 10.3009C79.492 10.3009 79.5448 10.4215 79.5719 10.5687C79.599 10.7161 79.6522 10.8567 79.6901 10.8813C79.7826 10.9414 79.7765 14.3788 79.6837 14.4362C79.6457 14.4598 79.5917 14.6317 79.5637 14.8184C79.5358 15.005 79.4844 15.1576 79.4496 15.1576C79.4148 15.1576 79.3863 15.2058 79.3863 15.2647C79.3863 15.3237 79.3381 15.3719 79.2792 15.3719C79.2202 15.3719 79.172 15.4351 79.172 15.5124C79.172 15.6713 78.7185 16.1575 78.5702 16.1575C78.5168 16.1575 78.4546 16.2057 78.4319 16.2647C78.4094 16.3236 78.3417 16.3718 78.2814 16.3718C78.2213 16.3718 78.1721 16.3998 78.1721 16.4341C78.1721 16.4684 78.0435 16.5169 77.8864 16.5421C77.7293 16.5672 77.6007 16.6195 77.6007 16.6583C77.6007 16.7015 77.2118 16.7289 76.6008 16.7289C76.0461 16.7289 75.6009 16.6999 75.6009 16.6638C75.6009 16.6279 75.4723 16.5769 75.3152 16.5504C75.1581 16.5238 75.0295 16.4728 75.0295 16.4369C75.0295 16.4011 74.9492 16.3718 74.851 16.3718C74.7398 16.3718 74.6724 16.3313 74.6724 16.2647C74.6724 16.2057 74.6378 16.1575 74.5955 16.1575C74.4956 16.1575 74.101 15.763 74.101 15.6631C74.101 15.6208 74.0528 15.5861 73.9939 15.5861C73.935 15.5861 73.8868 15.5379 73.8868 15.479C73.8868 15.4201 73.8572 15.3719 73.821 15.3719C73.7848 15.3719 73.7341 15.2755 73.7082 15.1576C73.6824 15.0398 73.6356 14.9433 73.6045 14.9433C73.5734 14.9433 73.5274 14.8148 73.5022 14.6577C73.4771 14.5005 73.4248 14.372 73.3859 14.372C73.285 14.372 73.2905 11.1068 73.3914 11.0731C73.4332 11.0592 73.4856 10.9118 73.5079 10.7457C73.5302 10.5797 73.5763 10.4437 73.6105 10.4437C73.6446 10.4437 73.6725 10.3634 73.6725 10.2652C73.6725 10.154 73.713 10.0866 73.7796 10.0866C73.8463 10.0866 73.8868 10.0192 73.8868 9.90807C73.8868 9.79694 73.9273 9.72951 73.9939 9.72951C74.0528 9.72951 74.101 9.6813 74.101 9.62238C74.101 9.56346 74.1492 9.51525 74.2082 9.51525C74.2671 9.51525 74.3153 9.46704 74.3153 9.40811C74.3153 9.34148 74.3827 9.30098 74.4938 9.30098C74.605 9.30098 74.6724 9.26048 74.6724 9.19385C74.6724 9.13492 74.7206 9.08671 74.7795 9.08671C74.8385 9.08671 74.8867 9.05807 74.8867 9.023C74.8867 8.98801 74.967 8.93915 75.0652 8.91451C75.1634 8.88987 75.2438 8.83816 75.2438 8.79966C75.2438 8.75631 75.7613 8.7296 76.6008 8.7296C77.3798 8.7296 77.9578 8.7576 77.9578 8.79538Z" fill="black"/>
</svg>
