<svg width="150" height="49" viewBox="0 0 150 49" fill="none" xmlns="http://www.w3.org/2000/svg">
<path d="M47.6496 25.6818C47.6862 25.6818 36.1488 19.0499 36.1151 18.8548C35.8541 17.4454 35.5253 15.1177 33.9338 13.9136C32.5641 12.8863 23.3176 8.64713 23.2993 8.60291C21.5967 6.0377 20.0881 3.34983 18.7855 0.561523C17.5487 1.4895 16.5427 2.68882 15.8455 4.06659C15.1483 5.44437 14.7786 6.96361 14.765 8.50669C10.2228 9.15559 5.95964 11.0796 2.47372 14.054C11.5141 11.989 14.118 13.8928 14.118 13.8928C11.1582 14.4183 8.30614 15.4289 5.67764 16.8836C1.82406 18.9954 0.0864258 21.5311 0.0864258 21.5311C0.0864258 21.5311 8.83722 19.0369 15.553 21.4634C12.4212 21.9038 9.51011 23.3224 7.23787 25.5153C21.1572 27.2344 28.0217 39.2756 30.91 49.005C31.9719 31.6999 23.3279 25.1278 23.3279 25.1278C25.8379 25.3073 28.9948 27.2525 31.0142 30.1472C37.1717 29.4554 40.6 31.3358 40.5713 31.3358C40.5035 31.3358 43.9005 30.2954 46.2956 29.1953C46.0895 28.8859 45.2233 27.8117 44.7302 27.211C44.7979 27.2163 46.6921 27.1044 47.6496 25.6818ZM28.4235 18.0227C28.5592 17.9889 31.5753 17.1437 32.4363 17.4688C33.2189 17.7627 33.2345 19.9836 33.2345 19.9836C33.2345 19.9836 31.4473 20.2333 28.4235 18.0227Z" fill="black"/>
<path d="M63.3373 19.2539C60.3525 19.2539 57.3364 21.3346 57.3364 25.285C57.3364 29.2355 60.3472 31.2926 63.3217 31.2926C66.2959 31.2926 69.3069 29.2303 69.3069 25.285C69.3069 21.3397 66.3012 19.2539 63.3373 19.2539ZM63.3164 28.9442C61.6727 28.9442 60.0081 27.6959 60.0081 25.3032C60.0081 22.8716 61.6832 21.5998 63.3373 21.5998C65.2732 21.5998 66.6248 23.1055 66.6248 25.2617C66.6248 27.6803 64.9601 28.9442 63.3164 28.9442Z" fill="black"/>
<path d="M127.999 19.2539C125.015 19.2539 121.999 21.3346 121.999 25.285C121.999 29.2355 125.009 31.2926 127.984 31.2926C130.958 31.2926 133.966 29.2303 133.966 25.285C133.966 21.3397 130.963 19.2539 127.999 19.2539ZM127.979 28.9442C126.332 28.9442 124.67 27.6959 124.67 25.3032C124.67 22.8716 126.345 21.5998 127.999 21.5998C129.933 21.5998 131.284 23.1055 131.284 25.2617C131.284 27.6803 129.622 28.9442 127.979 28.9442Z" fill="black"/>
<path d="M76.1779 31.2509H75.5308L75.4865 31.1626L69.7388 19.5557H72.7366L75.8857 26.6399L79.0375 19.5557H81.9675L76.1779 31.2509Z" fill="black"/>
<path d="M88.2595 31.2926C84.6878 31.2926 82.3813 28.926 82.3813 25.2641C82.3813 21.7819 84.8077 19.2539 88.15 19.2539C91.4922 19.2539 93.6003 21.5946 93.6003 25.2356C93.6003 25.3292 93.6003 25.4307 93.6003 25.5347C93.6003 25.6386 93.6003 25.7454 93.6003 25.8546V26.0133H85.0791C85.34 27.9274 86.488 28.9363 88.4318 28.9363C89.0168 28.9453 89.5974 28.8325 90.1364 28.6056C90.6754 28.3785 91.1611 28.0422 91.5627 27.6178L91.6852 27.4956L93.128 29.2303L93.0341 29.3344C91.8183 30.6737 90.2972 31.2926 88.2595 31.2926ZM85.1287 24.0782H90.8973C90.6572 22.4346 89.6528 21.4957 88.1238 21.4957C86.595 21.4957 85.4783 22.5022 85.1287 24.0782Z" fill="black"/>
<path d="M116.701 31.2515H116.035L113.123 24.2323L110.212 31.2515H109.523L104.834 19.5561H107.689L110.05 26.0606L112.8 19.4912H113.486L116.299 26.0606L118.597 19.5561H121.433L116.701 31.2515Z" fill="black"/>
<path d="M102.723 19.5745H102.611C101.806 19.5509 101.008 19.7358 100.296 20.1108C99.5844 20.4861 98.9821 21.0386 98.5482 21.7148L98.4935 19.5537H95.9731V31.015H98.5821V25.5796C98.5821 24.4586 99.164 23.5536 100.221 22.9346C101.199 22.3624 102.553 22.0998 103.448 22.3208C103.242 21.4963 102.723 19.5745 102.723 19.5745Z" fill="black"/>
<path d="M145.251 31.0141H142.642V21.8361H140.325L140.922 19.5528H142.642V18.9234C142.642 16.2447 144.181 14.6452 146.764 14.6452C147.815 14.6276 148.845 14.9436 149.704 15.5476L149.824 15.6335L148.666 17.5944L148.52 17.4748C148.08 17.094 147.514 16.8875 146.931 16.8948C145.864 16.8948 145.251 17.597 145.251 18.8246V19.5605H149.019V21.844H145.251V31.0141Z" fill="black"/>
<path d="M138.633 31.0134H136.024V14.9229H138.633V31.0134Z" fill="black"/>
</svg>
