<svg width="51" height="51" viewBox="0 0 51 51" fill="none" xmlns="http://www.w3.org/2000/svg">
<g clip-path="url(#clip0_707_18953)">
<path d="M25.0542 2.50542C37.4874 2.50542 47.603 12.6211 47.603 25.0542C47.603 37.4874 37.4874 47.603 25.0542 47.603C12.6211 47.603 2.50542 37.4874 2.50542 25.0542C2.50542 12.6211 12.6211 2.50542 25.0542 2.50542ZM25.0542 0C11.218 0 0 11.2168 0 25.0542C0 38.8929 11.218 50.1085 25.0542 50.1085C38.8929 50.1085 50.1085 38.8929 50.1085 25.0542C50.1085 11.2168 38.8929 0 25.0542 0Z" fill="black"/>
<path fill-rule="evenodd" clip-rule="evenodd" d="M18.0014 12.2677C19.5134 11.9821 20.5043 13.687 21.2584 14.8633C21.9925 16.0058 22.8957 17.3462 22.5312 18.8332C22.3283 19.6675 21.5741 20.1222 21.0041 20.6145C20.4417 21.1006 19.5848 21.5465 19.3769 22.2931C19.0374 23.5045 19.7802 24.776 20.24 25.5001C21.2847 27.1361 22.5475 28.6106 24.1597 29.9272C24.9402 30.5661 26.0238 31.4192 27.1099 31.1999C28.7321 30.8717 29.1605 28.8711 30.9269 28.6043C32.608 28.35 33.7455 29.5689 34.695 30.3857C35.6095 31.1761 37.0852 32.1883 36.985 33.5425C36.9261 34.3204 36.3023 34.8027 35.7611 35.2725C35.2111 35.7523 34.7288 36.291 34.1852 36.6455C32.8686 37.5048 31.2538 37.9257 29.3998 37.8681C27.5821 37.8117 26.134 37.1942 24.8199 36.4939C22.2506 35.1234 20.2199 33.1955 18.3071 31.0471C16.4255 28.935 14.688 26.4346 13.7271 23.6699C12.5283 20.2174 13.1622 16.671 15.1026 14.4587C15.4308 14.0829 15.9494 13.6908 16.4242 13.2874C16.8978 12.8828 17.3362 12.393 18.0014 12.2677Z" fill="black"/>
</g>
<defs>
<clipPath id="clip0_707_18953">
<rect width="50.1085" height="50.1085" fill="white"/>
</clipPath>
</defs>
</svg>
