<svg width="141" height="45" viewBox="0 0 141 45" fill="none" xmlns="http://www.w3.org/2000/svg">
<path d="M15.8891 37.395C16.5064 37.395 17.0208 37.3744 17.4324 37.3332C17.8439 37.2509 18.2554 37.1686 18.667 37.0863V44C18.132 44.0823 17.6793 44.144 17.3089 44.1852C16.9797 44.2675 16.4241 44.3086 15.6422 44.3086C13.2554 44.3086 11.1154 43.8971 9.22238 43.0741C7.32936 42.251 5.70382 41.1399 4.34578 39.7407C3.02889 38.3003 2.00007 36.6336 1.25932 34.7406C0.559718 32.8064 0.209919 30.7488 0.209919 28.5677V5.72789H7.61742V14.1848H17.1855V21.0985H7.61742V28.5677C7.61742 31.1603 8.27587 33.2797 9.59276 34.9258C10.9508 36.5719 13.0496 37.395 15.8891 37.395ZM27.8718 44H20.4643V28.6294C20.4643 26.4483 20.8141 24.3907 21.5137 22.4565C22.2133 20.5223 23.2421 18.8556 24.6002 17.4564C25.9582 16.0161 27.6249 14.8844 29.6003 14.0613C31.5756 13.2383 33.839 12.8267 36.3905 12.8267C36.8432 12.8267 37.2958 12.8679 37.7485 12.9502C38.2012 12.9914 38.6539 13.0531 39.1066 13.1354V20.296C38.695 20.2137 38.3041 20.1519 37.9337 20.1108C37.5633 20.0285 37.1724 19.9873 36.7608 19.9873C35.0736 19.9873 33.6538 20.2137 32.5015 20.6664C31.3904 21.119 30.485 21.7363 29.7854 22.5182C29.0858 23.259 28.592 24.1643 28.3039 25.2343C28.0159 26.2631 27.8718 27.3743 27.8718 28.5677V44ZM47.8133 44H40.4058V13.1354H47.8133V44ZM39.3564 4.86368C39.3564 3.54679 39.7679 2.43566 40.591 1.5303C41.4552 0.62494 42.628 0.172259 44.1095 0.172259C45.591 0.172259 46.7433 0.645516 47.5664 1.59203C48.3894 2.49739 48.8009 3.58794 48.8009 4.86368C48.8009 6.18057 48.3894 7.31227 47.5664 8.25878C46.7433 9.16415 45.591 9.61683 44.1095 9.61683C42.628 9.61683 41.4552 9.16415 40.591 8.25878C39.7679 7.31227 39.3564 6.18057 39.3564 4.86368ZM57.7661 28.5677C57.7661 29.8023 57.9102 30.9546 58.1982 32.0245C58.5275 33.0945 59.0213 34.041 59.6797 34.8641C60.3793 35.646 61.2436 36.2633 62.2724 36.716C63.3423 37.1686 64.6181 37.395 66.0996 37.395C67.5811 37.395 68.8362 37.1686 69.8651 36.716C70.935 36.2633 71.7992 35.646 72.4577 34.8641C73.1573 34.041 73.6511 33.0945 73.9392 32.0245C74.2684 30.9546 74.433 29.8023 74.433 28.5677C74.433 27.3331 74.2684 26.1808 73.9392 25.1109C73.6511 24.0409 73.1573 23.1149 72.4577 22.333C71.7992 21.51 70.935 20.8721 69.8651 20.4194C68.8362 19.9668 67.5811 19.7404 66.0996 19.7404C64.6181 19.7404 63.3423 19.9668 62.2724 20.4194C61.2436 20.8721 60.3793 21.51 59.6797 22.333C59.0213 23.1149 58.5275 24.0409 58.1982 25.1109C57.9102 26.1808 57.7661 27.3331 57.7661 28.5677ZM50.3586 28.5677C50.3586 26.3866 50.7084 24.3495 51.408 22.4565C52.1076 20.5223 53.1364 18.8556 54.4945 17.4564C55.8525 16.0161 57.4986 14.8844 59.4328 14.0613C61.4082 13.2383 63.6304 12.8267 66.0996 12.8267C68.5687 12.8267 70.7704 13.2383 72.7046 14.0613C74.6799 14.8844 76.3466 16.0161 77.7047 17.4564C79.0627 18.8556 80.0915 20.5223 80.7911 22.4565C81.4907 24.3495 81.8405 26.3866 81.8405 28.5677C81.8405 30.7488 81.4907 32.8064 80.7911 34.7406C80.0915 36.6336 79.0627 38.3003 77.7047 39.7407C76.3466 41.1399 74.6799 42.251 72.7046 43.0741C70.7704 43.8971 68.5687 44.3086 66.0996 44.3086C63.6304 44.3086 61.4082 43.8971 59.4328 43.0741C57.4986 42.251 55.8525 41.1399 54.4945 39.7407C53.1364 38.3003 52.1076 36.6336 51.408 34.7406C50.7084 32.8064 50.3586 30.7488 50.3586 28.5677ZM91.7953 44H84.3878V0.78955H91.7953V44ZM103.538 44H96.1308V0.78955H103.538V44ZM106.084 28.506C106.084 26.366 106.434 24.3495 107.133 22.4565C107.833 20.5223 108.862 18.8556 110.22 17.4564C111.578 16.0161 113.244 14.8844 115.22 14.0613C117.195 13.2383 119.438 12.8267 121.948 12.8267C124.294 12.8267 126.413 13.1971 128.306 13.9379C130.199 14.6786 131.804 15.728 133.121 17.0861C134.479 18.4441 135.529 20.1108 136.269 22.0861C137.051 24.0203 137.483 26.1808 137.566 28.5677C137.607 29.3496 137.627 30.3167 137.627 31.469C137.627 32.5801 137.689 33.8147 137.813 35.1727C137.936 36.5308 138.162 37.9711 138.492 39.4938C138.821 40.9753 139.335 42.4773 140.035 44H132.627C131.928 42.4773 131.413 40.893 131.084 39.2469C130.014 40.8107 128.656 42.0452 127.01 42.9506C125.364 43.856 123.388 44.3086 121.084 44.3086C118.903 44.3086 116.886 43.8971 115.034 43.0741C113.183 42.251 111.598 41.1399 110.281 39.7407C108.964 38.3003 107.936 36.6336 107.195 34.7406C106.454 32.8064 106.084 30.7282 106.084 28.506ZM121.948 19.7404C120.425 19.7404 119.129 19.9668 118.059 20.4194C116.989 20.8721 116.104 21.51 115.405 22.333C114.746 23.1149 114.253 24.0409 113.923 25.1109C113.635 26.1808 113.491 27.3331 113.491 28.5677C113.491 29.8023 113.635 30.9546 113.923 32.0245C114.253 33.0945 114.746 34.041 115.405 34.8641C116.104 35.646 116.989 36.2633 118.059 36.716C119.129 37.1686 120.425 37.395 121.948 37.395C124.5 37.395 126.496 36.6954 127.936 35.2962C129.417 33.8558 130.158 31.613 130.158 28.5677C130.035 25.8516 129.335 23.7117 128.059 22.1479C126.784 20.5429 124.747 19.7404 121.948 19.7404Z" fill="black"/>
</svg>
