<svg width="29" height="25" viewBox="0 0 29 25" fill="none" xmlns="http://www.w3.org/2000/svg">
<path d="M10.3571 20.7143C9.21312 20.7143 8.28572 21.6417 8.28572 22.7857C8.28572 23.848 9.08533 24.7236 10.1155 24.8432L10.3571 24.8571H26.9286C28.0726 24.8571 29 23.9297 29 22.7857C29 21.7234 28.2004 20.8478 27.1702 20.7282L26.9286 20.7143H10.3571ZM2.07143 10.3571C0.92741 10.3571 0 11.2846 0 12.4286C0 13.4909 0.79962 14.3664 1.82982 14.4861L2.07143 14.5H26.9286C28.0726 14.5 29 13.5726 29 12.4286C29 11.3663 28.2004 10.4907 27.1702 10.371L26.9286 10.3571H2.07143ZM2.07143 0C0.92741 0 0 0.92741 0 2.07143C0 3.13373 0.79962 4.00929 1.82982 4.12895L2.07143 4.14286H26.9286C28.0726 4.14286 29 3.21545 29 2.07143C29 1.00913 28.2004 0.133563 27.1702 0.0139073L26.9286 0H2.07143Z" fill="black"/>
</svg>
