<svg width="50" height="50" viewBox="0 0 50 50" fill="none" xmlns="http://www.w3.org/2000/svg">
<g clip-path="url(#clip0_707_18946)">
<path d="M25.4088 49.1906C11.8278 49.1906 0.814453 38.1773 0.814453 24.5962C0.814453 11.0152 11.8278 0.00189209 25.4088 0.00189209C38.9898 0.00189209 50.0032 11.0152 50.0032 24.5962C50.0032 38.1773 38.9898 49.1906 25.4088 49.1906Z" fill="#25D366"/>
<path fill-rule="evenodd" clip-rule="evenodd" d="M36.9181 13.1543C33.8684 10.0997 29.8055 8.41746 25.4818 8.41254C16.5737 8.41254 9.31836 15.663 9.31836 24.5759C9.31836 27.424 10.0611 30.2081 11.4777 32.6577L9.18555 41.0345L17.7542 38.7866C20.1153 40.0753 22.7715 40.7541 25.4768 40.7541H25.4818C34.3898 40.7541 41.6403 33.5037 41.6452 24.5907C41.6501 20.2719 39.9728 16.2089 36.9181 13.1543ZM25.4867 38.0241H25.4818C23.0715 38.0241 20.7055 37.3749 18.6445 36.1501L18.1526 35.8598L13.0665 37.1929L14.4241 32.2346L14.1044 31.728C12.7616 29.5883 12.0483 27.119 12.0483 24.5759C12.0532 17.1681 18.0789 11.1425 25.4916 11.1425C29.0824 11.1425 32.4518 12.5444 34.9899 15.0825C37.5281 17.6207 38.925 20.9999 38.9201 24.5858C38.9201 31.9985 32.8896 38.0241 25.4867 38.0241ZM32.8552 27.9601C32.4518 27.7585 30.4646 26.7796 30.0957 26.6468C29.7268 26.514 29.4562 26.4451 29.1857 26.8485C28.9151 27.2518 28.1429 28.1618 27.9068 28.4323C27.6707 28.7029 27.4346 28.7373 27.0312 28.5356C26.6279 28.334 25.3244 27.906 23.7848 26.5287C22.5846 25.4564 21.7729 24.1333 21.5368 23.7299C21.3007 23.3266 21.5122 23.1052 21.7139 22.9035C21.8959 22.7215 22.1173 22.4313 22.3189 22.1952C22.5206 21.9591 22.5895 21.7919 22.7223 21.5213C22.8551 21.2508 22.7911 21.0147 22.6878 20.813C22.5846 20.6113 21.7779 18.6241 21.4434 17.8125C21.1138 17.0255 20.7842 17.1337 20.5334 17.1189C20.2973 17.1091 20.0267 17.1042 19.7611 17.1042C19.4906 17.1042 19.0528 17.2075 18.6839 17.6108C18.315 18.0142 17.2722 18.993 17.2722 20.9803C17.2722 22.9675 18.7183 24.8908 18.92 25.1564C19.1217 25.4269 21.768 29.5047 25.8212 31.2558C26.7853 31.6739 27.5379 31.9198 28.1232 32.1067C29.0922 32.4166 29.9727 32.3724 30.6663 32.2691C31.4434 32.151 33.0568 31.2902 33.3913 30.3507C33.7258 29.4063 33.7258 28.5996 33.6274 28.4323C33.529 28.2651 33.2585 28.1667 32.8552 27.9601Z" fill="white"/>
</g>
<defs>
<clipPath id="clip0_707_18946">
<rect width="49.1887" height="49.1887" fill="white" transform="translate(0.8125)"/>
</clipPath>
</defs>
</svg>
